<?xml version="1.0" encoding="UTF-8"?>
<!DOCTYPE svg PUBLIC "-//W3C//DTD SVG 1.1//EN" "http://www.w3.org/Graphics/SVG/1.1/DTD/svg11.dtd">
<svg xmlns="http://www.w3.org/2000/svg" version="1.1" width="600px" height="600px" style="shape-rendering:geometricPrecision; text-rendering:geometricPrecision; image-rendering:optimizeQuality; fill-rule:evenodd; clip-rule:evenodd" xmlns:xlink="http://www.w3.org/1999/xlink">
<g><path style="opacity:0.008" fill="#3c92f9" d="M 296.5,5.5 C 297.833,6.16667 297.833,6.16667 296.5,5.5 Z"/></g>
<g><path style="opacity:0.008" fill="#3c92f9" d="M 301.5,5.5 C 302.833,6.16667 302.833,6.16667 301.5,5.5 Z"/></g>
<g><path style="opacity:0.934" fill="#3b90f8" d="M 307.5,10.5 C 309.336,12.588 311.669,13.9213 314.5,14.5C 318.164,17.3346 322.164,19.668 326.5,21.5C 328.336,23.588 330.669,24.9213 333.5,25.5C 335.336,27.588 337.669,28.9213 340.5,29.5C 341.899,30.8897 343.566,31.8897 345.5,32.5C 347.663,34.0828 349.996,35.4161 352.5,36.5C 354.336,38.588 356.669,39.9213 359.5,40.5C 361.336,42.588 363.669,43.9213 366.5,44.5C 367.899,45.8897 369.566,46.8897 371.5,47.5C 373.663,49.0828 375.996,50.4161 378.5,51.5C 380.336,53.588 382.669,54.9213 385.5,55.5C 387.336,57.588 389.669,58.9213 392.5,59.5C 393.899,60.8897 395.566,61.8897 397.5,62.5C 399.336,64.588 401.669,65.9213 404.5,66.5C 406.336,68.588 408.669,69.9213 411.5,70.5C 415.164,73.3346 419.164,75.668 423.5,77.5C 425.336,79.588 427.669,80.9213 430.5,81.5C 432.336,83.588 434.669,84.9213 437.5,85.5C 438.899,86.8897 440.566,87.8897 442.5,88.5C 444.663,90.0828 446.996,91.4161 449.5,92.5C 451.336,94.588 453.669,95.9213 456.5,96.5C 458.336,98.588 460.669,99.9213 463.5,100.5C 464.899,101.89 466.566,102.89 468.5,103.5C 470.663,105.083 472.996,106.416 475.5,107.5C 477.336,109.588 479.669,110.921 482.5,111.5C 484.336,113.588 486.669,114.921 489.5,115.5C 490.899,116.89 492.566,117.89 494.5,118.5C 496.336,120.588 498.669,121.921 501.5,122.5C 503.336,124.588 505.669,125.921 508.5,126.5C 512.164,129.335 516.164,131.668 520.5,133.5C 522.336,135.588 524.669,136.921 527.5,137.5C 529.336,139.588 531.669,140.921 534.5,141.5C 535.899,142.89 537.566,143.89 539.5,144.5C 541.663,146.083 543.996,147.416 546.5,148.5C 546.842,149.338 547.508,149.672 548.5,149.5C 550.094,150.983 551.76,152.483 553.5,154C 553.5,251 553.5,348 553.5,445C 551.76,446.517 550.094,448.017 548.5,449.5C 547.508,449.328 546.842,449.662 546.5,450.5C 544.566,451.11 542.899,452.11 541.5,453.5C 540.508,453.328 539.842,453.662 539.5,454.5C 537.566,455.11 535.899,456.11 534.5,457.5C 531.669,458.079 529.336,459.412 527.5,461.5C 524.669,462.079 522.336,463.412 520.5,465.5C 516.164,467.332 512.164,469.665 508.5,472.5C 505.669,473.079 503.336,474.412 501.5,476.5C 498.669,477.079 496.336,478.412 494.5,480.5C 492.566,481.11 490.899,482.11 489.5,483.5C 486.669,484.079 484.336,485.412 482.5,487.5C 479.669,488.079 477.336,489.412 475.5,491.5C 473.566,492.11 471.899,493.11 470.5,494.5C 469.508,494.328 468.842,494.662 468.5,495.5C 466.566,496.11 464.899,497.11 463.5,498.5C 460.669,499.079 458.336,500.412 456.5,502.5C 453.669,503.079 451.336,504.412 449.5,506.5C 447.566,507.11 445.899,508.11 444.5,509.5C 443.508,509.328 442.842,509.662 442.5,510.5C 440.566,511.11 438.899,512.11 437.5,513.5C 434.669,514.079 432.336,515.412 430.5,517.5C 427.669,518.079 425.336,519.412 423.5,521.5C 419.164,523.332 415.164,525.665 411.5,528.5C 408.669,529.079 406.336,530.412 404.5,532.5C 401.669,533.079 399.336,534.412 397.5,536.5C 395.566,537.11 393.899,538.11 392.5,539.5C 389.669,540.079 387.336,541.412 385.5,543.5C 382.669,544.079 380.336,545.412 378.5,547.5C 376.566,548.11 374.899,549.11 373.5,550.5C 372.508,550.328 371.842,550.662 371.5,551.5C 369.566,552.11 367.899,553.11 366.5,554.5C 363.669,555.079 361.336,556.412 359.5,558.5C 356.669,559.079 354.336,560.412 352.5,562.5C 350.566,563.11 348.899,564.11 347.5,565.5C 346.508,565.328 345.842,565.662 345.5,566.5C 343.566,567.11 341.899,568.11 340.5,569.5C 337.669,570.079 335.336,571.412 333.5,573.5C 330.669,574.079 328.336,575.412 326.5,577.5C 322.164,579.332 318.164,581.665 314.5,584.5C 311.669,585.079 309.336,586.412 307.5,588.5C 304.622,589.37 301.955,590.703 299.5,592.5C 297.045,590.703 294.378,589.37 291.5,588.5C 289.664,586.412 287.331,585.079 284.5,584.5C 280.836,581.665 276.836,579.332 272.5,577.5C 270.664,575.412 268.331,574.079 265.5,573.5C 263.664,571.412 261.331,570.079 258.5,569.5C 257.101,568.11 255.434,567.11 253.5,566.5C 251.337,564.917 249.004,563.584 246.5,562.5C 244.664,560.412 242.331,559.079 239.5,558.5C 237.664,556.412 235.331,555.079 232.5,554.5C 231.101,553.11 229.434,552.11 227.5,551.5C 225.337,549.917 223.004,548.584 220.5,547.5C 218.664,545.412 216.331,544.079 213.5,543.5C 211.664,541.412 209.331,540.079 206.5,539.5C 205.101,538.11 203.434,537.11 201.5,536.5C 199.664,534.412 197.331,533.079 194.5,532.5C 192.664,530.412 190.331,529.079 187.5,528.5C 183.836,525.665 179.836,523.332 175.5,521.5C 173.664,519.412 171.331,518.079 168.5,517.5C 166.664,515.412 164.331,514.079 161.5,513.5C 160.101,512.11 158.434,511.11 156.5,510.5C 154.337,508.917 152.004,507.584 149.5,506.5C 147.664,504.412 145.331,503.079 142.5,502.5C 140.664,500.412 138.331,499.079 135.5,498.5C 134.101,497.11 132.434,496.11 130.5,495.5C 128.337,493.917 126.004,492.584 123.5,491.5C 121.664,489.412 119.331,488.079 116.5,487.5C 114.664,485.412 112.331,484.079 109.5,483.5C 108.101,482.11 106.434,481.11 104.5,480.5C 102.664,478.412 100.331,477.079 97.5,476.5C 95.6644,474.412 93.3311,473.079 90.5,472.5C 86.8362,469.665 82.8362,467.332 78.5,465.5C 76.6644,463.412 74.3311,462.079 71.5,461.5C 69.6644,459.412 67.3311,458.079 64.5,457.5C 63.1007,456.11 61.4341,455.11 59.5,454.5C 57.3374,452.917 55.0041,451.584 52.5,450.5C 50.2359,448.686 47.9025,446.853 45.5,445C 45.5,348 45.5,251 45.5,154C 47.9025,152.147 50.2359,150.314 52.5,148.5C 55.0041,147.416 57.3374,146.083 59.5,144.5C 61.4341,143.89 63.1007,142.89 64.5,141.5C 67.3311,140.921 69.6644,139.588 71.5,137.5C 74.3311,136.921 76.6644,135.588 78.5,133.5C 82.8362,131.668 86.8362,129.335 90.5,126.5C 93.3311,125.921 95.6644,124.588 97.5,122.5C 100.331,121.921 102.664,120.588 104.5,118.5C 106.434,117.89 108.101,116.89 109.5,115.5C 112.331,114.921 114.664,113.588 116.5,111.5C 119.331,110.921 121.664,109.588 123.5,107.5C 126.004,106.416 128.337,105.083 130.5,103.5C 132.434,102.89 134.101,101.89 135.5,100.5C 138.331,99.9213 140.664,98.588 142.5,96.5C 145.331,95.9213 147.664,94.588 149.5,92.5C 152.004,91.4161 154.337,90.0828 156.5,88.5C 158.434,87.8897 160.101,86.8897 161.5,85.5C 164.331,84.9213 166.664,83.588 168.5,81.5C 171.331,80.9213 173.664,79.588 175.5,77.5C 179.836,75.668 183.836,73.3346 187.5,70.5C 190.331,69.9213 192.664,68.588 194.5,66.5C 197.331,65.9213 199.664,64.588 201.5,62.5C 203.434,61.8897 205.101,60.8897 206.5,59.5C 209.331,58.9213 211.664,57.588 213.5,55.5C 216.331,54.9213 218.664,53.588 220.5,51.5C 223.004,50.4161 225.337,49.0828 227.5,47.5C 229.434,46.8897 231.101,45.8897 232.5,44.5C 235.331,43.9213 237.664,42.588 239.5,40.5C 242.331,39.9213 244.664,38.588 246.5,36.5C 249.004,35.4161 251.337,34.0828 253.5,32.5C 255.434,31.8897 257.101,30.8897 258.5,29.5C 261.331,28.9213 263.664,27.588 265.5,25.5C 268.331,24.9213 270.664,23.588 272.5,21.5C 276.836,19.668 280.836,17.3346 284.5,14.5C 287.331,13.9213 289.664,12.588 291.5,10.5C 294.378,9.63005 297.045,8.29671 299.5,6.5C 301.955,8.29671 304.622,9.63005 307.5,10.5 Z"/></g>
<g><path style="opacity:0.005" fill="#3c92f9" d="M 291.5,10.5 C 289.025,10.2533 289.025,9.58664 291.5,8.5C 292.463,8.96983 292.463,9.6365 291.5,10.5 Z"/></g>
<g><path style="opacity:0.005" fill="#3c92f9" d="M 307.5,10.5 C 306.632,8.10809 307.299,7.94142 309.5,10C 308.906,10.4643 308.239,10.631 307.5,10.5 Z"/></g>
<g><path style="opacity:0.005" fill="#3c92f9" d="M 284.5,14.5 C 282.025,14.2533 282.025,13.5866 284.5,12.5C 285.463,12.9698 285.463,13.6365 284.5,14.5 Z"/></g>
<g><path style="opacity:0.005" fill="#3c92f9" d="M 314.5,14.5 C 313.632,12.1081 314.299,11.9414 316.5,14C 315.906,14.4643 315.239,14.631 314.5,14.5 Z"/></g>
<g><path style="opacity:0.006" fill="#3c92f9" d="M 272.5,21.5 C 270.025,21.2533 270.025,20.5866 272.5,19.5C 273.463,19.9698 273.463,20.6365 272.5,21.5 Z"/></g>
<g><path style="opacity:0.006" fill="#3c92f9" d="M 326.5,21.5 C 325.632,19.1081 326.299,18.9414 328.5,21C 327.906,21.4643 327.239,21.631 326.5,21.5 Z"/></g>
<g><path style="opacity:0.005" fill="#3c92f9" d="M 265.5,25.5 C 263.025,25.2533 263.025,24.5866 265.5,23.5C 266.463,23.9698 266.463,24.6365 265.5,25.5 Z"/></g>
<g><path style="opacity:0.005" fill="#3c92f9" d="M 333.5,25.5 C 332.632,23.1081 333.299,22.9414 335.5,25C 334.906,25.4643 334.239,25.631 333.5,25.5 Z"/></g>
<g><path style="opacity:1" fill="#3a3bf6" d="M 353.5,55.5 C 329.758,72.2221 306.092,89.2221 282.5,106.5C 281.817,106.137 281.15,105.804 280.5,105.5C 280.586,104.504 280.252,103.671 279.5,103C 277.231,102.242 275.064,102.409 273,103.5C 270.772,111.877 268.439,120.211 266,128.5C 263.826,120.138 261.492,111.805 259,103.5C 256.959,102.577 254.792,102.244 252.5,102.5C 254.294,110.549 256.294,118.549 258.5,126.5C 258.167,130.5 257.833,130.5 257.5,126.5C 254.324,127.34 251.658,129.007 249.5,131.5C 248.671,124.345 248.171,117.011 248,109.5C 247.654,107.152 246.487,105.319 244.5,104C 237.252,101.912 230.085,102.079 223,104.5C 222.506,106.134 222.34,107.801 222.5,109.5C 226.157,108.838 229.824,108.171 233.5,107.5C 241.074,107.751 243.408,111.418 240.5,118.5C 234.624,116.851 228.957,117.351 223.5,120C 218.768,125.035 218.268,130.535 222,136.5C 225.473,138.823 229.306,139.823 233.5,139.5C 233.607,141.903 232.607,143.736 230.5,145C 173.627,185.931 116.96,227.098 60.5,268.5C 60.5,233.167 60.5,197.833 60.5,162.5C 139.331,116.53 218.331,70.6968 297.5,25C 298.833,24.3333 300.167,24.3333 301.5,25C 319.003,35.0301 336.336,45.1968 353.5,55.5 Z"/></g>
<g><path style="opacity:0.005" fill="#3c92f9" d="M 258.5,29.5 C 256.025,29.2533 256.025,28.5866 258.5,27.5C 259.463,27.9698 259.463,28.6365 258.5,29.5 Z"/></g>
<g><path style="opacity:0.005" fill="#3c92f9" d="M 340.5,29.5 C 339.632,27.1081 340.299,26.9414 342.5,29C 341.906,29.4643 341.239,29.631 340.5,29.5 Z"/></g>
<g><path style="opacity:0.006" fill="#3c92f9" d="M 253.5,32.5 C 251.025,32.2533 251.025,31.5866 253.5,30.5C 254.463,30.9698 254.463,31.6365 253.5,32.5 Z"/></g>
<g><path style="opacity:0.006" fill="#3c92f9" d="M 345.5,32.5 C 344.632,30.1081 345.299,29.9414 347.5,32C 346.906,32.4643 346.239,32.631 345.5,32.5 Z"/></g>
<g><path style="opacity:0.006" fill="#3c92f9" d="M 246.5,36.5 C 244.025,36.2533 244.025,35.5866 246.5,34.5C 247.463,34.9698 247.463,35.6365 246.5,36.5 Z"/></g>
<g><path style="opacity:0.006" fill="#3c92f9" d="M 352.5,36.5 C 351.632,34.1081 352.299,33.9414 354.5,36C 353.906,36.4643 353.239,36.631 352.5,36.5 Z"/></g>
<g><path style="opacity:0.005" fill="#3c92f9" d="M 239.5,40.5 C 237.025,40.2533 237.025,39.5866 239.5,38.5C 240.463,38.9698 240.463,39.6365 239.5,40.5 Z"/></g>
<g><path style="opacity:0.005" fill="#3c92f9" d="M 359.5,40.5 C 358.632,38.1081 359.299,37.9414 361.5,40C 360.906,40.4643 360.239,40.631 359.5,40.5 Z"/></g>
<g><path style="opacity:0.005" fill="#3c92f9" d="M 232.5,44.5 C 230.025,44.2533 230.025,43.5866 232.5,42.5C 233.463,42.9698 233.463,43.6365 232.5,44.5 Z"/></g>
<g><path style="opacity:0.005" fill="#3c92f9" d="M 366.5,44.5 C 365.632,42.1081 366.299,41.9414 368.5,44C 367.906,44.4643 367.239,44.631 366.5,44.5 Z"/></g>
<g><path style="opacity:0.006" fill="#3c92f9" d="M 227.5,47.5 C 225.025,47.2533 225.025,46.5866 227.5,45.5C 228.463,45.9698 228.463,46.6365 227.5,47.5 Z"/></g>
<g><path style="opacity:0.006" fill="#3c92f9" d="M 371.5,47.5 C 370.632,45.1081 371.299,44.9414 373.5,47C 372.906,47.4643 372.239,47.631 371.5,47.5 Z"/></g>
<g><path style="opacity:0.006" fill="#3c92f9" d="M 220.5,51.5 C 218.025,51.2533 218.025,50.5866 220.5,49.5C 221.463,49.9698 221.463,50.6365 220.5,51.5 Z"/></g>
<g><path style="opacity:0.006" fill="#3c92f9" d="M 378.5,51.5 C 377.632,49.1081 378.299,48.9414 380.5,51C 379.906,51.4643 379.239,51.631 378.5,51.5 Z"/></g>
<g><path style="opacity:0.005" fill="#3c92f9" d="M 213.5,55.5 C 211.025,55.2533 211.025,54.5866 213.5,53.5C 214.463,53.9698 214.463,54.6365 213.5,55.5 Z"/></g>
<g><path style="opacity:0.005" fill="#3c92f9" d="M 385.5,55.5 C 384.632,53.1081 385.299,52.9414 387.5,55C 386.906,55.4643 386.239,55.631 385.5,55.5 Z"/></g>
<g><path style="opacity:0.005" fill="#3c92f9" d="M 206.5,59.5 C 204.025,59.2533 204.025,58.5866 206.5,57.5C 207.463,57.9698 207.463,58.6365 206.5,59.5 Z"/></g>
<g><path style="opacity:0.005" fill="#3c92f9" d="M 392.5,59.5 C 391.632,57.1081 392.299,56.9414 394.5,59C 393.906,59.4643 393.239,59.631 392.5,59.5 Z"/></g>
<g><path style="opacity:0.006" fill="#3c92f9" d="M 201.5,62.5 C 199.025,62.2533 199.025,61.5866 201.5,60.5C 202.463,60.9698 202.463,61.6365 201.5,62.5 Z"/></g>
<g><path style="opacity:0.006" fill="#3c92f9" d="M 397.5,62.5 C 396.632,60.1081 397.299,59.9414 399.5,62C 398.906,62.4643 398.239,62.631 397.5,62.5 Z"/></g>
<g><path style="opacity:0.005" fill="#3c92f9" d="M 194.5,66.5 C 192.025,66.2533 192.025,65.5866 194.5,64.5C 195.463,64.9698 195.463,65.6365 194.5,66.5 Z"/></g>
<g><path style="opacity:0.005" fill="#3c92f9" d="M 404.5,66.5 C 403.632,64.1081 404.299,63.9414 406.5,66C 405.906,66.4643 405.239,66.631 404.5,66.5 Z"/></g>
<g><path style="opacity:0.005" fill="#3c92f9" d="M 187.5,70.5 C 185.025,70.2533 185.025,69.5866 187.5,68.5C 188.463,68.9698 188.463,69.6365 187.5,70.5 Z"/></g>
<g><path style="opacity:0.005" fill="#3c92f9" d="M 411.5,70.5 C 410.632,68.1081 411.299,67.9414 413.5,70C 412.906,70.4643 412.239,70.631 411.5,70.5 Z"/></g>
<g><path style="opacity:0.006" fill="#3c92f9" d="M 175.5,77.5 C 173.025,77.2533 173.025,76.5866 175.5,75.5C 176.463,75.9698 176.463,76.6365 175.5,77.5 Z"/></g>
<g><path style="opacity:0.006" fill="#3c92f9" d="M 423.5,77.5 C 422.632,75.1081 423.299,74.9414 425.5,77C 424.906,77.4643 424.239,77.631 423.5,77.5 Z"/></g>
<g><path style="opacity:0.005" fill="#3c92f9" d="M 168.5,81.5 C 166.025,81.2533 166.025,80.5866 168.5,79.5C 169.463,79.9698 169.463,80.6365 168.5,81.5 Z"/></g>
<g><path style="opacity:0.005" fill="#3c92f9" d="M 430.5,81.5 C 429.632,79.1081 430.299,78.9414 432.5,81C 431.906,81.4643 431.239,81.631 430.5,81.5 Z"/></g>
<g><path style="opacity:0.005" fill="#3c92f9" d="M 161.5,85.5 C 159.025,85.2533 159.025,84.5866 161.5,83.5C 162.463,83.9698 162.463,84.6365 161.5,85.5 Z"/></g>
<g><path style="opacity:0.005" fill="#3c92f9" d="M 437.5,85.5 C 436.632,83.1081 437.299,82.9414 439.5,85C 438.906,85.4643 438.239,85.631 437.5,85.5 Z"/></g>
<g><path style="opacity:0.006" fill="#3c92f9" d="M 156.5,88.5 C 154.025,88.2533 154.025,87.5866 156.5,86.5C 157.463,86.9698 157.463,87.6365 156.5,88.5 Z"/></g>
<g><path style="opacity:0.006" fill="#3c92f9" d="M 442.5,88.5 C 441.632,86.1081 442.299,85.9414 444.5,88C 443.906,88.4643 443.239,88.631 442.5,88.5 Z"/></g>
<g><path style="opacity:0.006" fill="#3c92f9" d="M 149.5,92.5 C 147.025,92.2533 147.025,91.5866 149.5,90.5C 150.463,90.9698 150.463,91.6365 149.5,92.5 Z"/></g>
<g><path style="opacity:0.006" fill="#3c92f9" d="M 449.5,92.5 C 448.632,90.1081 449.299,89.9414 451.5,92C 450.906,92.4643 450.239,92.631 449.5,92.5 Z"/></g>
<g><path style="opacity:1" fill="#3235e0" d="M 391.5,77.5 C 407.864,86.3436 423.864,95.6769 439.5,105.5C 438.07,105.579 436.736,105.246 435.5,104.5C 415.833,118.667 396.167,132.833 376.5,147C 377.5,147.333 378.5,147.667 379.5,148C 378.263,148.232 377.263,148.732 376.5,149.5C 376.824,153.555 376.491,157.555 375.5,161.5C 365.38,157.289 359.713,160.622 358.5,171.5C 358.637,173.883 358.971,176.217 359.5,178.5C 359.631,179.239 359.464,179.906 359,180.5C 356.861,175.914 355.361,171.247 354.5,166.5C 354.16,163.325 352.493,161.159 349.5,160C 343.798,158.28 339.298,159.78 336,164.5C 334.734,168.395 334.234,172.395 334.5,176.5C 332.465,178.392 330.965,180.725 330,183.5C 329.829,175.656 329.329,167.989 328.5,160.5C 323.5,160.5 318.5,160.5 313.5,160.5C 313.336,157.813 313.503,155.146 314,152.5C 316.381,151.565 318.881,151.232 321.5,151.5C 321.5,150.5 321.5,149.5 321.5,148.5C 312.333,147.337 308.666,151.337 310.5,160.5C 305.167,161.167 305.167,161.833 310.5,162.5C 310.5,169.5 310.5,176.5 310.5,183.5C 311.5,183.5 312.5,183.5 313.5,183.5C 313.5,176.5 313.5,169.5 313.5,162.5C 317.5,162.5 321.5,162.5 325.5,162.5C 325.5,169.5 325.5,176.5 325.5,183.5C 314.014,192.742 302.347,201.742 290.5,210.5C 264.5,210.5 238.5,210.5 212.5,210.5C 224.118,202.217 235.451,193.55 246.5,184.5C 249.85,184.665 253.183,184.498 256.5,184C 258.405,183.174 258.739,182.007 257.5,180.5C 253.701,181.793 250.034,181.793 246.5,180.5C 247.239,180.631 247.906,180.464 248.5,180C 247.328,179.581 246.328,178.915 245.5,178C 246.641,177.259 246.641,176.425 245.5,175.5C 250.846,175.033 256.012,174.033 261,172.5C 262.254,175.976 262.921,179.642 263,183.5C 263.69,184.738 264.19,184.738 264.5,183.5C 265.5,183.5 266.5,183.5 267.5,183.5C 267.171,177.463 267.504,171.463 268.5,165.5C 270.578,163.014 273.245,162.014 276.5,162.5C 277.167,163.833 277.833,163.833 278.5,162.5C 280.167,162.5 281.833,162.5 283.5,162.5C 283.334,168.842 283.5,175.175 284,181.5C 285.353,182.704 287.019,183.371 289,183.5C 290.5,183.167 292,182.833 293.5,182.5C 291.314,181.779 289.147,181.113 287,180.5C 286.501,174.509 286.334,168.509 286.5,162.5C 288.924,162.808 291.257,162.474 293.5,161.5C 291.031,160.832 288.698,160.165 286.5,159.5C 288.857,159.663 291.19,159.497 293.5,159C 291.866,158.506 290.199,158.34 288.5,158.5C 288.343,157.127 288.51,155.793 289,154.5C 294.744,150.045 300.577,145.711 306.5,141.5C 307.386,140.675 307.719,139.675 307.5,138.5C 311.78,139.54 316.113,139.706 320.5,139C 328.087,136.997 330.92,132.164 329,124.5C 327.975,122.313 326.475,120.646 324.5,119.5C 328.133,118.236 330.633,119.57 332,123.5C 333.378,121.787 335.045,120.453 337,119.5C 337.333,123.833 337.667,128.167 338,132.5C 338.171,124.323 338.671,116.323 339.5,108.5C 339.334,116.507 339.5,124.507 340,132.5C 346.419,136.293 352.919,139.96 359.5,143.5C 365.67,139.581 372.003,135.914 378.5,132.5C 379.665,124.521 379.832,116.521 379,108.5C 373.994,105.637 369.161,102.637 364.5,99.5C 372.564,93.3564 381.23,87.0231 390.5,80.5C 391.386,79.675 391.719,78.675 391.5,77.5 Z"/></g>
<g><path style="opacity:0.005" fill="#3c92f9" d="M 142.5,96.5 C 140.025,96.2533 140.025,95.5866 142.5,94.5C 143.463,94.9698 143.463,95.6365 142.5,96.5 Z"/></g>
<g><path style="opacity:0.005" fill="#3c92f9" d="M 456.5,96.5 C 455.632,94.1081 456.299,93.9414 458.5,96C 457.906,96.4643 457.239,96.631 456.5,96.5 Z"/></g>
<g><path style="opacity:0.005" fill="#3c92f9" d="M 135.5,100.5 C 133.025,100.253 133.025,99.5866 135.5,98.5C 136.463,98.9698 136.463,99.6365 135.5,100.5 Z"/></g>
<g><path style="opacity:0.005" fill="#3c92f9" d="M 463.5,100.5 C 462.632,98.1081 463.299,97.9414 465.5,100C 464.906,100.464 464.239,100.631 463.5,100.5 Z"/></g>
<g><path style="opacity:1" fill="#f6971f" d="M 364.5,99.5 C 369.161,102.637 373.994,105.637 379,108.5C 379.832,116.521 379.665,124.521 378.5,132.5C 372.003,135.914 365.67,139.581 359.5,143.5C 352.919,139.96 346.419,136.293 340,132.5C 339.5,124.507 339.334,116.507 339.5,108.5C 345.353,104.828 351.353,101.328 357.5,98C 359.922,97.8648 362.255,98.3648 364.5,99.5 Z"/></g>
<g><path style="opacity:0.006" fill="#3c92f9" d="M 130.5,103.5 C 128.025,103.253 128.025,102.587 130.5,101.5C 131.463,101.97 131.463,102.637 130.5,103.5 Z"/></g>
<g><path style="opacity:0.006" fill="#3c92f9" d="M 468.5,103.5 C 467.632,101.108 468.299,100.941 470.5,103C 469.906,103.464 469.239,103.631 468.5,103.5 Z"/></g>
<g><path style="opacity:1" fill="#f7f7fe" d="M 249.5,131.5 C 251.485,135.371 250.318,137.704 246,138.5C 244.233,137.66 242.899,136.327 242,134.5C 239.477,136.827 236.643,138.493 233.5,139.5C 229.306,139.823 225.473,138.823 222,136.5C 218.268,130.535 218.768,125.035 223.5,120C 228.957,117.351 234.624,116.851 240.5,118.5C 243.408,111.418 241.074,107.751 233.5,107.5C 229.824,108.171 226.157,108.838 222.5,109.5C 222.34,107.801 222.506,106.134 223,104.5C 230.085,102.079 237.252,101.912 244.5,104C 246.487,105.319 247.654,107.152 248,109.5C 248.171,117.011 248.671,124.345 249.5,131.5 Z"/></g>
<g><path style="opacity:1" fill="#f5f5fe" d="M 324.5,119.5 C 326.475,120.646 327.975,122.313 329,124.5C 330.92,132.164 328.087,136.997 320.5,139C 316.113,139.706 311.78,139.54 307.5,138.5C 304.013,137.517 302.68,135.183 303.5,131.5C 308.671,133.349 314.004,133.849 319.5,133C 322.553,131.419 323.22,129.086 321.5,126C 316.154,124.219 310.987,122.053 306,119.5C 301.552,112.218 303.052,106.718 310.5,103C 316.187,102.026 321.687,102.526 327,104.5C 327.494,106.134 327.66,107.801 327.5,109.5C 322.997,107.722 318.331,107.222 313.5,108C 309.524,110.617 309.524,113.284 313.5,116C 317.032,117.632 320.699,118.799 324.5,119.5 Z"/></g>
<g><path style="opacity:1" fill="#f5f4fe" d="M 280.5,105.5 C 282.502,113.172 284.502,120.838 286.5,128.5C 289.149,120.244 291.649,111.911 294,103.5C 296.041,102.577 298.208,102.244 300.5,102.5C 297.372,114.552 294.039,126.552 290.5,138.5C 287.833,138.5 285.167,138.5 282.5,138.5C 280.862,129.647 278.695,120.98 276,112.5C 273.989,120.877 271.822,129.21 269.5,137.5C 267.167,138.833 264.833,138.833 262.5,137.5C 261.133,133.724 259.8,130.057 258.5,126.5C 256.294,118.549 254.294,110.549 252.5,102.5C 254.792,102.244 256.959,102.577 259,103.5C 261.492,111.805 263.826,120.138 266,128.5C 268.439,120.211 270.772,111.877 273,103.5C 275.064,102.409 277.231,102.242 279.5,103C 280.252,103.671 280.586,104.504 280.5,105.5 Z"/></g>
<g><path style="opacity:0.005" fill="#3c92f9" d="M 123.5,107.5 C 121.025,107.253 121.025,106.587 123.5,105.5C 124.463,105.97 124.463,106.637 123.5,107.5 Z"/></g>
<g><path style="opacity:0.005" fill="#3c92f9" d="M 475.5,107.5 C 474.632,105.108 475.299,104.941 477.5,107C 476.906,107.464 476.239,107.631 475.5,107.5 Z"/></g>
<g><path style="opacity:0.005" fill="#3c92f9" d="M 116.5,111.5 C 114.025,111.253 114.025,110.587 116.5,109.5C 117.463,109.97 117.463,110.637 116.5,111.5 Z"/></g>
<g><path style="opacity:0.005" fill="#3c92f9" d="M 482.5,111.5 C 481.632,109.108 482.299,108.941 484.5,111C 483.906,111.464 483.239,111.631 482.5,111.5 Z"/></g>
<g><path style="opacity:1" fill="#fff3e7" d="M 365.5,111.5 C 369.029,110.889 370.862,112.223 371,115.5C 365.833,120.667 360.667,125.833 355.5,131C 354.5,131.667 353.5,131.667 352.5,131C 350.5,129 348.5,127 346.5,125C 347.685,123.647 349.019,122.48 350.5,121.5C 351.62,122.833 352.953,123.333 354.5,123C 358.37,119.298 362.037,115.464 365.5,111.5 Z"/></g>
<g><path style="opacity:0.005" fill="#3c92f9" d="M 109.5,115.5 C 107.025,115.253 107.025,114.587 109.5,113.5C 110.463,113.97 110.463,114.637 109.5,115.5 Z"/></g>
<g><path style="opacity:0.005" fill="#3c92f9" d="M 489.5,115.5 C 488.632,113.108 489.299,112.941 491.5,115C 490.906,115.464 490.239,115.631 489.5,115.5 Z"/></g>
<g><path style="opacity:0.006" fill="#3c92f9" d="M 104.5,118.5 C 102.025,118.253 102.025,117.587 104.5,116.5C 105.463,116.97 105.463,117.637 104.5,118.5 Z"/></g>
<g><path style="opacity:1" fill="#2a31d3" d="M 439.5,105.5 C 451.663,111.411 463.33,118.078 474.5,125.5C 474.703,127.39 474.037,128.89 472.5,130C 436.5,156 400.5,182 364.5,208C 378.006,208.169 391.34,208.669 404.5,209.5C 390.323,209.171 376.323,209.504 362.5,210.5C 338.5,210.5 314.5,210.5 290.5,210.5C 302.347,201.742 314.014,192.742 325.5,183.5C 326.5,183.5 327.5,183.5 328.5,183.5C 328.5,175.833 328.5,168.167 328.5,160.5C 329.329,167.989 329.829,175.656 330,183.5C 330.965,180.725 332.465,178.392 334.5,176.5C 335.41,179.793 337.41,182.293 340.5,184C 344.871,184.629 349.204,184.463 353.5,183.5C 353.5,182.5 353.5,181.5 353.5,180.5C 349.537,181.44 345.537,181.607 341.5,181C 338.922,178.772 337.589,175.939 337.5,172.5C 343.167,172.5 348.833,172.5 354.5,172.5C 354.5,170.5 354.5,168.5 354.5,166.5C 355.361,171.247 356.861,175.914 359,180.5C 359.464,179.906 359.631,179.239 359.5,178.5C 363.124,184.823 368.29,186.157 375,182.5C 376.44,183.148 377.94,183.481 379.5,183.5C 379.5,172.167 379.5,160.833 379.5,149.5C 378.5,149.5 377.5,149.5 376.5,149.5C 377.263,148.732 378.263,148.232 379.5,148C 378.5,147.667 377.5,147.333 376.5,147C 396.167,132.833 415.833,118.667 435.5,104.5C 436.736,105.246 438.07,105.579 439.5,105.5 Z"/></g>
<g><path style="opacity:0.006" fill="#3c92f9" d="M 494.5,118.5 C 493.632,116.108 494.299,115.941 496.5,118C 495.906,118.464 495.239,118.631 494.5,118.5 Z"/></g>
<g><path style="opacity:0.005" fill="#3c92f9" d="M 97.5,122.5 C 95.0248,122.253 95.0248,121.587 97.5,120.5C 98.463,120.97 98.463,121.637 97.5,122.5 Z"/></g>
<g><path style="opacity:0.005" fill="#3c92f9" d="M 501.5,122.5 C 500.632,120.108 501.299,119.941 503.5,122C 502.906,122.464 502.239,122.631 501.5,122.5 Z"/></g>
<g><path style="opacity:1" fill="#413ff6" d="M 230.5,122.5 C 234.167,122.5 237.833,122.5 241.5,122.5C 242.013,131.153 238.013,134.653 229.5,133C 225.336,129.005 225.669,125.505 230.5,122.5 Z"/></g>
<g><path style="opacity:0.005" fill="#3c92f9" d="M 90.5,126.5 C 88.0248,126.253 88.0248,125.587 90.5,124.5C 91.463,124.97 91.463,125.637 90.5,126.5 Z"/></g>
<g><path style="opacity:0.005" fill="#3c92f9" d="M 508.5,126.5 C 507.632,124.108 508.299,123.941 510.5,126C 509.906,126.464 509.239,126.631 508.5,126.5 Z"/></g>
<g><path style="opacity:1" fill="#3638ee" d="M 353.5,55.5 C 366.447,62.4696 379.114,69.8029 391.5,77.5C 391.719,78.675 391.386,79.675 390.5,80.5C 381.23,87.0231 372.564,93.3564 364.5,99.5C 362.255,98.3648 359.922,97.8648 357.5,98C 351.353,101.328 345.353,104.828 339.5,108.5C 338.671,116.323 338.171,124.323 338,132.5C 337.667,128.167 337.333,123.833 337,119.5C 335.045,120.453 333.378,121.787 332,123.5C 330.633,119.57 328.133,118.236 324.5,119.5C 320.699,118.799 317.032,117.632 313.5,116C 309.524,113.284 309.524,110.617 313.5,108C 318.331,107.222 322.997,107.722 327.5,109.5C 327.66,107.801 327.494,106.134 327,104.5C 321.687,102.526 316.187,102.026 310.5,103C 303.052,106.718 301.552,112.218 306,119.5C 310.987,122.053 316.154,124.219 321.5,126C 323.22,129.086 322.553,131.419 319.5,133C 314.004,133.849 308.671,133.349 303.5,131.5C 302.68,135.183 304.013,137.517 307.5,138.5C 307.719,139.675 307.386,140.675 306.5,141.5C 300.577,145.711 294.744,150.045 289,154.5C 288.51,155.793 288.343,157.127 288.5,158.5C 290.199,158.34 291.866,158.506 293.5,159C 291.19,159.497 288.857,159.663 286.5,159.5C 286.5,157.5 286.5,155.5 286.5,153.5C 285.5,153.5 284.5,153.5 283.5,153.5C 283.5,155.833 283.5,158.167 283.5,160.5C 281.219,160.077 279.552,160.744 278.5,162.5C 277.833,163.833 277.167,163.833 276.5,162.5C 273.938,160.03 271.105,160.03 268,162.5C 267.29,161.027 266.124,160.36 264.5,160.5C 264.5,168.167 264.5,175.833 264.5,183.5C 264.19,184.738 263.69,184.738 263,183.5C 262.921,179.642 262.254,175.976 261,172.5C 256.012,174.033 250.846,175.033 245.5,175.5C 246.641,176.425 246.641,177.259 245.5,178C 246.328,178.915 247.328,179.581 248.5,180C 247.906,180.464 247.239,180.631 246.5,180.5C 243.851,178.588 242.518,175.921 242.5,172.5C 248.167,172.5 253.833,172.5 259.5,172.5C 261.157,164.442 257.99,160.109 250,159.5C 245.057,159.631 241.724,161.964 240,166.5C 239.023,171.734 239.69,176.734 242,181.5C 243.271,182.883 244.771,183.883 246.5,184.5C 235.451,193.55 224.118,202.217 212.5,210.5C 193.155,210.167 173.822,210.5 154.5,211.5C 172.488,212.5 190.488,212.833 208.5,212.5C 208.5,212.833 208.5,213.167 208.5,213.5C 196.379,221.781 184.379,230.281 172.5,239C 173.167,239.333 173.833,239.667 174.5,240C 173.244,240.417 172.577,241.25 172.5,242.5C 172.167,242.5 171.833,242.5 171.5,242.5C 169.281,241.46 167.281,241.96 165.5,244C 130.622,269.718 95.6218,295.218 60.5,320.5C 60.5,303.167 60.5,285.833 60.5,268.5C 116.96,227.098 173.627,185.931 230.5,145C 232.607,143.736 233.607,141.903 233.5,139.5C 236.643,138.493 239.477,136.827 242,134.5C 242.899,136.327 244.233,137.66 246,138.5C 250.318,137.704 251.485,135.371 249.5,131.5C 251.658,129.007 254.324,127.34 257.5,126.5C 257.833,130.5 258.167,130.5 258.5,126.5C 259.8,130.057 261.133,133.724 262.5,137.5C 264.833,138.833 267.167,138.833 269.5,137.5C 271.822,129.21 273.989,120.877 276,112.5C 278.695,120.98 280.862,129.647 282.5,138.5C 285.167,138.5 287.833,138.5 290.5,138.5C 294.039,126.552 297.372,114.552 300.5,102.5C 298.208,102.244 296.041,102.577 294,103.5C 291.649,111.911 289.149,120.244 286.5,128.5C 284.502,120.838 282.502,113.172 280.5,105.5C 281.15,105.804 281.817,106.137 282.5,106.5C 306.092,89.2221 329.758,72.2221 353.5,55.5 Z"/></g>
<g><path style="opacity:1" fill="#262ecb" d="M 474.5,125.5 C 482.836,129.665 490.836,134.332 498.5,139.5C 498.217,140.216 497.884,141.049 497.5,142C 466.99,163.755 436.656,185.755 406.5,208C 419.167,208.333 431.833,208.667 444.5,209C 431.171,209.5 417.837,209.667 404.5,209.5C 391.34,208.669 378.006,208.169 364.5,208C 400.5,182 436.5,156 472.5,130C 474.037,128.89 474.703,127.39 474.5,125.5 Z"/></g>
<g><path style="opacity:0.006" fill="#3c92f9" d="M 78.5,133.5 C 76.0248,133.253 76.0248,132.587 78.5,131.5C 79.463,131.97 79.463,132.637 78.5,133.5 Z"/></g>
<g><path style="opacity:0.006" fill="#3c92f9" d="M 520.5,133.5 C 519.632,131.108 520.299,130.941 522.5,133C 521.906,133.464 521.239,133.631 520.5,133.5 Z"/></g>
<g><path style="opacity:0.005" fill="#3c92f9" d="M 71.5,137.5 C 69.0248,137.253 69.0248,136.587 71.5,135.5C 72.463,135.97 72.463,136.637 71.5,137.5 Z"/></g>
<g><path style="opacity:0.005" fill="#3c92f9" d="M 527.5,137.5 C 526.632,135.108 527.299,134.941 529.5,137C 528.906,137.464 528.239,137.631 527.5,137.5 Z"/></g>
<g><path style="opacity:0.005" fill="#3c92f9" d="M 64.5,141.5 C 62.0248,141.253 62.0248,140.587 64.5,139.5C 65.463,139.97 65.463,140.637 64.5,141.5 Z"/></g>
<g><path style="opacity:0.005" fill="#3c92f9" d="M 534.5,141.5 C 533.632,139.108 534.299,138.941 536.5,141C 535.906,141.464 535.239,141.631 534.5,141.5 Z"/></g>
<g><path style="opacity:0.006" fill="#3c92f9" d="M 59.5,144.5 C 57.0248,144.253 57.0248,143.587 59.5,142.5C 60.463,142.97 60.463,143.637 59.5,144.5 Z"/></g>
<g><path style="opacity:0.006" fill="#3c92f9" d="M 539.5,144.5 C 538.632,142.108 539.299,141.941 541.5,144C 540.906,144.464 540.239,144.631 539.5,144.5 Z"/></g>
<g><path style="opacity:0.006" fill="#3c92f9" d="M 52.5,148.5 C 50.0248,148.253 50.0248,147.587 52.5,146.5C 53.463,146.97 53.463,147.637 52.5,148.5 Z"/></g>
<g><path style="opacity:0.006" fill="#3c92f9" d="M 548.5,148.5 C 547.833,148.5 547.167,148.5 546.5,148.5C 545.939,145.813 546.606,145.813 548.5,148.5 Z"/></g>
<g><path style="opacity:0.004" fill="#3c92f9" d="M 548.5,149.5 C 548.5,149.167 548.5,148.833 548.5,148.5C 549.492,148.328 550.158,148.662 550.5,149.5C 549.833,149.5 549.167,149.5 548.5,149.5 Z"/></g>
<g><path style="opacity:0.006" fill="#3c92f9" d="M 46.5,150.5 C 46.8966,149.475 47.5632,149.308 48.5,150C 47.9056,150.464 47.2389,150.631 46.5,150.5 Z"/></g>
<g><path style="opacity:1" fill="#f0f0fc" d="M 328.5,160.5 C 328.5,168.167 328.5,175.833 328.5,183.5C 327.5,183.5 326.5,183.5 325.5,183.5C 325.5,176.5 325.5,169.5 325.5,162.5C 321.5,162.5 317.5,162.5 313.5,162.5C 313.5,169.5 313.5,176.5 313.5,183.5C 312.5,183.5 311.5,183.5 310.5,183.5C 310.5,176.5 310.5,169.5 310.5,162.5C 305.167,161.833 305.167,161.167 310.5,160.5C 308.666,151.337 312.333,147.337 321.5,148.5C 321.5,149.5 321.5,150.5 321.5,151.5C 318.881,151.232 316.381,151.565 314,152.5C 313.503,155.146 313.336,157.813 313.5,160.5C 318.5,160.5 323.5,160.5 328.5,160.5 Z"/></g>
<g><path style="opacity:0.006" fill="#3c92f9" d="M 550.5,149.5 C 551.492,149.328 552.158,149.662 552.5,150.5C 551.508,150.672 550.842,150.338 550.5,149.5 Z"/></g>
<g><path style="opacity:0.004" fill="#3c92f9" d="M 46.5,150.5 C 45.8333,151.167 45.8333,151.167 46.5,150.5 Z"/></g>
<g><path style="opacity:0.004" fill="#3c92f9" d="M 552.5,150.5 C 553.167,150.5 553.5,150.833 553.5,151.5C 553.167,151.167 552.833,150.833 552.5,150.5 Z"/></g>
<g><path style="opacity:0.004" fill="#3c92f9" d="M 45.5,151.5 C 44.8333,152.167 44.8333,152.167 45.5,151.5 Z"/></g>
<g><path style="opacity:1" fill="#e7e6fc" d="M 298.5,151.5 C 299.833,151.5 301.167,151.5 302.5,151.5C 302.833,154.5 301.5,155.833 298.5,155.5C 298.5,154.167 298.5,152.833 298.5,151.5 Z"/></g>
<g><path style="opacity:1" fill="#e5e4fb" d="M 325.5,151.5 C 326.833,151.5 328.167,151.5 329.5,151.5C 329.5,152.833 329.5,154.167 329.5,155.5C 328.167,155.5 326.833,155.5 325.5,155.5C 325.5,154.167 325.5,152.833 325.5,151.5 Z"/></g>
<g><path style="opacity:0.004" fill="#3c92f9" d="M 553.5,151.5 C 554.833,152.167 554.833,152.167 553.5,151.5 Z"/></g>
<g><path style="opacity:1" fill="#f1f1fd" d="M 286.5,159.5 C 288.698,160.165 291.031,160.832 293.5,161.5C 291.257,162.474 288.924,162.808 286.5,162.5C 286.334,168.509 286.501,174.509 287,180.5C 289.147,181.113 291.314,181.779 293.5,182.5C 292,182.833 290.5,183.167 289,183.5C 287.019,183.371 285.353,182.704 284,181.5C 283.5,175.175 283.334,168.842 283.5,162.5C 281.833,162.5 280.167,162.5 278.5,162.5C 279.552,160.744 281.219,160.077 283.5,160.5C 283.5,158.167 283.5,155.833 283.5,153.5C 284.5,153.5 285.5,153.5 286.5,153.5C 286.5,155.5 286.5,157.5 286.5,159.5 Z"/></g>
<g><path style="opacity:1" fill="#232cc0" d="M 498.5,139.5 C 511.607,146.556 524.607,153.889 537.5,161.5C 538.386,162.325 538.719,163.325 538.5,164.5C 496.18,195.236 456.513,224.236 419.5,251.5C 410.205,253.346 407.538,258.68 411.5,267.5C 409.665,266.878 408.498,265.544 408,263.5C 407.845,261.144 407.845,258.811 408,256.5C 406.442,257.345 405.442,256.679 405,254.5C 404.536,255.094 404.369,255.761 404.5,256.5C 403.942,254.407 402.609,252.907 400.5,252C 395.111,250.868 390.111,251.702 385.5,254.5C 384.702,254.043 384.369,253.376 384.5,252.5C 381.375,251.521 378.042,251.187 374.5,251.5C 374.5,261.833 374.5,272.167 374.5,282.5C 365.229,290.743 354.562,298.909 342.5,307C 342.167,307.333 341.833,307.667 341.5,308C 342.672,308.419 343.672,309.085 344.5,310C 344.272,310.399 343.938,310.565 343.5,310.5C 340.833,310.5 338.167,310.5 335.5,310.5C 335.5,307.833 335.5,305.167 335.5,302.5C 332.5,302.5 329.5,302.5 326.5,302.5C 326.067,305.166 325.567,307.832 325,310.5C 323.644,311.38 322.144,311.714 320.5,311.5C 320.5,313.833 320.5,316.167 320.5,318.5C 321.833,318.5 323.167,318.5 324.5,318.5C 324.334,324.176 324.501,329.843 325,335.5C 325.564,337.887 326.73,339.887 328.5,341.5C 327.761,341.369 327.094,341.536 326.5,342C 327.833,343 327.833,344 326.5,345C 313.433,354.521 300.433,364.021 287.5,373.5C 263.833,373.5 240.167,373.5 216.5,373.5C 227.739,364.201 239.406,355.368 251.5,347C 253.888,345.139 256.554,343.806 259.5,343C 255.975,342.821 252.641,342.321 249.5,341.5C 253.571,341.766 257.571,341.433 261.5,340.5C 262.474,338.257 262.808,335.924 262.5,333.5C 251.91,335.927 247.744,331.927 250,321.5C 253.309,318.353 257.142,317.687 261.5,319.5C 262.474,317.257 262.808,314.924 262.5,312.5C 263.309,314.292 263.809,316.292 264,318.5C 264.216,316.616 264.883,314.949 266,313.5C 266.333,322.833 266.667,332.167 267,341.5C 267.169,326.661 267.669,311.994 268.5,297.5C 268.5,312.167 268.5,326.833 268.5,341.5C 272.167,341.5 275.833,341.5 279.5,341.5C 279.334,334.159 279.5,326.826 280,319.5C 282.041,318.577 284.208,318.244 286.5,318.5C 286.5,326.167 286.5,333.833 286.5,341.5C 290.5,341.5 294.5,341.5 298.5,341.5C 298.666,332.494 298.5,323.494 298,314.5C 292.697,309.985 286.864,309.318 280.5,312.5C 279.506,307.544 279.173,302.544 279.5,297.5C 280.324,301.312 280.824,305.312 281,309.5C 281.499,305.514 281.666,301.514 281.5,297.5C 282.552,297.649 283.552,297.483 284.5,297C 289.167,293.667 293.833,290.333 298.5,287C 300.037,285.89 300.703,284.39 300.5,282.5C 305.5,283.833 310.5,283.833 315.5,282.5C 315.5,279.833 315.5,277.167 315.5,274.5C 312.941,274.802 310.607,274.468 308.5,273.5C 311.881,273.54 315.214,273.207 318.5,272.5C 318.5,276.5 318.5,280.5 318.5,284.5C 322.846,284.666 327.179,284.499 331.5,284C 327.644,283.823 323.977,283.323 320.5,282.5C 324.167,282.5 327.833,282.5 331.5,282.5C 331.5,273.167 331.5,263.833 331.5,254.5C 332.33,263.658 332.83,272.991 333,282.5C 333.333,275.167 333.667,267.833 334,260.5C 334.548,264.109 335.214,267.775 336,271.5C 336.191,269.292 336.691,267.292 337.5,265.5C 338.752,282.637 347.419,287.803 363.5,281C 367.444,277.004 369.11,272.17 368.5,266.5C 369.315,258.814 365.982,253.98 358.5,252C 355.183,251.502 351.85,251.335 348.5,251.5C 350.631,250.686 352.964,250.186 355.5,250C 352.833,249.667 350.167,249.333 347.5,249C 349.608,248.64 351.608,247.973 353.5,247C 367.655,236.09 381.988,225.423 396.5,215C 412.5,214.667 428.5,214.333 444.5,214C 415.33,213.832 386.33,213.332 357.5,212.5C 386.508,212.833 415.508,212.5 444.5,211.5C 417.175,210.5 389.841,210.167 362.5,210.5C 376.323,209.504 390.323,209.171 404.5,209.5C 417.837,209.667 431.171,209.5 444.5,209C 431.833,208.667 419.167,208.333 406.5,208C 436.656,185.755 466.99,163.755 497.5,142C 497.884,141.049 498.217,140.216 498.5,139.5 Z"/></g>
<g><path style="opacity:1" fill="#ebeafd" d="M 246.5,180.5 C 250.034,181.793 253.701,181.793 257.5,180.5C 258.739,182.007 258.405,183.174 256.5,184C 253.183,184.498 249.85,184.665 246.5,184.5C 244.771,183.883 243.271,182.883 242,181.5C 239.69,176.734 239.023,171.734 240,166.5C 241.724,161.964 245.057,159.631 250,159.5C 257.99,160.109 261.157,164.442 259.5,172.5C 253.833,172.5 248.167,172.5 242.5,172.5C 242.518,175.921 243.851,178.588 246.5,180.5 Z"/></g>
<g><path style="opacity:1" fill="#e9e9fb" d="M 354.5,166.5 C 354.5,168.5 354.5,170.5 354.5,172.5C 348.833,172.5 343.167,172.5 337.5,172.5C 337.589,175.939 338.922,178.772 341.5,181C 345.537,181.607 349.537,181.44 353.5,180.5C 353.5,181.5 353.5,182.5 353.5,183.5C 349.204,184.463 344.871,184.629 340.5,184C 337.41,182.293 335.41,179.793 334.5,176.5C 334.234,172.395 334.734,168.395 336,164.5C 339.298,159.78 343.798,158.28 349.5,160C 352.493,161.159 354.16,163.325 354.5,166.5 Z"/></g>
<g><path style="opacity:1" fill="#ececfb" d="M 376.5,149.5 C 377.5,149.5 378.5,149.5 379.5,149.5C 379.5,160.833 379.5,172.167 379.5,183.5C 377.94,183.481 376.44,183.148 375,182.5C 368.29,186.157 363.124,184.823 359.5,178.5C 358.971,176.217 358.637,173.883 358.5,171.5C 359.713,160.622 365.38,157.289 375.5,161.5C 376.491,157.555 376.824,153.555 376.5,149.5 Z"/></g>
<g><path style="opacity:1" fill="#eae9fd" d="M 226.5,159.5 C 229.881,159.46 233.214,159.793 236.5,160.5C 236.719,161.675 236.386,162.675 235.5,163.5C 227.768,160.859 223.435,163.526 222.5,171.5C 222.848,180.178 227.182,183.178 235.5,180.5C 236.386,181.325 236.719,182.325 236.5,183.5C 222.561,186.368 217.061,180.702 220,166.5C 221.694,163.642 223.861,161.309 226.5,159.5 Z"/></g>
<g><path style="opacity:1" fill="#f1f0fd" d="M 276.5,162.5 C 273.245,162.014 270.578,163.014 268.5,165.5C 267.504,171.463 267.171,177.463 267.5,183.5C 266.5,183.5 265.5,183.5 264.5,183.5C 264.5,175.833 264.5,168.167 264.5,160.5C 266.124,160.36 267.29,161.027 268,162.5C 271.105,160.03 273.938,160.03 276.5,162.5 Z"/></g>
<g><path style="opacity:1" fill="#f2f2fd" d="M 298.5,160.5 C 299.5,160.5 300.5,160.5 301.5,160.5C 301.5,168.167 301.5,175.833 301.5,183.5C 300.5,183.5 299.5,183.5 298.5,183.5C 298.5,175.833 298.5,168.167 298.5,160.5 Z"/></g>
<g><path style="opacity:1" fill="#3c3cdd" d="M 341.5,162.5 C 348.175,161.186 351.509,163.853 351.5,170.5C 346.833,170.5 342.167,170.5 337.5,170.5C 337.776,167.281 339.109,164.615 341.5,162.5 Z"/></g>
<g><path style="opacity:1" fill="#4341ec" d="M 246.5,162.5 C 253.175,161.186 256.509,163.853 256.5,170.5C 251.833,170.5 247.167,170.5 242.5,170.5C 242.53,167.148 243.863,164.482 246.5,162.5 Z"/></g>
<g><path style="opacity:1" fill="#3033d6" d="M 365.5,162.5 C 369.516,161.9 373.016,162.9 376,165.5C 376.828,170.202 376.662,174.869 375.5,179.5C 364.531,183.365 360.031,179.365 362,167.5C 362.997,165.677 364.164,164.01 365.5,162.5 Z"/></g>
<g><path style="opacity:1" fill="#1d28b4" d="M 538.5,164.5 C 538.5,183.5 538.5,202.5 538.5,221.5C 500.658,249.169 462.658,276.669 424.5,304C 423.577,306.041 423.244,308.208 423.5,310.5C 421.631,308.365 420.964,305.698 421.5,302.5C 418.482,302.335 415.482,302.502 412.5,303C 411.518,305.738 410.852,308.572 410.5,311.5C 409.167,311.5 407.833,311.5 406.5,311.5C 405.262,311.19 405.262,310.69 406.5,310C 404.288,309.211 402.288,309.378 400.5,310.5C 383.323,308.846 376.49,316.513 380,333.5C 382.027,338.763 385.86,341.43 391.5,341.5C 391.53,342.497 391.03,343.164 390,343.5C 388.838,342.813 387.672,342.647 386.5,343C 374.5,352 362.5,361 350.5,370C 354.833,370.333 359.167,370.667 363.5,371C 364.756,371.417 365.423,372.25 365.5,373.5C 339.5,373.5 313.5,373.5 287.5,373.5C 300.433,364.021 313.433,354.521 326.5,345C 327.833,344 327.833,343 326.5,342C 327.094,341.536 327.761,341.369 328.5,341.5C 333.5,341.5 338.5,341.5 343.5,341.5C 343.5,338.833 343.5,336.167 343.5,333.5C 340.635,333.945 338.135,333.278 336,331.5C 335.501,327.179 335.334,322.846 335.5,318.5C 338.167,318.5 340.833,318.5 343.5,318.5C 343.5,315.833 343.5,313.167 343.5,310.5C 343.938,310.565 344.272,310.399 344.5,310C 343.672,309.085 342.672,308.419 341.5,308C 341.833,307.667 342.167,307.333 342.5,307C 354.562,298.909 365.229,290.743 374.5,282.5C 374.833,282.5 375.167,282.5 375.5,282.5C 379.167,282.5 382.833,282.5 386.5,282.5C 386.334,275.159 386.5,267.826 387,260.5C 389,259.167 391,259.167 393,260.5C 393.5,267.826 393.666,275.159 393.5,282.5C 397.167,282.5 400.833,282.5 404.5,282.5C 404.5,273.833 404.5,265.167 404.5,256.5C 404.369,255.761 404.536,255.094 405,254.5C 405.442,256.679 406.442,257.345 408,256.5C 407.845,258.811 407.845,261.144 408,263.5C 408.498,265.544 409.665,266.878 411.5,267.5C 415.148,269.94 419.148,271.607 423.5,272.5C 423.5,273.5 423.5,274.5 423.5,275.5C 419.02,275.732 414.687,275.065 410.5,273.5C 409.167,276.167 409.167,278.833 410.5,281.5C 416.738,283.991 423.071,284.158 429.5,282C 434.593,277.768 435.593,272.768 432.5,267C 428.253,265.101 424.253,262.934 420.5,260.5C 424.18,259.236 427.847,259.236 431.5,260.5C 432.48,257.914 432.813,255.247 432.5,252.5C 428.202,251.8 423.869,251.467 419.5,251.5C 456.513,224.236 496.18,195.236 538.5,164.5 Z"/></g>
<g><path style="opacity:1" fill="#fefefe" d="M 212.5,210.5 C 238.5,210.5 264.5,210.5 290.5,210.5C 314.5,210.5 338.5,210.5 362.5,210.5C 389.841,210.167 417.175,210.5 444.5,211.5C 415.508,212.5 386.508,212.833 357.5,212.5C 307.833,212.5 258.167,212.5 208.5,212.5C 190.488,212.833 172.488,212.5 154.5,211.5C 173.822,210.5 193.155,210.167 212.5,210.5 Z"/></g>
<g><path style="opacity:1" fill="#f3f2fc" d="M 250.5,238.5 C 250.5,250.5 250.5,262.5 250.5,274.5C 251.833,274.5 253.167,274.5 254.5,274.5C 254.813,277.247 254.48,279.914 253.5,282.5C 245.095,285.802 240.095,283.135 238.5,274.5C 238.5,262.5 238.5,250.5 238.5,238.5C 242.5,238.5 246.5,238.5 250.5,238.5 Z"/></g>
<g><path style="opacity:1" fill="#f8f8fe" d="M 166.5,272.5 C 171.683,274.35 177.017,274.85 182.5,274C 185.915,272.857 186.249,271.19 183.5,269C 179.91,267.47 176.243,266.136 172.5,265C 166.829,260.47 164.996,254.637 167,247.5C 168.707,245.963 170.207,244.296 171.5,242.5C 171.833,242.5 172.167,242.5 172.5,242.5C 179.787,239.958 187.12,239.958 194.5,242.5C 194.817,245.572 194.484,248.572 193.5,251.5C 188.972,249.719 184.305,249.219 179.5,250C 176.833,251.667 176.833,253.333 179.5,255C 185.675,256.67 191.175,259.503 196,263.5C 199.204,273.591 195.704,280.091 185.5,283C 179.168,283.941 173.001,283.441 167,281.5C 166.502,278.518 166.335,275.518 166.5,272.5 Z"/></g>
<g><path style="opacity:1" fill="#1725a7" d="M 538.5,221.5 C 538.5,238.833 538.5,256.167 538.5,273.5C 490.699,308.183 445.033,341.517 401.5,373.5C 389.5,373.5 377.5,373.5 365.5,373.5C 365.423,372.25 364.756,371.417 363.5,371C 359.167,370.667 354.833,370.333 350.5,370C 362.5,361 374.5,352 386.5,343C 387.672,342.647 388.838,342.813 390,343.5C 391.03,343.164 391.53,342.497 391.5,341.5C 395.881,341.628 400.215,341.295 404.5,340.5C 404.813,337.753 404.48,335.086 403.5,332.5C 393.07,335.735 389.07,332.068 391.5,321.5C 395.324,318.167 399.657,317.5 404.5,319.5C 404.5,316.833 404.5,314.167 404.5,311.5C 402.901,311.768 401.568,311.434 400.5,310.5C 402.288,309.378 404.288,309.211 406.5,310C 405.262,310.69 405.262,311.19 406.5,311.5C 405.631,313.717 405.298,316.05 405.5,318.5C 407.167,318.5 408.833,318.5 410.5,318.5C 410.334,324.176 410.501,329.843 411,335.5C 411.346,337.848 412.513,339.681 414.5,341C 419.167,341.667 423.833,341.667 428.5,341C 429.435,338.619 429.768,336.119 429.5,333.5C 426.635,333.945 424.135,333.278 422,331.5C 421.501,327.179 421.334,322.846 421.5,318.5C 424.167,318.5 426.833,318.5 429.5,318.5C 429.5,315.833 429.5,313.167 429.5,310.5C 427.5,310.5 425.5,310.5 423.5,310.5C 423.244,308.208 423.577,306.041 424.5,304C 462.658,276.669 500.658,249.169 538.5,221.5 Z"/></g>
<g><path style="opacity:1" fill="#fafafe" d="M 231.5,258.5 C 232.946,264.536 232.78,270.536 231,276.5C 228.879,280.356 225.712,282.689 221.5,283.5C 205.533,284.025 199.033,276.358 202,260.5C 204.783,253.937 209.783,250.937 217,251.5C 223.254,251.075 228.087,253.409 231.5,258.5 Z"/></g>
<g><path style="opacity:1" fill="#f9f9fd" d="M 348.5,251.5 C 351.85,251.335 355.183,251.502 358.5,252C 365.982,253.98 369.315,258.814 368.5,266.5C 369.11,272.17 367.444,277.004 363.5,281C 347.419,287.803 338.752,282.637 337.5,265.5C 337.449,257.887 341.116,253.22 348.5,251.5 Z"/></g>
<g><path style="opacity:1" fill="#fafafd" d="M 404.5,256.5 C 404.5,265.167 404.5,273.833 404.5,282.5C 400.833,282.5 397.167,282.5 393.5,282.5C 393.666,275.159 393.5,267.826 393,260.5C 391,259.167 389,259.167 387,260.5C 386.5,267.826 386.334,275.159 386.5,282.5C 382.833,282.5 379.167,282.5 375.5,282.5C 375.5,272.5 375.5,262.5 375.5,252.5C 378.5,252.5 381.5,252.5 384.5,252.5C 384.369,253.376 384.702,254.043 385.5,254.5C 390.111,251.702 395.111,250.868 400.5,252C 402.609,252.907 403.942,254.407 404.5,256.5 Z"/></g>
<g><path style="opacity:1" fill="#f4f3fb" d="M 419.5,251.5 C 423.869,251.467 428.202,251.8 432.5,252.5C 432.813,255.247 432.48,257.914 431.5,260.5C 427.847,259.236 424.18,259.236 420.5,260.5C 424.253,262.934 428.253,265.101 432.5,267C 435.593,272.768 434.593,277.768 429.5,282C 423.071,284.158 416.738,283.991 410.5,281.5C 409.167,278.833 409.167,276.167 410.5,273.5C 414.687,275.065 419.02,275.732 423.5,275.5C 423.5,274.5 423.5,273.5 423.5,272.5C 419.148,271.607 415.148,269.94 411.5,267.5C 407.538,258.68 410.205,253.346 419.5,251.5 Z"/></g>
<g><path style="opacity:1" fill="#bcbeec" d="M 384.5,252.5 C 381.5,252.5 378.5,252.5 375.5,252.5C 375.5,262.5 375.5,272.5 375.5,282.5C 375.167,282.5 374.833,282.5 374.5,282.5C 374.5,272.167 374.5,261.833 374.5,251.5C 378.042,251.187 381.375,251.521 384.5,252.5 Z"/></g>
<g><path style="opacity:1" fill="#3135e3" d="M 171.5,242.5 C 170.207,244.296 168.707,245.963 167,247.5C 164.996,254.637 166.829,260.47 172.5,265C 176.243,266.136 179.91,267.47 183.5,269C 186.249,271.19 185.915,272.857 182.5,274C 177.017,274.85 171.683,274.35 166.5,272.5C 131.954,299.453 96.6207,325.453 60.5,350.5C 60.5,340.5 60.5,330.5 60.5,320.5C 95.6218,295.218 130.622,269.718 165.5,244C 167.281,241.96 169.281,241.46 171.5,242.5 Z"/></g>
<g><path style="opacity:1" fill="#3133c5" d="M 351.5,259.5 C 356.17,259.615 358.17,262.115 357.5,267C 357.943,270.952 356.443,273.785 353,275.5C 349.81,273.624 348.31,270.791 348.5,267C 348.106,263.832 349.106,261.332 351.5,259.5 Z"/></g>
<g><path style="opacity:1" fill="#13229f" d="M 538.5,273.5 C 538.5,282.167 538.5,290.833 538.5,299.5C 506.045,322.782 473.712,346.282 441.5,370C 442.624,370.249 443.624,370.749 444.5,371.5C 445.55,372.429 445.55,373.095 444.5,373.5C 430.167,373.5 415.833,373.5 401.5,373.5C 445.033,341.517 490.699,308.183 538.5,273.5 Z"/></g>
<g><path style="opacity:1" fill="#2e33da" d="M 208.5,213.5 C 233.836,213.333 259.169,213.5 284.5,214C 273.314,222.421 261.981,230.588 250.5,238.5C 246.5,238.5 242.5,238.5 238.5,238.5C 238.5,250.5 238.5,262.5 238.5,274.5C 236.692,266.56 235.859,258.227 236,249.5C 233.92,251.123 231.754,252.623 229.5,254C 230.687,255.019 231.687,256.186 232.5,257.5C 232.376,258.107 232.043,258.44 231.5,258.5C 228.087,253.409 223.254,251.075 217,251.5C 209.783,250.937 204.783,253.937 202,260.5C 199.033,276.358 205.533,284.025 221.5,283.5C 222.239,283.369 222.906,283.536 223.5,284C 215.641,290.52 207.474,296.686 199,302.5C 198.952,304.544 199.452,306.544 200.5,308.5C 200.376,309.107 200.043,309.44 199.5,309.5C 198.508,306.862 197.508,304.195 196.5,301.5C 191.833,300.167 187.167,300.167 182.5,301.5C 180.159,308.19 177.826,314.857 175.5,321.5C 173.692,321.491 172.025,321.991 170.5,323C 134.167,349.5 97.8333,376 61.5,402.5C 60.5005,385.179 60.1672,367.846 60.5,350.5C 96.6207,325.453 131.954,299.453 166.5,272.5C 166.335,275.518 166.502,278.518 167,281.5C 173.001,283.441 179.168,283.941 185.5,283C 195.704,280.091 199.204,273.591 196,263.5C 191.175,259.503 185.675,256.67 179.5,255C 176.833,253.333 176.833,251.667 179.5,250C 184.305,249.219 188.972,249.719 193.5,251.5C 194.484,248.572 194.817,245.572 194.5,242.5C 187.12,239.958 179.787,239.958 172.5,242.5C 172.577,241.25 173.244,240.417 174.5,240C 173.833,239.667 173.167,239.333 172.5,239C 184.379,230.281 196.379,221.781 208.5,213.5 Z"/></g>
<g><path style="opacity:1" fill="#2a30d1" d="M 208.5,213.5 C 208.5,213.167 208.5,212.833 208.5,212.5C 258.167,212.5 307.833,212.5 357.5,212.5C 386.33,213.332 415.33,213.832 444.5,214C 428.5,214.333 412.5,214.667 396.5,215C 381.988,225.423 367.655,236.09 353.5,247C 351.608,247.973 349.608,248.64 347.5,249C 350.167,249.333 352.833,249.667 355.5,250C 352.964,250.186 350.631,250.686 348.5,251.5C 341.116,253.22 337.449,257.887 337.5,265.5C 336.691,267.292 336.191,269.292 336,271.5C 335.214,267.775 334.548,264.109 334,260.5C 333.667,267.833 333.333,275.167 333,282.5C 332.83,272.991 332.33,263.658 331.5,254.5C 331.5,253.5 331.5,252.5 331.5,251.5C 327.833,251.5 324.167,251.5 320.5,251.5C 320.5,261.833 320.5,272.167 320.5,282.5C 323.977,283.323 327.644,283.823 331.5,284C 327.179,284.499 322.846,284.666 318.5,284.5C 318.5,280.5 318.5,276.5 318.5,272.5C 315.214,273.207 311.881,273.54 308.5,273.5C 308.5,269.167 308.5,264.833 308.5,260.5C 311.059,260.802 313.393,260.468 315.5,259.5C 315.5,257.167 315.5,254.833 315.5,252.5C 313.393,251.532 311.059,251.198 308.5,251.5C 308.802,248.941 308.468,246.607 307.5,244.5C 304.428,244.183 301.428,244.516 298.5,245.5C 297.833,247.5 297.167,249.5 296.5,251.5C 295.311,252.429 293.978,252.762 292.5,252.5C 292.5,254.833 292.5,257.167 292.5,259.5C 290.695,266.768 289.861,274.435 290,282.5C 289.83,272.325 289.33,262.325 288.5,252.5C 285.038,251.518 281.371,251.185 277.5,251.5C 277.831,259.196 277.497,266.862 276.5,274.5C 274.629,275.767 272.796,275.767 271,274.5C 270.5,266.841 270.334,259.174 270.5,251.5C 266.563,251.207 262.73,251.54 259,252.5C 258.256,261.202 258.422,269.868 259.5,278.5C 258.586,280.934 258.586,283.1 259.5,285C 247.255,293.61 235.255,302.444 223.5,311.5C 220.375,310.521 217.042,310.187 213.5,310.5C 213.5,313.167 213.5,315.833 213.5,318.5C 211.529,319.823 209.529,321.156 207.5,322.5C 206.914,322.291 206.414,321.957 206,321.5C 205.748,323.931 206.248,326.265 207.5,328.5C 207.376,329.107 207.043,329.44 206.5,329.5C 204.194,322.919 201.86,316.252 199.5,309.5C 200.043,309.44 200.376,309.107 200.5,308.5C 199.452,306.544 198.952,304.544 199,302.5C 207.474,296.686 215.641,290.52 223.5,284C 222.906,283.536 222.239,283.369 221.5,283.5C 225.712,282.689 228.879,280.356 231,276.5C 232.78,270.536 232.946,264.536 231.5,258.5C 232.043,258.44 232.376,258.107 232.5,257.5C 231.687,256.186 230.687,255.019 229.5,254C 231.754,252.623 233.92,251.123 236,249.5C 235.859,258.227 236.692,266.56 238.5,274.5C 240.095,283.135 245.095,285.802 253.5,282.5C 254.48,279.914 254.813,277.247 254.5,274.5C 253.167,274.5 251.833,274.5 250.5,274.5C 250.5,262.5 250.5,250.5 250.5,238.5C 261.981,230.588 273.314,222.421 284.5,214C 259.169,213.5 233.836,213.333 208.5,213.5 Z"/></g>
<g><path style="opacity:1" fill="#8a8de2" d="M 315.5,259.5 C 313.393,260.468 311.059,260.802 308.5,260.5C 308.5,264.833 308.5,269.167 308.5,273.5C 307.514,269.03 307.181,264.363 307.5,259.5C 310.167,259.5 312.833,259.5 315.5,259.5 Z"/></g>
<g><path style="opacity:1" fill="#fbfbfe" d="M 331.5,254.5 C 331.5,263.833 331.5,273.167 331.5,282.5C 327.833,282.5 324.167,282.5 320.5,282.5C 320.5,272.167 320.5,261.833 320.5,251.5C 324.167,251.5 327.833,251.5 331.5,251.5C 331.5,252.5 331.5,253.5 331.5,254.5 Z"/></g>
<g><path style="opacity:1" fill="#f7f7fd" d="M 288.5,252.5 C 288.5,262.5 288.5,272.5 288.5,282.5C 284.566,282.979 280.899,282.312 277.5,280.5C 273.149,283.127 268.482,283.96 263.5,283C 261.93,281.603 260.596,280.103 259.5,278.5C 258.422,269.868 258.256,261.202 259,252.5C 262.73,251.54 266.563,251.207 270.5,251.5C 270.334,259.174 270.5,266.841 271,274.5C 272.796,275.767 274.629,275.767 276.5,274.5C 277.497,266.862 277.831,259.196 277.5,251.5C 281.371,251.185 285.038,251.518 288.5,252.5 Z"/></g>
<g><path style="opacity:1" fill="#979ae7" d="M 307.5,244.5 C 308.468,246.607 308.802,248.941 308.5,251.5C 311.059,251.198 313.393,251.532 315.5,252.5C 312.833,252.5 310.167,252.5 307.5,252.5C 307.5,249.833 307.5,247.167 307.5,244.5 Z"/></g>
<g><path style="opacity:1" fill="#fbfbfe" d="M 307.5,244.5 C 307.5,247.167 307.5,249.833 307.5,252.5C 310.167,252.5 312.833,252.5 315.5,252.5C 315.5,254.833 315.5,257.167 315.5,259.5C 312.833,259.5 310.167,259.5 307.5,259.5C 307.181,264.363 307.514,269.03 308.5,273.5C 310.607,274.468 312.941,274.802 315.5,274.5C 315.5,277.167 315.5,279.833 315.5,282.5C 310.5,283.833 305.5,283.833 300.5,282.5C 298.73,280.887 297.564,278.887 297,276.5C 296.501,270.843 296.334,265.176 296.5,259.5C 295.167,259.5 293.833,259.5 292.5,259.5C 292.5,257.167 292.5,254.833 292.5,252.5C 293.978,252.762 295.311,252.429 296.5,251.5C 297.167,249.5 297.833,247.5 298.5,245.5C 301.428,244.516 304.428,244.183 307.5,244.5 Z"/></g>
<g><path style="opacity:1" fill="#f0f0fb" d="M 322.5,236.5 C 329.899,235.405 333.065,238.405 332,245.5C 328.531,248.916 324.864,249.25 321,246.5C 318.729,242.697 319.229,239.363 322.5,236.5 Z"/></g>
<g><path style="opacity:1" fill="#eeedfa" d="M 307.5,295.5 C 316.24,294.717 318.907,298.217 315.5,306C 309.489,309.183 305.823,307.516 304.5,301C 304.863,298.808 305.863,296.974 307.5,295.5 Z"/></g>
<g><path style="opacity:1" fill="#f9f9fd" d="M 268.5,297.5 C 272.167,297.5 275.833,297.5 279.5,297.5C 279.173,302.544 279.506,307.544 280.5,312.5C 286.864,309.318 292.697,309.985 298,314.5C 298.5,323.494 298.666,332.494 298.5,341.5C 294.5,341.5 290.5,341.5 286.5,341.5C 286.5,333.833 286.5,326.167 286.5,318.5C 284.208,318.244 282.041,318.577 280,319.5C 279.5,326.826 279.334,334.159 279.5,341.5C 275.833,341.5 272.167,341.5 268.5,341.5C 268.5,326.833 268.5,312.167 268.5,297.5 Z"/></g>
<g><path style="opacity:1" fill="#102099" d="M 538.5,299.5 C 538.5,309.833 538.5,320.167 538.5,330.5C 499.379,358.448 460.379,386.615 421.5,415C 420.773,416.399 420.273,417.899 420,419.5C 419.802,417.618 419.302,415.952 418.5,414.5C 415.833,414.5 413.167,414.5 410.5,414.5C 410.5,413.167 410.5,411.833 410.5,410.5C 413.833,410.5 417.167,410.5 420.5,410.5C 420.5,408.833 420.5,407.167 420.5,405.5C 414.833,405.5 409.167,405.5 403.5,405.5C 403.5,413.167 403.5,420.833 403.5,428.5C 350.723,466.734 298.057,505.234 245.5,544C 246.833,544.667 248.167,545.333 249.5,546C 248.906,546.464 248.239,546.631 247.5,546.5C 240.995,543.083 234.662,539.416 228.5,535.5C 228.938,535.565 229.272,535.399 229.5,535C 227.999,533.748 226.332,532.748 224.5,532C 224.833,531.667 225.167,531.333 225.5,531C 223.043,529.846 223.043,528.512 225.5,527C 269.167,495.333 312.833,463.667 356.5,432C 359.371,431.882 362.038,431.216 364.5,430C 361.964,429.814 359.631,429.314 357.5,428.5C 359.924,428.808 362.257,428.474 364.5,427.5C 363.873,426.583 363.539,425.583 363.5,424.5C 364.441,421.875 365.607,421.875 367,424.5C 370.333,421.833 373.667,419.167 377,416.5C 377.333,420.5 377.667,424.5 378,428.5C 378.69,429.738 379.19,429.738 379.5,428.5C 381.833,428.5 384.167,428.5 386.5,428.5C 386.5,422.5 386.5,416.5 386.5,410.5C 388.833,410.5 391.167,410.5 393.5,410.5C 393.5,408.833 393.5,407.167 393.5,405.5C 387.5,405.5 381.5,405.5 375.5,405.5C 382.398,404.887 389.398,404.053 396.5,403C 408.08,394.723 419.414,386.223 430.5,377.5C 435.179,377.666 439.845,377.499 444.5,377C 430.327,376.831 416.327,376.331 402.5,375.5C 416.873,376.149 430.873,375.482 444.5,373.5C 445.55,373.095 445.55,372.429 444.5,371.5C 443.624,370.749 442.624,370.249 441.5,370C 473.712,346.282 506.045,322.782 538.5,299.5 Z"/></g>
<g><path style="opacity:1" fill="#fafafd" d="M 343.5,310.5 C 343.5,313.167 343.5,315.833 343.5,318.5C 340.833,318.5 338.167,318.5 335.5,318.5C 335.334,322.846 335.501,327.179 336,331.5C 338.135,333.278 340.635,333.945 343.5,333.5C 343.5,336.167 343.5,338.833 343.5,341.5C 338.5,341.5 333.5,341.5 328.5,341.5C 326.73,339.887 325.564,337.887 325,335.5C 324.501,329.843 324.334,324.176 324.5,318.5C 323.167,318.5 321.833,318.5 320.5,318.5C 320.5,316.167 320.5,313.833 320.5,311.5C 322.144,311.714 323.644,311.38 325,310.5C 325.567,307.832 326.067,305.166 326.5,302.5C 329.5,302.5 332.5,302.5 335.5,302.5C 335.5,305.167 335.5,307.833 335.5,310.5C 338.167,310.5 340.833,310.5 343.5,310.5 Z"/></g>
<g><path style="opacity:1" fill="#f7f7fc" d="M 423.5,310.5 C 425.5,310.5 427.5,310.5 429.5,310.5C 429.5,313.167 429.5,315.833 429.5,318.5C 426.833,318.5 424.167,318.5 421.5,318.5C 421.334,322.846 421.501,327.179 422,331.5C 424.135,333.278 426.635,333.945 429.5,333.5C 429.768,336.119 429.435,338.619 428.5,341C 423.833,341.667 419.167,341.667 414.5,341C 412.513,339.681 411.346,337.848 411,335.5C 410.501,329.843 410.334,324.176 410.5,318.5C 408.833,318.5 407.167,318.5 405.5,318.5C 405.298,316.05 405.631,313.717 406.5,311.5C 407.833,311.5 409.167,311.5 410.5,311.5C 410.852,308.572 411.518,305.738 412.5,303C 415.482,302.502 418.482,302.335 421.5,302.5C 420.964,305.698 421.631,308.365 423.5,310.5 Z"/></g>
<g><path style="opacity:1" fill="#f6f6fc" d="M 374.5,328.5 C 368.463,328.171 362.463,328.504 356.5,329.5C 356.624,330.107 356.957,330.44 357.5,330.5C 358.29,331.794 359.29,332.961 360.5,334C 364.971,334.733 369.305,334.233 373.5,332.5C 374.48,335.086 374.813,337.753 374.5,340.5C 367.535,342.701 360.535,342.868 353.5,341C 345.511,333.143 344.344,324.31 350,314.5C 352.869,311.114 356.536,309.781 361,310.5C 373.241,310.583 377.741,316.583 374.5,328.5 Z"/></g>
<g><path style="opacity:1" fill="#f6f6fb" d="M 400.5,310.5 C 401.568,311.434 402.901,311.768 404.5,311.5C 404.5,314.167 404.5,316.833 404.5,319.5C 399.657,317.5 395.324,318.167 391.5,321.5C 389.07,332.068 393.07,335.735 403.5,332.5C 404.48,335.086 404.813,337.753 404.5,340.5C 400.215,341.295 395.881,341.628 391.5,341.5C 385.86,341.43 382.027,338.763 380,333.5C 376.49,316.513 383.323,308.846 400.5,310.5 Z"/></g>
<g><path style="opacity:1" fill="#fdfdfe" d="M 305.5,310.5 C 309.167,310.5 312.833,310.5 316.5,310.5C 316.5,320.833 316.5,331.167 316.5,341.5C 312.833,341.5 309.167,341.5 305.5,341.5C 305.5,331.167 305.5,320.833 305.5,310.5 Z"/></g>
<g><path style="opacity:1" fill="#2529b6" d="M 359.5,317.5 C 363.192,317.324 365.192,318.991 365.5,322.5C 362.833,322.5 360.167,322.5 357.5,322.5C 357.392,320.486 358.058,318.82 359.5,317.5 Z"/></g>
<g><path style="opacity:1" fill="#9297da" d="M 374.5,328.5 C 368.833,329.167 363.167,329.833 357.5,330.5C 356.957,330.44 356.624,330.107 356.5,329.5C 362.463,328.504 368.463,328.171 374.5,328.5 Z"/></g>
<g><path style="opacity:1" fill="#0d1e92" d="M 538.5,330.5 C 538.5,339.167 538.5,347.833 538.5,356.5C 447.378,422.449 356.378,488.615 265.5,555C 266.833,556 268.167,557 269.5,558C 269.272,558.399 268.938,558.565 268.5,558.5C 261.302,554.738 254.302,550.738 247.5,546.5C 248.239,546.631 248.906,546.464 249.5,546C 248.167,545.333 246.833,544.667 245.5,544C 298.057,505.234 350.723,466.734 403.5,428.5C 409.167,428.5 414.833,428.5 420.5,428.5C 420.5,426.833 420.5,425.167 420.5,423.5C 417.167,423.5 413.833,423.5 410.5,423.5C 410.5,422.167 410.5,420.833 410.5,419.5C 413.167,419.5 415.833,419.5 418.5,419.5C 418.5,417.833 418.5,416.167 418.5,414.5C 419.302,415.952 419.802,417.618 420,419.5C 420.273,417.899 420.773,416.399 421.5,415C 460.379,386.615 499.379,358.448 538.5,330.5 Z"/></g>
<g><path style="opacity:1" fill="#2830cc" d="M 60.5,162.5 C 60.5,197.833 60.5,233.167 60.5,268.5C 60.5,285.833 60.5,303.167 60.5,320.5C 60.5,330.5 60.5,340.5 60.5,350.5C 60.1672,367.846 60.5005,385.179 61.5,402.5C 97.8333,376 134.167,349.5 170.5,323C 172.025,321.991 173.692,321.491 175.5,321.5C 173.37,327.887 171.037,334.22 168.5,340.5C 172.783,341.492 177.116,341.826 181.5,341.5C 181.833,338.833 182.167,336.167 182.5,333.5C 186.884,333.174 191.217,333.508 195.5,334.5C 196.577,336.729 197.244,339.063 197.5,341.5C 201.884,341.826 206.217,341.492 210.5,340.5C 208.766,336.963 207.432,333.296 206.5,329.5C 207.043,329.44 207.376,329.107 207.5,328.5C 206.248,326.265 205.748,323.931 206,321.5C 206.414,321.957 206.914,322.291 207.5,322.5C 209.529,321.156 211.529,319.823 213.5,318.5C 213.5,326.167 213.5,333.833 213.5,341.5C 217.5,341.5 221.5,341.5 225.5,341.5C 225.334,334.825 225.5,328.158 226,321.5C 229.057,320.549 232.223,320.216 235.5,320.5C 235.5,317.167 235.5,313.833 235.5,310.5C 231.324,310.168 227.824,311.502 225,314.5C 224.487,313.473 223.987,312.473 223.5,311.5C 235.255,302.444 247.255,293.61 259.5,285C 258.586,283.1 258.586,280.934 259.5,278.5C 260.596,280.103 261.93,281.603 263.5,283C 268.482,283.96 273.149,283.127 277.5,280.5C 280.899,282.312 284.566,282.979 288.5,282.5C 288.5,272.5 288.5,262.5 288.5,252.5C 289.33,262.325 289.83,272.325 290,282.5C 289.861,274.435 290.695,266.768 292.5,259.5C 293.833,259.5 295.167,259.5 296.5,259.5C 296.334,265.176 296.501,270.843 297,276.5C 297.564,278.887 298.73,280.887 300.5,282.5C 300.703,284.39 300.037,285.89 298.5,287C 293.833,290.333 289.167,293.667 284.5,297C 283.552,297.483 282.552,297.649 281.5,297.5C 281.666,301.514 281.499,305.514 281,309.5C 280.824,305.312 280.324,301.312 279.5,297.5C 275.833,297.5 272.167,297.5 268.5,297.5C 267.669,311.994 267.169,326.661 267,341.5C 266.667,332.167 266.333,322.833 266,313.5C 264.883,314.949 264.216,316.616 264,318.5C 263.809,316.292 263.309,314.292 262.5,312.5C 256.718,310.024 250.718,309.857 244.5,312C 235.536,321.016 235.202,330.35 243.5,340C 245.345,341.128 247.345,341.628 249.5,341.5C 252.641,342.321 255.975,342.821 259.5,343C 256.554,343.806 253.888,345.139 251.5,347C 239.406,355.368 227.739,364.201 216.5,373.5C 195.823,373.167 175.156,373.5 154.5,374.5C 173.488,375.5 192.488,375.833 211.5,375.5C 211.5,375.833 211.5,376.167 211.5,376.5C 192.497,376.333 173.497,376.5 154.5,377C 160.833,377.333 167.167,377.667 173.5,378C 141.781,400.521 110.447,423.521 79.5,447C 79.9054,447.945 80.572,448.612 81.5,449C 80.9056,449.464 80.2389,449.631 79.5,449.5C 72.889,446.061 66.389,442.395 60,438.5C 59.1676,346.332 59.3342,254.332 60.5,162.5 Z"/></g>
<g><path style="opacity:1" fill="#f8f8fd" d="M 262.5,312.5 C 262.808,314.924 262.474,317.257 261.5,319.5C 257.142,317.687 253.309,318.353 250,321.5C 247.744,331.927 251.91,335.927 262.5,333.5C 262.808,335.924 262.474,338.257 261.5,340.5C 257.571,341.433 253.571,341.766 249.5,341.5C 247.345,341.628 245.345,341.128 243.5,340C 235.202,330.35 235.536,321.016 244.5,312C 250.718,309.857 256.718,310.024 262.5,312.5 Z"/></g>
<g><path style="opacity:1" fill="#f7f7fd" d="M 223.5,311.5 C 223.987,312.473 224.487,313.473 225,314.5C 227.824,311.502 231.324,310.168 235.5,310.5C 235.5,313.833 235.5,317.167 235.5,320.5C 232.223,320.216 229.057,320.549 226,321.5C 225.5,328.158 225.334,334.825 225.5,341.5C 221.5,341.5 217.5,341.5 213.5,341.5C 213.5,333.833 213.5,326.167 213.5,318.5C 213.5,315.833 213.5,313.167 213.5,310.5C 217.042,310.187 220.375,310.521 223.5,311.5 Z"/></g>
<g><path style="opacity:1" fill="#faf9fd" d="M 199.5,309.5 C 201.86,316.252 204.194,322.919 206.5,329.5C 207.432,333.296 208.766,336.963 210.5,340.5C 206.217,341.492 201.884,341.826 197.5,341.5C 197.244,339.063 196.577,336.729 195.5,334.5C 191.217,333.508 186.884,333.174 182.5,333.5C 182.167,336.167 181.833,338.833 181.5,341.5C 177.116,341.826 172.783,341.492 168.5,340.5C 171.037,334.22 173.37,327.887 175.5,321.5C 177.826,314.857 180.159,308.19 182.5,301.5C 187.167,300.167 191.833,300.167 196.5,301.5C 197.508,304.195 198.508,306.862 199.5,309.5 Z"/></g>
<g><path style="opacity:1" fill="#403fd5" d="M 188.5,311.5 C 191.056,315.712 192.39,320.378 192.5,325.5C 190.167,325.5 187.833,325.5 185.5,325.5C 186.5,320.833 187.5,316.167 188.5,311.5 Z"/></g>
<g><path style="opacity:1" fill="#3838db" d="M 214.5,259.5 C 217.547,258.855 219.713,259.855 221,262.5C 221.667,265.5 221.667,268.5 221,271.5C 218.333,276.833 215.667,276.833 213,271.5C 212.083,267.238 212.583,263.238 214.5,259.5 Z"/></g>
<g><path style="opacity:1" fill="#0a1d8c" d="M 538.5,356.5 C 538.5,364.833 538.5,373.167 538.5,381.5C 454.373,443.438 370.039,505.272 285.5,567C 288.097,567.779 288.097,568.279 285.5,568.5C 279.633,565.404 273.967,562.071 268.5,558.5C 268.938,558.565 269.272,558.399 269.5,558C 268.167,557 266.833,556 265.5,555C 356.378,488.615 447.378,422.449 538.5,356.5 Z"/></g>
<g><path style="opacity:1" fill="#ecedf8" d="M 216.5,373.5 C 240.167,373.5 263.833,373.5 287.5,373.5C 313.5,373.5 339.5,373.5 365.5,373.5C 377.5,373.5 389.5,373.5 401.5,373.5C 415.833,373.5 430.167,373.5 444.5,373.5C 430.873,375.482 416.873,376.149 402.5,375.5C 338.833,375.5 275.167,375.5 211.5,375.5C 192.488,375.833 173.488,375.5 154.5,374.5C 175.156,373.5 195.823,373.167 216.5,373.5 Z"/></g>
<g><path style="opacity:1" fill="#1c28b2" d="M 318.5,377.5 C 320.199,377.34 321.866,377.506 323.5,378C 309.422,388.419 295.088,398.419 280.5,408C 281.764,409.861 282.764,411.861 283.5,414C 283.164,415.03 282.497,415.53 281.5,415.5C 280.081,407.109 275.081,403.609 266.5,405C 263.461,406.031 260.961,407.865 259,410.5C 258.501,414.486 258.334,418.486 258.5,422.5C 257.809,425.365 256.142,427.532 253.5,429C 222.774,450.69 192.441,472.856 162.5,495.5C 163.612,496.265 164.279,497.265 164.5,498.5C 157.329,494.749 150.329,490.749 143.5,486.5C 144.239,486.631 144.906,486.464 145.5,486C 143.833,485.167 142.167,484.333 140.5,483.5C 139.269,482.349 139.269,481.183 140.5,480C 164.432,462.734 187.766,445.901 210.5,429.5C 215.968,429.03 218.635,426.03 218.5,420.5C 219.222,420.918 219.722,421.584 220,422.5C 223.014,420.481 225.68,418.148 228,415.5C 228.748,417.751 230.248,419.084 232.5,419.5C 234.861,419.674 237.194,420.007 239.5,420.5C 239.5,421.5 239.5,422.5 239.5,423.5C 236.167,423.5 232.833,423.5 229.5,423.5C 229.141,425.766 229.808,427.599 231.5,429C 236.6,430.195 241.267,429.362 245.5,426.5C 246.575,423.562 246.741,420.562 246,417.5C 243.433,415.695 240.599,414.362 237.5,413.5C 236.614,412.675 236.281,411.675 236.5,410.5C 239.5,410.5 242.5,410.5 245.5,410.5C 245.435,410.938 245.601,411.272 246,411.5C 248.132,408.523 247.632,406.023 244.5,404C 256.853,395.823 268.853,387.157 280.5,378C 293.162,377.5 305.829,377.333 318.5,377.5 Z"/></g>
<g><path style="opacity:1" fill="#071b85" d="M 538.5,381.5 C 538.833,400.845 538.5,420.178 537.5,439.5C 458.167,485.167 378.833,530.833 299.5,576.5C 294.445,574.312 289.778,571.645 285.5,568.5C 288.097,568.279 288.097,567.779 285.5,567C 370.039,505.272 454.373,443.438 538.5,381.5 Z"/></g>
<g><path style="opacity:1" fill="#f4f4fb" d="M 184.5,409.5 C 186.906,415.718 188.906,422.051 190.5,428.5C 188.167,428.5 185.833,428.5 183.5,428.5C 183.67,427.178 183.337,426.011 182.5,425C 180.19,424.503 177.857,424.337 175.5,424.5C 175.5,425.833 175.5,427.167 175.5,428.5C 172.753,428.813 170.086,428.48 167.5,427.5C 170.456,420.335 172.789,413.002 174.5,405.5C 177.572,405.183 180.572,405.516 183.5,406.5C 184.127,407.417 184.461,408.417 184.5,409.5 Z"/></g>
<g><path style="opacity:1" fill="#ededf9" d="M 218.5,420.5 C 218.635,426.03 215.968,429.03 210.5,429.5C 207.421,429.74 204.421,429.407 201.5,428.5C 200.548,426.955 200.215,425.288 200.5,423.5C 204.226,423.823 207.893,423.489 211.5,422.5C 207.642,420.809 204.142,418.476 201,415.5C 199.357,410.572 200.857,407.072 205.5,405C 209.203,404.421 212.869,404.588 216.5,405.5C 216.5,407.167 216.5,408.833 216.5,410.5C 213.428,410.183 210.428,410.516 207.5,411.5C 210.494,413.79 213.827,415.624 217.5,417C 218.337,418.011 218.67,419.178 218.5,420.5 Z"/></g>
<g><path style="opacity:1" fill="#f0f0fa" d="M 245.5,410.5 C 242.5,410.5 239.5,410.5 236.5,410.5C 236.281,411.675 236.614,412.675 237.5,413.5C 240.599,414.362 243.433,415.695 246,417.5C 246.741,420.562 246.575,423.562 245.5,426.5C 241.267,429.362 236.6,430.195 231.5,429C 229.808,427.599 229.141,425.766 229.5,423.5C 232.833,423.5 236.167,423.5 239.5,423.5C 239.5,422.5 239.5,421.5 239.5,420.5C 237.194,420.007 234.861,419.674 232.5,419.5C 229.645,416.408 228.812,412.741 230,408.5C 234.465,404.374 239.632,403.374 245.5,405.5C 245.5,407.167 245.5,408.833 245.5,410.5 Z"/></g>
<g><path style="opacity:1" fill="#f1f1fa" d="M 281.5,415.5 C 281.66,427.105 275.994,431.605 264.5,429C 261.686,427.506 259.686,425.34 258.5,422.5C 258.334,418.486 258.501,414.486 259,410.5C 260.961,407.865 263.461,406.031 266.5,405C 275.081,403.609 280.081,407.109 281.5,415.5 Z"/></g>
<g><path style="opacity:1" fill="#f5f5fb" d="M 302.5,405.5 C 305.5,405.5 308.5,405.5 311.5,405.5C 311.5,407.167 311.5,408.833 311.5,410.5C 301.477,409.504 298.477,413.504 302.5,422.5C 305.428,423.484 308.428,423.817 311.5,423.5C 311.859,425.766 311.192,427.599 309.5,429C 297.699,431.27 292.366,426.437 293.5,414.5C 294.209,409.124 297.209,406.124 302.5,405.5 Z"/></g>
<g><path style="opacity:1" fill="#f6f7fb" d="M 375.5,405.5 C 381.5,405.5 387.5,405.5 393.5,405.5C 393.5,407.167 393.5,408.833 393.5,410.5C 391.167,410.5 388.833,410.5 386.5,410.5C 386.5,416.5 386.5,422.5 386.5,428.5C 384.167,428.5 381.833,428.5 379.5,428.5C 379.5,422.5 379.5,416.5 379.5,410.5C 377.167,410.5 374.833,410.5 372.5,410.5C 372.5,408.833 372.5,407.167 372.5,405.5C 373.5,405.5 374.5,405.5 375.5,405.5 Z"/></g>
<g><path style="opacity:1" fill="#f4f4fa" d="M 418.5,414.5 C 418.5,416.167 418.5,417.833 418.5,419.5C 415.833,419.5 413.167,419.5 410.5,419.5C 410.5,420.833 410.5,422.167 410.5,423.5C 413.833,423.5 417.167,423.5 420.5,423.5C 420.5,425.167 420.5,426.833 420.5,428.5C 414.833,428.5 409.167,428.5 403.5,428.5C 403.5,420.833 403.5,413.167 403.5,405.5C 409.167,405.5 414.833,405.5 420.5,405.5C 420.5,407.167 420.5,408.833 420.5,410.5C 417.167,410.5 413.833,410.5 410.5,410.5C 410.5,411.833 410.5,413.167 410.5,414.5C 413.167,414.5 415.833,414.5 418.5,414.5 Z"/></g>
<g><path style="opacity:1" fill="#1523a3" d="M 430.5,377.5 C 419.414,386.223 408.08,394.723 396.5,403C 389.398,404.053 382.398,404.887 375.5,405.5C 374.5,405.5 373.5,405.5 372.5,405.5C 372.5,407.167 372.5,408.833 372.5,410.5C 374.833,410.5 377.167,410.5 379.5,410.5C 379.5,416.5 379.5,422.5 379.5,428.5C 379.19,429.738 378.69,429.738 378,428.5C 377.667,424.5 377.333,420.5 377,416.5C 373.667,419.167 370.333,421.833 367,424.5C 365.607,421.875 364.441,421.875 363.5,424.5C 361.194,418.599 358.861,412.599 356.5,406.5C 353.914,405.52 351.247,405.187 348.5,405.5C 345.964,413.106 343.631,420.773 341.5,428.5C 343.833,428.5 346.167,428.5 348.5,428.5C 348.5,427.167 348.5,425.833 348.5,424.5C 351.167,424.5 353.833,424.5 356.5,424.5C 356.232,426.099 356.566,427.432 357.5,428.5C 359.631,429.314 361.964,429.814 364.5,430C 362.038,431.216 359.371,431.882 356.5,432C 312.833,463.667 269.167,495.333 225.5,527C 223.043,528.512 223.043,529.846 225.5,531C 225.167,531.333 224.833,531.667 224.5,532C 226.332,532.748 227.999,533.748 229.5,535C 229.272,535.399 228.938,535.565 228.5,535.5C 210.886,525.864 193.553,515.864 176.5,505.5C 180.544,506.042 184.211,505.209 187.5,503C 222.333,477.5 257.167,452 292,426.5C 291.512,422.416 292.012,418.416 293.5,414.5C 292.366,426.437 297.699,431.27 309.5,429C 311.192,427.599 311.859,425.766 311.5,423.5C 308.428,423.817 305.428,423.484 302.5,422.5C 298.477,413.504 301.477,409.504 311.5,410.5C 311.5,408.833 311.5,407.167 311.5,405.5C 308.5,405.5 305.5,405.5 302.5,405.5C 304.969,404.683 307.635,404.183 310.5,404C 306.814,402.801 307.147,402.467 311.5,403C 313.628,404.623 314.961,406.789 315.5,409.5C 329.795,399.012 344.129,388.512 358.5,378C 382.498,377.5 406.498,377.333 430.5,377.5 Z"/></g>
<g><path style="opacity:1" fill="#f7f7fb" d="M 363.5,424.5 C 363.539,425.583 363.873,426.583 364.5,427.5C 362.257,428.474 359.924,428.808 357.5,428.5C 356.566,427.432 356.232,426.099 356.5,424.5C 353.833,424.5 351.167,424.5 348.5,424.5C 348.5,425.833 348.5,427.167 348.5,428.5C 346.167,428.5 343.833,428.5 341.5,428.5C 343.631,420.773 345.964,413.106 348.5,405.5C 351.247,405.187 353.914,405.52 356.5,406.5C 358.861,412.599 361.194,418.599 363.5,424.5 Z"/></g>
<g><path style="opacity:1" fill="#f0f0f9" d="M 323.5,405.5 C 325.833,405.5 328.167,405.5 330.5,405.5C 330.5,413.167 330.5,420.833 330.5,428.5C 328.167,428.5 325.833,428.5 323.5,428.5C 323.5,420.833 323.5,413.167 323.5,405.5 Z"/></g>
<g><path style="opacity:1" fill="#1f29b9" d="M 241.5,376.5 C 267.339,376.169 293.005,376.502 318.5,377.5C 305.829,377.333 293.162,377.5 280.5,378C 268.853,387.157 256.853,395.823 244.5,404C 247.632,406.023 248.132,408.523 246,411.5C 245.601,411.272 245.435,410.938 245.5,410.5C 245.5,408.833 245.5,407.167 245.5,405.5C 239.632,403.374 234.465,404.374 230,408.5C 228.812,412.741 229.645,416.408 232.5,419.5C 230.248,419.084 228.748,417.751 228,415.5C 225.68,418.148 223.014,420.481 220,422.5C 219.722,421.584 219.222,420.918 218.5,420.5C 218.67,419.178 218.337,418.011 217.5,417C 213.827,415.624 210.494,413.79 207.5,411.5C 210.428,410.516 213.428,410.183 216.5,410.5C 216.5,408.833 216.5,407.167 216.5,405.5C 212.869,404.588 209.203,404.421 205.5,405C 200.857,407.072 199.357,410.572 201,415.5C 204.142,418.476 207.642,420.809 211.5,422.5C 207.893,423.489 204.226,423.823 200.5,423.5C 200.215,425.288 200.548,426.955 201.5,428.5C 204.421,429.407 207.421,429.74 210.5,429.5C 187.766,445.901 164.432,462.734 140.5,480C 139.269,481.183 139.269,482.349 140.5,483.5C 142.167,484.333 143.833,485.167 145.5,486C 144.906,486.464 144.239,486.631 143.5,486.5C 134.798,481.485 126.131,476.485 117.5,471.5C 137.149,456.746 156.482,442.413 175.5,428.5C 175.5,427.167 175.5,425.833 175.5,424.5C 177.857,424.337 180.19,424.503 182.5,425C 183.337,426.011 183.67,427.178 183.5,428.5C 185.833,428.5 188.167,428.5 190.5,428.5C 188.906,422.051 186.906,415.718 184.5,409.5C 185.712,407.736 185.379,406.07 183.5,404.5C 180.557,403.756 177.557,403.256 174.5,403C 185.677,395.245 196.677,387.245 207.5,379C 218.911,377.877 230.245,377.043 241.5,376.5 Z"/></g>
<g><path style="opacity:1" fill="#222bc0" d="M 211.5,376.5 C 221.5,376.5 231.5,376.5 241.5,376.5C 230.245,377.043 218.911,377.877 207.5,379C 196.677,387.245 185.677,395.245 174.5,403C 177.557,403.256 180.557,403.756 183.5,404.5C 185.379,406.07 185.712,407.736 184.5,409.5C 184.461,408.417 184.127,407.417 183.5,406.5C 180.572,405.516 177.572,405.183 174.5,405.5C 172.789,413.002 170.456,420.335 167.5,427.5C 170.086,428.48 172.753,428.813 175.5,428.5C 156.482,442.413 137.149,456.746 117.5,471.5C 104.498,464.668 91.8315,457.335 79.5,449.5C 80.2389,449.631 80.9056,449.464 81.5,449C 80.572,448.612 79.9054,447.945 79.5,447C 110.447,423.521 141.781,400.521 173.5,378C 167.167,377.667 160.833,377.333 154.5,377C 173.497,376.5 192.497,376.333 211.5,376.5 Z"/></g>
<g><path style="opacity:1" fill="#3934c2" d="M 178.5,412.5 C 180.163,414.438 180.829,416.772 180.5,419.5C 179.5,419.5 178.5,419.5 177.5,419.5C 177.448,417.097 177.781,414.764 178.5,412.5 Z"/></g>
<g><path style="opacity:1" fill="#1e26ae" d="M 267.5,410.5 C 271.972,410.398 274.305,412.564 274.5,417C 274.306,423.568 271.473,425.068 266,421.5C 265.013,417.525 265.513,413.859 267.5,410.5 Z"/></g>
<g><path style="opacity:1" fill="#4743b0" d="M 351.5,412.5 C 353.536,414.206 354.536,416.539 354.5,419.5C 353.167,419.5 351.833,419.5 350.5,419.5C 350.993,417.194 351.326,414.861 351.5,412.5 Z"/></g>
<g><path style="opacity:1" fill="#1825ab" d="M 211.5,376.5 C 211.5,376.167 211.5,375.833 211.5,375.5C 275.167,375.5 338.833,375.5 402.5,375.5C 416.327,376.331 430.327,376.831 444.5,377C 439.845,377.499 435.179,377.666 430.5,377.5C 406.498,377.333 382.498,377.5 358.5,378C 344.129,388.512 329.795,399.012 315.5,409.5C 314.961,406.789 313.628,404.623 311.5,403C 307.147,402.467 306.814,402.801 310.5,404C 307.635,404.183 304.969,404.683 302.5,405.5C 297.209,406.124 294.209,409.124 293.5,414.5C 292.012,418.416 291.512,422.416 292,426.5C 257.167,452 222.333,477.5 187.5,503C 184.211,505.209 180.544,506.042 176.5,505.5C 172.164,503.668 168.164,501.335 164.5,498.5C 164.279,497.265 163.612,496.265 162.5,495.5C 192.441,472.856 222.774,450.69 253.5,429C 256.142,427.532 257.809,425.365 258.5,422.5C 259.686,425.34 261.686,427.506 264.5,429C 275.994,431.605 281.66,427.105 281.5,415.5C 282.497,415.53 283.164,415.03 283.5,414C 282.764,411.861 281.764,409.861 280.5,408C 295.088,398.419 309.422,388.419 323.5,378C 321.866,377.506 320.199,377.34 318.5,377.5C 293.005,376.502 267.339,376.169 241.5,376.5C 231.5,376.5 221.5,376.5 211.5,376.5 Z"/></g>
<g><path style="opacity:0.004" fill="#3c92f9" d="M 45.5,447.5 C 44.8333,446.167 44.8333,446.167 45.5,447.5 Z"/></g>
<g><path style="opacity:0.004" fill="#3c92f9" d="M 553.5,446.5 C 554.833,447.167 554.833,447.167 553.5,446.5 Z"/></g>
<g><path style="opacity:0.004" fill="#3c92f9" d="M 45.5,447.5 C 46.1667,447.5 46.5,447.833 46.5,448.5C 46.1667,448.167 45.8333,447.833 45.5,447.5 Z"/></g>
<g><path style="opacity:0.004" fill="#3c92f9" d="M 553.5,447.5 C 552.833,448.167 552.833,448.167 553.5,447.5 Z"/></g>
<g><path style="opacity:0.006" fill="#3c92f9" d="M 46.5,448.5 C 47.2389,448.369 47.9056,448.536 48.5,449C 47.5632,449.692 46.8966,449.525 46.5,448.5 Z"/></g>
<g><path style="opacity:0.006" fill="#3c92f9" d="M 550.5,449.5 C 550.842,448.662 551.508,448.328 552.5,448.5C 552.158,449.338 551.492,449.672 550.5,449.5 Z"/></g>
<g><path style="opacity:0.004" fill="#3c92f9" d="M 548.5,450.5 C 548.5,450.167 548.5,449.833 548.5,449.5C 549.167,449.5 549.833,449.5 550.5,449.5C 550.158,450.338 549.492,450.672 548.5,450.5 Z"/></g>
<g><path style="opacity:0.006" fill="#3c92f9" d="M 52.5,450.5 C 53.3678,452.892 52.7012,453.059 50.5,451C 51.0944,450.536 51.7611,450.369 52.5,450.5 Z"/></g>
<g><path style="opacity:0.006" fill="#3c92f9" d="M 546.5,450.5 C 547.167,450.5 547.833,450.5 548.5,450.5C 546.606,453.187 545.939,453.187 546.5,450.5 Z"/></g>
<g><path style="opacity:0.004" fill="#3c92f9" d="M 541.5,454.5 C 541.5,454.167 541.5,453.833 541.5,453.5C 544.167,453.833 544.167,454.167 541.5,454.5 Z"/></g>
<g><path style="opacity:0.006" fill="#3c92f9" d="M 59.5,454.5 C 60.3678,456.892 59.7012,457.059 57.5,455C 58.0944,454.536 58.7611,454.369 59.5,454.5 Z"/></g>
<g><path style="opacity:0.006" fill="#3c92f9" d="M 539.5,454.5 C 540.167,454.5 540.833,454.5 541.5,454.5C 539.606,457.187 538.939,457.187 539.5,454.5 Z"/></g>
<g><path style="opacity:0.005" fill="#3c92f9" d="M 64.5,457.5 C 65.3678,459.892 64.7012,460.059 62.5,458C 63.0944,457.536 63.7611,457.369 64.5,457.5 Z"/></g>
<g><path style="opacity:0.005" fill="#3c92f9" d="M 534.5,457.5 C 536.975,457.747 536.975,458.413 534.5,459.5C 533.537,459.03 533.537,458.363 534.5,457.5 Z"/></g>
<g><path style="opacity:0.005" fill="#3c92f9" d="M 71.5,461.5 C 72.3678,463.892 71.7012,464.059 69.5,462C 70.0944,461.536 70.7611,461.369 71.5,461.5 Z"/></g>
<g><path style="opacity:0.005" fill="#3c92f9" d="M 527.5,461.5 C 529.975,461.747 529.975,462.413 527.5,463.5C 526.537,463.03 526.537,462.363 527.5,461.5 Z"/></g>
<g><path style="opacity:0.006" fill="#3c92f9" d="M 78.5,465.5 C 79.3678,467.892 78.7012,468.059 76.5,466C 77.0944,465.536 77.7611,465.369 78.5,465.5 Z"/></g>
<g><path style="opacity:0.006" fill="#3c92f9" d="M 520.5,465.5 C 522.975,465.747 522.975,466.413 520.5,467.5C 519.537,467.03 519.537,466.363 520.5,465.5 Z"/></g>
<g><path style="opacity:0.005" fill="#3c92f9" d="M 90.5,472.5 C 91.3678,474.892 90.7012,475.059 88.5,473C 89.0944,472.536 89.7611,472.369 90.5,472.5 Z"/></g>
<g><path style="opacity:0.005" fill="#3c92f9" d="M 508.5,472.5 C 510.975,472.747 510.975,473.413 508.5,474.5C 507.537,474.03 507.537,473.363 508.5,472.5 Z"/></g>
<g><path style="opacity:0.005" fill="#3c92f9" d="M 97.5,476.5 C 98.3678,478.892 97.7012,479.059 95.5,477C 96.0944,476.536 96.7611,476.369 97.5,476.5 Z"/></g>
<g><path style="opacity:0.005" fill="#3c92f9" d="M 501.5,476.5 C 503.975,476.747 503.975,477.413 501.5,478.5C 500.537,478.03 500.537,477.363 501.5,476.5 Z"/></g>
<g><path style="opacity:0.006" fill="#3c92f9" d="M 104.5,480.5 C 105.368,482.892 104.701,483.059 102.5,481C 103.094,480.536 103.761,480.369 104.5,480.5 Z"/></g>
<g><path style="opacity:0.006" fill="#3c92f9" d="M 494.5,480.5 C 496.975,480.747 496.975,481.413 494.5,482.5C 493.537,482.03 493.537,481.363 494.5,480.5 Z"/></g>
<g><path style="opacity:0.005" fill="#3c92f9" d="M 109.5,483.5 C 110.368,485.892 109.701,486.059 107.5,484C 108.094,483.536 108.761,483.369 109.5,483.5 Z"/></g>
<g><path style="opacity:0.005" fill="#3c92f9" d="M 489.5,483.5 C 491.975,483.747 491.975,484.413 489.5,485.5C 488.537,485.03 488.537,484.363 489.5,483.5 Z"/></g>
<g><path style="opacity:0.005" fill="#3c92f9" d="M 116.5,487.5 C 117.368,489.892 116.701,490.059 114.5,488C 115.094,487.536 115.761,487.369 116.5,487.5 Z"/></g>
<g><path style="opacity:0.005" fill="#3c92f9" d="M 482.5,487.5 C 484.975,487.747 484.975,488.413 482.5,489.5C 481.537,489.03 481.537,488.363 482.5,487.5 Z"/></g>
<g><path style="opacity:0.005" fill="#3c92f9" d="M 123.5,491.5 C 124.368,493.892 123.701,494.059 121.5,492C 122.094,491.536 122.761,491.369 123.5,491.5 Z"/></g>
<g><path style="opacity:0.005" fill="#3c92f9" d="M 475.5,491.5 C 477.975,491.747 477.975,492.413 475.5,493.5C 474.537,493.03 474.537,492.363 475.5,491.5 Z"/></g>
<g><path style="opacity:0.004" fill="#3c92f9" d="M 470.5,495.5 C 470.5,495.167 470.5,494.833 470.5,494.5C 473.167,494.833 473.167,495.167 470.5,495.5 Z"/></g>
<g><path style="opacity:0.006" fill="#3c92f9" d="M 130.5,495.5 C 131.368,497.892 130.701,498.059 128.5,496C 129.094,495.536 129.761,495.369 130.5,495.5 Z"/></g>
<g><path style="opacity:0.006" fill="#3c92f9" d="M 468.5,495.5 C 469.167,495.5 469.833,495.5 470.5,495.5C 468.606,498.187 467.939,498.187 468.5,495.5 Z"/></g>
<g><path style="opacity:0.005" fill="#3c92f9" d="M 135.5,498.5 C 136.368,500.892 135.701,501.059 133.5,499C 134.094,498.536 134.761,498.369 135.5,498.5 Z"/></g>
<g><path style="opacity:0.005" fill="#3c92f9" d="M 463.5,498.5 C 465.975,498.747 465.975,499.413 463.5,500.5C 462.537,500.03 462.537,499.363 463.5,498.5 Z"/></g>
<g><path style="opacity:0.005" fill="#3c92f9" d="M 142.5,502.5 C 143.368,504.892 142.701,505.059 140.5,503C 141.094,502.536 141.761,502.369 142.5,502.5 Z"/></g>
<g><path style="opacity:0.005" fill="#3c92f9" d="M 456.5,502.5 C 458.975,502.747 458.975,503.413 456.5,504.5C 455.537,504.03 455.537,503.363 456.5,502.5 Z"/></g>
<g><path style="opacity:0.006" fill="#3c92f9" d="M 149.5,506.5 C 150.368,508.892 149.701,509.059 147.5,507C 148.094,506.536 148.761,506.369 149.5,506.5 Z"/></g>
<g><path style="opacity:0.006" fill="#3c92f9" d="M 449.5,506.5 C 451.975,506.747 451.975,507.413 449.5,508.5C 448.537,508.03 448.537,507.363 449.5,506.5 Z"/></g>
<g><path style="opacity:0.004" fill="#3c92f9" d="M 444.5,510.5 C 444.5,510.167 444.5,509.833 444.5,509.5C 447.167,509.833 447.167,510.167 444.5,510.5 Z"/></g>
<g><path style="opacity:0.006" fill="#3c92f9" d="M 156.5,510.5 C 157.368,512.892 156.701,513.059 154.5,511C 155.094,510.536 155.761,510.369 156.5,510.5 Z"/></g>
<g><path style="opacity:0.006" fill="#3c92f9" d="M 442.5,510.5 C 443.167,510.5 443.833,510.5 444.5,510.5C 442.606,513.187 441.939,513.187 442.5,510.5 Z"/></g>
<g><path style="opacity:0.005" fill="#3c92f9" d="M 161.5,513.5 C 162.368,515.892 161.701,516.059 159.5,514C 160.094,513.536 160.761,513.369 161.5,513.5 Z"/></g>
<g><path style="opacity:0.005" fill="#3c92f9" d="M 437.5,513.5 C 439.975,513.747 439.975,514.413 437.5,515.5C 436.537,515.03 436.537,514.363 437.5,513.5 Z"/></g>
<g><path style="opacity:0.005" fill="#3c92f9" d="M 168.5,517.5 C 169.368,519.892 168.701,520.059 166.5,518C 167.094,517.536 167.761,517.369 168.5,517.5 Z"/></g>
<g><path style="opacity:0.005" fill="#3c92f9" d="M 430.5,517.5 C 432.975,517.747 432.975,518.413 430.5,519.5C 429.537,519.03 429.537,518.363 430.5,517.5 Z"/></g>
<g><path style="opacity:0.006" fill="#3c92f9" d="M 175.5,521.5 C 176.368,523.892 175.701,524.059 173.5,522C 174.094,521.536 174.761,521.369 175.5,521.5 Z"/></g>
<g><path style="opacity:0.006" fill="#3c92f9" d="M 423.5,521.5 C 425.975,521.747 425.975,522.413 423.5,523.5C 422.537,523.03 422.537,522.363 423.5,521.5 Z"/></g>
<g><path style="opacity:0.005" fill="#3c92f9" d="M 187.5,528.5 C 188.368,530.892 187.701,531.059 185.5,529C 186.094,528.536 186.761,528.369 187.5,528.5 Z"/></g>
<g><path style="opacity:0.005" fill="#3c92f9" d="M 411.5,528.5 C 413.975,528.747 413.975,529.413 411.5,530.5C 410.537,530.03 410.537,529.363 411.5,528.5 Z"/></g>
<g><path style="opacity:0.005" fill="#3c92f9" d="M 194.5,532.5 C 195.368,534.892 194.701,535.059 192.5,533C 193.094,532.536 193.761,532.369 194.5,532.5 Z"/></g>
<g><path style="opacity:0.005" fill="#3c92f9" d="M 404.5,532.5 C 406.975,532.747 406.975,533.413 404.5,534.5C 403.537,534.03 403.537,533.363 404.5,532.5 Z"/></g>
<g><path style="opacity:0.006" fill="#3c92f9" d="M 201.5,536.5 C 202.368,538.892 201.701,539.059 199.5,537C 200.094,536.536 200.761,536.369 201.5,536.5 Z"/></g>
<g><path style="opacity:0.006" fill="#3c92f9" d="M 397.5,536.5 C 399.975,536.747 399.975,537.413 397.5,538.5C 396.537,538.03 396.537,537.363 397.5,536.5 Z"/></g>
<g><path style="opacity:0.005" fill="#3c92f9" d="M 206.5,539.5 C 207.368,541.892 206.701,542.059 204.5,540C 205.094,539.536 205.761,539.369 206.5,539.5 Z"/></g>
<g><path style="opacity:0.005" fill="#3c92f9" d="M 392.5,539.5 C 394.975,539.747 394.975,540.413 392.5,541.5C 391.537,541.03 391.537,540.363 392.5,539.5 Z"/></g>
<g><path style="opacity:0.005" fill="#3c92f9" d="M 213.5,543.5 C 214.368,545.892 213.701,546.059 211.5,544C 212.094,543.536 212.761,543.369 213.5,543.5 Z"/></g>
<g><path style="opacity:0.005" fill="#3c92f9" d="M 385.5,543.5 C 387.975,543.747 387.975,544.413 385.5,545.5C 384.537,545.03 384.537,544.363 385.5,543.5 Z"/></g>
<g><path style="opacity:0.006" fill="#3c92f9" d="M 220.5,547.5 C 221.368,549.892 220.701,550.059 218.5,548C 219.094,547.536 219.761,547.369 220.5,547.5 Z"/></g>
<g><path style="opacity:0.006" fill="#3c92f9" d="M 378.5,547.5 C 380.975,547.747 380.975,548.413 378.5,549.5C 377.537,549.03 377.537,548.363 378.5,547.5 Z"/></g>
<g><path style="opacity:0.004" fill="#3c92f9" d="M 373.5,551.5 C 373.5,551.167 373.5,550.833 373.5,550.5C 376.167,550.833 376.167,551.167 373.5,551.5 Z"/></g>
<g><path style="opacity:0.006" fill="#3c92f9" d="M 227.5,551.5 C 228.368,553.892 227.701,554.059 225.5,552C 226.094,551.536 226.761,551.369 227.5,551.5 Z"/></g>
<g><path style="opacity:0.006" fill="#3c92f9" d="M 371.5,551.5 C 372.167,551.5 372.833,551.5 373.5,551.5C 371.606,554.187 370.939,554.187 371.5,551.5 Z"/></g>
<g><path style="opacity:0.005" fill="#3c92f9" d="M 232.5,554.5 C 233.368,556.892 232.701,557.059 230.5,555C 231.094,554.536 231.761,554.369 232.5,554.5 Z"/></g>
<g><path style="opacity:0.005" fill="#3c92f9" d="M 366.5,554.5 C 368.975,554.747 368.975,555.413 366.5,556.5C 365.537,556.03 365.537,555.363 366.5,554.5 Z"/></g>
<g><path style="opacity:0.005" fill="#3c92f9" d="M 239.5,558.5 C 240.368,560.892 239.701,561.059 237.5,559C 238.094,558.536 238.761,558.369 239.5,558.5 Z"/></g>
<g><path style="opacity:0.005" fill="#3c92f9" d="M 359.5,558.5 C 361.975,558.747 361.975,559.413 359.5,560.5C 358.537,560.03 358.537,559.363 359.5,558.5 Z"/></g>
<g><path style="opacity:0.006" fill="#3c92f9" d="M 246.5,562.5 C 247.368,564.892 246.701,565.059 244.5,563C 245.094,562.536 245.761,562.369 246.5,562.5 Z"/></g>
<g><path style="opacity:0.006" fill="#3c92f9" d="M 352.5,562.5 C 354.975,562.747 354.975,563.413 352.5,564.5C 351.537,564.03 351.537,563.363 352.5,562.5 Z"/></g>
<g><path style="opacity:0.004" fill="#3c92f9" d="M 347.5,566.5 C 347.5,566.167 347.5,565.833 347.5,565.5C 350.167,565.833 350.167,566.167 347.5,566.5 Z"/></g>
<g><path style="opacity:0.006" fill="#3c92f9" d="M 253.5,566.5 C 254.368,568.892 253.701,569.059 251.5,567C 252.094,566.536 252.761,566.369 253.5,566.5 Z"/></g>
<g><path style="opacity:0.006" fill="#3c92f9" d="M 345.5,566.5 C 346.167,566.5 346.833,566.5 347.5,566.5C 345.606,569.187 344.939,569.187 345.5,566.5 Z"/></g>
<g><path style="opacity:0.005" fill="#3c92f9" d="M 258.5,569.5 C 259.368,571.892 258.701,572.059 256.5,570C 257.094,569.536 257.761,569.369 258.5,569.5 Z"/></g>
<g><path style="opacity:0.005" fill="#3c92f9" d="M 340.5,569.5 C 342.975,569.747 342.975,570.413 340.5,571.5C 339.537,571.03 339.537,570.363 340.5,569.5 Z"/></g>
<g><path style="opacity:0.005" fill="#3c92f9" d="M 265.5,573.5 C 266.368,575.892 265.701,576.059 263.5,574C 264.094,573.536 264.761,573.369 265.5,573.5 Z"/></g>
<g><path style="opacity:0.005" fill="#3c92f9" d="M 333.5,573.5 C 335.975,573.747 335.975,574.413 333.5,575.5C 332.537,575.03 332.537,574.363 333.5,573.5 Z"/></g>
<g><path style="opacity:0.006" fill="#3c92f9" d="M 272.5,577.5 C 273.368,579.892 272.701,580.059 270.5,578C 271.094,577.536 271.761,577.369 272.5,577.5 Z"/></g>
<g><path style="opacity:0.006" fill="#3c92f9" d="M 326.5,577.5 C 328.975,577.747 328.975,578.413 326.5,579.5C 325.537,579.03 325.537,578.363 326.5,577.5 Z"/></g>
<g><path style="opacity:0.005" fill="#3c92f9" d="M 284.5,584.5 C 285.368,586.892 284.701,587.059 282.5,585C 283.094,584.536 283.761,584.369 284.5,584.5 Z"/></g>
<g><path style="opacity:0.005" fill="#3c92f9" d="M 314.5,584.5 C 316.975,584.747 316.975,585.413 314.5,586.5C 313.537,586.03 313.537,585.363 314.5,584.5 Z"/></g>
<g><path style="opacity:0.005" fill="#3c92f9" d="M 291.5,588.5 C 292.368,590.892 291.701,591.059 289.5,589C 290.094,588.536 290.761,588.369 291.5,588.5 Z"/></g>
<g><path style="opacity:0.005" fill="#3c92f9" d="M 307.5,588.5 C 309.975,588.747 309.975,589.413 307.5,590.5C 306.537,590.03 306.537,589.363 307.5,588.5 Z"/></g>
<g><path style="opacity:0.008" fill="#3c92f9" d="M 296.5,592.5 C 297.833,593.167 297.833,593.167 296.5,592.5 Z"/></g>
<g><path style="opacity:0.008" fill="#3c92f9" d="M 301.5,592.5 C 302.833,593.167 302.833,593.167 301.5,592.5 Z"/></g>
</svg>
