<?xml version="1.0" encoding="UTF-8"?>
<!DOCTYPE svg PUBLIC "-//W3C//DTD SVG 1.1//EN" "http://www.w3.org/Graphics/SVG/1.1/DTD/svg11.dtd">
<svg xmlns="http://www.w3.org/2000/svg" version="1.1" width="640px" height="511px" style="shape-rendering:geometricPrecision; text-rendering:geometricPrecision; image-rendering:optimizeQuality; fill-rule:evenodd; clip-rule:evenodd" xmlns:xlink="http://www.w3.org/1999/xlink">
<g><path style="opacity:0.97" fill="#091d3e" d="M 307.5,-0.5 C 310.5,-0.5 313.5,-0.5 316.5,-0.5C 314.945,2.01902 314.278,4.85235 314.5,8C 314.757,11.8482 315.091,15.6815 315.5,19.5C 318.797,19.3287 319.131,19.9954 316.5,21.5C 313.937,21.5508 311.271,21.2175 308.5,20.5C 309.325,19.6143 310.325,19.281 311.5,19.5C 312.107,12.2472 310.774,5.58053 307.5,-0.5 Z"/></g>
<g><path style="opacity:1" fill="#081d3d" d="M 293.5,0.5 C 295.927,1.27885 295.927,2.44552 293.5,4C 294.928,9.87298 296.594,15.7063 298.5,21.5C 297.635,22.5827 296.635,22.7494 295.5,22C 290.333,18.1667 285.167,14.3333 280,10.5C 280.554,14.853 281.554,19.1863 283,23.5C 284.281,23.3808 285.448,23.8808 286.5,25C 284.321,26.1419 281.988,26.9752 279.5,27.5C 280.412,21.1888 279.245,14.8555 276,8.5C 274.933,7.80945 273.766,7.30945 272.5,7C 274.459,6.06908 276.459,5.23574 278.5,4.5C 283.524,8.69121 288.69,12.6912 294,16.5C 293.12,12.2635 292.287,7.93013 291.5,3.5C 290.127,3.65668 288.793,3.49001 287.5,3C 289.611,2.15532 291.611,1.32198 293.5,0.5 Z"/></g>
<g><path style="opacity:0.893" fill="#091d3d" d="M 359.5,4.5 C 364.29,6.76344 369.29,8.4301 374.5,9.5C 374.01,14.9132 372.676,15.4132 370.5,11C 368.481,10.5503 366.648,9.717 365,8.5C 363.659,11.022 362.826,13.6887 362.5,16.5C 364.582,16.472 366.416,17.1387 368,18.5C 368.743,16.3553 369.576,16.1886 370.5,18C 370.122,19.6349 369.456,21.1349 368.5,22.5C 366.556,19.8446 363.89,18.5113 360.5,18.5C 360.414,20.677 359.747,22.677 358.5,24.5C 361.844,27.8123 365.344,28.1456 369,25.5C 369.265,27.1626 368.765,28.6626 367.5,30C 362.177,28.6628 356.843,26.9961 351.5,25C 353.282,24.1859 354.782,23.0192 356,21.5C 357.503,17.1618 359.003,12.8284 360.5,8.5C 360.154,7.15082 359.821,5.81748 359.5,4.5 Z"/></g>
<g><path style="opacity:0.927" fill="#081d3e" d="M 327.5,-0.5 C 330.167,-0.5 332.833,-0.5 335.5,-0.5C 335.611,0.117425 335.944,0.617425 336.5,1C 335.376,1.83884 334.709,3.00551 334.5,4.5C 335.175,8.20107 336.009,11.8677 337,15.5C 338.898,11.372 341.065,7.37203 343.5,3.5C 342.833,2.83333 342.167,2.16667 341.5,1.5C 343.871,0.663227 346.204,0.996561 348.5,2.5C 347.24,3.3816 346.074,4.3816 345,5.5C 341.833,11.1667 338.667,16.8333 335.5,22.5C 333.102,16.3554 331.269,10.0221 330,3.5C 329.338,2.01608 328.504,0.682751 327.5,-0.5 Z"/></g>
<g><path style="opacity:1" fill="#081d3e" d="M 387.5,16.5 C 390.004,18.1443 392.671,19.6443 395.5,21C 401.087,25.774 400.754,29.9407 394.5,33.5C 393.914,33.2907 393.414,32.9574 393,32.5C 392.053,37.0303 392.553,41.3636 394.5,45.5C 394.167,45.8333 393.833,46.1667 393.5,46.5C 392.086,45.376 390.586,44.376 389,43.5C 388.8,39.2467 388.3,35.08 387.5,31C 383.805,32.5513 382.305,35.3846 383,39.5C 380.667,37.9938 378.5,36.3271 376.5,34.5C 381.665,30.5415 385.665,25.5415 388.5,19.5C 387.873,18.5832 387.539,17.5832 387.5,16.5 Z M 391.5,21.5 C 395.148,22.5002 396.314,24.8336 395,28.5C 392.35,31.2174 389.85,31.0507 387.5,28C 389.734,26.3621 391.067,24.1955 391.5,21.5 Z"/></g>
<g><path style="opacity:0.796" fill="#081d3e" d="M 259.5,11.5 C 261.927,12.2789 261.927,13.4455 259.5,15C 262.293,19.4175 264.959,23.9175 267.5,28.5C 268.729,29.2811 270.062,29.7811 271.5,30C 269.833,31.1667 268.167,32.3333 266.5,33.5C 265.808,32.9747 265.308,32.3081 265,31.5C 262.761,37.8718 258.594,39.7051 252.5,37C 249.459,33.0877 246.792,28.9211 244.5,24.5C 243.271,23.7189 241.938,23.2189 240.5,23C 243.282,20.5829 246.282,19.4162 249.5,19.5C 248.833,20.1667 248.167,20.8333 247.5,21.5C 250.041,26.0825 252.707,30.5825 255.5,35C 259.376,35.4855 262.043,33.8188 263.5,30C 261.547,26.5946 259.713,23.0946 258,19.5C 257.021,17.6797 255.521,16.513 253.5,16C 255.684,14.6366 257.684,13.1366 259.5,11.5 Z"/></g>
<g><path style="opacity:1" fill="#de1d34" d="M 354.5,62.5 C 319.459,62.9664 284.459,62.4664 249.5,61C 263.955,48.7733 280.289,40.2733 298.5,35.5C 333.605,29.5413 364.272,38.3747 390.5,62C 378.505,62.4999 366.505,62.6665 354.5,62.5 Z"/></g>
<g><path style="opacity:1" fill="#081d3d" d="M 413.5,38.5 C 415.655,38.372 417.655,38.872 419.5,40C 420.453,41.9552 421.787,43.6218 423.5,45C 419.036,49.8789 417.536,49.0455 419,42.5C 415.916,39.8581 414.083,40.6914 413.5,45C 414.715,48.8605 414.715,52.6938 413.5,56.5C 410.792,58.4357 407.792,58.9357 404.5,58C 403.21,55.708 401.543,53.708 399.5,52C 401,50.5 402.5,49 404,47.5C 403.626,49.7687 403.626,52.102 404,54.5C 405.523,56.6201 407.356,56.9535 409.5,55.5C 409.722,50.9044 409.888,46.2377 410,41.5C 411.145,40.3636 412.312,39.3636 413.5,38.5 Z"/></g>
<g><path style="opacity:0.724" fill="#081d3d" d="M 216.5,43.5 C 217.812,44.1451 218.812,45.1451 219.5,46.5C 216.195,46.7622 213.861,48.7622 212.5,52.5C 216.001,58.5046 219.001,58.5046 221.5,52.5C 221.291,51.914 220.957,51.414 220.5,51C 222.936,50.5637 224.936,51.397 226.5,53.5C 218.614,56.3851 218.114,59.7184 225,63.5C 228.209,61.434 230.042,58.434 230.5,54.5C 231.382,55.7598 232.382,56.9264 233.5,58C 230,62.1667 226.5,66.3333 223,70.5C 222.768,67.262 221.268,64.762 218.5,63C 215.333,60.5 212.167,58 209,55.5C 208.282,56.4506 207.449,56.6172 206.5,56C 210.047,51.9587 213.38,47.792 216.5,43.5 Z"/></g>
<g><path style="opacity:1" fill="#e8e7eb" d="M 247.5,65.5 C 288.5,65.5 329.5,65.5 370.5,65.5C 377.167,65.5 383.833,65.5 390.5,65.5C 390.667,113.507 390.167,161.507 389,209.5C 385.65,215.678 380.483,219.344 373.5,220.5C 361.684,223.311 349.684,225.145 337.5,226C 328.793,227.383 322.293,231.883 318,239.5C 313.987,234.16 308.821,230.326 302.5,228C 290.217,226.127 277.884,224.46 265.5,223C 259.089,221.868 253.589,219.034 249,214.5C 248.138,212.913 247.471,211.246 247,209.5C 246.5,195.837 246.333,182.171 246.5,168.5C 246.608,134.164 246.941,99.8306 247.5,65.5 Z"/></g>
<g><path style="opacity:1" fill="#081d3d" d="M 431.5,55.5 C 433.497,57.513 435.164,59.8463 436.5,62.5C 430.405,64.6499 424.739,68.1499 419.5,73C 420.654,73.9138 420.487,74.7471 419,75.5C 417.303,73.301 415.803,70.9676 414.5,68.5C 416.021,68.1203 417.687,67.9536 419.5,68C 422.99,65.0887 426.656,62.422 430.5,60C 431.38,58.6439 431.714,57.1439 431.5,55.5 Z"/></g>
<g><path style="opacity:1" fill="#8f93a4" d="M 342.5,69.5 C 347.975,68.5111 353.642,68.1778 359.5,68.5C 359.672,69.4916 359.338,70.1583 358.5,70.5C 353.36,69.5119 348.026,69.1786 342.5,69.5 Z"/></g>
<g><path style="opacity:1" fill="#f7f7f8" d="M 314.5,98.5 C 316.855,101.067 317.689,104.067 317,107.5C 316.292,106.619 315.458,105.953 314.5,105.5C 311.833,102.167 308.833,99.1667 305.5,96.5C 297.036,87.535 288.369,78.7017 279.5,70C 285.5,69.3333 291.5,69.3333 297.5,70C 301.132,74.6337 305.132,78.967 309.5,83C 304.469,90.3044 306.136,95.4711 314.5,98.5 Z"/></g>
<g><path style="opacity:1" fill="#f6f6f7" d="M 342.5,69.5 C 348.026,69.1786 353.36,69.5119 358.5,70.5C 349.833,78.5 341.5,86.8333 333.5,95.5C 329.827,99.8394 325.827,103.839 321.5,107.5C 320.167,105.5 320.167,103.5 321.5,101.5C 324.246,99.3771 327.079,97.3771 330,95.5C 333.02,91.5884 333.186,87.5884 330.5,83.5C 334.055,78.3489 338.055,73.6823 342.5,69.5 Z"/></g>
<g><path style="opacity:0.6" fill="#081d3d" d="M 197.5,67.5 C 199.176,68.1834 199.843,69.5168 199.5,71.5C 204.744,73.5561 209.911,75.8894 215,78.5C 215.837,76.9926 217.004,76.4926 218.5,77C 217.192,79.7951 215.526,82.2951 213.5,84.5C 212.786,81.6317 210.62,79.6317 207,78.5C 205.111,81.1116 203.611,83.9449 202.5,87C 203.444,88.4768 204.777,89.4768 206.5,90C 208.313,89.9536 209.979,90.1203 211.5,90.5C 210.806,93.0876 209.64,95.421 208,97.5C 206.985,94.8978 205.152,93.0645 202.5,92C 199.554,91.1939 196.888,89.8605 194.5,88C 192.343,87.9219 190.343,87.7552 188.5,87.5C 189.843,85.1609 191.176,82.8276 192.5,80.5C 193.768,83.6489 196.102,85.6489 199.5,86.5C 201.293,83.7489 202.959,80.9156 204.5,78C 201.571,75.1791 198.238,74.1791 194.5,75C 196.202,72.7646 197.202,70.2646 197.5,67.5 Z"/></g>
<g><path style="opacity:0.952" fill="#081d3c" d="M 442.5,71.5 C 445.689,77.7266 448.689,84.0599 451.5,90.5C 449.488,91.0138 447.488,91.1805 445.5,91C 448.1,88.541 448.1,86.041 445.5,83.5C 440.953,85.9402 436.287,88.1068 431.5,90C 430.929,91.2051 430.262,92.3717 429.5,93.5C 427.805,91.4649 426.472,89.1316 425.5,86.5C 431.34,85.7714 437.007,83.7714 442.5,80.5C 443.766,77.0657 442.433,75.0657 438.5,74.5C 439.624,73.1408 440.958,72.1408 442.5,71.5 Z"/></g>
<g><path style="opacity:1" fill="#091c39" d="M 373.5,67.5 C 378.167,67.5 382.833,67.5 387.5,67.5C 387.5,107.167 387.5,146.833 387.5,186.5C 386.518,183.038 386.185,179.371 386.5,175.5C 386.5,161.167 386.5,146.833 386.5,132.5C 386.666,122.161 386.5,111.828 386,101.5C 385.617,102.056 385.117,102.389 384.5,102.5C 367.391,100.865 350.058,99.8648 332.5,99.5C 333.313,98.1861 334.313,97.0195 335.5,96C 334.906,95.5357 334.239,95.369 333.5,95.5C 341.5,86.8333 349.833,78.5 358.5,70.5C 359.338,70.1583 359.672,69.4916 359.5,68.5C 364.704,68.2978 369.871,68.6311 375,69.5C 375.833,69.3333 376.667,69.1667 377.5,69C 375.942,68.79 374.609,68.29 373.5,67.5 Z"/></g>
<g><path style="opacity:1" fill="#0d1f3c" d="M 250.5,67.5 C 250.333,78.505 250.5,89.505 251,100.5C 251.499,94.5092 251.666,88.5092 251.5,82.5C 263.662,83.6722 275.662,83.6722 287.5,82.5C 291.588,83.2142 292.088,84.5476 289,86.5C 288.667,85.8333 288.333,85.1667 288,84.5C 287.333,85.8333 286.667,85.8333 286,84.5C 285.333,87.1667 284.667,87.1667 284,84.5C 282.209,86.5127 280.875,86.5127 280,84.5C 278.209,86.5127 276.875,86.5127 276,84.5C 274.209,86.5127 272.875,86.5127 272,84.5C 270.209,86.5127 268.875,86.5127 268,84.5C 266.209,86.5127 264.875,86.5127 264,84.5C 262.209,86.5127 260.875,86.5127 260,84.5C 258.209,86.5127 256.875,86.5127 256,84.5C 254.513,85.1552 253.347,86.1552 252.5,87.5C 266.396,88.8221 280.23,88.8221 294,87.5C 297.312,89.6453 300.146,92.312 302.5,95.5C 303.325,96.3857 304.325,96.719 305.5,96.5C 308.833,99.1667 311.833,102.167 314.5,105.5C 313.227,106.077 313.227,106.743 314.5,107.5C 318.207,109.728 321.874,111.061 325.5,111.5C 324.152,112.601 322.652,113.601 321,114.5C 320.505,116.473 320.338,118.473 320.5,120.5C 319.167,131.833 319.167,143.167 320.5,154.5C 320.369,155.376 320.702,156.043 321.5,156.5C 326.907,152.872 332.907,151.539 339.5,152.5C 339.5,146.167 339.5,139.833 339.5,133.5C 340.328,139.319 340.828,145.319 341,151.5C 341.498,148.183 341.665,144.85 341.5,141.5C 342.324,145.312 342.824,149.312 343,153.5C 343.333,147.833 343.667,142.167 344,136.5C 344.171,143.679 344.671,150.679 345.5,157.5C 345.75,158.922 346.583,159.922 348,160.5C 348.684,158.641 349.684,156.974 351,155.5C 351.684,156.784 351.517,157.951 350.5,159C 351,159.5 351.5,160 352,160.5C 352.684,158.641 353.684,156.974 355,155.5C 354.302,157.764 354.802,159.597 356.5,161C 355.892,161.87 355.059,162.37 354,162.5C 351.333,162.5 348.667,162.5 346,162.5C 342.508,161.064 339.008,160.064 335.5,159.5C 338.187,159.664 340.854,159.497 343.5,159C 339.373,153.259 334.039,151.926 327.5,155C 324.166,156.331 321.166,158.165 318.5,160.5C 313.043,155.883 306.709,153.883 299.5,154.5C 298.432,153.566 297.099,153.232 295.5,153.5C 296.229,139.486 296.229,125.486 295.5,111.5C 294.522,111.977 293.689,112.643 293,113.5C 292.819,116.695 292.319,119.695 291.5,122.5C 291.664,119.813 291.497,117.146 291,114.5C 289.667,115.167 288.333,115.833 287,116.5C 280.885,115.535 274.885,115.535 269,116.5C 267.667,115.167 266.333,113.833 265,112.5C 264.544,111.256 265.044,110.423 266.5,110C 265.251,108.176 264.085,108.343 263,110.5C 259.667,107.167 256.333,103.833 253,100.5C 252.601,100.728 252.435,101.062 252.5,101.5C 250.51,124.142 249.844,147.142 250.5,170.5C 249.833,172.833 249.167,175.167 248.5,177.5C 249.045,140.67 249.712,104.003 250.5,67.5 Z"/></g>
<g><path style="opacity:1" fill="#0b1d3b" d="M 250.5,67.5 C 291.5,67.5 332.5,67.5 373.5,67.5C 374.609,68.29 375.942,68.79 377.5,69C 376.667,69.1667 375.833,69.3333 375,69.5C 369.871,68.6311 364.704,68.2978 359.5,68.5C 353.642,68.1778 347.975,68.5111 342.5,69.5C 338.055,73.6823 334.055,78.3489 330.5,83.5C 333.186,87.5884 333.02,91.5884 330,95.5C 327.079,97.3771 324.246,99.3771 321.5,101.5C 320.167,103.5 320.167,105.5 321.5,107.5C 325.827,103.839 329.827,99.8394 333.5,95.5C 334.239,95.369 334.906,95.5357 335.5,96C 334.313,97.0195 333.313,98.1861 332.5,99.5C 350.058,99.8648 367.391,100.865 384.5,102.5C 374.5,113.167 364.167,123.5 353.5,133.5C 351.829,131.992 349.996,131.659 348,132.5C 347.667,127.5 347.333,122.5 347,117.5C 346.827,123.016 346.327,128.349 345.5,133.5C 345.666,127.824 345.499,122.157 345,116.5C 344.667,119.5 344.333,122.5 344,125.5C 343.501,121.848 343.335,118.182 343.5,114.5C 343.189,113.522 342.522,112.855 341.5,112.5C 340.833,118.988 340.167,125.321 339.5,131.5C 339.5,124.167 339.5,116.833 339.5,109.5C 334.733,109.526 330.066,110.193 325.5,111.5C 321.874,111.061 318.207,109.728 314.5,107.5C 313.227,106.743 313.227,106.077 314.5,105.5C 315.458,105.953 316.292,106.619 317,107.5C 317.689,104.067 316.855,101.067 314.5,98.5C 306.136,95.4711 304.469,90.3044 309.5,83C 305.132,78.967 301.132,74.6337 297.5,70C 291.5,69.3333 285.5,69.3333 279.5,70C 288.369,78.7017 297.036,87.535 305.5,96.5C 304.325,96.719 303.325,96.3857 302.5,95.5C 300.146,92.312 297.312,89.6453 294,87.5C 280.23,88.8221 266.396,88.8221 252.5,87.5C 253.347,86.1552 254.513,85.1552 256,84.5C 256.875,86.5127 258.209,86.5127 260,84.5C 260.875,86.5127 262.209,86.5127 264,84.5C 264.875,86.5127 266.209,86.5127 268,84.5C 268.875,86.5127 270.209,86.5127 272,84.5C 272.875,86.5127 274.209,86.5127 276,84.5C 276.875,86.5127 278.209,86.5127 280,84.5C 280.875,86.5127 282.209,86.5127 284,84.5C 284.667,87.1667 285.333,87.1667 286,84.5C 286.667,85.8333 287.333,85.8333 288,84.5C 288.333,85.1667 288.667,85.8333 289,86.5C 292.088,84.5476 291.588,83.2142 287.5,82.5C 275.662,83.6722 263.662,83.6722 251.5,82.5C 251.666,88.5092 251.499,94.5092 251,100.5C 250.5,89.505 250.333,78.505 250.5,67.5 Z"/></g>
<g><path style="opacity:1" fill="#babac5" d="M 313.5,95.5 C 316.682,96.1403 317.015,97.1403 314.5,98.5C 313.89,97.609 313.557,96.609 313.5,95.5 Z"/></g>
<g><path style="opacity:1" fill="#d9d9df" d="M 317.5,92.5 C 322.622,94.2393 322.622,95.5726 317.5,96.5C 317.5,95.1667 317.5,93.8333 317.5,92.5 Z"/></g>
<g><path style="opacity:1" fill="#d2d3da" d="M 313.5,95.5 C 312.5,95.5 311.5,95.5 310.5,95.5C 310.646,90.5789 311.646,90.5789 313.5,95.5 Z"/></g>
<g><path style="opacity:1" fill="#e2e1e6" d="M 323.5,89.5 C 326.14,90.7936 326.14,92.127 323.5,93.5C 322.708,92.3002 322.708,90.9669 323.5,89.5 Z"/></g>
<g><path style="opacity:1" fill="#f6f5f7" d="M 313.5,88.5 C 317.643,89.4076 318.143,91.0743 315,93.5C 313.731,92.0953 313.231,90.4286 313.5,88.5 Z"/></g>
<g><path style="opacity:1" fill="#c0c0ca" d="M 327.5,84.5 C 329.213,85.6354 329.88,87.302 329.5,89.5C 328.5,89.5 327.5,89.5 326.5,89.5C 326.366,87.7085 326.699,86.0418 327.5,84.5 Z"/></g>
<g><path style="opacity:1" fill="#e2e1e6" d="M 318.5,84.5 C 322.184,86.2033 322.351,88.2033 319,90.5C 317.2,88.6349 317.034,86.6349 318.5,84.5 Z"/></g>
<g><path style="opacity:1" fill="#eae9ed" d="M 310.5,84.5 C 312.476,85.4271 312.809,86.7605 311.5,88.5C 310.571,87.3112 310.238,85.9778 310.5,84.5 Z"/></g>
<g><path style="opacity:1" fill="#cfcfd7" d="M 321.5,83.5 C 322.922,83.7086 324.255,84.2086 325.5,85C 323.296,87.0688 321.963,86.5688 321.5,83.5 Z"/></g>
<g><path style="opacity:1" fill="#f1f0f2" d="M 314.5,82.5 C 317.012,83.2162 317.012,84.2162 314.5,85.5C 311.955,84.4508 311.955,83.4508 314.5,82.5 Z"/></g>
<g><path style="opacity:1" fill="#ebeaed" d="M 335.5,69.5 C 336.552,69.3505 337.552,69.5172 338.5,70C 336.667,71.8333 334.833,73.6667 333,75.5C 332.833,75 332.667,74.5 332.5,74C 334.1,72.8767 335.1,71.3767 335.5,69.5 Z"/></g>
<g><path style="opacity:1" fill="#e9e8ec" d="M 330.5,69.5 C 331.376,69.3691 332.043,69.7025 332.5,70.5C 330.851,74.1574 328.517,76.4907 325.5,77.5C 327.22,74.7984 328.887,72.1318 330.5,69.5 Z"/></g>
<g><path style="opacity:1" fill="#e9e8ec" d="M 321.5,69.5 C 323.288,69.2148 324.955,69.5481 326.5,70.5C 321.746,81.401 320.079,81.0677 321.5,69.5 Z"/></g>
<g><path style="opacity:1" fill="#eceaee" d="M 312.5,69.5 C 314.5,69.5 316.5,69.5 318.5,69.5C 318.82,72.8984 318.487,76.2317 317.5,79.5C 314.919,76.5961 313.252,73.2628 312.5,69.5 Z"/></g>
<g><path style="opacity:1" fill="#e6e5ea" d="M 311.5,79.5 C 309.552,76.5355 307.552,73.5355 305.5,70.5C 307.167,69.1667 308.833,69.1667 310.5,70.5C 311.394,73.3921 312.728,76.0587 314.5,78.5C 313.675,79.3857 312.675,79.719 311.5,79.5 Z"/></g>
<g><path style="opacity:1" fill="#e7e6eb" d="M 311.5,79.5 C 311.631,80.2389 311.464,80.9056 311,81.5C 307.318,77.9848 303.818,74.3181 300.5,70.5C 301.002,69.479 301.668,69.3123 302.5,70C 305.169,73.5279 308.169,76.6946 311.5,79.5 Z"/></g>
<g><path style="opacity:1" fill="#0c1e3e" d="M 389.5,224.5 C 388.652,221.283 386.818,220.949 384,223.5C 381.465,221.201 378.798,221.201 376,223.5C 374.955,222.627 374.122,221.627 373.5,220.5C 380.483,219.344 385.65,215.678 389,209.5C 390.167,161.507 390.667,113.507 390.5,65.5C 383.833,65.5 377.167,65.5 370.5,65.5C 357.006,64.6689 343.339,64.1689 329.5,64C 338.01,63.8294 346.343,63.3294 354.5,62.5C 366.505,62.6665 378.505,62.4999 390.5,62C 364.272,38.3747 333.605,29.5413 298.5,35.5C 296.345,35.628 294.345,35.128 292.5,34C 294.619,33.6582 294.953,32.8249 293.5,31.5C 344.389,22.17 384.555,38.5034 414,80.5C 429.821,108.446 433.821,138.112 426,169.5C 419.194,191.458 407.027,209.791 389.5,224.5 Z"/></g>
<g><path style="opacity:1" fill="#de1d35" d="M 395.5,67.5 C 423.908,98.0161 431.741,133.349 419,173.5C 413.784,188.275 405.784,201.275 395,212.5C 395.481,164.209 395.647,115.875 395.5,67.5 Z"/></g>
<g><path style="opacity:1" fill="#f9f9fa" d="M 252.5,101.5 C 263.309,113.694 274.809,125.361 287,136.5C 287.667,137.833 287.667,139.167 287,140.5C 275.218,152.45 263.385,164.117 251.5,175.5C 250.549,174.081 250.216,172.415 250.5,170.5C 249.844,147.142 250.51,124.142 252.5,101.5 Z"/></g>
<g><path style="opacity:1" fill="#fafafb" d="M 386.5,132.5 C 385.833,146.5 385.167,160.5 384.5,174.5C 383.167,172.5 381.5,170.833 379.5,169.5C 369.869,159.368 360.036,149.368 350,139.5C 349.333,138.833 349.333,138.167 350,137.5C 351.376,136.295 352.542,134.962 353.5,133.5C 364.167,123.5 374.5,113.167 384.5,102.5C 385.117,102.389 385.617,102.056 386,101.5C 386.5,111.828 386.666,122.161 386.5,132.5 Z"/></g>
<g><path style="opacity:0.788" fill="#081d3d" d="M 184.5,98.5 C 186.63,99.0319 188.63,99.8652 190.5,101C 186.558,101.376 184.891,103.542 185.5,107.5C 190.718,108.177 195.885,109.177 201,110.5C 202.326,110.245 203.326,109.578 204,108.5C 204.348,111.602 203.848,114.602 202.5,117.5C 201.614,116.675 201.281,115.675 201.5,114.5C 195.857,113.673 190.357,112.339 185,110.5C 182.819,113.481 183.319,115.981 186.5,118C 186,118.5 185.5,119 185,119.5C 183.053,118.89 181.219,118.057 179.5,117C 180,116.5 180.5,116 181,115.5C 182.668,109.653 183.835,103.986 184.5,98.5 Z"/></g>
<g><path style="opacity:1" fill="#f4f4f5" d="M 297.5,109.5 C 316.803,107.661 323.469,116.161 317.5,135C 317.491,142.077 317.158,149.077 316.5,156C 310.583,153.566 304.25,152.399 297.5,152.5C 297.5,138.167 297.5,123.833 297.5,109.5 Z"/></g>
<g><path style="opacity:0.813" fill="#081d3d" d="M 452.5,99.5 C 454.493,101.841 455.826,104.675 456.5,108C 455.324,109.914 454.324,109.748 453.5,107.5C 451.684,108.815 450.017,110.315 448.5,112C 450.274,112.97 452.107,113.804 454,114.5C 454.95,113.978 455.784,113.311 456.5,112.5C 458.003,114.796 458.337,117.129 457.5,119.5C 452.32,114.942 446.32,113.442 439.5,115C 438.23,115.9 437.23,117.066 436.5,118.5C 435.152,115.602 434.652,112.602 435,109.5C 435.956,110.894 437.289,111.561 439,111.5C 446.221,110.441 450.721,106.441 452.5,99.5 Z"/></g>
<g><path style="opacity:1" fill="#f7f7f8" d="M 339.5,131.5 C 339.5,132.167 339.5,132.833 339.5,133.5C 339.5,139.833 339.5,146.167 339.5,152.5C 332.907,151.539 326.907,152.872 321.5,156.5C 320.702,156.043 320.369,155.376 320.5,154.5C 320.5,152.167 320.5,149.833 320.5,147.5C 321.791,147.737 322.791,147.404 323.5,146.5C 326.912,144.641 330.578,143.474 334.5,143C 335.711,142.107 335.711,141.274 334.5,140.5C 329.891,141.471 325.891,143.471 322.5,146.5C 321.223,145.306 320.556,143.64 320.5,141.5C 320.833,139.833 321.167,138.167 321.5,136.5C 322.522,136.145 323.189,135.478 323.5,134.5C 322.504,134.414 321.671,134.748 321,135.5C 320.501,130.511 320.334,125.511 320.5,120.5C 320.338,118.473 320.505,116.473 321,114.5C 322.652,113.601 324.152,112.601 325.5,111.5C 330.066,110.193 334.733,109.526 339.5,109.5C 339.5,116.833 339.5,124.167 339.5,131.5 Z"/></g>
<g><path style="opacity:1" fill="#e9e9ed" d="M 295.5,153.5 C 294.164,155.01 292.997,156.677 292,158.5C 291.5,146.505 291.333,134.505 291.5,122.5C 292.319,119.695 292.819,116.695 293,113.5C 293.689,112.643 294.522,111.977 295.5,111.5C 296.229,125.486 296.229,139.486 295.5,153.5 Z"/></g>
<g><path style="opacity:1" fill="#656b81" d="M 343.5,114.5 C 342.408,117.105 341.741,119.938 341.5,123C 342.649,129.163 342.649,135.33 341.5,141.5C 341.665,144.85 341.498,148.183 341,151.5C 340.828,145.319 340.328,139.319 339.5,133.5C 339.5,132.833 339.5,132.167 339.5,131.5C 340.167,125.321 340.833,118.988 341.5,112.5C 342.522,112.855 343.189,113.522 343.5,114.5 Z"/></g>
<g><path style="opacity:1" fill="#e0e0e5" d="M 343.5,114.5 C 343.335,118.182 343.501,121.848 344,125.5C 344.333,122.5 344.667,119.5 345,116.5C 345.499,122.157 345.666,127.824 345.5,133.5C 345.5,141.5 345.5,149.5 345.5,157.5C 344.671,150.679 344.171,143.679 344,136.5C 343.667,142.167 343.333,147.833 343,153.5C 342.824,149.312 342.324,145.312 341.5,141.5C 342.649,135.33 342.649,129.163 341.5,123C 341.741,119.938 342.408,117.105 343.5,114.5 Z"/></g>
<g><path style="opacity:0.844" fill="#081d3d" d="M 188.5,138.5 C 191.956,139.536 192.29,141.203 189.5,143.5C 187.296,142.218 186.962,140.551 188.5,138.5 Z"/></g>
<g><path style="opacity:0.734" fill="#081d3d" d="M 448.5,138.5 C 451.389,138.999 452.056,140.499 450.5,143C 449.552,143.483 448.552,143.649 447.5,143.5C 447.366,141.708 447.699,140.042 448.5,138.5 Z"/></g>
<g><path style="opacity:1" fill="#a6a6b4" d="M 386.5,132.5 C 386.5,146.833 386.5,161.167 386.5,175.5C 385.508,175.672 384.842,175.338 384.5,174.5C 385.167,160.5 385.833,146.5 386.5,132.5 Z"/></g>
<g><path style="opacity:1" fill="#081c3c" d="M 291.5,122.5 C 291.333,134.505 291.5,146.505 292,158.5C 292.997,156.677 294.164,155.01 295.5,153.5C 297.099,153.232 298.432,153.566 299.5,154.5C 295.795,154.871 293.795,156.871 293.5,160.5C 300.863,160.169 308.197,160.503 315.5,161.5C 318.46,165.727 320.46,165.394 321.5,160.5C 326.119,159.686 330.786,159.353 335.5,159.5C 339.008,160.064 342.508,161.064 346,162.5C 348.667,162.5 351.333,162.5 354,162.5C 355.059,162.37 355.892,161.87 356.5,161C 354.802,159.597 354.302,157.764 355,155.5C 353.684,156.974 352.684,158.641 352,160.5C 351.5,160 351,159.5 350.5,159C 351.517,157.951 351.684,156.784 351,155.5C 349.684,156.974 348.684,158.641 348,160.5C 346.583,159.922 345.75,158.922 345.5,157.5C 345.5,149.5 345.5,141.5 345.5,133.5C 346.327,128.349 346.827,123.016 347,117.5C 347.333,122.5 347.667,127.5 348,132.5C 349.996,131.659 351.829,131.992 353.5,133.5C 352.542,134.962 351.376,136.295 350,137.5C 349.333,138.167 349.333,138.833 350,139.5C 360.036,149.368 369.869,159.368 379.5,169.5C 378.883,169.611 378.383,169.944 378,170.5C 376.5,169 375,167.5 373.5,166C 355.833,165.333 338.167,165.333 320.5,166C 320.833,166.333 321.167,166.667 321.5,167C 320.584,167.278 319.918,167.778 319.5,168.5C 313.244,173.085 307.578,178.419 302.5,184.5C 305.785,185.324 309.118,185.824 312.5,186C 311.29,187.039 310.29,188.206 309.5,189.5C 308.604,190.506 307.938,190.506 307.5,189.5C 310.443,186.82 310.11,186.153 306.5,187.5C 299.568,186.544 298.902,184.044 304.5,180C 302.5,179.667 300.5,179.333 298.5,179C 298.833,178.667 299.167,178.333 299.5,178C 284.167,177.667 268.833,177.333 253.5,177C 252.584,176.722 251.918,176.222 251.5,175.5C 263.385,164.117 275.218,152.45 287,140.5C 287.667,139.167 287.667,137.833 287,136.5C 274.809,125.361 263.309,113.694 252.5,101.5C 252.435,101.062 252.601,100.728 253,100.5C 256.333,103.833 259.667,107.167 263,110.5C 264.085,108.343 265.251,108.176 266.5,110C 265.044,110.423 264.544,111.256 265,112.5C 266.333,113.833 267.667,115.167 269,116.5C 274.885,115.535 280.885,115.535 287,116.5C 288.333,115.833 289.667,115.167 291,114.5C 291.497,117.146 291.664,119.813 291.5,122.5 Z"/></g>
<g><path style="opacity:1" fill="#f7f6f8" d="M 335.5,159.5 C 330.786,159.353 326.119,159.686 321.5,160.5C 320.46,165.394 318.46,165.727 315.5,161.5C 308.197,160.503 300.863,160.169 293.5,160.5C 293.795,156.871 295.795,154.871 299.5,154.5C 306.709,153.883 313.043,155.883 318.5,160.5C 321.166,158.165 324.166,156.331 327.5,155C 334.039,151.926 339.373,153.259 343.5,159C 340.854,159.497 338.187,159.664 335.5,159.5 Z"/></g>
<g><path style="opacity:1" fill="#172038" d="M 300.5,142.5 C 305.968,142.733 310.968,144.399 315.5,147.5C 315.333,147.833 315.167,148.167 315,148.5C 310.147,145.954 305.314,143.954 300.5,142.5 Z"/></g>
<g><path style="opacity:1" fill="#20253e" d="M 323.5,146.5 C 323.167,146.5 322.833,146.5 322.5,146.5C 325.891,143.471 329.891,141.471 334.5,140.5C 335.711,141.274 335.711,142.107 334.5,143C 330.578,143.474 326.912,144.641 323.5,146.5 Z"/></g>
<g><path style="opacity:1" fill="#b9b7c3" d="M 320.5,120.5 C 320.334,125.511 320.501,130.511 321,135.5C 321.671,134.748 322.504,134.414 323.5,134.5C 323.189,135.478 322.522,136.145 321.5,136.5C 321.167,138.167 320.833,139.833 320.5,141.5C 320.556,143.64 321.223,145.306 322.5,146.5C 322.833,146.5 323.167,146.5 323.5,146.5C 322.791,147.404 321.791,147.737 320.5,147.5C 320.5,149.833 320.5,152.167 320.5,154.5C 319.167,143.167 319.167,131.833 320.5,120.5 Z"/></g>
<g><path style="opacity:1" fill="#12182d" d="M 323.5,134.5 C 326.764,131.133 330.764,129.633 335.5,130C 331.63,131.803 327.63,133.303 323.5,134.5 Z"/></g>
<g><path style="opacity:1" fill="#1f253b" d="M 300.5,129.5 C 305.714,129.94 310.381,131.774 314.5,135C 310.659,133.84 306.659,132.84 302.5,132C 301.244,131.583 300.577,130.75 300.5,129.5 Z"/></g>
<g><path style="opacity:1" fill="#2e3349" d="M 333.5,117.5 C 335.337,117.639 335.67,118.306 334.5,119.5C 318.911,126.206 318.578,125.54 333.5,117.5 Z"/></g>
<g><path style="opacity:1" fill="#1b233b" d="M 300.5,117.5 C 304.035,118.052 307.368,119.218 310.5,121C 307.629,121.078 304.795,120.578 302,119.5C 300.97,119.164 300.47,118.497 300.5,117.5 Z"/></g>
<g><path style="opacity:0.957" fill="#081d3d" d="M 435.5,161.5 C 441.025,165.071 447.192,167.404 454,168.5C 455.152,166.488 456.318,166.322 457.5,168C 456.257,170.49 455.09,172.99 454,175.5C 452.321,172.087 449.487,170.42 445.5,170.5C 444.626,173.789 443.959,177.123 443.5,180.5C 445.827,180.665 447.993,181.331 450,182.5C 450.965,180.74 452.132,180.406 453.5,181.5C 452.349,183.773 451.349,186.106 450.5,188.5C 447.461,185.639 443.795,183.806 439.5,183C 437.444,182.689 435.444,182.189 433.5,181.5C 432.522,181.977 431.689,182.643 431,183.5C 430.562,180.253 431.228,177.253 433,174.5C 434.679,177.913 437.513,179.58 441.5,179.5C 442.374,176.211 443.041,172.877 443.5,169.5C 441.173,169.335 439.007,168.669 437,167.5C 436.085,168.328 435.419,169.328 435,170.5C 434.5,170 434,169.5 433.5,169C 434.867,166.699 435.534,164.199 435.5,161.5 Z"/></g>
<g><path style="opacity:1" fill="#efeff1" d="M 319.5,168.5 C 324.194,173.194 328.86,177.86 333.5,182.5C 334.478,182.811 335.145,183.478 335.5,184.5C 333.5,185.167 331.5,185.833 329.5,186.5C 330.167,187.5 330.833,188.5 331.5,189.5C 325.048,191.703 323.715,190.536 327.5,186C 323.129,185.172 318.795,185.339 314.5,186.5C 315.167,187.5 315.833,188.5 316.5,189.5C 314.027,190.797 311.693,190.797 309.5,189.5C 310.29,188.206 311.29,187.039 312.5,186C 309.118,185.824 305.785,185.324 302.5,184.5C 307.578,178.419 313.244,173.085 319.5,168.5 Z"/></g>
<g><path style="opacity:0.841" fill="#081d3d" d="M 190.5,163.5 C 202.319,162.485 207.486,167.818 206,179.5C 199.495,188.434 192.495,188.768 185,180.5C 182.539,173.385 184.372,167.719 190.5,163.5 Z M 192.5,167.5 C 196.257,167.071 199.757,167.737 203,169.5C 205.731,177.475 202.731,181.808 194,182.5C 186.883,181.782 184.549,178.115 187,171.5C 188.812,170.023 190.645,168.69 192.5,167.5 Z"/></g>
<g><path style="opacity:1" fill="#01102f" d="M 247.5,65.5 C 246.941,99.8306 246.608,134.164 246.5,168.5C 245.669,180.993 245.169,193.66 245,206.5C 244.671,183.667 244.838,160.833 245.5,138C 245.292,113.923 244.625,89.9233 243.5,66C 244.744,65.5439 245.577,66.0439 246,67.5C 246.49,66.2068 246.657,64.8734 246.5,63.5C 261.504,63.3334 276.504,63.5001 291.5,64C 276.661,64.1687 261.994,64.6687 247.5,65.5 Z"/></g>
<g><path style="opacity:1" fill="#0a1d3d" d="M 250.5,170.5 C 250.216,172.415 250.549,174.081 251.5,175.5C 251.918,176.222 252.584,176.722 253.5,177C 268.833,177.333 284.167,177.667 299.5,178C 299.167,178.333 298.833,178.667 298.5,179C 300.5,179.333 302.5,179.667 304.5,180C 298.902,184.044 299.568,186.544 306.5,187.5C 303.557,190.18 303.89,190.847 307.5,189.5C 307.938,190.506 308.604,190.506 309.5,189.5C 311.693,190.797 314.027,190.797 316.5,189.5C 315.833,188.5 315.167,187.5 314.5,186.5C 318.795,185.339 323.129,185.172 327.5,186C 323.715,190.536 325.048,191.703 331.5,189.5C 330.833,188.5 330.167,187.5 329.5,186.5C 331.5,185.833 333.5,185.167 335.5,184.5C 335.145,183.478 334.478,182.811 333.5,182.5C 334.189,181.226 335.023,181.226 336,182.5C 336.499,187.155 336.666,191.821 336.5,196.5C 324.814,196.168 313.148,196.501 301.5,197.5C 301.624,198.107 301.957,198.44 302.5,198.5C 314.5,198.5 326.5,198.5 338.5,198.5C 334.353,199.325 330.019,199.825 325.5,200C 327.382,200.198 329.048,200.698 330.5,201.5C 329.503,201.47 328.836,201.97 328.5,203C 329.148,204.44 329.481,205.94 329.5,207.5C 329.058,210.471 327.724,213.471 325.5,216.5C 324.575,215.359 323.741,215.359 323,216.5C 322.503,219.146 322.336,221.813 322.5,224.5C 321.834,221.972 321.168,219.306 320.5,216.5C 318.982,220.43 317.982,224.43 317.5,228.5C 317.672,227.508 317.338,226.842 316.5,226.5C 316.335,223.482 316.502,220.482 317,217.5C 317.637,215.697 318.803,214.364 320.5,213.5C 317.871,211.95 316.037,212.616 315,215.5C 314.667,218.167 314.333,220.833 314,223.5C 311.061,224.128 308.228,224.795 305.5,225.5C 299.222,221.654 298.889,216.987 304.5,211.5C 302.955,210.548 301.288,210.215 299.5,210.5C 301.369,209.835 303.369,209.169 305.5,208.5C 306.695,206.249 307.695,203.915 308.5,201.5C 305.973,200.786 303.473,200.12 301,199.5C 299.81,195.619 299.143,191.619 299,187.5C 288.632,198.035 278.132,208.369 267.5,218.5C 266.769,216.401 266.769,214.401 267.5,212.5C 269.434,212.099 270.934,211.099 272,209.5C 272.718,210.451 273.551,210.617 274.5,210C 275.833,209.333 275.833,208.667 274.5,208C 277.881,207.818 278.881,206.318 277.5,203.5C 269.5,203.5 261.5,203.5 253.5,203.5C 251.435,204.654 250.102,206.32 249.5,208.5C 248.548,198.218 248.214,187.885 248.5,177.5C 249.167,175.167 249.833,172.833 250.5,170.5 Z"/></g>
<g><path style="opacity:1" fill="#0a1e3e" d="M 379.5,169.5 C 381.5,170.833 383.167,172.5 384.5,174.5C 384.842,175.338 385.508,175.672 386.5,175.5C 386.185,179.371 386.518,183.038 387.5,186.5C 387.5,186.833 387.5,187.167 387.5,187.5C 386.053,188.622 385.053,190.122 384.5,192C 381.562,194.83 378.562,194.997 375.5,192.5C 374.167,193.167 372.833,193.833 371.5,194.5C 370.167,193.833 368.833,193.167 367.5,192.5C 366.167,193.167 364.833,193.833 363.5,194.5C 362.167,193.833 360.833,193.167 359.5,192.5C 358.167,193.167 356.833,193.833 355.5,194.5C 352.447,194.658 349.447,194.158 346.5,193C 350.393,198.27 355.06,202.77 360.5,206.5C 361.791,207.527 361.791,208.527 360.5,209.5C 354.162,202.829 347.496,196.496 340.5,190.5C 340.84,188.452 340.507,187.452 339.5,187.5C 338.883,187.389 338.383,187.056 338,186.5C 337.502,189.817 337.335,193.15 337.5,196.5C 337.167,196.5 336.833,196.5 336.5,196.5C 336.666,191.821 336.499,187.155 336,182.5C 335.023,181.226 334.189,181.226 333.5,182.5C 328.86,177.86 324.194,173.194 319.5,168.5C 319.918,167.778 320.584,167.278 321.5,167C 321.167,166.667 320.833,166.333 320.5,166C 338.167,165.333 355.833,165.333 373.5,166C 375,167.5 376.5,169 378,170.5C 378.383,169.944 378.883,169.611 379.5,169.5 Z"/></g>
<g><path style="opacity:1" fill="#eaeaee" d="M 339.5,187.5 C 339.815,191.371 339.482,195.038 338.5,198.5C 326.5,198.5 314.5,198.5 302.5,198.5C 314.167,197.833 325.833,197.167 337.5,196.5C 337.335,193.15 337.502,189.817 338,186.5C 338.383,187.056 338.883,187.389 339.5,187.5 Z"/></g>
<g><path style="opacity:1" fill="#fafafa" d="M 299.5,210.5 C 299.5,214.5 299.5,218.5 299.5,222.5C 292.512,221.934 285.512,221.434 278.5,221C 274.608,220.581 270.942,219.748 267.5,218.5C 278.132,208.369 288.632,198.035 299,187.5C 299.143,191.619 299.81,195.619 301,199.5C 303.473,200.12 305.973,200.786 308.5,201.5C 307.695,203.915 306.695,206.249 305.5,208.5C 303.369,209.169 301.369,209.835 299.5,210.5 Z"/></g>
<g><path style="opacity:1" fill="#eae9ed" d="M 322.5,186.5 C 324.885,187.867 324.552,189.201 321.5,190.5C 321.167,190.333 320.833,190.167 320.5,190C 321.823,189.184 322.489,188.017 322.5,186.5 Z"/></g>
<g><path style="opacity:1" fill="#f1eff2" d="M 307.5,189.5 C 303.89,190.847 303.557,190.18 306.5,187.5C 310.11,186.153 310.443,186.82 307.5,189.5 Z"/></g>
<g><path style="opacity:1" fill="#0b1d3b" d="M 340.5,190.5 C 340.5,193.833 340.5,197.167 340.5,200.5C 337.428,200.183 334.428,200.516 331.5,201.5C 332.73,203.933 333.73,206.433 334.5,209C 336.473,209.495 338.473,209.662 340.5,209.5C 340.5,213.5 340.5,217.5 340.5,221.5C 349.705,221.392 358.705,220.058 367.5,217.5C 365.144,214.814 362.811,212.147 360.5,209.5C 361.791,208.527 361.791,207.527 360.5,206.5C 355.06,202.77 350.393,198.27 346.5,193C 349.447,194.158 352.447,194.658 355.5,194.5C 356.833,193.833 358.167,193.167 359.5,192.5C 360.833,193.167 362.167,193.833 363.5,194.5C 364.833,193.833 366.167,193.167 367.5,192.5C 368.833,193.167 370.167,193.833 371.5,194.5C 372.833,193.833 374.167,193.167 375.5,192.5C 378.562,194.997 381.562,194.83 384.5,192C 385.053,190.122 386.053,188.622 387.5,187.5C 387.666,194.175 387.5,200.842 387,207.5C 386.654,209.848 385.487,211.681 383.5,213C 377.304,216.762 370.638,219.428 363.5,221C 352.75,221.677 342.083,223.01 331.5,225C 325.926,227.194 321.426,230.694 318,235.5C 313.567,230.365 308.067,226.865 301.5,225C 287.335,224.083 273.335,222.083 259.5,219C 254.028,217.451 250.695,213.951 249.5,208.5C 250.102,206.32 251.435,204.654 253.5,203.5C 261.5,203.5 269.5,203.5 277.5,203.5C 278.881,206.318 277.881,207.818 274.5,208C 275.833,208.667 275.833,209.333 274.5,210C 273.551,210.617 272.718,210.451 272,209.5C 270.934,211.099 269.434,212.099 267.5,212.5C 266.769,214.401 266.769,216.401 267.5,218.5C 270.942,219.748 274.608,220.581 278.5,221C 285.512,221.434 292.512,221.934 299.5,222.5C 299.5,218.5 299.5,214.5 299.5,210.5C 301.288,210.215 302.955,210.548 304.5,211.5C 298.889,216.987 299.222,221.654 305.5,225.5C 309.119,226.244 312.785,226.577 316.5,226.5C 317.338,226.842 317.672,227.508 317.5,228.5C 316.127,228.343 314.793,228.51 313.5,229C 315.022,230.581 316.689,231.581 318.5,232C 320.54,229.815 321.874,227.315 322.5,224.5C 322.336,221.813 322.503,219.146 323,216.5C 323.741,215.359 324.575,215.359 325.5,216.5C 327.724,213.471 329.058,210.471 329.5,207.5C 330.14,209.332 331.14,209.665 332.5,208.5C 331.054,206.382 330.387,204.049 330.5,201.5C 329.048,200.698 327.382,200.198 325.5,200C 330.019,199.825 334.353,199.325 338.5,198.5C 339.482,195.038 339.815,191.371 339.5,187.5C 340.507,187.452 340.84,188.452 340.5,190.5 Z"/></g>
<g><path style="opacity:1" fill="#fafafa" d="M 340.5,190.5 C 347.496,196.496 354.162,202.829 360.5,209.5C 362.811,212.147 365.144,214.814 367.5,217.5C 358.705,220.058 349.705,221.392 340.5,221.5C 340.5,217.5 340.5,213.5 340.5,209.5C 338.473,209.662 336.473,209.495 334.5,209C 333.73,206.433 332.73,203.933 331.5,201.5C 334.428,200.516 337.428,200.183 340.5,200.5C 340.5,197.167 340.5,193.833 340.5,190.5 Z"/></g>
<g><path style="opacity:1" fill="#9397a7" d="M 336.5,196.5 C 336.833,196.5 337.167,196.5 337.5,196.5C 325.833,197.167 314.167,197.833 302.5,198.5C 301.957,198.44 301.624,198.107 301.5,197.5C 313.148,196.501 324.814,196.168 336.5,196.5 Z"/></g>
<g><path style="opacity:1" fill="#cccdd5" d="M 330.5,201.5 C 330.387,204.049 331.054,206.382 332.5,208.5C 331.14,209.665 330.14,209.332 329.5,207.5C 329.481,205.94 329.148,204.44 328.5,203C 328.836,201.97 329.503,201.47 330.5,201.5 Z"/></g>
<g><path style="opacity:0.707" fill="#081d3e" d="M 211.5,191.5 C 212.496,191.414 213.329,191.748 214,192.5C 215.787,196.577 217.954,200.41 220.5,204C 218.996,205.788 217.329,206.288 215.5,205.5C 217.379,202.753 216.879,200.086 214,197.5C 211.75,198.708 209.583,200.041 207.5,201.5C 208.54,204.44 210.54,206.274 213.5,207C 211.833,208.167 210.167,209.333 208.5,210.5C 207.16,200.386 203.826,200.052 198.5,209.5C 196.173,206.863 195.007,203.863 195,200.5C 195.725,202.158 196.892,202.658 198.5,202C 202.5,199.667 206.5,197.333 210.5,195C 211.337,193.989 211.67,192.822 211.5,191.5 Z"/></g>
<g><path style="opacity:0.804" fill="#081d3d" d="M 424.5,192.5 C 426.95,193.777 429.283,195.277 431.5,197C 425.665,195.945 422.332,198.278 421.5,204C 422.706,209.535 426.206,212.368 432,212.5C 440.365,211.342 441.365,208.342 435,203.5C 434.085,204.328 433.419,205.328 433,206.5C 432.308,205.975 431.808,205.308 431.5,204.5C 432.921,201.991 434.588,199.657 436.5,197.5C 437.988,200.82 440.321,203.32 443.5,205C 438.781,217.512 431.281,219.678 421,211.5C 418.303,205.407 419.303,200.074 424,195.5C 424.483,194.552 424.649,193.552 424.5,192.5 Z"/></g>
<g><path style="opacity:1" fill="#f0eff2" d="M 316.5,226.5 C 312.785,226.577 309.119,226.244 305.5,225.5C 308.228,224.795 311.061,224.128 314,223.5C 314.333,220.833 314.667,218.167 315,215.5C 316.037,212.616 317.871,211.95 320.5,213.5C 318.803,214.364 317.637,215.697 317,217.5C 316.502,220.482 316.335,223.482 316.5,226.5 Z"/></g>
<g><path style="opacity:1" fill="#cccbd3" d="M 336.5,211.5 C 337.777,212.694 338.444,214.36 338.5,216.5C 338.167,218.167 337.833,219.833 337.5,221.5C 336.513,218.232 336.18,214.898 336.5,211.5 Z"/></g>
<g><path style="opacity:0.994" fill="#0f203f" d="M 293.5,31.5 C 294.953,32.8249 294.619,33.6582 292.5,34C 294.345,35.128 296.345,35.628 298.5,35.5C 280.289,40.2733 263.955,48.7733 249.5,61C 284.459,62.4664 319.459,62.9664 354.5,62.5C 346.343,63.3294 338.01,63.8294 329.5,64C 343.339,64.1689 357.006,64.6689 370.5,65.5C 329.5,65.5 288.5,65.5 247.5,65.5C 261.994,64.6687 276.661,64.1687 291.5,64C 276.504,63.5001 261.504,63.3334 246.5,63.5C 246.657,64.8734 246.49,66.2068 246,67.5C 245.577,66.0439 244.744,65.5439 243.5,66C 244.625,89.9233 245.292,113.923 245.5,138C 244.838,160.833 244.671,183.667 245,206.5C 245.169,193.66 245.669,180.993 246.5,168.5C 246.333,182.171 246.5,195.837 247,209.5C 247.471,211.246 248.138,212.913 249,214.5C 253.589,219.034 259.089,221.868 265.5,223C 277.884,224.46 290.217,226.127 302.5,228C 308.821,230.326 313.987,234.16 318,239.5C 322.293,231.883 328.793,227.383 337.5,226C 349.684,225.145 361.684,223.311 373.5,220.5C 374.122,221.627 374.955,222.627 376,223.5C 378.798,221.201 381.465,221.201 384,223.5C 386.818,220.949 388.652,221.283 389.5,224.5C 352.233,252.956 312.233,257.456 269.5,238C 225.342,213.115 205.509,175.282 210,124.5C 218.516,79.6624 244.016,49.1624 286.5,33C 288.813,32.338 291.146,31.838 293.5,31.5 Z"/></g>
<g><path style="opacity:1" fill="#de1d35" d="M 242.5,67.5 C 243.831,114.668 243.831,162.002 242.5,209.5C 219.112,183.978 210.279,153.978 216,119.5C 219.845,99.474 228.678,82.1407 242.5,67.5 Z"/></g>
<g><path style="opacity:1" fill="#f2f2f4" d="M 322.5,224.5 C 321.874,227.315 320.54,229.815 318.5,232C 316.689,231.581 315.022,230.581 313.5,229C 314.793,228.51 316.127,228.343 317.5,228.5C 317.982,224.43 318.982,220.43 320.5,216.5C 321.168,219.306 321.834,221.972 322.5,224.5 Z"/></g>
<g><path style="opacity:1" fill="#7f8396" d="M 323.5,223.5 C 325.288,223.215 326.955,223.548 328.5,224.5C 326.039,227.423 324.372,227.089 323.5,223.5 Z"/></g>
<g><path style="opacity:1" fill="#df1e35" d="M 315.5,242.5 C 313.735,243.461 311.735,243.795 309.5,243.5C 291.897,241.912 275.897,236.078 261.5,226C 274.908,226.766 288.242,228.432 301.5,231C 308.42,232.269 313.087,236.102 315.5,242.5 Z"/></g>
<g><path style="opacity:0.828" fill="#081d3d" d="M 236.5,226.5 C 237.251,225.427 238.251,225.26 239.5,226C 242.793,229.639 246.46,232.806 250.5,235.5C 249.833,236.833 248.833,237.833 247.5,238.5C 247.284,235.388 245.451,233.055 242,231.5C 235.185,234.393 235.019,237.393 241.5,240.5C 242.687,239.106 243.354,239.273 243.5,241C 241.707,246.249 240.207,246.415 239,241.5C 237.846,240.257 236.512,239.257 235,238.5C 233.859,240.609 232.359,242.442 230.5,244C 231.833,245.333 233.167,246.667 234.5,248C 236.112,248.72 237.612,248.554 239,247.5C 239.557,249.586 238.724,250.919 236.5,251.5C 231.812,248.822 227.479,245.656 223.5,242C 224.572,240.716 225.905,240.383 227.5,241C 231.23,236.941 234.564,232.608 237.5,228C 237.43,227.235 237.097,226.735 236.5,226.5 Z"/></g>
<g><path style="opacity:1" fill="#de1e35" d="M 379.5,223.5 C 381.842,223.775 381.842,224.608 379.5,226C 362.566,237.367 343.899,243.2 323.5,243.5C 325.425,236.415 330.092,232.248 337.5,231C 348.833,229.667 360.167,228.333 371.5,227C 374.666,226.678 377.333,225.511 379.5,223.5 Z"/></g>
<g><path style="opacity:0.793" fill="#081d3d" d="M 407.5,219.5 C 411.819,220.485 414.486,223.152 415.5,227.5C 419.218,229.027 422.885,229.694 426.5,229.5C 425.408,231.596 423.741,232.929 421.5,233.5C 417.987,232.063 414.487,231.729 411,232.5C 411.195,234.745 412.362,236.578 414.5,238C 416.095,237.383 417.428,237.716 418.5,239C 416.04,240.458 413.873,242.291 412,244.5C 411.667,243.167 411.333,241.833 411,240.5C 407.5,237 404,233.5 400.5,230C 399.049,230.263 397.716,230.096 396.5,229.5C 399.589,225.406 403.255,222.072 407.5,219.5 Z M 404.5,223.5 C 410.269,223.717 411.936,226.217 409.5,231C 408.833,231.667 408.167,231.667 407.5,231C 405.983,229.315 404.316,227.815 402.5,226.5C 403.193,225.482 403.859,224.482 404.5,223.5 Z"/></g>
<g><path style="opacity:0.629" fill="#081d3d" d="M 387.5,235.5 C 389.054,241.278 391.887,246.944 396,252.5C 397.205,253.071 398.372,253.738 399.5,254.5C 397.572,256.578 395.405,257.245 393,256.5C 390.265,262.122 386.099,263.622 380.5,261C 377.636,256.967 374.969,252.801 372.5,248.5C 371.397,248.002 370.397,247.669 369.5,247.5C 371.489,244.655 374.156,243.488 377.5,244C 376.833,244.667 376.167,245.333 375.5,246C 377.959,249.75 380.292,253.583 382.5,257.5C 385.671,260.335 388.504,260.002 391,256.5C 390.467,251.074 388.467,246.074 385,241.5C 383.865,241.273 382.698,240.94 381.5,240.5C 383.531,238.825 385.531,237.159 387.5,235.5 Z"/></g>
<g><path style="opacity:1" fill="#6b263f" d="M 315.5,242.5 C 316.043,242.56 316.376,242.893 316.5,243.5C 314.027,244.797 311.693,244.797 309.5,243.5C 311.735,243.795 313.735,243.461 315.5,242.5 Z"/></g>
<g><path style="opacity:0.762" fill="#081d3d" d="M 289.5,253.5 C 292.526,254.174 295.526,255.007 298.5,256C 297.421,256.956 296.255,257.789 295,258.5C 294.069,263.391 292.902,268.224 291.5,273C 292.022,273.95 292.689,274.784 293.5,275.5C 290.315,276.458 287.315,275.958 284.5,274C 285.766,273.691 286.933,273.191 288,272.5C 288.856,267.432 290.022,262.432 291.5,257.5C 290.775,256.133 290.108,254.8 289.5,253.5 Z"/></g>
<g><path style="opacity:1" fill="#081d3d" d="M 259.5,241.5 C 263.97,243.38 268.303,245.546 272.5,248C 277.916,254.33 277.583,260.33 271.5,266C 268.923,267.25 266.257,267.584 263.5,267C 258.937,265.719 254.604,263.886 250.5,261.5C 251.628,260.738 252.795,260.071 254,259.5C 255.893,254.713 258.06,250.047 260.5,245.5C 259.754,244.264 259.421,242.93 259.5,241.5 Z M 263.5,246.5 C 271.854,248.022 274.354,252.689 271,260.5C 266.787,265.414 262.287,265.747 257.5,261.5C 259.796,256.581 261.796,251.581 263.5,246.5 Z"/></g>
<g><path style="opacity:0.733" fill="#081d3d" d="M 330.5,256.5 C 333.134,257.658 332.967,258.658 330,259.5C 329.831,265.859 329.331,272.193 328.5,278.5C 323.466,273.631 318.966,268.298 315,262.5C 314.501,267.489 314.334,272.489 314.5,277.5C 315.552,277.351 316.552,277.517 317.5,278C 314.985,279.713 312.318,279.88 309.5,278.5C 310.242,277.713 311.075,277.047 312,276.5C 312.667,271.5 312.667,266.5 312,261.5C 311.1,260.23 309.934,259.23 308.5,258.5C 310.765,257.353 313.098,257.186 315.5,258C 319.714,262.546 323.547,267.379 327,272.5C 327.667,268.167 327.667,263.833 327,259.5C 326.25,258.874 325.416,258.374 324.5,258C 326.708,257.809 328.708,257.309 330.5,256.5 Z"/></g>
<g><path style="opacity:0.852" fill="#081d3d" d="M 350.5,252.5 C 358.216,251.316 360.882,254.316 358.5,261.5C 364.288,264.396 364.955,268.229 360.5,273C 356.822,274.103 353.155,275.27 349.5,276.5C 347.319,275.463 347.319,274.13 349.5,272.5C 348.621,266.982 347.121,261.649 345,256.5C 344.086,257.654 343.253,257.487 342.5,256C 345.231,254.828 347.898,253.661 350.5,252.5 Z M 350.5,254.5 C 355.999,255 357.332,257.5 354.5,262C 353.207,262.49 351.873,262.657 350.5,262.5C 349.768,259.734 349.768,257.068 350.5,254.5 Z M 351.5,264.5 C 357.529,263.165 360.196,265.498 359.5,271.5C 357.5,271.833 355.5,272.167 353.5,272.5C 353.037,269.779 352.371,267.112 351.5,264.5 Z"/></g>
<g><path style="opacity:0.736" fill="#081e3d" d="M -0.5,345.5 C 0.473444,345.987 1.47344,346.487 2.5,347C 15.8333,347.667 29.1667,347.667 42.5,347C 43.5358,345.383 44.7025,345.216 46,346.5C 46.4988,350.486 46.6655,354.486 46.5,358.5C 45.5,358.5 44.5,358.5 43.5,358.5C 43.2007,355.358 41.5341,353.191 38.5,352C 34.5138,351.501 30.5138,351.334 26.5,351.5C 26.3334,366.17 26.5001,380.837 27,395.5C 28.1096,397.037 29.6096,397.703 31.5,397.5C 31.5,398.5 31.5,399.5 31.5,400.5C 25.1667,400.5 18.8333,400.5 12.5,400.5C 12.5,399.5 12.5,398.5 12.5,397.5C 15.2385,398.035 17.0718,397.035 18,394.5C 18.4999,380.171 18.6666,365.837 18.5,351.5C 14.4862,351.334 10.4862,351.501 6.5,352C 3.81903,353.94 1.4857,356.107 -0.5,358.5C -0.5,354.167 -0.5,349.833 -0.5,345.5 Z"/></g>
<g><path style="opacity:0.972" fill="#081e3d" d="M 51.5,347.5 C 58.3452,347.042 65.0119,347.542 71.5,349C 68.4653,349.793 66.2987,351.626 65,354.5C 64.3333,360.5 64.3333,366.5 65,372.5C 73.6667,371.167 82.3333,371.167 91,372.5C 91.6667,365.833 91.6667,359.167 91,352.5C 89.4002,351.134 87.5668,350.134 85.5,349.5C 85.6667,349.167 85.8333,348.833 86,348.5C 92.4102,347.522 98.9102,347.189 105.5,347.5C 105.5,348.5 105.5,349.5 105.5,350.5C 102.762,349.965 100.928,350.965 100,353.5C 99.3333,367.5 99.3333,381.5 100,395.5C 101.444,397.155 103.278,397.822 105.5,397.5C 105.5,398.5 105.5,399.5 105.5,400.5C 98.8333,400.5 92.1667,400.5 85.5,400.5C 85.5,399.5 85.5,398.5 85.5,397.5C 87.7224,397.822 89.5557,397.155 91,395.5C 91.4996,388.842 91.6663,382.175 91.5,375.5C 82.5,375.5 73.5,375.5 64.5,375.5C 64.3338,381.509 64.5005,387.509 65,393.5C 65.2492,394.624 65.7492,395.624 66.5,396.5C 68.3334,397.052 70.0001,397.885 71.5,399C 65.0119,400.458 58.3452,400.958 51.5,400.5C 51.5,399.5 51.5,398.5 51.5,397.5C 53.3904,397.703 54.8904,397.037 56,395.5C 56.6667,381.167 56.6667,366.833 56,352.5C 54.8904,350.963 53.3904,350.297 51.5,350.5C 51.5,349.5 51.5,348.5 51.5,347.5 Z"/></g>
<g><path style="opacity:0.924" fill="#081e3d" d="M 177.5,347.5 C 183.833,347.5 190.167,347.5 196.5,347.5C 196.5,348.5 196.5,349.5 196.5,350.5C 193.762,349.965 191.928,350.965 191,353.5C 190.333,365.167 190.333,376.833 191,388.5C 192.834,394.323 196.834,396.99 203,396.5C 208.331,396.614 212.665,394.614 216,390.5C 216.667,377.833 216.667,365.167 216,352.5C 214.951,350.893 213.451,350.227 211.5,350.5C 211.5,349.5 211.5,348.5 211.5,347.5C 218.345,347.042 225.012,347.542 231.5,349C 229.552,349.983 227.718,351.15 226,352.5C 225.333,366.833 225.333,381.167 226,395.5C 227.718,396.85 229.552,398.017 231.5,399C 227.017,400.601 222.351,400.934 217.5,400C 216.721,398.006 216.387,396.172 216.5,394.5C 208.109,402.402 198.775,403.569 188.5,398C 187,395.833 185.5,393.667 184,391.5C 182.769,378.88 182.102,366.214 182,353.5C 180.913,351.248 179.079,349.915 176.5,349.5C 176.863,348.817 177.196,348.15 177.5,347.5 Z"/></g>
<g><path style="opacity:0.839" fill="#081e3d" d="M 298.5,347.5 C 304.842,347.334 311.175,347.5 317.5,348C 317.957,348.414 318.291,348.914 318.5,349.5C 315.921,349.915 314.087,351.248 313,353.5C 312.333,367.5 312.333,381.5 313,395.5C 314.444,397.155 316.278,397.822 318.5,397.5C 318.5,398.5 318.5,399.5 318.5,400.5C 311.833,400.5 305.167,400.5 298.5,400.5C 298.5,399.5 298.5,398.5 298.5,397.5C 301.238,398.035 303.072,397.035 304,394.5C 304.667,380.833 304.667,367.167 304,353.5C 303.072,350.965 301.238,349.965 298.5,350.5C 298.5,349.5 298.5,348.5 298.5,347.5 Z"/></g>
<g><path style="opacity:0.918" fill="#081e3d" d="M 378.5,347.5 C 391.167,347.5 403.833,347.5 416.5,347.5C 416.82,350.898 416.487,354.232 415.5,357.5C 414.289,355.578 412.956,353.745 411.5,352C 404.833,351.333 398.167,351.333 391.5,352C 392.479,358.744 392.812,365.578 392.5,372.5C 397.511,372.666 402.511,372.499 407.5,372C 409.491,370.842 411.158,369.342 412.5,367.5C 412.833,369.667 413.167,371.833 413.5,374C 413.609,376.7 413.109,379.2 412,381.5C 410.956,380.377 410.29,379.044 410,377.5C 408.933,376.809 407.766,376.309 406.5,376C 401.845,375.501 397.179,375.334 392.5,375.5C 392.5,382.5 392.5,389.5 392.5,396.5C 399.589,396.884 406.589,396.384 413.5,395C 414.429,392.609 415.929,390.775 418,389.5C 418.5,389.667 419,389.833 419.5,390C 418.427,393.12 417.427,396.287 416.5,399.5C 403.851,400.499 391.184,400.832 378.5,400.5C 378.5,399.5 378.5,398.5 378.5,397.5C 381.238,398.035 383.072,397.035 384,394.5C 384.667,380.833 384.667,367.167 384,353.5C 383.072,350.965 381.238,349.965 378.5,350.5C 378.5,349.5 378.5,348.5 378.5,347.5 Z"/></g>
<g><path style="opacity:0.985" fill="#081e3d" d="M 516.5,347.5 C 522.833,347.5 529.167,347.5 535.5,347.5C 535.5,348.5 535.5,349.5 535.5,350.5C 533.61,350.297 532.11,350.963 531,352.5C 530.333,366.833 530.333,381.167 531,395.5C 532.11,397.037 533.61,397.703 535.5,397.5C 535.5,398.5 535.5,399.5 535.5,400.5C 529.167,400.5 522.833,400.5 516.5,400.5C 516.5,399.5 516.5,398.5 516.5,397.5C 519.86,398.21 521.693,396.876 522,393.5C 522.667,380.5 522.667,367.5 522,354.5C 521.693,351.124 519.86,349.79 516.5,350.5C 516.5,349.5 516.5,348.5 516.5,347.5 Z"/></g>
<g><path style="opacity:0.958" fill="#081e3d" d="M 542.5,345.5 C 543.473,345.987 544.473,346.487 545.5,347C 558.5,347.667 571.5,347.667 584.5,347C 585.5,346.5 586.5,346 587.5,345.5C 588.833,349.833 588.833,354.167 587.5,358.5C 586.289,356.578 584.956,354.745 583.5,353C 578.599,351.675 573.599,351.175 568.5,351.5C 568.333,365.171 568.5,378.837 569,392.5C 568.791,396.459 570.625,398.126 574.5,397.5C 574.5,398.5 574.5,399.5 574.5,400.5C 568.167,400.5 561.833,400.5 555.5,400.5C 555.5,399.5 555.5,398.5 555.5,397.5C 557.39,397.703 558.89,397.037 560,395.5C 560.175,380.925 560.675,366.425 561.5,352C 557.5,351.333 553.5,351.333 549.5,352C 546.115,352.881 544.448,355.048 544.5,358.5C 543.5,358.5 542.5,358.5 541.5,358.5C 541.231,354.069 541.564,349.735 542.5,345.5 Z"/></g>
<g><path style="opacity:0.928" fill="#081e3d" d="M 639.5,347.5 C 639.5,348.5 639.5,349.5 639.5,350.5C 637.516,350.383 635.85,351.05 634.5,352.5C 629.741,359.028 625.241,365.694 621,372.5C 620.333,380.167 620.333,387.833 621,395.5C 622.6,396.866 624.433,397.866 626.5,398.5C 626.333,398.833 626.167,399.167 626,399.5C 619.582,400.643 613.082,400.81 606.5,400C 606.167,399.667 605.833,399.333 605.5,399C 608.065,398.04 610.231,396.54 612,394.5C 612.667,387.5 612.667,380.5 612,373.5C 607.75,367.335 603.75,361.002 600,354.5C 597.559,352.031 594.726,350.198 591.5,349C 598.658,347.538 605.992,347.038 613.5,347.5C 613.5,348.5 613.5,349.5 613.5,350.5C 611.052,350.01 609.385,350.843 608.5,353C 611.619,358.737 615.119,364.237 619,369.5C 622.553,364.229 625.719,358.729 628.5,353C 627.768,351.235 626.435,350.068 624.5,349.5C 624.667,349.167 624.833,348.833 625,348.5C 629.737,347.531 634.57,347.197 639.5,347.5 Z"/></g>
<g><path style="opacity:0.881" fill="#081e3d" d="M 236.5,347.5 C 241.179,347.334 245.845,347.501 250.5,348C 261.378,360.543 271.878,373.376 282,386.5C 282.909,375.108 282.576,363.775 281,352.5C 279.4,351.134 277.567,350.134 275.5,349.5C 275.709,348.914 276.043,348.414 276.5,348C 281.823,347.501 287.156,347.334 292.5,347.5C 292.5,348.5 292.5,349.5 292.5,350.5C 288.283,350.215 286.117,352.215 286,356.5C 285.833,371.178 285.333,385.845 284.5,400.5C 272.105,386.058 259.939,371.391 248,356.5C 247.333,368.833 247.333,381.167 248,393.5C 249.026,396.693 251.192,398.026 254.5,397.5C 254.5,398.5 254.5,399.5 254.5,400.5C 248.648,400.949 242.981,400.449 237.5,399C 239,397.885 240.667,397.052 242.5,396.5C 243.251,395.624 243.751,394.624 244,393.5C 244.667,380.833 244.667,368.167 244,355.5C 242.67,351.993 240.17,350.327 236.5,350.5C 236.5,349.5 236.5,348.5 236.5,347.5 Z"/></g>
<g><path style="opacity:0.99" fill="#081e3d" d="M 323.5,347.5 C 330.345,347.042 337.012,347.542 343.5,349C 342.377,350.044 341.044,350.71 339.5,351C 338.941,351.725 338.608,352.558 338.5,353.5C 342.385,364.937 346.552,376.27 351,387.5C 354.785,376.195 358.952,365.028 363.5,354C 362.793,351.46 361.127,350.293 358.5,350.5C 358.5,349.5 358.5,348.5 358.5,347.5C 363.833,347.5 369.167,347.5 374.5,347.5C 374.5,348.5 374.5,349.5 374.5,350.5C 371.737,350.744 369.571,352.077 368,354.5C 361.745,368.931 356.078,383.598 351,398.5C 350.632,399.91 349.799,400.91 348.5,401.5C 342.375,386.628 336.542,371.628 331,356.5C 329.8,352.794 327.3,350.794 323.5,350.5C 323.5,349.5 323.5,348.5 323.5,347.5 Z"/></g>
<g><path style="opacity:0.939" fill="#081e3d" d="M 489.5,346.5 C 493.755,346.584 497.922,347.251 502,348.5C 503.261,348.241 504.261,347.574 505,346.5C 506.437,350.972 506.937,355.639 506.5,360.5C 505.5,360.5 504.5,360.5 503.5,360.5C 502.026,350.946 496.693,347.779 487.5,351C 483.382,355.88 483.716,360.547 488.5,365C 495.465,368.4 501.631,372.9 507,378.5C 511.21,393.947 505.377,401.447 489.5,401C 487,400.625 484.667,399.792 482.5,398.5C 481.186,399.313 480.019,400.313 479,401.5C 478.308,400.975 477.808,400.308 477.5,399.5C 478.809,395.302 478.809,391.136 477.5,387C 478.025,386.308 478.692,385.808 479.5,385.5C 480.673,391.023 483.673,395.19 488.5,398C 495.928,399.957 500.595,397.291 502.5,390C 502.174,387.516 501.174,385.349 499.5,383.5C 493.064,379.198 486.898,374.531 481,369.5C 475.917,358.557 478.75,350.89 489.5,346.5 Z"/></g>
<g><path style="opacity:0.921" fill="#081e3d" d="M 424.5,347.5 C 433.173,347.334 441.84,347.5 450.5,348C 462.28,351.061 465.947,358.227 461.5,369.5C 459.31,371.524 456.977,373.357 454.5,375C 459.526,380.217 463.692,386.05 467,392.5C 468.886,395.242 471.386,396.909 474.5,397.5C 474.5,398.5 474.5,399.5 474.5,400.5C 470.445,400.824 466.445,400.491 462.5,399.5C 457.745,392.324 452.745,385.324 447.5,378.5C 444.724,376.87 441.724,376.203 438.5,376.5C 438.334,382.842 438.5,389.175 439,395.5C 440.718,396.85 442.552,398.017 444.5,399C 438.012,400.458 431.345,400.958 424.5,400.5C 424.5,399.5 424.5,398.5 424.5,397.5C 427.86,398.21 429.693,396.876 430,393.5C 430.667,380.5 430.667,367.5 430,354.5C 429.693,351.124 427.86,349.79 424.5,350.5C 424.5,349.5 424.5,348.5 424.5,347.5 Z M 438.5,350.5 C 450.229,349.731 455.729,355.065 455,366.5C 451.061,372.21 445.561,374.544 438.5,373.5C 438.5,365.833 438.5,358.167 438.5,350.5 Z"/></g>
<g><path style="opacity:0.867" fill="#081e3d" d="M 111.5,347.5 C 124.167,347.5 136.833,347.5 149.5,347.5C 149.82,350.898 149.487,354.232 148.5,357.5C 147.755,355.253 146.422,353.42 144.5,352C 138.175,351.5 131.842,351.334 125.5,351.5C 125.5,358.5 125.5,365.5 125.5,372.5C 130.844,372.666 136.177,372.499 141.5,372C 145.261,365.522 146.928,366.189 146.5,374C 146.609,376.7 146.109,379.2 145,381.5C 143.956,380.377 143.29,379.044 143,377.5C 141.933,376.809 140.766,376.309 139.5,376C 134.845,375.501 130.179,375.334 125.5,375.5C 125.188,382.422 125.521,389.256 126.5,396C 133.249,396.877 139.916,396.544 146.5,395C 147.479,392.863 148.812,391.029 150.5,389.5C 151.349,392.81 151.182,396.144 150,399.5C 137.246,400.489 124.413,400.822 111.5,400.5C 111.5,399.5 111.5,398.5 111.5,397.5C 114.238,398.035 116.072,397.035 117,394.5C 117.667,380.833 117.667,367.167 117,353.5C 116.072,350.965 114.238,349.965 111.5,350.5C 111.5,349.5 111.5,348.5 111.5,347.5 Z"/></g>
<g><path style="opacity:0.879" fill="#081e3d" d="M 428.5,433.5 C 439.304,432.933 449.971,433.766 460.5,436C 467.181,440.712 469.015,446.878 466,454.5C 463.617,457.273 460.783,459.439 457.5,461C 463.426,466.606 468.259,473.106 472,480.5C 473.925,482.213 476.092,483.547 478.5,484.5C 478.291,485.086 477.957,485.586 477.5,486C 473.833,486.667 470.167,486.667 466.5,486C 461.901,478.135 456.567,470.802 450.5,464C 447.649,462.711 444.649,462.211 441.5,462.5C 441.226,469.23 441.726,475.897 443,482.5C 444.356,483.38 445.856,483.714 447.5,483.5C 447.5,484.5 447.5,485.5 447.5,486.5C 440.655,486.958 433.988,486.458 427.5,485C 429.448,484.017 431.282,482.85 433,481.5C 433.667,467.167 433.667,452.833 433,438.5C 431.282,437.15 429.448,435.983 427.5,435C 428.056,434.617 428.389,434.117 428.5,433.5 Z M 441.5,437.5 C 451.394,435.103 457.394,438.77 459.5,448.5C 457.118,457.705 451.118,461.372 441.5,459.5C 441.5,452.167 441.5,444.833 441.5,437.5 Z"/></g>
<g><path style="opacity:0.931" fill="#091e3c" d="M 131.5,433.5 C 143.838,433.333 156.171,433.5 168.5,434C 169.787,437.125 169.787,440.291 168.5,443.5C 167.398,441.111 165.731,439.277 163.5,438C 157.175,437.5 150.842,437.334 144.5,437.5C 144.5,444.5 144.5,451.5 144.5,458.5C 150.176,458.666 155.843,458.499 161.5,458C 163.037,456.89 163.703,455.39 163.5,453.5C 164.5,453.5 165.5,453.5 166.5,453.5C 166.5,457.833 166.5,462.167 166.5,466.5C 165.5,466.5 164.5,466.5 163.5,466.5C 163.594,463.459 162.094,461.793 159,461.5C 154.667,462.833 150.333,462.833 146,461.5C 144.23,468.368 144.063,475.368 145.5,482.5C 151.842,482.666 158.175,482.5 164.5,482C 166.923,480.429 168.256,478.263 168.5,475.5C 169.5,475.5 170.5,475.5 171.5,475.5C 170.833,479.167 170.167,482.833 169.5,486.5C 156.833,486.5 144.167,486.5 131.5,486.5C 131.5,485.5 131.5,484.5 131.5,483.5C 133.144,483.714 134.644,483.38 136,482.5C 136.667,467.833 136.667,453.167 136,438.5C 134.89,436.963 133.39,436.297 131.5,436.5C 131.5,435.5 131.5,434.5 131.5,433.5 Z"/></g>
<g><path style="opacity:0.922" fill="#091d3d" d="M 237.5,433.5 C 243.833,433.5 250.167,433.5 256.5,433.5C 256.5,434.5 256.5,435.5 256.5,436.5C 253.495,436.25 251.662,437.583 251,440.5C 250.333,453.5 250.333,466.5 251,479.5C 251.307,482.876 253.14,484.21 256.5,483.5C 256.5,484.5 256.5,485.5 256.5,486.5C 249.655,486.958 242.988,486.458 236.5,485C 238.448,484.017 240.282,482.85 242,481.5C 242.667,467.167 242.667,452.833 242,438.5C 240.4,437.134 238.567,436.134 236.5,435.5C 236.863,434.817 237.196,434.15 237.5,433.5 Z"/></g>
<g><path style="opacity:1" fill="#081e3d" d="M 262.5,433.5 C 266.846,433.334 271.179,433.501 275.5,434C 286.378,446.543 296.878,459.376 307,472.5C 307.667,461.5 307.667,450.5 307,439.5C 305.333,437.372 303.166,436.039 300.5,435.5C 300.709,434.914 301.043,434.414 301.5,434C 306.823,433.501 312.156,433.334 317.5,433.5C 317.5,434.5 317.5,435.5 317.5,436.5C 313.304,436.342 311.137,438.342 311,442.5C 310.177,456.742 310.344,470.908 311.5,485C 310.975,485.692 310.308,486.192 309.5,486.5C 297.508,472.337 285.674,458.004 274,443.5C 273.333,456.167 273.333,468.833 274,481.5C 275.444,483.155 277.278,483.822 279.5,483.5C 279.5,484.5 279.5,485.5 279.5,486.5C 274.167,486.5 268.833,486.5 263.5,486.5C 263.5,485.5 263.5,484.5 263.5,483.5C 266.86,484.21 268.693,482.876 269,479.5C 269.667,466.833 269.667,454.167 269,441.5C 268.691,440.234 268.191,439.067 267.5,438C 265.369,437.457 263.369,436.624 261.5,435.5C 261.863,434.817 262.196,434.15 262.5,433.5 Z"/></g>
<g><path style="opacity:0.948" fill="#091e3c" d="M 322.5,433.5 C 329.841,433.334 337.174,433.5 344.5,434C 358.216,434.954 362.716,441.787 358,454.5C 356.027,455.64 354.193,456.973 352.5,458.5C 362.142,462.597 365.308,469.597 362,479.5C 360.062,482.106 357.562,483.939 354.5,485C 343.889,486.375 333.222,486.875 322.5,486.5C 322.5,485.5 322.5,484.5 322.5,483.5C 325.244,483.8 326.911,482.633 327.5,480C 328.833,466.667 328.833,453.333 327.5,440C 326.911,437.367 325.244,436.2 322.5,436.5C 322.5,435.5 322.5,434.5 322.5,433.5 Z M 335.5,436.5 C 339.866,437.072 344.199,437.905 348.5,439C 354.113,444.999 353.779,450.666 347.5,456C 343.605,457.266 339.605,457.766 335.5,457.5C 335.5,450.5 335.5,443.5 335.5,436.5 Z M 335.5,460.5 C 341.804,459.781 347.304,461.447 352,465.5C 355.545,471.225 355.045,476.558 350.5,481.5C 345.901,484.076 341.401,484.076 337,481.5C 335.616,474.589 335.116,467.589 335.5,460.5 Z"/></g>
<g><path style="opacity:0.704" fill="#081e3d" d="M 178.5,433.5 C 190.945,432.952 203.279,433.786 215.5,436C 232.242,446.469 235.742,460.302 226,477.5C 222.547,481.145 218.38,483.645 213.5,485C 201.872,486.499 190.206,486.832 178.5,486C 178.043,485.586 177.709,485.086 177.5,484.5C 179.567,483.866 181.4,482.866 183,481.5C 183.667,467.5 183.667,453.5 183,439.5C 181.638,437.564 179.805,436.231 177.5,435.5C 177.863,434.817 178.196,434.15 178.5,433.5 Z M 191.5,437.5 C 198.241,437.171 204.908,437.671 211.5,439C 223.447,449.635 225.614,462.135 218,476.5C 210.175,483.934 201.509,485.267 192,480.5C 191.5,466.171 191.333,451.837 191.5,437.5 Z"/></g>
<g><path style="opacity:0.923" fill="#081e3c" d="M 532.5,433.5 C 538.833,433.5 545.167,433.5 551.5,433.5C 551.5,434.5 551.5,435.5 551.5,436.5C 549.61,436.297 548.11,436.963 547,438.5C 545.671,445.092 545.171,451.759 545.5,458.5C 554.5,458.5 563.5,458.5 572.5,458.5C 572.666,451.825 572.5,445.158 572,438.5C 570.082,437.458 568.249,436.292 566.5,435C 569.647,433.872 572.98,433.372 576.5,433.5C 579.5,433.667 582.5,433.833 585.5,434C 585.957,434.414 586.291,434.914 586.5,435.5C 584.195,436.231 582.362,437.564 581,439.5C 580.333,453.167 580.333,466.833 581,480.5C 582.087,482.752 583.921,484.085 586.5,484.5C 586.333,484.833 586.167,485.167 586,485.5C 582.919,486.146 579.752,486.479 576.5,486.5C 572.98,486.628 569.647,486.128 566.5,485C 568.448,484.017 570.282,482.85 572,481.5C 572.5,474.842 572.666,468.175 572.5,461.5C 563.5,461.5 554.5,461.5 545.5,461.5C 545.161,468.574 545.661,475.574 547,482.5C 548.356,483.38 549.856,483.714 551.5,483.5C 551.5,484.5 551.5,485.5 551.5,486.5C 544.655,486.958 537.988,486.458 531.5,485C 533.448,484.017 535.282,482.85 537,481.5C 537.667,467.167 537.667,452.833 537,438.5C 535.282,437.15 533.448,435.983 531.5,435C 532.056,434.617 532.389,434.117 532.5,433.5 Z"/></g>
<g><path style="opacity:0.996" fill="#081e3d" d="M 69.5,454.5 C 76.6451,454.642 80.6451,458.309 81.5,465.5C 80.0669,477.255 73.7336,484.588 62.5,487.5C 53.9894,485.494 50.8227,480.16 53,471.5C 55.3848,462.617 60.8848,456.951 69.5,454.5 Z M 66.5,458.5 C 72.5814,458.281 75.2481,461.281 74.5,467.5C 74.2172,471.739 73.0505,475.739 71,479.5C 64.7849,485.571 60.6182,484.405 58.5,476C 58.6171,468.936 61.2838,463.103 66.5,458.5 Z"/></g>
<g><path style="opacity:0.889" fill="#081e3d" d="M 75.5,510.5 C 71.8333,510.5 68.1667,510.5 64.5,510.5C 62.6136,509.935 60.9469,508.935 59.5,507.5C 59.8516,504.691 61.0183,502.358 63,500.5C 64.8823,507.011 69.0489,509.178 75.5,507C 79.3022,504.913 81.8022,501.746 83,497.5C 86.0975,484.577 88.4308,471.577 90,458.5C 88.3005,459.406 86.4672,459.739 84.5,459.5C 84.5,458.167 84.5,456.833 84.5,455.5C 86.8333,455.5 89.1667,455.5 91.5,455.5C 91.3953,446.374 94.3953,438.54 100.5,432C 102.087,431.138 103.754,430.471 105.5,430C 109.559,430.202 113.559,430.036 117.5,429.5C 117.322,432.216 116.822,434.883 116,437.5C 114.989,438.337 113.822,438.67 112.5,438.5C 111.54,432.452 108.373,431.119 103,434.5C 99.7125,441.098 97.8791,448.098 97.5,455.5C 99.9775,455.051 101.977,455.717 103.5,457.5C 101.685,459.694 99.518,460.028 97,458.5C 94.4488,473.037 91.1154,487.37 87,501.5C 83.9074,505.608 80.0741,508.608 75.5,510.5 Z"/></g>
<g><path style="opacity:0.895" fill="#081e3d" d="M 499.5,432.5 C 505.856,432.297 512.023,433.297 518,435.5C 519.567,434.144 521.4,433.477 523.5,433.5C 523.5,438.833 523.5,444.167 523.5,449.5C 522.5,449.5 521.5,449.5 520.5,449.5C 519.123,442.287 514.789,437.787 507.5,436C 496.874,435.271 490.041,440.104 487,450.5C 483.449,464.888 487.949,475.722 500.5,483C 513.513,486.317 518.013,481.484 514,468.5C 512.535,466.085 510.368,465.085 507.5,465.5C 507.351,464.448 507.517,463.448 508,462.5C 514.47,463.818 520.97,463.818 527.5,462.5C 528.308,462.808 528.975,463.308 529.5,464C 526.935,464.96 524.769,466.46 523,468.5C 522.194,474.084 522.361,479.584 523.5,485C 513.249,488.297 502.916,488.297 492.5,485C 479.751,478.327 474.918,467.827 478,453.5C 481.212,442.334 488.379,435.334 499.5,432.5 Z"/></g>
<g><path style="opacity:0.892" fill="#091e3c" d="M 368.5,433.5 C 374.758,433.19 380.924,433.524 387,434.5C 387.167,434.833 387.333,435.167 387.5,435.5C 384.921,435.915 383.087,437.248 382,439.5C 381.333,451.167 381.333,462.833 382,474.5C 384.238,480.457 388.571,483.457 395,483.5C 399.731,482.439 403.731,480.106 407,476.5C 407.667,463.833 407.667,451.167 407,438.5C 405.89,436.963 404.39,436.297 402.5,436.5C 402.5,435.5 402.5,434.5 402.5,433.5C 408.833,433.5 415.167,433.5 421.5,433.5C 421.5,434.5 421.5,435.5 421.5,436.5C 418.708,436.452 416.875,437.785 416,440.5C 415.333,453.5 415.333,466.5 416,479.5C 416.662,482.417 418.495,483.75 421.5,483.5C 421.5,484.5 421.5,485.5 421.5,486.5C 417.154,486.666 412.821,486.499 408.5,486C 407.582,483.867 407.416,481.7 408,479.5C 399.675,488.146 390.175,489.646 379.5,484C 376.769,481.374 374.936,478.207 374,474.5C 373.667,463.167 373.333,451.833 373,440.5C 372.144,437.812 370.31,436.146 367.5,435.5C 367.863,434.817 368.196,434.15 368.5,433.5 Z"/></g>
</svg>
