<?xml version="1.0" encoding="UTF-8"?>
<!DOCTYPE svg PUBLIC "-//W3C//DTD SVG 1.1//EN" "http://www.w3.org/Graphics/SVG/1.1/DTD/svg11.dtd">
<svg xmlns="http://www.w3.org/2000/svg" version="1.1" width="367px" height="395px" style="shape-rendering:geometricPrecision; text-rendering:geometricPrecision; image-rendering:optimizeQuality; fill-rule:evenodd; clip-rule:evenodd" xmlns:xlink="http://www.w3.org/1999/xlink">
<g><path style="opacity:0.146" fill="#cdd0d9" d="M 176.5,12.5 C 179.5,12.1667 180.833,13.5 180.5,16.5C 179.5,16.5 178.5,16.5 177.5,16.5C 177.384,23.8742 177.884,31.2075 179,38.5C 180.706,39.3079 181.539,40.6412 181.5,42.5C 178.223,42.2161 175.057,42.5495 172,43.5C 170.294,42.6921 169.461,41.3588 169.5,39.5C 170.5,39.5 171.5,39.5 172.5,39.5C 172.388,34.4888 172.054,29.4888 171.5,24.5C 171.232,20.4566 170.232,16.7899 168.5,13.5C 171.385,13.8064 174.052,13.4731 176.5,12.5 Z"/></g>
<g><path style="opacity:0.553" fill="#c7cbd4" d="M 213.5,27.5 C 213.865,23.2629 215.865,20.0962 219.5,18C 217.866,17.5065 216.199,17.3398 214.5,17.5C 214.032,21.4439 212.699,25.1105 210.5,28.5C 210.957,29.2975 211.624,29.6309 212.5,29.5C 210.196,34.109 207.862,38.7757 205.5,43.5C 204.998,44.521 204.332,44.6877 203.5,44C 201.606,42.8989 200.939,41.5655 201.5,40C 199.625,33.6307 198.125,27.1307 197,20.5C 195.87,18.0671 194.704,15.7338 193.5,13.5C 196.85,13.335 200.183,13.5017 203.5,14C 205.007,14.8373 205.507,16.0039 205,17.5C 204.333,18.8333 203.667,18.8333 203,17.5C 202.953,22.4223 204.12,27.089 206.5,31.5C 209.182,27.9853 211.516,24.1519 213.5,20C 211.963,18.8904 211.297,17.3904 211.5,15.5C 215.315,15.2818 218.648,16.2818 221.5,18.5C 220.086,19.624 218.586,20.624 217,21.5C 216.059,23.7274 214.892,25.7274 213.5,27.5 Z"/></g>
<g><path style="opacity:0.227" fill="#d5d8e0" d="M 246.5,43.5 C 246.472,41.4176 247.139,39.5843 248.5,38C 245.078,38.8215 241.745,38.3215 238.5,36.5C 237.702,36.0431 237.369,35.3764 237.5,34.5C 238.031,31.763 238.864,29.0964 240,26.5C 241.011,25.6634 242.178,25.33 243.5,25.5C 242.003,24.6942 240.336,24.0276 238.5,23.5C 237.438,27.2858 236.105,30.9525 234.5,34.5C 233.022,38.613 231.355,42.7797 229.5,47C 229.743,47.9021 230.077,48.7354 230.5,49.5C 227.712,49.9231 225.712,48.9231 224.5,46.5C 225.289,44.5121 226.455,44.1787 228,45.5C 230.696,39.0784 233.196,32.5784 235.5,26C 234.144,24.4329 233.477,22.5996 233.5,20.5C 240.538,22.3432 247.538,24.3432 254.5,26.5C 254.326,28.861 253.993,31.1944 253.5,33.5C 252.022,33.762 250.689,33.4287 249.5,32.5C 247.861,29.0027 245.195,27.5027 241.5,28C 240.5,30.3333 239.5,32.6667 238.5,35C 240.459,35.9309 242.459,36.7643 244.5,37.5C 245.85,36.0499 247.516,35.3832 249.5,35.5C 249.655,38.716 248.655,41.3826 246.5,43.5 Z"/></g>
<g><path style="opacity:0.976" fill="#272f48" d="M 243.5,25.5 C 246.425,25.4598 249.091,26.2932 251.5,28C 252.517,29.0495 252.684,30.2161 252,31.5C 251.626,30.5838 251.126,29.7504 250.5,29C 248.075,27.7874 245.741,26.6207 243.5,25.5 Z"/></g>
<g><path style="opacity:0.396" fill="#787f94" d="M 213.5,27.5 C 213.672,28.4916 213.338,29.1583 212.5,29.5C 211.624,29.6309 210.957,29.2975 210.5,28.5C 212.699,25.1105 214.032,21.4439 214.5,17.5C 216.199,17.3398 217.866,17.5065 219.5,18C 215.865,20.0962 213.865,23.2629 213.5,27.5 Z"/></g>
<g><path style="opacity:1" fill="#142249" d="M 243.5,25.5 C 242.178,25.33 241.011,25.6634 240,26.5C 238.864,29.0964 238.031,31.763 237.5,34.5C 236.849,35.0906 236.182,35.7573 235.5,36.5C 234.702,36.0431 234.369,35.3764 234.5,34.5C 236.105,30.9525 237.438,27.2858 238.5,23.5C 240.336,24.0276 242.003,24.6942 243.5,25.5 Z"/></g>
<g><path style="opacity:0.102" fill="#d0d3db" d="M 133.5,35.5 C 132.388,33.4006 131.721,31.0673 131.5,28.5C 132.5,28.5 133.5,28.5 134.5,28.5C 136.353,29.6143 136.853,28.9476 136,26.5C 133.614,23.3265 130.781,22.4932 127.5,24C 128.823,24.8159 129.489,25.9826 129.5,27.5C 131.317,33.7662 132.984,40.0995 134.5,46.5C 134.291,47.086 133.957,47.586 133.5,48C 135.403,48.7737 137.07,48.4404 138.5,47C 136.881,46.7645 135.881,45.9311 135.5,44.5C 137.042,45.3007 138.708,45.634 140.5,45.5C 140.67,46.8221 140.337,47.9887 139.5,49C 136.568,49.9533 133.568,50.4533 130.5,50.5C 132.929,44.4311 132.262,38.5978 128.5,33C 129.354,31.119 129.021,29.2857 127.5,27.5C 125.518,26.7838 123.851,25.6171 122.5,24C 124.761,22.0368 127.428,20.8702 130.5,20.5C 136.528,25.0279 142.695,29.3612 149,33.5C 149.785,27.6282 147.618,22.7949 142.5,19C 145.653,16.5709 149.32,15.4042 153.5,15.5C 153.297,17.6382 152.297,19.3049 150.5,20.5C 153.118,28.3524 155.118,36.3524 156.5,44.5C 155.127,44.6567 153.793,44.49 152.5,44C 146.364,39.2053 140.197,34.372 134,29.5C 133.505,31.4727 133.338,33.4727 133.5,35.5 Z"/></g>
<g><path style="opacity:1" fill="#1e2a50" d="M 152.5,37.5 C 152.833,37.5 153.167,37.5 153.5,37.5C 153.421,38.9305 153.754,40.2638 154.5,41.5C 153.998,42.521 153.332,42.6877 152.5,42C 147.141,38.3126 142.141,34.1459 137.5,29.5C 137.833,29.1667 138.167,28.8333 138.5,28.5C 142.884,32.02 147.55,35.02 152.5,37.5 Z"/></g>
<g><path style="opacity:0.82" fill="#5e667f" d="M 134.5,28.5 C 133.5,28.5 132.5,28.5 131.5,28.5C 131.721,31.0673 132.388,33.4006 133.5,35.5C 133.676,38.7273 134.343,41.7273 135.5,44.5C 135.881,45.9311 136.881,46.7645 138.5,47C 137.07,48.4404 135.403,48.7737 133.5,48C 133.957,47.586 134.291,47.086 134.5,46.5C 132.984,40.0995 131.317,33.7662 129.5,27.5C 131.586,25.9766 133.252,26.31 134.5,28.5 Z"/></g>
<g><path style="opacity:0.8" fill="#485069" d="M 153.5,37.5 C 153.167,37.5 152.833,37.5 152.5,37.5C 151.004,32.1851 149.504,26.8517 148,21.5C 147.5,20.3333 146.667,19.5 145.5,19C 146.872,18.5983 148.205,18.0983 149.5,17.5C 150.429,23.9406 151.762,30.6072 153.5,37.5 Z"/></g>
<g><path style="opacity:1" fill="#12234c" d="M 134.5,28.5 C 133.252,26.31 131.586,25.9766 129.5,27.5C 129.489,25.9826 128.823,24.8159 127.5,24C 130.781,22.4932 133.614,23.3265 136,26.5C 136.853,28.9476 136.353,29.6143 134.5,28.5 Z"/></g>
<g><path style="opacity:1" fill="#28335a" d="M 171.5,16.5 C 172.919,15.5489 174.585,15.2155 176.5,15.5C 176.334,23.1739 176.5,30.8406 177,38.5C 177.833,39.3333 178.667,40.1667 179.5,41C 176.833,41.6667 174.167,41.6667 171.5,41C 172.796,37.0913 173.463,32.9246 173.5,28.5C 173.491,24.107 172.824,20.107 171.5,16.5 Z"/></g>
<g><path style="opacity:0.408" fill="#bdc1cc" d="M 109.5,39.5 C 107.016,37.8802 105.516,35.5469 105,32.5C 104.167,33.3333 103.333,34.1667 102.5,35C 105.906,40.3141 108.906,45.8141 111.5,51.5C 111.485,54.8791 110.485,57.8791 108.5,60.5C 105.13,62.0591 101.964,61.7258 99,59.5C 98.5172,58.552 98.3505,57.552 98.5,56.5C 103.907,61.8773 107.907,60.7107 110.5,53C 107.782,47.272 104.615,41.772 101,36.5C 99.6329,37.5243 98.7995,37.0243 98.5,35C 101.396,32.2185 104.729,30.5518 108.5,30C 108.833,30.3333 109.167,30.6667 109.5,31C 108.426,31.7387 107.759,32.7387 107.5,34C 108.32,35.8003 108.986,37.6336 109.5,39.5 Z"/></g>
<g><path style="opacity:1" fill="#15224b" d="M 197.5,15.5 C 200.888,14.835 201.888,15.835 200.5,18.5C 201.712,25.1341 203.712,31.4675 206.5,37.5C 205.667,39.1667 204.833,40.8333 204,42.5C 201.804,33.7323 199.638,24.7323 197.5,15.5 Z"/></g>
<g><path style="opacity:0.882" fill="#dfe1e9" d="M 133.5,35.5 C 135.265,38.1226 135.932,41.1226 135.5,44.5C 134.343,41.7273 133.676,38.7273 133.5,35.5 Z"/></g>
<g><path style="opacity:0.173" fill="#cdd1da" d="M 246.5,43.5 C 245.791,44.404 244.791,44.7373 243.5,44.5C 243.5,43.1667 243.5,41.8333 243.5,40.5C 241.194,40.0074 238.861,39.6741 236.5,39.5C 236.276,41.7867 235.609,43.9534 234.5,46C 236.14,48.0712 238.307,49.2378 241,49.5C 243.086,48.5819 245.253,47.9153 247.5,47.5C 246.879,54.4406 243.546,56.1073 237.5,52.5C 236.914,52.7093 236.414,53.0426 236,53.5C 234.544,51.5347 232.71,50.2013 230.5,49.5C 232.861,49.6741 235.194,50.0074 237.5,50.5C 235.681,49.4155 234.015,48.0822 232.5,46.5C 233.801,43.5729 234.801,40.5729 235.5,37.5C 240.455,37.6645 244.122,39.6645 246.5,43.5 Z"/></g>
<g><path style="opacity:0.992" fill="#212e55" d="M 98.5,56.5 C 98.3505,57.552 98.5172,58.552 99,59.5C 101.964,61.7258 105.13,62.0591 108.5,60.5C 104.122,64.7139 99.9553,64.3806 96,59.5C 93.3333,54.8333 90.6667,50.1667 88,45.5C 86.9326,44.8095 85.7659,44.3095 84.5,44C 86.5873,43.2078 88.4207,42.0412 90,40.5C 90.2895,42.9519 90.9562,45.2852 92,47.5C 93.6985,50.921 95.8652,53.921 98.5,56.5 Z"/></g>
<g><path style="opacity:0.965" fill="#2e3658" d="M 234.5,34.5 C 234.369,35.3764 234.702,36.0431 235.5,36.5C 236.182,35.7573 236.849,35.0906 237.5,34.5C 237.369,35.3764 237.702,36.0431 238.5,36.5C 241.745,38.3215 245.078,38.8215 248.5,38C 247.139,39.5843 246.472,41.4176 246.5,43.5C 244.122,39.6645 240.455,37.6645 235.5,37.5C 234.801,40.5729 233.801,43.5729 232.5,46.5C 234.015,48.0822 235.681,49.4155 237.5,50.5C 235.194,50.0074 232.861,49.6741 230.5,49.5C 230.077,48.7354 229.743,47.9021 229.5,47C 231.355,42.7797 233.022,38.613 234.5,34.5 Z"/></g>
<g><path style="opacity:0.29" fill="#c1c5cf" d="M 98.5,56.5 C 95.8652,53.921 93.6985,50.921 92,47.5C 90.9562,45.2852 90.2895,42.9519 90,40.5C 88.4207,42.0412 86.5873,43.2078 84.5,44C 85.7659,44.3095 86.9326,44.8095 88,45.5C 90.6667,50.1667 93.3333,54.8333 96,59.5C 99.9553,64.3806 104.122,64.7139 108.5,60.5C 109.167,60.5 109.833,60.5 110.5,60.5C 104.756,67.2561 99.2556,66.9228 94,59.5C 91.3977,55.2943 89.0643,50.961 87,46.5C 85.051,46.5367 83.2176,46.0367 81.5,45C 84.8156,41.1673 88.8156,39.334 93.5,39.5C 92.8333,40.5 92.1667,41.5 91.5,42.5C 94.3716,46.9099 96.7049,51.5765 98.5,56.5 Z"/></g>
<g><path style="opacity:0.247" fill="#c3c7d1" d="M 109.5,39.5 C 112.225,43.2676 114.725,47.2676 117,51.5C 118.947,52.1097 120.781,52.9431 122.5,54C 118.977,56.8291 115.311,58.6624 111.5,59.5C 111.5,57.5 112.5,56.5 114.5,56.5C 115.922,56.2914 117.255,55.7914 118.5,55C 113.832,50.8353 110.832,45.6687 109.5,39.5 Z"/></g>
<g><path style="opacity:0.561" fill="#c0c4ce" d="M 271.5,35.5 C 276.404,38.2304 280.904,41.5637 285,45.5C 288.097,51.9696 286.263,56.3029 279.5,58.5C 278.722,64.2298 278.389,69.8965 278.5,75.5C 276.185,74.7657 274.352,73.4324 273,71.5C 272.8,67.2467 272.3,63.08 271.5,59C 272.15,57.3908 271.65,55.8908 270,54.5C 266.222,57.2302 265.055,60.7302 266.5,65C 266.37,66.0588 265.87,66.8921 265,67.5C 262.958,64.9606 260.458,62.9606 257.5,61.5C 256.614,60.675 256.281,59.675 256.5,58.5C 259.808,59.0262 261.974,57.6928 263,54.5C 265.084,50.6641 267.417,46.9974 270,43.5C 270.932,40.9229 271.432,38.2562 271.5,35.5 Z M 276.5,43.5 C 281.053,45.6548 282.053,48.8215 279.5,53C 276.534,53.8952 273.867,53.3952 271.5,51.5C 273.193,48.8159 274.86,46.1492 276.5,43.5 Z"/></g>
<g><path style="opacity:1" fill="#1f2d52" d="M 272.5,38.5 C 273.815,39.4756 275.148,40.4756 276.5,41.5C 271.217,48.4084 266.717,55.7418 263,63.5C 261.926,62.3816 260.76,61.3816 259.5,60.5C 263.232,56.0506 266.732,51.3839 270,46.5C 271.707,44.0912 272.54,41.4245 272.5,38.5 Z"/></g>
<g><path style="opacity:1" fill="#1b2851" d="M 109.5,39.5 C 110.832,45.6687 113.832,50.8353 118.5,55C 117.255,55.7914 115.922,56.2914 114.5,56.5C 113.64,54.7121 112.64,53.0455 111.5,51.5C 108.906,45.8141 105.906,40.3141 102.5,35C 103.333,34.1667 104.167,33.3333 105,32.5C 105.516,35.5469 107.016,37.8802 109.5,39.5 Z"/></g>
<g><path style="opacity:1" fill="#1c2032" d="M 237.5,50.5 C 239.927,50.523 242.26,51.023 244.5,52C 241.788,52.8258 239.455,52.3258 237.5,50.5 Z"/></g>
<g><path style="opacity:0.933" fill="#2f3a5e" d="M 281.5,44.5 C 286.523,50.9839 285.023,55.3173 277,57.5C 276.198,62.419 276.365,67.2523 277.5,72C 276.004,72.5074 274.837,72.0074 274,70.5C 273.501,65.5111 273.334,60.5111 273.5,55.5C 281.282,55.6105 283.949,51.9438 281.5,44.5 Z"/></g>
<g><path style="opacity:0.659" fill="#82889b" d="M 111.5,51.5 C 112.64,53.0455 113.64,54.7121 114.5,56.5C 112.5,56.5 111.5,57.5 111.5,59.5C 111.5,60.1667 111.167,60.5 110.5,60.5C 109.833,60.5 109.167,60.5 108.5,60.5C 110.485,57.8791 111.485,54.8791 111.5,51.5 Z"/></g>
<g><path style="opacity:0.173" fill="#ccd0d9" d="M 261.5,80.5 C 260.833,80.5 260.167,80.5 259.5,80.5C 221.101,55.7641 180.101,50.4308 136.5,64.5C 135.833,64.5 135.167,64.5 134.5,64.5C 174.29,50.2172 212.956,53.0505 250.5,73C 254.345,75.363 258.011,77.863 261.5,80.5 Z"/></g>
<g><path style="opacity:1" fill="#e3023e" d="M 253.5,80.5 C 247.178,80.484 246.845,81.8173 252.5,84.5C 253.812,83.5396 255.146,83.7063 256.5,85C 256.167,85.3333 255.833,85.6667 255.5,86C 258.141,86.3228 260.475,87.3228 262.5,89C 259.441,89.0577 257.108,90.391 255.5,93C 216.5,93.3333 177.5,93.6667 138.5,94C 182.832,94.5 227.165,94.6667 271.5,94.5C 271.5,94.8333 271.5,95.1667 271.5,95.5C 256.833,95.5 242.167,95.5 227.5,95.5C 198.167,95.5 168.833,95.5 139.5,95.5C 125.5,95.5 111.5,95.5 97.5,95.5C 110.66,94.669 123.994,94.169 137.5,94C 124.322,93.5655 111.322,93.0655 98.5,92.5C 101.486,87.8268 104.82,87.4935 108.5,91.5C 112.384,89.406 116.384,88.5726 120.5,89C 120.48,87.285 119.814,85.4516 118.5,83.5C 119.624,82.086 120.624,80.586 121.5,79C 119.214,77.5347 119.714,76.7013 123,76.5C 125.835,77.7213 128.668,77.7213 131.5,76.5C 131.67,75.1779 131.337,74.0113 130.5,73C 134.402,71.435 138.069,69.6017 141.5,67.5C 146.36,64.7156 151.693,63.3823 157.5,63.5C 159.483,63.8432 160.817,63.1765 161.5,61.5C 194.574,57.4167 225.241,63.7501 253.5,80.5 Z"/></g>
<g><path style="opacity:0.224" fill="#dcdee3" d="M 303.5,65.5 C 306.944,63.9095 309.944,64.5762 312.5,67.5C 309.692,66.0712 306.692,65.4045 303.5,65.5 Z"/></g>
<g><path style="opacity:0.325" fill="#e2e4e8" d="M 312.5,67.5 C 314.033,69.3548 315.7,71.1881 317.5,73C 316.956,73.7172 316.289,74.2172 315.5,74.5C 314.242,72.3131 313.242,69.9798 312.5,67.5 Z"/></g>
<g><path style="opacity:1" fill="#21234d" d="M 259.5,80.5 C 265.351,84.9278 271.017,89.5945 276.5,94.5C 274.784,94.6287 273.117,94.962 271.5,95.5C 271.5,95.1667 271.5,94.8333 271.5,94.5C 266.318,88.8337 260.318,84.1671 253.5,80.5C 225.241,63.7501 194.574,57.4167 161.5,61.5C 159.517,61.1568 158.183,61.8235 157.5,63.5C 151.693,63.3823 146.36,64.7156 141.5,67.5C 123.686,72.3202 108.02,80.9869 94.5,93.5C 94.5,92.5 94.5,91.5 94.5,90.5C 106.922,79.2886 120.922,70.622 136.5,64.5C 180.101,50.4308 221.101,55.7641 259.5,80.5 Z"/></g>
<g><path style="opacity:1" fill="#822250" d="M 161.5,61.5 C 160.817,63.1765 159.483,63.8432 157.5,63.5C 158.183,61.8235 159.517,61.1568 161.5,61.5 Z"/></g>
<g><path style="opacity:0.012" fill="#fdfefe" d="M 50.5,77.5 C 51.8333,78.1667 51.8333,78.1667 50.5,77.5 Z"/></g>
<g><path style="opacity:0.502" fill="#b5b9c5" d="M 50.5,77.5 C 48.9669,79.3548 47.3003,81.1881 45.5,83C 47.9768,84.6427 50.3102,86.476 52.5,88.5C 55.7213,86.3872 57.0546,83.3872 56.5,79.5C 58.9628,79.7811 61.1295,80.7811 63,82.5C 63.7805,83.9437 63.6139,85.277 62.5,86.5C 61.549,85.6744 60.549,85.5078 59.5,86C 58.5467,87.9552 57.2134,89.6218 55.5,91C 57.6846,93.7437 60.3513,95.4103 63.5,96C 64.3041,94.2287 65.4708,92.7287 67,91.5C 67.7429,89.5594 67.5762,87.7261 66.5,86C 68.3064,83.8632 69.6397,84.0299 70.5,86.5C 69.3065,86.9704 68.6399,87.9704 68.5,89.5C 68.6399,91.0296 69.3065,92.0296 70.5,92.5C 67.1907,96.8147 63.8574,101.148 60.5,105.5C 59.9984,106.521 59.3317,106.688 58.5,106C 57.2532,104.542 57.2532,103.042 58.5,101.5C 53.5,97.3333 48.5,93.1667 43.5,89C 42.1011,88.4054 40.7678,88.5721 39.5,89.5C 38.5,89.1667 37.8333,88.5 37.5,87.5C 41.8846,81.9588 46.3846,76.6255 51,71.5C 54.3447,73.8062 54.178,75.8062 50.5,77.5 Z"/></g>
<g><path style="opacity:0.62" fill="#b4b8c4" d="M 303.5,65.5 C 306.692,65.4045 309.692,66.0712 312.5,67.5C 313.242,69.9798 314.242,72.3131 315.5,74.5C 314.364,78.0118 312.364,78.8451 309.5,77C 311.85,74.6272 312.017,72.1272 310,69.5C 306.889,67.728 305.056,68.5613 304.5,72C 305.231,75.488 305.898,78.988 306.5,82.5C 303.854,91.9043 298.187,94.0709 289.5,89C 289.5,88 289.5,87 289.5,86C 287.673,85.1007 286.34,83.7674 285.5,82C 287.355,79.9769 289.355,78.1435 291.5,76.5C 292.167,76.8333 292.833,77.1667 293.5,77.5C 291.238,80.0871 291.071,82.7538 293,85.5C 296.818,88.4983 298.984,87.4983 299.5,82.5C 297.643,77.8231 297.477,73.1564 299,68.5C 300.129,66.8588 301.629,65.8588 303.5,65.5 Z"/></g>
<g><path style="opacity:0.965" fill="#2d385d" d="M 303.5,66.5 C 304.239,66.369 304.906,66.5357 305.5,67C 303.643,68.1824 302.643,69.849 302.5,72C 303.792,76.4447 304.292,80.9447 304,85.5C 302.971,88.8753 300.804,90.0419 297.5,89C 298.333,88.1667 299.167,87.3333 300,86.5C 300.263,81.1491 300.263,75.8158 300,70.5C 301.032,68.9733 302.199,67.64 303.5,66.5 Z"/></g>
<g><path style="opacity:1" fill="#d70c43" d="M 141.5,67.5 C 138.069,69.6017 134.402,71.435 130.5,73C 131.337,74.0113 131.67,75.1779 131.5,76.5C 128.668,77.7213 125.835,77.7213 123,76.5C 119.714,76.7013 119.214,77.5347 121.5,79C 120.624,80.586 119.624,82.086 118.5,83.5C 119.814,85.4516 120.48,87.285 120.5,89C 116.384,88.5726 112.384,89.406 108.5,91.5C 104.82,87.4935 101.486,87.8268 98.5,92.5C 111.322,93.0655 124.322,93.5655 137.5,94C 123.994,94.169 110.66,94.669 97.5,95.5C 96.0222,95.762 94.6888,95.4287 93.5,94.5C 93.6236,93.8933 93.9569,93.56 94.5,93.5C 108.02,80.9869 123.686,72.3202 141.5,67.5 Z"/></g>
<g><path style="opacity:0.992" fill="#222e56" d="M 42.5,83.5 C 49.6338,88.4645 56.6338,93.6312 63.5,99C 62.6667,99.8333 61.8333,100.667 61,101.5C 55.8333,97 50.6667,92.5 45.5,88C 43.913,87.1376 42.2464,86.4709 40.5,86C 41.3805,85.2917 42.0472,84.4584 42.5,83.5 Z"/></g>
<g><path style="opacity:0.706" fill="#7c8195" d="M 70.5,86.5 C 72.9938,88.594 72.9938,90.594 70.5,92.5C 69.3065,92.0296 68.6399,91.0296 68.5,89.5C 68.6399,87.9704 69.3065,86.9704 70.5,86.5 Z"/></g>
<g><path style="opacity:1" fill="#cf0940" d="M 253.5,80.5 C 260.318,84.1671 266.318,88.8337 271.5,94.5C 227.165,94.6667 182.832,94.5 138.5,94C 177.5,93.6667 216.5,93.3333 255.5,93C 257.108,90.391 259.441,89.0577 262.5,89C 260.475,87.3228 258.141,86.3228 255.5,86C 255.833,85.6667 256.167,85.3333 256.5,85C 255.146,83.7063 253.812,83.5396 252.5,84.5C 246.845,81.8173 247.178,80.484 253.5,80.5 Z"/></g>
<g><path style="opacity:0.408" fill="#bbc0cb" d="M 327.5,86.5 C 331.214,89.3528 333.381,93.0194 334,97.5C 333.667,97.8333 333.333,98.1667 333,98.5C 332.311,97.6433 331.478,96.9767 330.5,96.5C 324.996,99.7513 319.662,103.251 314.5,107C 313.594,108.699 313.261,110.533 313.5,112.5C 312.448,112.649 311.448,112.483 310.5,112C 308.306,109.305 306.306,106.472 304.5,103.5C 312.552,101.221 319.719,97.2208 326,91.5C 326.352,89.7525 326.852,88.0858 327.5,86.5 Z"/></g>
<g><path style="opacity:1" fill="#091f4c" d="M 139.5,95.5 C 168.833,95.5 198.167,95.5 227.5,95.5C 242.661,96.3314 257.995,96.8314 273.5,97C 266.833,97.3333 260.167,97.6667 253.5,98C 260.679,98.1715 267.679,98.6715 274.5,99.5C 230.832,99.6667 187.165,99.5 143.5,99C 141.621,98.0398 139.621,97.5398 137.5,97.5C 138.243,96.8182 138.909,96.1515 139.5,95.5 Z"/></g>
<g><path style="opacity:1" fill="#f3f6f9" d="M 275.5,100.5 C 275.5,140.833 275.5,181.167 275.5,221.5C 275.5,230.167 275.5,238.833 275.5,247.5C 275.667,259.505 275.5,271.505 275,283.5C 274.062,285.488 273.228,287.488 272.5,289.5C 271.609,288.89 270.609,288.557 269.5,288.5C 270.894,286.049 271.728,283.382 272,280.5C 272.5,265.504 272.667,250.504 272.5,235.5C 272.5,205.833 272.5,176.167 272.5,146.5C 272.5,135.167 272.5,123.833 272.5,112.5C 272.5,109.5 272.5,106.5 272.5,103.5C 260.5,103.5 248.5,103.5 236.5,103.5C 189.833,102.167 143.167,102.167 96.5,103.5C 94.8416,151.656 94.1749,199.99 94.5,248.5C 93.815,260.735 93.1483,273.068 92.5,285.5C 91.4609,223.999 91.4609,162.332 92.5,100.5C 153.5,100.5 214.5,100.5 275.5,100.5 Z"/></g>
<g><path style="opacity:0.957" fill="#1e2e54" d="M 328.5,90.5 C 329.837,91.3149 330.837,92.4815 331.5,94C 325.364,97.5713 319.364,101.405 313.5,105.5C 312.416,106.665 311.583,107.998 311,109.5C 310.044,108.421 309.211,107.255 308.5,106C 314.833,101.667 321.167,97.3333 327.5,93C 328.252,92.3292 328.586,91.4959 328.5,90.5 Z"/></g>
<g><path style="opacity:1" fill="#f5f6f8" d="M 155.5,105.5 C 160.957,110.947 166.291,116.447 171.5,122C 170.368,123.765 169.368,125.598 168.5,127.5C 168.301,130.941 168.801,134.274 170,137.5C 174.225,140.605 178.225,143.939 182,147.5C 182.236,149.764 182.736,151.931 183.5,154C 182.833,154.667 182.167,154.667 181.5,154C 176.631,148.963 171.631,144.13 166.5,139.5C 155.833,128.5 145.167,117.5 134.5,106.5C 141.313,105.509 148.313,105.175 155.5,105.5 Z"/></g>
<g><path style="opacity:1" fill="#f3f4f7" d="M 236.5,104.5 C 230.806,109.527 225.473,114.86 220.5,120.5C 209.5,132.51 198.166,143.51 186.5,153.5C 186.192,151.076 186.526,148.743 187.5,146.5C 190.663,144.084 193.996,141.918 197.5,140C 200.049,136.824 201.382,133.157 201.5,129C 200.394,126.248 199.894,123.414 200,120.5C 204.523,114.98 209.356,109.813 214.5,105C 221.826,104.5 229.159,104.334 236.5,104.5 Z"/></g>
<g><path style="opacity:1" fill="#002759" d="M 236.5,103.5 C 248.5,103.5 260.5,103.5 272.5,103.5C 272.5,106.5 272.5,109.5 272.5,112.5C 271.116,120.855 270.782,129.355 271.5,138C 271.269,141.033 270.436,143.866 269,146.5C 268.667,146.167 268.333,145.833 268,145.5C 266.684,146.974 265.684,148.641 265,150.5C 264.667,150.167 264.333,149.833 264,149.5C 262.178,152.488 260.012,155.155 257.5,157.5C 253.28,161.006 248.947,164.339 244.5,167.5C 241.465,172.518 237.132,175.851 231.5,177.5C 232.167,177.833 232.833,178.167 233.5,178.5C 232.917,180.002 232.084,181.335 231,182.5C 229.882,180.235 229.049,177.901 228.5,175.5C 227.5,175.5 226.5,175.5 225.5,175.5C 225.254,178.47 223.588,179.803 220.5,179.5C 220.805,174.238 220.471,169.072 219.5,164C 220.24,162.215 220.907,160.382 221.5,158.5C 217.639,157.402 217.639,156.569 221.5,156C 219.971,153.264 218.471,153.098 217,155.5C 216.819,153.326 217.652,151.493 219.5,150C 218.258,146.643 217.424,146.81 217,150.5C 216.667,149.5 216.333,148.5 216,147.5C 215,147.833 214,148.167 213,148.5C 212.333,145.833 211.667,145.833 211,148.5C 210.667,147.5 210.333,146.5 210,145.5C 208.512,146.196 207.012,145.862 205.5,144.5C 210.711,141.766 215.378,138.933 219.5,136C 219.043,135.586 218.709,135.086 218.5,134.5C 219.935,133.071 220.935,131.405 221.5,129.5C 221.182,128.353 220.516,127.519 219.5,127C 220.423,124.959 220.756,122.792 220.5,120.5C 225.473,114.86 230.806,109.527 236.5,104.5C 236.5,104.167 236.5,103.833 236.5,103.5 Z"/></g>
<g><path style="opacity:1" fill="#032658" d="M 133.5,104.5 C 133.328,105.492 133.662,106.158 134.5,106.5C 145.167,117.5 155.833,128.5 166.5,139.5C 169.735,144.741 173.735,149.408 178.5,153.5C 179.85,154.95 181.516,155.617 183.5,155.5C 183.586,156.496 183.252,157.329 182.5,158C 184.677,159.202 187.011,159.702 189.5,159.5C 189.338,157.473 189.505,155.473 190,153.5C 191.174,155.512 193.008,157.512 195.5,159.5C 190.988,160.374 187.654,162.707 185.5,166.5C 183.804,164.732 182.47,162.565 181.5,160C 180.251,159.26 179.251,159.427 178.5,160.5C 171.859,157.257 164.859,156.091 157.5,157C 156.748,157.671 156.414,158.504 156.5,159.5C 155.833,173.833 155.167,188.167 154.5,202.5C 154.667,188.163 154.5,173.829 154,159.5C 152.667,160.833 151.333,162.167 150,163.5C 149.171,182.338 149.338,201.005 150.5,219.5C 150.5,220.167 150.833,220.5 151.5,220.5C 152.183,222.176 153.517,222.843 155.5,222.5C 154.737,223.268 153.737,223.768 152.5,224C 158.866,224.199 159.533,225.532 154.5,228C 156.595,228.556 156.762,229.056 155,229.5C 151.443,228.239 147.943,226.906 144.5,225.5C 143.833,226.167 143.167,226.833 142.5,227.5C 141.534,225.604 141.201,223.604 141.5,221.5C 143.144,221.714 144.644,221.38 146,220.5C 147.453,216.854 147.62,213.188 146.5,209.5C 146.167,209.667 145.833,209.833 145.5,210C 145.307,211.645 145.14,213.479 145,215.5C 143.989,216.337 142.822,216.67 141.5,216.5C 141.44,213.979 142.106,211.646 143.5,209.5C 143.167,208.833 142.833,208.167 142.5,207.5C 141.614,208.325 141.281,209.325 141.5,210.5C 140.5,210.5 139.5,210.5 138.5,210.5C 138.457,214.893 138.957,215.226 140,211.5C 140.083,216.717 137.583,220.05 132.5,221.5C 131.808,220.975 131.308,220.308 131,219.5C 129.647,220.685 128.48,222.019 127.5,223.5C 126.808,222.975 126.308,222.308 126,221.5C 125.51,222.793 125.343,224.127 125.5,225.5C 124.5,225.5 123.5,225.5 122.5,225.5C 122.34,227.199 122.506,228.866 123,230.5C 123.654,229.304 124.154,229.304 124.5,230.5C 123.18,232.826 121.513,234.826 119.5,236.5C 118.528,233.895 116.861,231.895 114.5,230.5C 112.443,232.681 110.277,234.014 108,234.5C 108.255,235.915 108.755,237.415 109.5,239C 108.768,243.115 107.934,243.282 107,239.5C 106.184,238.177 105.017,237.511 103.5,237.5C 117.455,223.543 131.121,209.21 144.5,194.5C 143.139,192.972 141.972,191.305 141,189.5C 126.275,176.108 112.108,161.942 98.5,147C 97.9056,146.536 97.2389,146.369 96.5,146.5C 97.0464,132.506 97.3797,118.506 97.5,104.5C 109.5,104.5 121.5,104.5 133.5,104.5 Z"/></g>
<g><path style="opacity:1" fill="#d9dde8" d="M 160.5,105.5 C 161.552,105.351 162.552,105.517 163.5,106C 167.5,110.667 171.5,115.333 175.5,120C 174.552,120.483 173.552,120.649 172.5,120.5C 170.118,117.067 167.285,114.067 164,111.5C 162.579,109.595 161.412,107.595 160.5,105.5 Z"/></g>
<g><path style="opacity:0.706" fill="#697186" d="M 343.5,111.5 C 344.338,111.842 344.672,112.508 344.5,113.5C 344.5,114.833 344.5,116.167 344.5,117.5C 343.275,116.063 342.275,114.396 341.5,112.5C 336.65,111.632 336.483,110.632 341,109.5C 342.011,110.056 342.844,110.722 343.5,111.5 Z"/></g>
<g><path style="opacity:1" fill="#1c274e" d="M 96.5,103.5 C 143.167,102.167 189.833,102.167 236.5,103.5C 236.5,103.833 236.5,104.167 236.5,104.5C 229.159,104.334 221.826,104.5 214.5,105C 209.356,109.813 204.523,114.98 200,120.5C 199.894,123.414 200.394,126.248 201.5,129C 201.382,133.157 200.049,136.824 197.5,140C 193.996,141.918 190.663,144.084 187.5,146.5C 186.526,148.743 186.192,151.076 186.5,153.5C 185.5,154.167 184.5,154.833 183.5,155.5C 181.516,155.617 179.85,154.95 178.5,153.5C 173.735,149.408 169.735,144.741 166.5,139.5C 171.631,144.13 176.631,148.963 181.5,154C 182.167,154.667 182.833,154.667 183.5,154C 182.736,151.931 182.236,149.764 182,147.5C 178.225,143.939 174.225,140.605 170,137.5C 168.801,134.274 168.301,130.941 168.5,127.5C 169.496,127.414 170.329,127.748 171,128.5C 171.822,125.883 172.322,123.216 172.5,120.5C 173.552,120.649 174.552,120.483 175.5,120C 171.5,115.333 167.5,110.667 163.5,106C 162.552,105.517 161.552,105.351 160.5,105.5C 161.609,104.71 162.942,104.21 164.5,104C 141.836,103.5 119.169,103.333 96.5,103.5 Z"/></g>
<g><path style="opacity:1" fill="#d8dce8" d="M 199.5,105.5 C 200.552,105.351 201.552,105.517 202.5,106C 200.22,109.947 197.553,113.613 194.5,117C 193.5,117.667 192.5,117.667 191.5,117C 194.34,113.239 197.007,109.405 199.5,105.5 Z"/></g>
<g><path style="opacity:1" fill="#d2d8e3" d="M 205.5,105.5 C 206.675,105.281 207.675,105.614 208.5,106.5C 206.395,109.027 204.061,111.36 201.5,113.5C 200.417,112.635 200.251,111.635 201,110.5C 203.415,109.589 204.915,107.922 205.5,105.5 Z"/></g>
<g><path style="opacity:1" fill="#f1f3f8" d="M 176.5,105.5 C 178.833,105.5 181.167,105.5 183.5,105.5C 183.826,109.884 183.492,114.217 182.5,118.5C 180.914,115.659 179.08,112.993 177,110.5C 176.506,108.866 176.34,107.199 176.5,105.5 Z"/></g>
<g><path style="opacity:1" fill="#dde1eb" d="M 192.5,104.5 C 194.225,104.843 194.725,105.843 194,107.5C 192.767,110.297 191.267,112.963 189.5,115.5C 188.675,116.386 187.675,116.719 186.5,116.5C 186.423,112.785 186.756,109.119 187.5,105.5C 189.415,105.784 191.081,105.451 192.5,104.5 Z"/></g>
<g><path style="opacity:1" fill="#eff1f6" d="M 166.5,105.5 C 168.924,105.192 171.257,105.526 173.5,106.5C 174.392,109.284 175.558,111.95 177,114.5C 177.781,115.944 177.614,117.277 176.5,118.5C 172.384,114.723 169.05,110.39 166.5,105.5 Z"/></g>
<g><path style="opacity:0.247" fill="#d5d8df" d="M 344.5,113.5 C 346.403,116.979 348.07,120.646 349.5,124.5C 348.272,123.694 347.272,122.694 346.5,121.5C 346.34,119.847 345.674,118.514 344.5,117.5C 344.5,116.167 344.5,114.833 344.5,113.5 Z"/></g>
<g><path style="opacity:1" fill="#dadeeb" d="M 175.5,122.5 C 177.604,122.201 179.604,122.534 181.5,123.5C 178.736,126.455 176.736,126.121 175.5,122.5 Z"/></g>
<g><path style="opacity:1" fill="#d7dcee" d="M 186.5,122.5 C 188.713,122.848 190.713,123.681 192.5,125C 189.336,127.22 187.336,126.387 186.5,122.5 Z"/></g>
<g><path style="opacity:0.588" fill="#c2c5cf" d="M 343.5,111.5 C 342.844,110.722 342.011,110.056 341,109.5C 336.483,110.632 336.65,111.632 341.5,112.5C 342.275,114.396 343.275,116.063 344.5,117.5C 344.631,118.376 344.298,119.043 343.5,119.5C 336.243,122.965 328.909,126.132 321.5,129C 322.047,129.925 322.713,130.758 323.5,131.5C 330.826,127.391 338.493,124.058 346.5,121.5C 346.833,123.5 347.167,125.5 347.5,127.5C 346.521,126.235 345.521,124.901 344.5,123.5C 338.621,126.606 332.621,129.44 326.5,132C 325.91,133.509 325.244,135.009 324.5,136.5C 323.522,136.023 322.689,135.357 322,134.5C 321.108,131.716 319.942,129.05 318.5,126.5C 326.948,125.301 334.948,122.301 342.5,117.5C 341.442,113.376 339.109,112.043 335.5,113.5C 336.249,109.211 338.916,107.211 343.5,107.5C 343.5,108.833 343.5,110.167 343.5,111.5 Z"/></g>
<g><path style="opacity:0.933" fill="#253258" d="M 344.5,117.5 C 345.674,118.514 346.34,119.847 346.5,121.5C 338.493,124.058 330.826,127.391 323.5,131.5C 322.713,130.758 322.047,129.925 321.5,129C 328.909,126.132 336.243,122.965 343.5,119.5C 344.298,119.043 344.631,118.376 344.5,117.5 Z"/></g>
<g><path style="opacity:0.337" fill="#bec2cd" d="M 32.5,113.5 C 30.5165,113.617 28.8498,112.95 27.5,111.5C 26.1502,112.95 24.4835,113.617 22.5,113.5C 23.2763,109.281 25.1096,105.614 28,102.5C 29.8673,103.377 31.034,104.877 31.5,107C 37.1667,109.833 42.8333,112.667 48.5,115.5C 49.8196,113.73 51.3196,113.397 53,114.5C 52.354,117.495 51.354,120.495 50,123.5C 48.3646,124.849 46.8646,124.682 45.5,123C 46.7112,122.107 46.7112,121.274 45.5,120.5C 43.0207,118.924 40.354,117.924 37.5,117.5C 36.2792,121.244 35.1125,124.91 34,128.5C 37.4189,131.479 41.2523,132.146 45.5,130.5C 44.3716,133.438 43.2049,136.438 42,139.5C 40.8904,141.037 39.3904,141.703 37.5,141.5C 38.7353,139.227 38.4019,137.394 36.5,136C 30.8283,133.497 25.1616,130.997 19.5,128.5C 18.3527,128.818 17.5194,129.484 17,130.5C 16.1667,129.667 15.3333,128.833 14.5,128C 15.7804,124.467 17.6137,121.301 20,118.5C 20.772,118.645 21.4387,118.978 22,119.5C 22.2189,120.938 22.7189,122.271 23.5,123.5C 25.6145,124.034 27.4478,125.034 29,126.5C 30.6984,122.937 32.5317,119.437 34.5,116C 33.9444,114.989 33.2778,114.156 32.5,113.5 Z"/></g>
<g><path style="opacity:0.988" fill="#263357" d="M 32.5,113.5 C 31.089,111.461 29.089,110.461 26.5,110.5C 26.3118,108.897 26.8118,107.563 28,106.5C 35.0346,111.101 42.5346,114.767 50.5,117.5C 50.0814,118.672 49.4147,119.672 48.5,120.5C 43.5921,117.043 38.2588,114.709 32.5,113.5 Z"/></g>
<g><path style="opacity:1" fill="#c4cbe0" d="M 173.5,124.5 C 177.473,126.46 177.473,128.46 173.5,130.5C 172.306,128.484 172.306,126.484 173.5,124.5 Z"/></g>
<g><path style="opacity:1" fill="#e9ebf2" d="M 182.5,125.5 C 187.587,125.284 188.587,127.118 185.5,131C 181.83,130.836 180.83,129.003 182.5,125.5 Z"/></g>
<g><path style="opacity:1" fill="#d3d9ea" d="M 194.5,125.5 C 195.5,125.5 196.5,125.5 197.5,125.5C 197.949,127.977 197.283,129.977 195.5,131.5C 194.534,129.604 194.201,127.604 194.5,125.5 Z"/></g>
<g><path style="opacity:1" fill="#e1013f" d="M 283.5,107.5 C 285.176,108.183 285.843,109.517 285.5,111.5C 286.833,111.5 288.167,111.5 289.5,111.5C 289.351,112.552 289.517,113.552 290,114.5C 300.66,127.892 307.826,142.892 311.5,159.5C 314.88,175.313 316.213,191.313 315.5,207.5C 315.155,212.878 314.488,218.211 313.5,223.5C 311.926,225.102 311.259,227.102 311.5,229.5C 307.34,248.82 298.673,265.82 285.5,280.5C 285.5,281.167 285.5,281.833 285.5,282.5C 283.61,282.297 282.11,282.963 281,284.5C 280.5,264.169 280.333,243.836 280.5,223.5C 280.5,207.5 280.5,191.5 280.5,175.5C 281.332,152.67 281.832,129.67 282,106.5C 282.383,107.056 282.883,107.389 283.5,107.5 Z"/></g>
<g><path style="opacity:0.827" fill="#4a5268" d="M 346.5,121.5 C 347.272,122.694 348.272,123.694 349.5,124.5C 349.472,126.582 350.139,128.416 351.5,130C 350.584,130.374 349.75,130.874 349,131.5C 348.79,129.942 348.29,128.609 347.5,127.5C 347.167,125.5 346.833,123.5 346.5,121.5 Z"/></g>
<g><path style="opacity:1" fill="#e6eaf0" d="M 177.5,129.5 C 183.046,131.18 183.546,133.513 179,136.5C 176.318,134.623 175.818,132.29 177.5,129.5 Z"/></g>
<g><path style="opacity:0.133" fill="#d5d7dd" d="M 349.5,124.5 C 350.81,126.435 352.143,128.435 353.5,130.5C 351.167,131.833 348.833,133.167 346.5,134.5C 345.692,134.192 345.025,133.692 344.5,133C 346.607,131.736 347.607,129.903 347.5,127.5C 348.29,128.609 348.79,129.942 349,131.5C 349.75,130.874 350.584,130.374 351.5,130C 350.139,128.416 349.472,126.582 349.5,124.5 Z"/></g>
<g><path style="opacity:0.957" fill="#1c2952" d="M 19.5,121.5 C 20.3636,122.688 21.3636,123.855 22.5,125C 29.1768,128.006 35.8435,131.006 42.5,134C 41.9535,134.925 41.2868,135.758 40.5,136.5C 33.0718,132.452 25.4051,128.952 17.5,126C 18.5822,124.67 19.2488,123.17 19.5,121.5 Z"/></g>
<g><path style="opacity:1" fill="#dadfee" d="M 189.5,130.5 C 193.473,132.46 193.473,134.46 189.5,136.5C 189.972,134.599 189.972,132.599 189.5,130.5 Z"/></g>
<g><path style="opacity:1" fill="#e9edf7" d="M 177.5,138.5 C 173.755,139.71 172.755,138.377 174.5,134.5C 176.288,135.283 177.288,136.616 177.5,138.5 Z"/></g>
<g><path style="opacity:1" fill="#f0f2f7" d="M 182.5,135.5 C 187.526,136.098 188.192,137.764 184.5,140.5C 182.783,139.332 182.116,137.665 182.5,135.5 Z"/></g>
<g><path style="opacity:1" fill="#e3e9f6" d="M 192.5,137.5 C 194.337,137.639 194.67,138.306 193.5,139.5C 192.702,139.043 192.369,138.376 192.5,137.5 Z"/></g>
<g><path style="opacity:1" fill="#bec4d9" d="M 177.5,138.5 C 179.078,139.066 180.412,140.066 181.5,141.5C 178.943,142.534 177.609,141.534 177.5,138.5 Z"/></g>
<g><path style="opacity:1" fill="#e8ebf3" d="M 186.5,140.5 C 187.675,140.281 188.675,140.614 189.5,141.5C 187.948,142.798 186.948,142.465 186.5,140.5 Z"/></g>
<g><path style="opacity:1" fill="#f9f9fa" d="M 96.5,146.5 C 97.2389,146.369 97.9056,146.536 98.5,147C 112.108,161.942 126.275,176.108 141,189.5C 141.972,191.305 143.139,192.972 144.5,194.5C 131.121,209.21 117.455,223.543 103.5,237.5C 100.923,238.943 98.5901,240.61 96.5,242.5C 96.5,210.5 96.5,178.5 96.5,146.5 Z"/></g>
<g><path style="opacity:1" fill="#fcfcfc" d="M 270.5,175.5 C 270.5,196.833 270.5,218.167 270.5,239.5C 270.483,241.028 269.816,241.528 268.5,241C 253.737,225.401 238.737,209.901 223.5,194.5C 238.819,178.681 254.319,163.014 270,147.5C 270.5,156.827 270.666,166.161 270.5,175.5 Z"/></g>
<g><path style="opacity:1" fill="#1c2950" d="M 356.5,148.5 C 352.67,157.818 345.67,162.651 335.5,163C 334.281,164.795 333.281,164.628 332.5,162.5C 332.065,159.387 333.065,158.721 335.5,160.5C 338.884,159.857 342.217,159.023 345.5,158C 349,154.5 352.5,151 356,147.5C 356.399,147.728 356.565,148.062 356.5,148.5 Z"/></g>
<g><path style="opacity:0.208" fill="#c6c9d3" d="M 35.5,160.5 C 35.719,159.325 35.3857,158.325 34.5,157.5C 32.9291,158.309 31.2624,158.643 29.5,158.5C 22.787,157.81 16.4537,156.143 10.5,153.5C 10.2247,149.79 11.558,146.957 14.5,145C 13.2068,144.51 11.8734,144.343 10.5,144.5C 10.7373,145.791 10.404,146.791 9.5,147.5C 8.27207,145.99 8.27207,144.49 9.5,143C 11.8473,142.666 14.1806,142.833 16.5,143.5C 16.5,144.5 16.5,145.5 16.5,146.5C 15.1779,146.33 14.0113,146.663 13,147.5C 12.654,149.218 12.154,150.885 11.5,152.5C 17.774,154.319 24.1073,155.985 30.5,157.5C 32.1043,157.061 33.6043,156.394 35,155.5C 36.0588,155.63 36.8921,156.13 37.5,157C 36.9152,158.302 36.2485,159.469 35.5,160.5 Z"/></g>
<g><path style="opacity:1" fill="#222e53" d="M 10.5,153.5 C 16.4537,156.143 22.787,157.81 29.5,158.5C 30.7175,159.161 32.0508,159.828 33.5,160.5C 32.3112,161.429 30.9778,161.762 29.5,161.5C 23.1136,160.423 16.7803,159.089 10.5,157.5C 7.97805,156.335 7.97805,155.002 10.5,153.5 Z"/></g>
<g><path style="opacity:0.451" fill="#cccfd8" d="M 356.5,155.5 C 357.289,155.217 357.956,154.717 358.5,154C 357.891,152.052 357.224,150.218 356.5,148.5C 356.565,148.062 356.399,147.728 356,147.5C 352.5,151 349,154.5 345.5,158C 342.217,159.023 338.884,159.857 335.5,160.5C 333.065,158.721 332.065,159.387 332.5,162.5C 332.146,165.494 333.146,166.494 335.5,165.5C 334.552,169.694 332.886,170.194 330.5,167C 331.492,163.93 331.159,160.93 329.5,158C 330.108,157.13 330.941,156.63 332,156.5C 333.22,157.388 334.553,158.055 336,158.5C 344.241,157.622 350.407,153.455 354.5,146C 354.167,145.667 353.833,145.333 353.5,145C 354.563,143.812 355.897,143.312 357.5,143.5C 358.167,147.833 358.833,152.167 359.5,156.5C 358.209,156.737 357.209,156.404 356.5,155.5 Z"/></g>
<g><path style="opacity:1" fill="#f3f5f7" d="M 210.5,183.5 C 210.5,193.167 210.5,202.833 210.5,212.5C 202.127,210.618 194.461,212.284 187.5,217.5C 187.167,217.167 186.833,216.833 186.5,216.5C 185.515,199.881 185.181,183.214 185.5,166.5C 187.654,162.707 190.988,160.374 195.5,159.5C 200.362,158.1 205.362,157.434 210.5,157.5C 210.5,166.167 210.5,174.833 210.5,183.5 Z"/></g>
<g><path style="opacity:0.62" fill="#9ba0af" d="M 10.5,153.5 C 7.97805,155.002 7.97805,156.335 10.5,157.5C 9.89022,158.391 9.55688,159.391 9.5,160.5C 8.95855,163.652 9.95855,166.152 12.5,168C 9.15013,169.916 6.15013,169.416 3.5,166.5C 5.69827,163.555 6.36493,160.388 5.5,157C 7.59217,156.047 7.9255,154.714 6.5,153C 7.60873,151.124 8.60873,149.291 9.5,147.5C 10.404,146.791 10.7373,145.791 10.5,144.5C 11.8734,144.343 13.2068,144.51 14.5,145C 11.558,146.957 10.2247,149.79 10.5,153.5 Z"/></g>
<g><path style="opacity:1" fill="#f9fbfd" d="M 154.5,202.5 C 154.665,206.182 154.499,209.848 154,213.5C 152.579,215.405 151.412,217.405 150.5,219.5C 149.338,201.005 149.171,182.338 150,163.5C 151.333,162.167 152.667,160.833 154,159.5C 154.5,173.829 154.667,188.163 154.5,202.5 Z"/></g>
<g><path style="opacity:1" fill="#7f1d4d" d="M 283.5,104.5 C 283.5,104.833 283.5,105.167 283.5,105.5C 282.5,105.5 281.5,105.5 280.5,105.5C 280.5,128.833 280.5,152.167 280.5,175.5C 280.5,191.5 280.5,207.5 280.5,223.5C 280.167,223.5 279.833,223.5 279.5,223.5C 279.5,194.5 279.5,165.5 279.5,136.5C 279.168,125.147 279.501,113.814 280.5,102.5C 281.518,103.193 282.518,103.859 283.5,104.5 Z"/></g>
<g><path style="opacity:1" fill="#bd1b51" d="M 283.5,105.5 C 283.5,106.167 283.5,106.833 283.5,107.5C 282.883,107.389 282.383,107.056 282,106.5C 281.832,129.67 281.332,152.67 280.5,175.5C 280.5,152.167 280.5,128.833 280.5,105.5C 281.5,105.5 282.5,105.5 283.5,105.5 Z"/></g>
<g><path style="opacity:1" fill="#182243" d="M 178.5,160.5 C 179.251,159.427 180.251,159.26 181.5,160C 182.47,162.565 183.804,164.732 185.5,166.5C 185.181,183.214 185.515,199.881 186.5,216.5C 186.833,216.833 187.167,217.167 187.5,217.5C 194.461,212.284 202.127,210.618 210.5,212.5C 210.5,202.833 210.5,193.167 210.5,183.5C 211.167,187.833 211.833,192.167 212.5,196.5C 212.335,200.182 212.501,203.848 213,207.5C 213.333,204.5 213.667,201.5 214,198.5C 214.499,203.823 214.666,209.156 214.5,214.5C 212.707,210.547 211.374,210.88 210.5,215.5C 200.424,213.354 191.424,215.688 183.5,222.5C 181.321,221.243 179.321,219.743 177.5,218C 173.996,217.014 170.663,215.847 167.5,214.5C 167.938,214.565 168.272,214.399 168.5,214C 167.263,213.768 166.263,213.268 165.5,212.5C 171.284,212.559 176.284,214.559 180.5,218.5C 180.833,217.5 181.167,216.5 181.5,215.5C 182.625,198.185 182.792,180.852 182,163.5C 180.961,162.29 179.794,161.29 178.5,160.5 Z"/></g>
<g><path style="opacity:0.498" fill="#a2a8b7" d="M 356.5,148.5 C 357.224,150.218 357.891,152.052 358.5,154C 357.956,154.717 357.289,155.217 356.5,155.5C 356.103,154.475 355.437,154.308 354.5,155C 352.833,156.667 351.167,158.333 349.5,160C 352.762,161.469 356.095,162.636 359.5,163.5C 360.562,164.575 360.562,165.575 359.5,166.5C 357.929,165.691 356.262,165.357 354.5,165.5C 351.427,164.801 348.427,163.801 345.5,162.5C 342.046,163.513 338.713,164.513 335.5,165.5C 333.146,166.494 332.146,165.494 332.5,162.5C 333.281,164.628 334.281,164.795 335.5,163C 345.67,162.651 352.67,157.818 356.5,148.5 Z"/></g>
<g><path style="opacity:0.451" fill="#757c92" d="M 35.5,160.5 C 34.8386,161.718 34.1719,163.051 33.5,164.5C 32.0986,163.479 30.7653,162.479 29.5,161.5C 30.9778,161.762 32.3112,161.429 33.5,160.5C 32.0508,159.828 30.7175,159.161 29.5,158.5C 31.2624,158.643 32.9291,158.309 34.5,157.5C 35.3857,158.325 35.719,159.325 35.5,160.5 Z"/></g>
<g><path style="opacity:0.29" fill="#d4d6dd" d="M 10.5,157.5 C 16.7803,159.089 23.1136,160.423 29.5,161.5C 30.7653,162.479 32.0986,163.479 33.5,164.5C 34.1719,163.051 34.8386,161.718 35.5,160.5C 35.6602,162.199 35.4935,163.866 35,165.5C 34.4387,166.022 33.772,166.355 33,166.5C 26.9515,162.809 20.2849,160.475 13,159.5C 11.7441,159.648 10.5774,159.982 9.5,160.5C 9.55688,159.391 9.89022,158.391 10.5,157.5 Z"/></g>
<g><path style="opacity:0.122" fill="#f4f5f7" d="M 359.5,163.5 C 362.078,165.126 361.912,166.792 359,168.5C 357.348,167.601 355.848,166.601 354.5,165.5C 356.262,165.357 357.929,165.691 359.5,166.5C 360.562,165.575 360.562,164.575 359.5,163.5 Z"/></g>
<g><path style="opacity:1" fill="#f3f4f7" d="M 178.5,160.5 C 179.794,161.29 180.961,162.29 182,163.5C 182.792,180.852 182.625,198.185 181.5,215.5C 181.167,216.5 180.833,217.5 180.5,218.5C 176.284,214.559 171.284,212.559 165.5,212.5C 162.5,212.5 159.5,212.5 156.5,212.5C 156.5,194.833 156.5,177.167 156.5,159.5C 156.414,158.504 156.748,157.671 157.5,157C 164.859,156.091 171.859,157.257 178.5,160.5 Z"/></g>
<g><path style="opacity:1" fill="#262b41" d="M 159.5,167.5 C 167.498,168.942 174.831,171.942 181.5,176.5C 181.167,176.833 180.833,177.167 180.5,177.5C 174.329,173.786 167.662,171.286 160.5,170C 159.748,169.329 159.414,168.496 159.5,167.5 Z"/></g>
<g><path style="opacity:1" fill="#20253e" d="M 202.5,167.5 C 204.942,167.354 205.609,168.187 204.5,170C 199.095,171.299 194.095,173.466 189.5,176.5C 189.167,176.167 188.833,175.833 188.5,175.5C 192.936,172.286 197.603,169.62 202.5,167.5 Z"/></g>
<g><path style="opacity:1" fill="#1f233a" d="M 160.5,183.5 C 168.044,183.937 174.71,186.604 180.5,191.5C 180.167,191.833 179.833,192.167 179.5,192.5C 173.419,188.498 167.086,185.498 160.5,183.5 Z"/></g>
<g><path style="opacity:1" fill="#1a213c" d="M 202.5,182.5 C 204.942,182.354 205.609,183.187 204.5,185C 198.713,186.327 193.213,188.494 188,191.5C 188.993,189.171 190.827,187.337 193.5,186C 196.65,184.964 199.65,183.798 202.5,182.5 Z"/></g>
<g><path style="opacity:1" fill="#09132d" d="M 272.5,146.5 C 272.5,176.167 272.5,205.833 272.5,235.5C 271.833,236.833 271.167,238.167 270.5,239.5C 270.5,218.167 270.5,196.833 270.5,175.5C 271.167,165.833 271.833,156.167 272.5,146.5 Z"/></g>
<g><path style="opacity:1" fill="#c4cce4" d="M 214.5,179.5 C 215.708,180.234 217.041,180.567 218.5,180.5C 218.5,192.167 218.5,203.833 218.5,215.5C 217.674,210.684 217.174,205.684 217,200.5C 215.563,204.972 215.063,209.639 215.5,214.5C 215.167,214.5 214.833,214.5 214.5,214.5C 214.666,209.156 214.499,203.823 214,198.5C 213.667,201.5 213.333,204.5 213,207.5C 212.501,203.848 212.335,200.182 212.5,196.5C 212.5,194.833 212.5,193.167 212.5,191.5C 213.117,191.389 213.617,191.056 214,190.5C 214.499,186.848 214.665,183.182 214.5,179.5 Z"/></g>
<g><path style="opacity:1" fill="#5a6684" d="M 215.5,191.5 C 216.725,192.152 217.392,193.319 217.5,195C 217.167,196.167 216.833,197.333 216.5,198.5C 215.526,196.257 215.192,193.924 215.5,191.5 Z"/></g>
<g><path style="opacity:0.224" fill="#d7d9df" d="M 18.5,199.5 C 15.9319,201.924 13.9319,201.257 12.5,197.5C 15.1667,192.167 17.8333,192.167 20.5,197.5C 20.1445,198.522 19.4778,199.189 18.5,199.5 Z"/></g>
<g><path style="opacity:0.894" fill="#404965" d="M 18.5,199.5 C 15.5,199.833 14.1667,198.5 14.5,195.5C 15.8333,195.5 17.1667,195.5 18.5,195.5C 18.5,196.833 18.5,198.167 18.5,199.5 Z"/></g>
<g><path style="opacity:1" fill="#010730" d="M 275.5,247.5 C 275.5,238.833 275.5,230.167 275.5,221.5C 276.333,181.669 276.833,141.669 277,101.5C 277.167,122 277.333,142.5 277.5,163C 277.71,191.351 277.043,219.517 275.5,247.5 Z"/></g>
<g><path style="opacity:1" fill="#8c2350" d="M 311.5,159.5 C 314.435,167.16 316.268,175.16 317,183.5C 317.167,187.5 317.333,191.5 317.5,195.5C 317.491,199.893 316.824,203.893 315.5,207.5C 316.213,191.313 314.88,175.313 311.5,159.5 Z"/></g>
<g><path style="opacity:0.012" fill="#fdfefe" d="M 346.5,198.5 C 345.833,199.167 345.833,199.167 346.5,198.5 Z"/></g>
<g><path style="opacity:0.208" fill="#d3d6dc" d="M 352.5,199.5 C 350.362,200.808 348.362,200.475 346.5,198.5C 346.389,197.883 346.056,197.383 345.5,197C 346.904,195.663 348.404,194.497 350,193.5C 353.278,194.668 354.111,196.668 352.5,199.5 Z"/></g>
<g><path style="opacity:0.978" fill="#323c5a" d="M 352.5,199.5 C 349.834,199.934 348.667,198.934 349,196.5C 351.658,195.306 352.824,196.306 352.5,199.5 Z"/></g>
<g><path style="opacity:0.976" fill="#1a2139" d="M 201.5,197.5 C 202.833,197.5 204.167,197.5 205.5,197.5C 205.5,198.5 205.5,199.5 205.5,200.5C 198.882,200.278 193.049,202.278 188,206.5C 187.383,205.551 187.549,204.718 188.5,204C 192.657,201.255 196.99,199.088 201.5,197.5 Z"/></g>
<g><path style="opacity:1" fill="#212741" d="M 160.5,199.5 C 167.848,199.839 174.515,202.173 180.5,206.5C 180.333,206.833 180.167,207.167 180,207.5C 174.018,203.88 167.518,202.213 160.5,202.5C 160.5,201.5 160.5,200.5 160.5,199.5 Z"/></g>
<g><path style="opacity:1" fill="#616d90" d="M 218.5,215.5 C 218.719,216.675 218.386,217.675 217.5,218.5C 216.828,217.051 216.161,215.718 215.5,214.5C 215.063,209.639 215.563,204.972 217,200.5C 217.174,205.684 217.674,210.684 218.5,215.5 Z"/></g>
<g><path style="opacity:1" fill="#052657" d="M 272.5,112.5 C 272.5,123.833 272.5,135.167 272.5,146.5C 271.833,156.167 271.167,165.833 270.5,175.5C 270.666,166.161 270.5,156.827 270,147.5C 254.319,163.014 238.819,178.681 223.5,194.5C 238.737,209.901 253.737,225.401 268.5,241C 269.816,241.528 270.483,241.028 270.5,239.5C 271.167,238.167 271.833,236.833 272.5,235.5C 272.667,250.504 272.5,265.504 272,280.5C 271.728,283.382 270.894,286.049 269.5,288.5C 262.903,294.149 255.236,297.482 246.5,298.5C 245.167,298.5 243.833,298.5 242.5,298.5C 243.718,297.839 245.051,297.172 246.5,296.5C 238.357,287.121 230.024,278.121 221.5,269.5C 220.457,266.944 218.79,264.777 216.5,263C 217.956,262.577 218.456,261.744 218,260.5C 216.455,261.821 215.289,261.488 214.5,259.5C 215.022,258.393 215.355,257.226 215.5,256C 214.622,254.2 213.955,252.367 213.5,250.5C 212.448,250.649 211.448,250.483 210.5,250C 210.833,249.667 211.167,249.333 211.5,249C 207.975,247.64 205.641,245.14 204.5,241.5C 203.167,242.167 202.167,243.167 201.5,244.5C 203.287,245.316 204.954,246.316 206.5,247.5C 205.652,249.283 204.319,249.783 202.5,249C 196.824,242.325 190.491,236.325 183.5,231C 185.219,229.943 187.053,229.11 189,228.5C 189.494,226.866 189.66,225.199 189.5,223.5C 193.182,223.665 196.848,223.499 200.5,223C 201.416,222.722 202.082,222.222 202.5,221.5C 206.5,221.5 210.5,221.5 214.5,221.5C 214.378,218.708 213.044,216.708 210.5,215.5C 211.374,210.88 212.707,210.547 214.5,214.5C 214.833,214.5 215.167,214.5 215.5,214.5C 216.161,215.718 216.828,217.051 217.5,218.5C 218.386,217.675 218.719,216.675 218.5,215.5C 218.5,203.833 218.5,192.167 218.5,180.5C 218.666,175.489 218.499,170.489 218,165.5C 217.503,168.146 217.336,170.813 217.5,173.5C 216.834,169.979 216.167,166.313 215.5,162.5C 214.833,162.167 214.167,161.833 213.5,161.5C 212.501,171.478 212.168,181.478 212.5,191.5C 212.5,193.167 212.5,194.833 212.5,196.5C 211.833,192.167 211.167,187.833 210.5,183.5C 210.5,174.833 210.5,166.167 210.5,157.5C 205.362,157.434 200.362,158.1 195.5,159.5C 193.008,157.512 191.174,155.512 190,153.5C 189.505,155.473 189.338,157.473 189.5,159.5C 187.011,159.702 184.677,159.202 182.5,158C 183.252,157.329 183.586,156.496 183.5,155.5C 184.5,154.833 185.5,154.167 186.5,153.5C 198.166,143.51 209.5,132.51 220.5,120.5C 220.756,122.792 220.423,124.959 219.5,127C 220.516,127.519 221.182,128.353 221.5,129.5C 220.935,131.405 219.935,133.071 218.5,134.5C 218.709,135.086 219.043,135.586 219.5,136C 215.378,138.933 210.711,141.766 205.5,144.5C 207.012,145.862 208.512,146.196 210,145.5C 210.333,146.5 210.667,147.5 211,148.5C 211.667,145.833 212.333,145.833 213,148.5C 214,148.167 215,147.833 216,147.5C 216.333,148.5 216.667,149.5 217,150.5C 217.424,146.81 218.258,146.643 219.5,150C 217.652,151.493 216.819,153.326 217,155.5C 218.471,153.098 219.971,153.264 221.5,156C 217.639,156.569 217.639,157.402 221.5,158.5C 220.907,160.382 220.24,162.215 219.5,164C 220.471,169.072 220.805,174.238 220.5,179.5C 223.588,179.803 225.254,178.47 225.5,175.5C 226.5,175.5 227.5,175.5 228.5,175.5C 229.049,177.901 229.882,180.235 231,182.5C 232.084,181.335 232.917,180.002 233.5,178.5C 232.833,178.167 232.167,177.833 231.5,177.5C 237.132,175.851 241.465,172.518 244.5,167.5C 248.947,164.339 253.28,161.006 257.5,157.5C 260.012,155.155 262.178,152.488 264,149.5C 264.333,149.833 264.667,150.167 265,150.5C 265.684,148.641 266.684,146.974 268,145.5C 268.333,145.833 268.667,146.167 269,146.5C 270.436,143.866 271.269,141.033 271.5,138C 270.782,129.355 271.116,120.855 272.5,112.5 Z"/></g>
<g><path style="opacity:1" fill="#e4e8f3" d="M 218.5,180.5 C 217.041,180.567 215.708,180.234 214.5,179.5C 213.014,175.726 213.181,172.059 215,168.5C 215.333,171.5 215.667,174.5 216,177.5C 216.41,176.099 216.91,174.766 217.5,173.5C 217.336,170.813 217.503,168.146 218,165.5C 218.499,170.489 218.666,175.489 218.5,180.5 Z"/></g>
<g><path style="opacity:1" fill="#68769a" d="M 217.5,173.5 C 216.91,174.766 216.41,176.099 216,177.5C 215.667,174.5 215.333,171.5 215,168.5C 213.181,172.059 213.014,175.726 214.5,179.5C 214.665,183.182 214.499,186.848 214,190.5C 213.617,191.056 213.117,191.389 212.5,191.5C 212.168,181.478 212.501,171.478 213.5,161.5C 214.167,161.833 214.833,162.167 215.5,162.5C 216.167,166.313 216.834,169.979 217.5,173.5 Z"/></g>
<g><path style="opacity:1" fill="#012659" d="M 155.5,222.5 C 156.167,222.5 156.833,222.5 157.5,222.5C 164.345,223.167 171.345,223.833 178.5,224.5C 179.651,226.809 180.984,228.976 182.5,231C 181.586,232.406 180.92,233.906 180.5,235.5C 178.167,238.5 175.5,241.167 172.5,243.5C 172.565,243.062 172.399,242.728 172,242.5C 168.291,246.175 164.624,249.842 161,253.5C 161.43,255.127 161.596,256.627 161.5,258C 160.906,258.464 160.239,258.631 159.5,258.5C 145.218,271.114 131.552,284.447 118.5,298.5C 112.307,298.38 106.64,296.547 101.5,293C 100.042,290.943 99.2085,288.777 99,286.5C 98.3292,287.252 97.4959,287.586 96.5,287.5C 95.3882,285.401 94.7215,283.067 94.5,280.5C 95.2033,267.962 95.8699,255.295 96.5,242.5C 98.5901,240.61 100.923,238.943 103.5,237.5C 105.017,237.511 106.184,238.177 107,239.5C 107.934,243.282 108.768,243.115 109.5,239C 108.755,237.415 108.255,235.915 108,234.5C 110.277,234.014 112.443,232.681 114.5,230.5C 116.861,231.895 118.528,233.895 119.5,236.5C 121.513,234.826 123.18,232.826 124.5,230.5C 124.154,229.304 123.654,229.304 123,230.5C 122.506,228.866 122.34,227.199 122.5,225.5C 123.5,225.5 124.5,225.5 125.5,225.5C 125.343,224.127 125.51,222.793 126,221.5C 126.308,222.308 126.808,222.975 127.5,223.5C 128.48,222.019 129.647,220.685 131,219.5C 131.308,220.308 131.808,220.975 132.5,221.5C 137.583,220.05 140.083,216.717 140,211.5C 138.957,215.226 138.457,214.893 138.5,210.5C 139.5,210.5 140.5,210.5 141.5,210.5C 141.281,209.325 141.614,208.325 142.5,207.5C 142.833,208.167 143.167,208.833 143.5,209.5C 142.106,211.646 141.44,213.979 141.5,216.5C 142.822,216.67 143.989,216.337 145,215.5C 145.14,213.479 145.307,211.645 145.5,210C 145.833,209.833 146.167,209.667 146.5,209.5C 147.62,213.188 147.453,216.854 146,220.5C 144.644,221.38 143.144,221.714 141.5,221.5C 141.201,223.604 141.534,225.604 142.5,227.5C 143.167,226.833 143.833,226.167 144.5,225.5C 147.943,226.906 151.443,228.239 155,229.5C 156.762,229.056 156.595,228.556 154.5,228C 159.533,225.532 158.866,224.199 152.5,224C 153.737,223.768 154.737,223.268 155.5,222.5 Z"/></g>
<g><path style="opacity:1" fill="#0e1226" d="M 156.5,159.5 C 156.5,177.167 156.5,194.833 156.5,212.5C 159.5,212.5 162.5,212.5 165.5,212.5C 166.263,213.268 167.263,213.768 168.5,214C 168.272,214.399 167.938,214.565 167.5,214.5C 160.808,213.19 155.474,215.19 151.5,220.5C 150.833,220.5 150.5,220.167 150.5,219.5C 151.412,217.405 152.579,215.405 154,213.5C 154.499,209.848 154.665,206.182 154.5,202.5C 155.167,188.167 155.833,173.833 156.5,159.5 Z"/></g>
<g><path style="opacity:1" fill="#f2f4f8" d="M 167.5,214.5 C 170.663,215.847 173.996,217.014 177.5,218C 179.321,219.743 181.321,221.243 183.5,222.5C 191.424,215.688 200.424,213.354 210.5,215.5C 213.044,216.708 214.378,218.708 214.5,221.5C 210.5,221.5 206.5,221.5 202.5,221.5C 197.518,222.053 192.518,222.387 187.5,222.5C 187.527,228.016 185.36,229.349 181,226.5C 180.691,225.234 180.191,224.067 179.5,223C 172.174,222.5 164.841,222.334 157.5,222.5C 156.833,222.5 156.167,222.5 155.5,222.5C 153.517,222.843 152.183,222.176 151.5,220.5C 155.474,215.19 160.808,213.19 167.5,214.5 Z"/></g>
<g><path style="opacity:1" fill="#23214b" d="M 283.5,102.5 C 307.592,127.727 319.592,158.06 319.5,193.5C 319.886,227.356 309.219,257.023 287.5,282.5C 286.833,281.833 286.167,281.167 285.5,280.5C 298.673,265.82 307.34,248.82 311.5,229.5C 313.28,228.01 313.946,226.01 313.5,223.5C 314.488,218.211 315.155,212.878 315.5,207.5C 316.824,203.893 317.491,199.893 317.5,195.5C 317.333,191.5 317.167,187.5 317,183.5C 316.268,175.16 314.435,167.16 311.5,159.5C 307.826,142.892 300.66,127.892 290,114.5C 289.517,113.552 289.351,112.552 289.5,111.5C 288.167,111.5 286.833,111.5 285.5,111.5C 285.843,109.517 285.176,108.183 283.5,107.5C 283.5,106.833 283.5,106.167 283.5,105.5C 283.5,105.167 283.5,104.833 283.5,104.5C 283.5,103.833 283.5,103.167 283.5,102.5 Z"/></g>
<g><path style="opacity:1" fill="#bf2659" d="M 279.5,223.5 C 279.833,223.5 280.167,223.5 280.5,223.5C 280.333,243.836 280.5,264.169 281,284.5C 282.11,282.963 283.61,282.297 285.5,282.5C 282.794,284.86 280.294,287.527 278,290.5C 277.517,289.552 277.351,288.552 277.5,287.5C 278.29,286.391 278.79,285.058 279,283.5C 279.5,263.503 279.667,243.503 279.5,223.5 Z"/></g>
<g><path style="opacity:1" fill="#932453" d="M 313.5,223.5 C 313.946,226.01 313.28,228.01 311.5,229.5C 311.259,227.102 311.926,225.102 313.5,223.5 Z"/></g>
<g><path style="opacity:0.553" fill="#b6bbc6" d="M 20.5,225.5 C 33.3314,225.496 39.498,231.83 39,244.5C 35.4928,254.172 28.6595,258.005 18.5,256C 12.2541,252.372 8.58743,247.372 7.5,241C 9.18941,233.488 13.5227,228.321 20.5,225.5 Z M 23.5,231.5 C 30.5142,230.659 34.5142,233.659 35.5,240.5C 35.0233,241.478 34.3567,242.311 33.5,243C 34.2135,244.343 33.8802,245.676 32.5,247C 27.8945,250.033 22.8945,251.033 17.5,250C 12.9315,247.459 11.4315,243.625 13,238.5C 13.4652,237.069 14.2986,235.903 15.5,235C 18.1579,233.522 20.8245,232.355 23.5,231.5 Z"/></g>
<g><path style="opacity:1" fill="#1c2952" d="M 19.5,227.5 C 24.4141,226.812 28.7474,227.979 32.5,231C 24.5874,228.927 17.7541,230.76 12,236.5C 11.6848,235.092 12.0181,233.759 13,232.5C 14.9651,230.45 17.1318,228.783 19.5,227.5 Z"/></g>
<g><path style="opacity:1" fill="#f2f4f8" d="M 191.5,261.5 C 193.312,259.539 194.312,257.206 194.5,254.5C 189.167,254.5 183.833,254.5 178.5,254.5C 178.654,256.97 179.654,258.97 181.5,260.5C 178.663,262.402 175.329,263.069 171.5,262.5C 172.728,259.925 174.395,257.592 176.5,255.5C 172.167,254.833 167.833,254.167 163.5,253.5C 166.522,250.147 169.522,246.813 172.5,243.5C 175.5,241.167 178.167,238.5 180.5,235.5C 181.794,234.71 182.961,233.71 184,232.5C 191.167,239.667 198.333,246.833 205.5,254C 202.447,254.179 199.447,254.679 196.5,255.5C 198.167,257.5 199.833,259.5 201.5,261.5C 198.02,262.806 194.687,262.806 191.5,261.5 Z"/></g>
<g><path style="opacity:0.451" fill="#c1c5cf" d="M 340.5,243.5 C 340.5,244.833 340.5,246.167 340.5,247.5C 339.167,247.5 337.833,247.5 336.5,247.5C 333.19,247.539 330.524,246.206 328.5,243.5C 327.548,245.045 327.215,246.712 327.5,248.5C 335.652,250.206 343.652,252.539 351.5,255.5C 352.429,254.311 352.762,252.978 352.5,251.5C 348.353,251.874 344.686,250.874 341.5,248.5C 342.826,244.209 343.659,239.876 344,235.5C 343.617,236.056 343.117,236.389 342.5,236.5C 341.9,235.1 340.9,234.1 339.5,233.5C 336.051,232.763 332.718,232.763 329.5,233.5C 330.863,231.326 331.197,229.159 330.5,227C 331.509,224.828 333.176,223.662 335.5,223.5C 335.33,224.822 335.663,225.989 336.5,227C 342.167,228.667 347.833,230.333 353.5,232C 355.936,232.124 358.269,231.624 360.5,230.5C 360.134,234.931 358.801,238.931 356.5,242.5C 355.05,241.345 354.05,239.845 353.5,238C 350.883,237.178 348.216,236.678 345.5,236.5C 345.042,240.166 344.042,243.666 342.5,247C 346.733,250.04 351.067,250.207 355.5,247.5C 355.134,251.931 353.801,255.931 351.5,259.5C 350.148,258.482 349.148,257.149 348.5,255.5C 347.914,255.709 347.414,256.043 347,256.5C 341.864,253.668 336.364,251.668 330.5,250.5C 328.945,250.722 327.611,251.389 326.5,252.5C 325.914,252.291 325.414,251.957 325,251.5C 325.623,248.259 326.29,244.926 327,241.5C 327.414,241.043 327.914,240.709 328.5,240.5C 329.852,241.518 330.852,242.851 331.5,244.5C 334.096,245.482 336.762,246.149 339.5,246.5C 339.263,245.209 339.596,244.209 340.5,243.5 Z"/></g>
<g><path style="opacity:0.933" fill="#273358" d="M 339.5,233.5 C 337.55,231.974 335.217,230.974 332.5,230.5C 333.098,229.205 333.598,227.872 334,226.5C 337.783,229.098 341.95,230.932 346.5,232C 350.573,232.512 354.573,233.345 358.5,234.5C 358.135,235.902 357.301,236.902 356,237.5C 350.695,235.299 345.195,233.965 339.5,233.5 Z"/></g>
<g><path style="opacity:0.678" fill="#828898" d="M 341.5,248.5 C 339.585,248.784 337.919,248.451 336.5,247.5C 337.833,247.5 339.167,247.5 340.5,247.5C 340.5,246.167 340.5,244.833 340.5,243.5C 340.721,240.933 341.388,238.599 342.5,236.5C 343.117,236.389 343.617,236.056 344,235.5C 343.659,239.876 342.826,244.209 341.5,248.5 Z"/></g>
<g><path style="opacity:0.933" fill="#233158" d="M 336.5,247.5 C 337.919,248.451 339.585,248.784 341.5,248.5C 344.686,250.874 348.353,251.874 352.5,251.5C 352.762,252.978 352.429,254.311 351.5,255.5C 343.652,252.539 335.652,250.206 327.5,248.5C 327.215,246.712 327.548,245.045 328.5,243.5C 330.524,246.206 333.19,247.539 336.5,247.5 Z"/></g>
<g><path style="opacity:1" fill="#09214c" d="M 202.5,221.5 C 202.082,222.222 201.416,222.722 200.5,223C 196.848,223.499 193.182,223.665 189.5,223.5C 189.66,225.199 189.494,226.866 189,228.5C 187.053,229.11 185.219,229.943 183.5,231C 190.491,236.325 196.824,242.325 202.5,249C 204.319,249.783 205.652,249.283 206.5,247.5C 204.954,246.316 203.287,245.316 201.5,244.5C 202.167,243.167 203.167,242.167 204.5,241.5C 205.641,245.14 207.975,247.64 211.5,249C 211.167,249.333 210.833,249.667 210.5,250C 211.448,250.483 212.448,250.649 213.5,250.5C 213.955,252.367 214.622,254.2 215.5,256C 215.355,257.226 215.022,258.393 214.5,259.5C 215.289,261.488 216.455,261.821 218,260.5C 218.456,261.744 217.956,262.577 216.5,263C 218.79,264.777 220.457,266.944 221.5,269.5C 218.833,267.167 216.167,264.833 213.5,262.5C 213.44,261.957 213.107,261.624 212.5,261.5C 211.508,265.783 211.174,270.116 211.5,274.5C 207.833,274.5 204.167,274.5 200.5,274.5C 201.664,277.759 202.664,281.093 203.5,284.5C 202.833,284.5 202.167,284.5 201.5,284.5C 200.057,281.271 198.39,278.271 196.5,275.5C 195.527,275.013 194.527,274.513 193.5,274C 196.036,273.814 198.369,273.314 200.5,272.5C 203.833,272.5 207.167,272.5 210.5,272.5C 210.821,267.305 210.487,262.305 209.5,257.5C 209.5,256.833 209.167,256.5 208.5,256.5C 207.515,260.634 207.182,264.968 207.5,269.5C 192.324,269.171 177.324,269.504 162.5,270.5C 162.5,270.833 162.5,271.167 162.5,271.5C 160.896,270.713 160.229,269.38 160.5,267.5C 162.167,267.5 163.833,267.5 165.5,267.5C 165.5,266.167 165.5,264.833 165.5,263.5C 167.5,263.167 169.5,262.833 171.5,262.5C 175.329,263.069 178.663,262.402 181.5,260.5C 182.097,260.265 182.43,259.765 182.5,259C 181.728,257.779 180.728,256.779 179.5,256C 182.888,255.341 186.221,255.508 189.5,256.5C 188.952,258.394 187.952,260.06 186.5,261.5C 186.833,261.833 187.167,262.167 187.5,262.5C 188.518,261.807 189.518,261.141 190.5,260.5C 190.5,261.167 190.833,261.5 191.5,261.5C 194.687,262.806 198.02,262.806 201.5,261.5C 199.833,259.5 198.167,257.5 196.5,255.5C 199.447,254.679 202.447,254.179 205.5,254C 198.333,246.833 191.167,239.667 184,232.5C 182.961,233.71 181.794,234.71 180.5,235.5C 180.92,233.906 181.586,232.406 182.5,231C 180.984,228.976 179.651,226.809 178.5,224.5C 171.345,223.833 164.345,223.167 157.5,222.5C 164.841,222.334 172.174,222.5 179.5,223C 180.191,224.067 180.691,225.234 181,226.5C 185.36,229.349 187.527,228.016 187.5,222.5C 192.518,222.387 197.518,222.053 202.5,221.5 Z"/></g>
<g><path style="opacity:0.978" fill="#18254e" d="M 35.5,245.5 C 35.6018,249.319 33.6018,252.152 29.5,254C 25.8333,254.667 22.1667,254.667 18.5,254C 16.8839,253.385 15.5505,252.385 14.5,251C 16.4315,251.815 18.5981,252.315 21,252.5C 27.0186,252.406 31.852,250.073 35.5,245.5 Z"/></g>
<g><path style="opacity:1" fill="#2a1b4a" d="M 279.5,136.5 C 279.5,165.5 279.5,194.5 279.5,223.5C 279.667,243.503 279.5,263.503 279,283.5C 278.79,285.058 278.29,286.391 277.5,287.5C 277.756,285.208 277.423,283.041 276.5,281C 277,280.5 277.5,280 278,279.5C 278.167,231.665 278.667,183.998 279.5,136.5 Z"/></g>
<g><path style="opacity:1" fill="#131a37" d="M 96.5,103.5 C 119.169,103.333 141.836,103.5 164.5,104C 162.942,104.21 161.609,104.71 160.5,105.5C 161.412,107.595 162.579,109.595 164,111.5C 167.285,114.067 170.118,117.067 172.5,120.5C 172.322,123.216 171.822,125.883 171,128.5C 170.329,127.748 169.496,127.414 168.5,127.5C 169.368,125.598 170.368,123.765 171.5,122C 166.291,116.447 160.957,110.947 155.5,105.5C 148.352,104.508 141.019,104.175 133.5,104.5C 121.5,104.5 109.5,104.5 97.5,104.5C 97.3797,118.506 97.0464,132.506 96.5,146.5C 96.5,178.5 96.5,210.5 96.5,242.5C 95.8699,255.295 95.2033,267.962 94.5,280.5C 94.5,269.833 94.5,259.167 94.5,248.5C 94.1749,199.99 94.8416,151.656 96.5,103.5 Z"/></g>
<g><path style="opacity:1" fill="#93a1c4" d="M 133.5,104.5 C 141.019,104.175 148.352,104.508 155.5,105.5C 148.313,105.175 141.313,105.509 134.5,106.5C 133.662,106.158 133.328,105.492 133.5,104.5 Z"/></g>
<g><path style="opacity:1" fill="#d9deee" d="M 189.5,256.5 C 190.552,256.351 191.552,256.517 192.5,257C 191.695,258.113 191.028,259.279 190.5,260.5C 189.518,261.141 188.518,261.807 187.5,262.5C 187.167,262.167 186.833,261.833 186.5,261.5C 187.952,260.06 188.952,258.394 189.5,256.5 Z"/></g>
<g><path style="opacity:1" fill="#10162a" d="M 191.5,261.5 C 190.833,261.5 190.5,261.167 190.5,260.5C 191.028,259.279 191.695,258.113 192.5,257C 191.552,256.517 190.552,256.351 189.5,256.5C 186.221,255.508 182.888,255.341 179.5,256C 180.728,256.779 181.728,257.779 182.5,259C 182.43,259.765 182.097,260.265 181.5,260.5C 179.654,258.97 178.654,256.97 178.5,254.5C 183.833,254.5 189.167,254.5 194.5,254.5C 194.312,257.206 193.312,259.539 191.5,261.5 Z"/></g>
<g><path style="opacity:0.247" fill="#b4b9c6" d="M 134.5,64.5 C 135.167,64.5 135.833,64.5 136.5,64.5C 120.922,70.622 106.922,79.2886 94.5,90.5C 87.5608,95.6045 81.3941,101.605 76,108.5C 43.8056,152.701 37.8056,200.368 58,251.5C 67.5078,272.02 81.1745,289.353 99,303.5C 99.4643,304.094 99.631,304.761 99.5,305.5C 57.3878,271.726 39.5545,227.726 46,173.5C 55.9098,121.106 85.4098,84.7722 134.5,64.5 Z"/></g>
<g><path style="opacity:1" fill="#f4f4f7" d="M 159.5,258.5 C 159.112,263.628 159.612,268.628 161,273.5C 164.057,274.451 167.223,274.784 170.5,274.5C 169.8,278.237 168.8,281.904 167.5,285.5C 165.052,286.473 162.385,286.806 159.5,286.5C 159.5,291.833 159.5,297.167 159.5,302.5C 145.686,302.819 132.019,301.485 118.5,298.5C 131.552,284.447 145.218,271.114 159.5,258.5 Z"/></g>
<g><path style="opacity:1" fill="#0c1e44" d="M 172.5,243.5 C 169.522,246.813 166.522,250.147 163.5,253.5C 167.833,254.167 172.167,254.833 176.5,255.5C 174.395,257.592 172.728,259.925 171.5,262.5C 169.5,262.833 167.5,263.167 165.5,263.5C 165.5,264.833 165.5,266.167 165.5,267.5C 163.833,267.5 162.167,267.5 160.5,267.5C 160.229,269.38 160.896,270.713 162.5,271.5C 171.318,272.493 180.318,272.827 189.5,272.5C 187.031,273.317 184.365,273.817 181.5,274C 180.874,274.75 180.374,275.584 180,276.5C 178.245,274.522 176.078,273.689 173.5,274C 171.677,277.299 170.344,280.799 169.5,284.5C 168.817,284.863 168.15,285.196 167.5,285.5C 168.8,281.904 169.8,278.237 170.5,274.5C 167.223,274.784 164.057,274.451 161,273.5C 159.612,268.628 159.112,263.628 159.5,258.5C 160.239,258.631 160.906,258.464 161.5,258C 161.596,256.627 161.43,255.127 161,253.5C 164.624,249.842 168.291,246.175 172,242.5C 172.399,242.728 172.565,243.062 172.5,243.5 Z"/></g>
<g><path style="opacity:1" fill="#eaeef7" d="M 169.5,256.5 C 170.552,256.351 171.552,256.517 172.5,257C 170.796,259.757 168.462,261.09 165.5,261C 167.041,259.629 168.375,258.129 169.5,256.5 Z"/></g>
<g><path style="opacity:1" fill="#737f9d" d="M 213.5,262.5 C 212.833,266.5 212.167,270.5 211.5,274.5C 211.174,270.116 211.508,265.783 212.5,261.5C 213.107,261.624 213.44,261.957 213.5,262.5 Z"/></g>
<g><path style="opacity:1" fill="#646f8d" d="M 208.5,256.5 C 208.5,261.167 208.5,265.833 208.5,270.5C 193.167,270.5 177.833,270.5 162.5,270.5C 177.324,269.504 192.324,269.171 207.5,269.5C 207.182,264.968 207.515,260.634 208.5,256.5 Z"/></g>
<g><path style="opacity:1" fill="#f5f6f8" d="M 213.5,262.5 C 216.167,264.833 218.833,267.167 221.5,269.5C 230.024,278.121 238.357,287.121 246.5,296.5C 245.051,297.172 243.718,297.839 242.5,298.5C 232.263,300.304 221.929,301.304 211.5,301.5C 211.5,296.5 211.5,291.5 211.5,286.5C 209.5,286.5 207.5,286.5 205.5,286.5C 204.5,286.167 203.833,285.5 203.5,284.5C 202.664,281.093 201.664,277.759 200.5,274.5C 204.167,274.5 207.833,274.5 211.5,274.5C 212.167,270.5 212.833,266.5 213.5,262.5 Z"/></g>
<g><path style="opacity:1" fill="#fefefe" d="M 208.5,256.5 C 209.167,256.5 209.5,256.833 209.5,257.5C 209.5,262.167 209.5,266.833 209.5,271.5C 193.833,271.5 178.167,271.5 162.5,271.5C 162.5,271.167 162.5,270.833 162.5,270.5C 177.833,270.5 193.167,270.5 208.5,270.5C 208.5,265.833 208.5,261.167 208.5,256.5 Z"/></g>
<g><path style="opacity:1" fill="#b6c4e7" d="M 209.5,257.5 C 210.487,262.305 210.821,267.305 210.5,272.5C 207.167,272.5 203.833,272.5 200.5,272.5C 196.833,272.5 193.167,272.5 189.5,272.5C 180.318,272.827 171.318,272.493 162.5,271.5C 178.167,271.5 193.833,271.5 209.5,271.5C 209.5,266.833 209.5,262.167 209.5,257.5 Z"/></g>
<g><path style="opacity:0.247" fill="#bbbfcb" d="M 259.5,80.5 C 260.167,80.5 260.833,80.5 261.5,80.5C 291.51,101.719 310.677,130.386 319,166.5C 328.127,225.515 309.293,273.015 262.5,309C 235.106,327.66 205.773,335.826 174.5,333.5C 174.5,333.167 174.5,332.833 174.5,332.5C 206.579,334.469 235.579,326.135 261.5,307.5C 271.481,300.519 280.147,292.186 287.5,282.5C 309.219,257.023 319.886,227.356 319.5,193.5C 319.592,158.06 307.592,127.727 283.5,102.5C 281.562,99.557 279.229,96.8904 276.5,94.5C 271.017,89.5945 265.351,84.9278 259.5,80.5 Z"/></g>
<g><path style="opacity:1" fill="#d3d8e6" d="M 196.5,275.5 C 198.39,278.271 200.057,281.271 201.5,284.5C 201.294,286.549 200.461,286.883 199,285.5C 197.539,282.321 196.705,278.988 196.5,275.5 Z"/></g>
<g><path style="opacity:0.553" fill="#adb1be" d="M 42.5,279.5 C 42.4802,281.143 43.1468,282.476 44.5,283.5C 43.6721,284.415 42.6721,285.081 41.5,285.5C 40.8281,284.051 40.1614,282.718 39.5,281.5C 38.5207,280.235 37.5207,278.901 36.5,277.5C 32.3208,279.317 29.4875,282.317 28,286.5C 26.0879,284.343 24.4213,282.009 23,279.5C 21.9772,274.997 23.1439,273.997 26.5,276.5C 31.5,273.667 36.5,270.833 41.5,268C 43.6174,266.267 45.1174,264.1 46,261.5C 50.0013,266.832 53.5013,272.498 56.5,278.5C 55.4688,279.7 54.6355,281.034 54,282.5C 52.6796,282.201 51.1796,282.034 49.5,282C 49.1667,281.667 48.8333,281.333 48.5,281C 49.6872,279.981 50.6872,278.814 51.5,277.5C 50.1667,275.5 48.8333,273.5 47.5,271.5C 45.0038,272.58 42.6705,273.914 40.5,275.5C 41.1799,276.86 41.8466,278.193 42.5,279.5 Z"/></g>
<g><path style="opacity:0.988" fill="#1f2d53" d="M 46.5,265.5 C 48.3773,266.829 48.5439,268.162 47,269.5C 40.3254,273.501 33.6588,277.501 27,281.5C 25.9783,280.646 25.1449,279.646 24.5,278.5C 31.1548,276.021 37.4881,272.854 43.5,269C 44.7101,267.961 45.7101,266.794 46.5,265.5 Z"/></g>
<g><path style="opacity:1" fill="#032556" d="M 189.5,272.5 C 193.167,272.5 196.833,272.5 200.5,272.5C 198.369,273.314 196.036,273.814 193.5,274C 194.527,274.513 195.527,275.013 196.5,275.5C 196.705,278.988 197.539,282.321 199,285.5C 200.461,286.883 201.294,286.549 201.5,284.5C 202.167,284.5 202.833,284.5 203.5,284.5C 203.833,285.5 204.5,286.167 205.5,286.5C 206.167,287.167 206.833,287.833 207.5,288.5C 207.5,288.833 207.5,289.167 207.5,289.5C 206.167,293.833 206.167,298.167 207.5,302.5C 205.566,303.532 203.4,304.198 201,304.5C 197.34,303.336 193.84,303.336 190.5,304.5C 190.5,304.833 190.5,305.167 190.5,305.5C 189.518,302.038 189.185,298.371 189.5,294.5C 187.708,294.634 186.042,294.301 184.5,293.5C 187.174,291.999 187.007,290.999 184,290.5C 182.289,290.439 180.956,291.106 180,292.5C 178.633,296.7 178.133,301.033 178.5,305.5C 174.629,305.185 170.962,305.518 167.5,306.5C 164.038,306.474 161.371,305.141 159.5,302.5C 159.5,297.167 159.5,291.833 159.5,286.5C 162.385,286.806 165.052,286.473 167.5,285.5C 168.15,285.196 168.817,284.863 169.5,284.5C 170.344,280.799 171.677,277.299 173.5,274C 176.078,273.689 178.245,274.522 180,276.5C 180.374,275.584 180.874,274.75 181.5,274C 184.365,273.817 187.031,273.317 189.5,272.5 Z"/></g>
<g><path style="opacity:0.29" fill="#dadce2" d="M 42.5,279.5 C 43.1515,280.091 43.8182,280.757 44.5,281.5C 45.4255,280.359 46.2588,280.359 47,281.5C 47.7494,282.635 47.5827,283.635 46.5,284.5C 44.9984,285.083 43.6651,285.916 42.5,287C 40.8333,287.667 39.1667,287.667 37.5,287C 38.8613,285.416 39.528,283.582 39.5,281.5C 40.1614,282.718 40.8281,284.051 41.5,285.5C 42.6721,285.081 43.6721,284.415 44.5,283.5C 43.1468,282.476 42.4802,281.143 42.5,279.5 Z"/></g>
<g><path style="opacity:0.62" fill="#b7bbc7" d="M 335.5,280.5 C 332.626,278.742 330.459,279.408 329,282.5C 327.842,282.002 327.009,281.169 326.5,280C 328.705,277.095 330.539,273.928 332,270.5C 333.011,269.663 334.178,269.33 335.5,269.5C 335.34,271.199 335.506,272.866 336,274.5C 338.812,275.957 340.978,277.957 342.5,280.5C 339.204,292.678 331.537,297.511 319.5,295C 313.675,291.185 310.342,285.852 309.5,279C 310.314,276.373 311.647,274.04 313.5,272C 313.167,271.667 312.833,271.333 312.5,271C 315.337,269.328 317.67,267.161 319.5,264.5C 322.329,265.747 324.995,267.247 327.5,269C 326.123,271.449 324.289,271.949 322,270.5C 315.391,272.718 313.391,277.052 316,283.5C 320.409,288.525 325.909,290.358 332.5,289C 334.86,287.635 336.527,285.635 337.5,283C 336.619,282.292 335.953,281.458 335.5,280.5 Z"/></g>
<g><path style="opacity:1" fill="#283157" d="M 335.5,280.5 C 334.426,278.716 332.76,277.549 330.5,277C 331.211,275.745 332.044,274.579 333,273.5C 334.921,275.963 337.254,277.963 340,279.5C 340.635,281.635 340.301,283.635 339,285.5C 338.506,283.866 338.34,282.199 338.5,280.5C 337.5,280.5 336.5,280.5 335.5,280.5 Z"/></g>
<g><path style="opacity:0.929" fill="#343d5b" d="M 319.5,266.5 C 323.416,267.425 323.416,268.425 319.5,269.5C 318.438,268.575 318.438,267.575 319.5,266.5 Z"/></g>
<g><path style="opacity:1" fill="#192c58" d="M 276.5,94.5 C 279.229,96.8904 281.562,99.557 283.5,102.5C 283.5,103.167 283.5,103.833 283.5,104.5C 282.518,103.859 281.518,103.193 280.5,102.5C 279.501,113.814 279.168,125.147 279.5,136.5C 278.667,183.998 278.167,231.665 278,279.5C 277.5,280 277,280.5 276.5,281C 277.423,283.041 277.756,285.208 277.5,287.5C 277.351,288.552 277.517,289.552 278,290.5C 280.294,287.527 282.794,284.86 285.5,282.5C 285.5,281.833 285.5,281.167 285.5,280.5C 286.167,281.167 286.833,281.833 287.5,282.5C 280.147,292.186 271.481,300.519 261.5,307.5C 261.5,306.5 261.5,305.5 261.5,304.5C 262.091,303.849 262.757,303.182 263.5,302.5C 262.833,302.167 262.167,301.833 261.5,301.5C 258.718,302.839 256.051,304.172 253.5,305.5C 252.833,305.5 252.167,305.5 251.5,305.5C 247.24,306.585 242.906,307.252 238.5,307.5C 239.609,306.71 240.942,306.21 242.5,306C 240.292,305.809 238.292,305.309 236.5,304.5C 246.47,302.757 256.137,299.924 265.5,296C 268.288,294.281 270.621,292.115 272.5,289.5C 273.228,287.488 274.062,285.488 275,283.5C 275.5,271.505 275.667,259.505 275.5,247.5C 277.043,219.517 277.71,191.351 277.5,163C 277.333,142.5 277.167,122 277,101.5C 276.833,141.669 276.333,181.669 275.5,221.5C 275.5,181.167 275.5,140.833 275.5,100.5C 275.5,99.8333 275.167,99.5 274.5,99.5C 267.679,98.6715 260.679,98.1715 253.5,98C 260.167,97.6667 266.833,97.3333 273.5,97C 257.995,96.8314 242.661,96.3314 227.5,95.5C 242.167,95.5 256.833,95.5 271.5,95.5C 273.117,94.962 274.784,94.6287 276.5,94.5 Z"/></g>
<g><path style="opacity:0.957" fill="#223055" d="M 312.5,275.5 C 314.376,288.19 321.709,293.356 334.5,291C 325.035,296.865 317.868,294.699 313,284.5C 312.502,281.518 312.335,278.518 312.5,275.5 Z"/></g>
<g><path style="opacity:1" fill="#e4e8f2" d="M 94.5,248.5 C 94.5,259.167 94.5,269.833 94.5,280.5C 94.7215,283.067 95.3882,285.401 96.5,287.5C 98.7307,293.557 103.064,297.39 109.5,299C 126.38,302.188 143.38,304.521 160.5,306C 169.68,307.834 177.18,312.334 183,319.5C 186.715,313.556 191.882,309.389 198.5,307C 214.594,303.897 230.594,301.064 246.5,298.5C 255.236,297.482 262.903,294.149 269.5,288.5C 270.609,288.557 271.609,288.89 272.5,289.5C 270.621,292.115 268.288,294.281 265.5,296C 256.137,299.924 246.47,302.757 236.5,304.5C 224.698,304.956 213.031,306.456 201.5,309C 192.822,311.678 186.655,317.178 183,325.5C 178.228,317.743 171.395,312.576 162.5,310C 146.214,307.431 129.88,305.098 113.5,303C 106.721,302.022 100.887,299.188 96,294.5C 93.9504,291.852 92.7837,288.852 92.5,285.5C 93.1483,273.068 93.815,260.735 94.5,248.5 Z"/></g>
<g><path style="opacity:1" fill="#962854" d="M 261.5,304.5 C 259.668,305.248 258.001,306.248 256.5,307.5C 256.179,305.952 255.179,305.285 253.5,305.5C 256.051,304.172 258.718,302.839 261.5,301.5C 262.167,301.833 262.833,302.167 263.5,302.5C 262.757,303.182 262.091,303.849 261.5,304.5 Z"/></g>
<g><path style="opacity:0.29" fill="#aeb3c1" d="M 99.5,305.5 C 104.335,307.016 108.335,309.683 111.5,313.5C 106.803,311.822 102.803,309.156 99.5,305.5 Z"/></g>
<g><path style="opacity:0.396" fill="#c0c4ce" d="M 309.5,315.5 C 306.5,315.5 303.5,315.5 300.5,315.5C 301.295,320.322 303.961,322.322 308.5,321.5C 309.5,321.833 310.167,322.5 310.5,323.5C 307.833,326.5 305.167,329.5 302.5,332.5C 301.28,332.113 300.613,331.28 300.5,330C 301.187,328.838 301.353,327.672 301,326.5C 296.5,322 292,317.5 287.5,313C 286.101,312.405 284.768,312.572 283.5,313.5C 283.167,312.833 282.833,312.167 282.5,311.5C 286.621,305.876 291.787,301.542 298,298.5C 304.053,299.699 306.22,303.199 304.5,309C 308.514,309.769 312.514,310.603 316.5,311.5C 318.392,310.187 320.059,310.354 321.5,312C 318.759,317.85 314.759,319.016 309.5,315.5 Z M 293.5,304.5 C 299.023,304.562 300.856,307.229 299,312.5C 298.333,313.167 297.667,313.833 297,314.5C 295.356,311.689 293.19,309.356 290.5,307.5C 291.035,305.729 291.869,305.396 293,306.5C 293.464,305.906 293.631,305.239 293.5,304.5 Z"/></g>
<g><path style="opacity:0.957" fill="#2b365b" d="M 295.5,300.5 C 301.82,300.32 304.32,303.32 303,309.5C 301.514,305.502 298.68,303.002 294.5,302C 295.056,301.617 295.389,301.117 295.5,300.5 Z"/></g>
<g><path style="opacity:0.553" fill="#bec2cc" d="M 79.5,323.5 C 77.0882,323.306 76.0882,321.973 76.5,319.5C 78.6562,316.844 80.9895,314.344 83.5,312C 82.3333,310.833 81.1667,309.667 80,308.5C 79.6667,309.833 79.3333,311.167 79,312.5C 76.3333,315.833 73.6667,319.167 71,322.5C 68.7953,325.04 66.2953,327.207 63.5,329C 64.5707,329.852 65.5707,330.685 66.5,331.5C 66.5,331.833 66.5,332.167 66.5,332.5C 65.1667,331.833 63.8333,331.167 62.5,330.5C 61.1938,329.533 60.5271,328.199 60.5,326.5C 61.8221,326.33 62.9887,326.663 64,327.5C 68.5695,322.687 72.9029,317.687 77,312.5C 77.6838,311.216 77.5171,310.049 76.5,309C 77.0712,307.795 77.7379,306.628 78.5,305.5C 81.8761,308.878 85.5428,311.878 89.5,314.5C 90.3857,315.325 90.719,316.325 90.5,317.5C 87.3972,317.343 84.7305,316.509 82.5,315C 80.4565,316.708 78.7899,318.708 77.5,321C 78.3805,321.708 79.0472,322.542 79.5,323.5 Z"/></g>
<g><path style="opacity:1" fill="#161e3b" d="M 118.5,298.5 C 132.019,301.485 145.686,302.819 159.5,302.5C 161.371,305.141 164.038,306.474 167.5,306.5C 171.972,308.216 176.638,308.882 181.5,308.5C 181.334,304.486 181.501,300.486 182,296.5C 182.377,295.058 183.21,294.058 184.5,293.5C 186.042,294.301 187.708,294.634 189.5,294.5C 189.185,298.371 189.518,302.038 190.5,305.5C 190.47,306.497 190.97,307.164 192,307.5C 197.708,305.479 197.208,304.479 190.5,304.5C 193.84,303.336 197.34,303.336 201,304.5C 203.4,304.198 205.566,303.532 207.5,302.5C 208.492,302.672 209.158,302.338 209.5,301.5C 210.097,296.706 209.43,292.373 207.5,288.5C 206.833,287.833 206.167,287.167 205.5,286.5C 207.5,286.5 209.5,286.5 211.5,286.5C 211.5,291.5 211.5,296.5 211.5,301.5C 221.929,301.304 232.263,300.304 242.5,298.5C 243.833,298.5 245.167,298.5 246.5,298.5C 230.594,301.064 214.594,303.897 198.5,307C 191.882,309.389 186.715,313.556 183,319.5C 177.18,312.334 169.68,307.834 160.5,306C 143.38,304.521 126.38,302.188 109.5,299C 103.064,297.39 98.7307,293.557 96.5,287.5C 97.4959,287.586 98.3292,287.252 99,286.5C 99.2085,288.777 100.042,290.943 101.5,293C 106.64,296.547 112.307,298.38 118.5,298.5 Z"/></g>
<g><path style="opacity:1" fill="#f2f5fa" d="M 184.5,295.5 C 185.5,295.5 186.5,295.5 187.5,295.5C 187.285,300.365 187.785,305.031 189,309.5C 186.984,311.684 184.817,313.684 182.5,315.5C 175.641,312.017 175.975,310.35 183.5,310.5C 183.413,305.463 183.746,300.463 184.5,295.5 Z"/></g>
<g><path style="opacity:1" fill="#dee3f2" d="M 207.5,288.5 C 209.43,292.373 210.097,296.706 209.5,301.5C 207.577,297.971 206.911,293.971 207.5,289.5C 207.5,289.167 207.5,288.833 207.5,288.5 Z"/></g>
<g><path style="opacity:1" fill="#657499" d="M 207.5,289.5 C 206.911,293.971 207.577,297.971 209.5,301.5C 209.158,302.338 208.492,302.672 207.5,302.5C 206.167,298.167 206.167,293.833 207.5,289.5 Z"/></g>
<g><path style="opacity:1" fill="#eef1f8" d="M 184.5,293.5 C 183.21,294.058 182.377,295.058 182,296.5C 181.501,300.486 181.334,304.486 181.5,308.5C 176.638,308.882 171.972,308.216 167.5,306.5C 170.962,305.518 174.629,305.185 178.5,305.5C 178.133,301.033 178.633,296.7 180,292.5C 180.956,291.106 182.289,290.439 184,290.5C 187.007,290.999 187.174,291.999 184.5,293.5 Z"/></g>
<g><path style="opacity:1" fill="#1d2a52" d="M 309.5,315.5 C 307.22,313.777 304.553,313.111 301.5,313.5C 301.281,312.325 301.614,311.325 302.5,310.5C 307.523,311.506 312.523,312.672 317.5,314C 315.063,315.375 312.397,315.875 309.5,315.5 Z"/></g>
<g><path style="opacity:0.247" fill="#b7bbc7" d="M 111.5,313.5 C 114.034,313.259 115.7,314.259 116.5,316.5C 114.326,316.25 112.659,315.25 111.5,313.5 Z"/></g>
<g><path style="opacity:1" fill="#253256" d="M 287.5,307.5 C 290.297,309.795 292.964,312.295 295.5,315C 296.448,315.483 297.448,315.649 298.5,315.5C 299.912,320.081 302.912,323.248 307.5,325C 306.421,325.956 305.255,326.789 304,327.5C 298.136,321.301 291.969,315.468 285.5,310C 286.381,309.292 287.047,308.458 287.5,307.5 Z"/></g>
<g><path style="opacity:0.29" fill="#c3c7d1" d="M 116.5,316.5 C 121.086,317.46 125.086,319.46 128.5,322.5C 124.123,321.054 120.123,319.054 116.5,316.5 Z"/></g>
<g><path style="opacity:1" fill="#252952" d="M 94.5,90.5 C 94.5,91.5 94.5,92.5 94.5,93.5C 93.9569,93.56 93.6236,93.8933 93.5,94.5C 94.6888,95.4287 96.0222,95.762 97.5,95.5C 111.5,95.5 125.5,95.5 139.5,95.5C 138.909,96.1515 138.243,96.8182 137.5,97.5C 139.621,97.5398 141.621,98.0398 143.5,99C 187.165,99.5 230.832,99.6667 274.5,99.5C 275.167,99.5 275.5,99.8333 275.5,100.5C 214.5,100.5 153.5,100.5 92.5,100.5C 91.4609,162.332 91.4609,223.999 92.5,285.5C 92.7837,288.852 93.9504,291.852 96,294.5C 100.887,299.188 106.721,302.022 113.5,303C 129.88,305.098 146.214,307.431 162.5,310C 171.395,312.576 178.228,317.743 183,325.5C 186.655,317.178 192.822,311.678 201.5,309C 213.031,306.456 224.698,304.956 236.5,304.5C 238.292,305.309 240.292,305.809 242.5,306C 240.942,306.21 239.609,306.71 238.5,307.5C 228.734,308.944 218.9,310.277 209,311.5C 207.319,311.608 206.152,312.275 205.5,313.5C 202.67,313.694 200.004,314.361 197.5,315.5C 194.796,315.67 193.129,317.003 192.5,319.5C 191.5,319.5 190.5,319.5 189.5,319.5C 189.5,320.833 189.5,322.167 189.5,323.5C 187.784,324.574 186.784,326.241 186.5,328.5C 188.667,328.833 190.833,329.167 193,329.5C 198.666,328.179 204.499,327.346 210.5,327C 211.056,326.617 211.389,326.117 211.5,325.5C 221.219,322.984 230.885,320.151 240.5,317C 245.74,313.575 251.074,310.408 256.5,307.5C 258.001,306.248 259.668,305.248 261.5,304.5C 261.5,305.5 261.5,306.5 261.5,307.5C 235.579,326.135 206.579,334.469 174.5,332.5C 169.155,332.313 163.822,331.98 158.5,331.5C 148.478,328.824 138.478,325.824 128.5,322.5C 125.086,319.46 121.086,317.46 116.5,316.5C 115.7,314.259 114.034,313.259 111.5,313.5C 108.335,309.683 104.335,307.016 99.5,305.5C 99.631,304.761 99.4643,304.094 99,303.5C 81.1745,289.353 67.5078,272.02 58,251.5C 37.8056,200.368 43.8056,152.701 76,108.5C 81.3941,101.605 87.5608,95.6045 94.5,90.5 Z"/></g>
<g><path style="opacity:1" fill="#8e2251" d="M 197.5,315.5 C 196.127,317.207 194.461,318.54 192.5,319.5C 193.129,317.003 194.796,315.67 197.5,315.5 Z"/></g>
<g><path style="opacity:1" fill="#e0043e" d="M 251.5,305.5 C 252.167,305.5 252.833,305.5 253.5,305.5C 255.179,305.285 256.179,305.952 256.5,307.5C 251.074,310.408 245.74,313.575 240.5,317C 230.885,320.151 221.219,322.984 211.5,325.5C 203.944,326.382 196.444,327.382 189,328.5C 189.019,326.893 189.185,325.226 189.5,323.5C 189.5,322.167 189.5,320.833 189.5,319.5C 190.5,319.5 191.5,319.5 192.5,319.5C 194.461,318.54 196.127,317.207 197.5,315.5C 200.004,314.361 202.67,313.694 205.5,313.5C 220.513,311.903 235.513,310.07 250.5,308C 251.252,307.329 251.586,306.496 251.5,305.5 Z"/></g>
<g><path style="opacity:1" fill="#e0043e" d="M 167.5,317.5 C 172.724,319.393 176.724,322.726 179.5,327.5C 175.689,328.645 171.689,328.812 167.5,328C 164.211,327.118 160.877,326.452 157.5,326C 157.833,325.667 158.167,325.333 158.5,325C 153.816,324.565 149.149,324.065 144.5,323.5C 134.587,321.273 125.587,317.273 117.5,311.5C 116.15,310.35 116.316,309.683 118,309.5C 121.794,310.23 125.627,310.73 129.5,311C 129.167,311.333 128.833,311.667 128.5,312C 132.821,312.499 137.154,312.666 141.5,312.5C 141.5,313.5 141.5,314.5 141.5,315.5C 143.722,315.822 145.556,315.155 147,313.5C 153.94,314.184 160.774,315.517 167.5,317.5 Z"/></g>
<g><path style="opacity:1" fill="#c31546" d="M 125.5,309.5 C 137.863,310.581 150.196,312.081 162.5,314C 164.596,314.737 166.263,315.903 167.5,317.5C 160.774,315.517 153.94,314.184 147,313.5C 145.556,315.155 143.722,315.822 141.5,315.5C 141.5,314.5 141.5,313.5 141.5,312.5C 137.154,312.666 132.821,312.499 128.5,312C 128.833,311.667 129.167,311.333 129.5,311C 125.627,310.73 121.794,310.23 118,309.5C 116.316,309.683 116.15,310.35 117.5,311.5C 116.391,311.443 115.391,311.11 114.5,310.5C 114.389,309.883 114.056,309.383 113.5,309C 117.51,308.643 121.51,308.81 125.5,309.5 Z"/></g>
<g><path style="opacity:1" fill="#ab214f" d="M 251.5,305.5 C 251.586,306.496 251.252,307.329 250.5,308C 235.513,310.07 220.513,311.903 205.5,313.5C 206.152,312.275 207.319,311.608 209,311.5C 218.9,310.277 228.734,308.944 238.5,307.5C 242.906,307.252 247.24,306.585 251.5,305.5 Z"/></g>
<g><path style="opacity:1" fill="#8a2654" d="M 125.5,309.5 C 121.51,308.81 117.51,308.643 113.5,309C 114.056,309.383 114.389,309.883 114.5,310.5C 112.883,309.962 111.216,309.629 109.5,309.5C 109.343,308.127 109.51,306.793 110,305.5C 115.212,306.939 120.378,308.273 125.5,309.5 Z"/></g>
<g><path style="opacity:1" fill="#8d98b6" d="M 190.5,304.5 C 197.208,304.479 197.708,305.479 192,307.5C 190.97,307.164 190.47,306.497 190.5,305.5C 190.5,305.167 190.5,304.833 190.5,304.5 Z"/></g>
<g><path style="opacity:1" fill="#a91c4e" d="M 50.5,175.5 C 50.1682,191.552 50.8348,207.552 52.5,223.5C 51.718,220.286 50.8847,216.952 50,213.5C 49.1733,200.66 49.34,187.993 50.5,175.5 Z"/></g>
<g><path style="opacity:1" fill="#a8204e" d="M 61.5,140.5 C 61.162,142.854 60.662,145.187 60,147.5C 58.3266,150.164 56.8266,152.83 55.5,155.5C 56.4877,150.035 57.9877,144.702 60,139.5C 60.3826,140.056 60.8826,140.389 61.5,140.5 Z"/></g>
<g><path style="opacity:1" fill="#e1023f" d="M 87.5,179.5 C 86.6908,215.554 86.3574,251.554 86.5,287.5C 76.7437,277.603 68.7437,266.603 62.5,254.5C 58.4085,244.332 55.0751,233.998 52.5,223.5C 50.8348,207.552 50.1682,191.552 50.5,175.5C 52.3375,169.428 53.5041,163.095 54,156.5C 54.3826,155.944 54.8826,155.611 55.5,155.5C 56.8266,152.83 58.3266,150.164 60,147.5C 60.662,145.187 61.162,142.854 61.5,140.5C 61.3398,138.801 61.5065,137.134 62,135.5C 65.1864,131.127 67.853,126.46 70,121.5C 74.033,116.636 77.8663,111.636 81.5,106.5C 82.5884,105.066 83.9217,104.066 85.5,103.5C 86.1174,103.389 86.6174,103.056 87,102.5C 87.5,128.165 87.6666,153.831 87.5,179.5 Z"/></g>
<g><path style="opacity:1" fill="#833e6c" d="M 87.5,179.5 C 87.6666,153.831 87.5,128.165 87,102.5C 86.6174,103.056 86.1174,103.389 85.5,103.5C 85.8212,101.952 86.8212,101.285 88.5,101.5C 88.8311,127.672 88.4978,153.672 87.5,179.5 Z"/></g>
<g><path style="opacity:0.659" fill="#a2a6b3" d="M 76.5,319.5 C 76.0882,321.973 77.0882,323.306 79.5,323.5C 80.5307,324.355 81.6974,325.022 83,325.5C 85.7364,323.866 87.0698,324.532 87,327.5C 85.2664,330.034 83.0997,331.534 80.5,332C 79.5761,331.15 79.5761,330.15 80.5,329C 78.6884,327.188 76.8551,325.355 75,323.5C 73.3573,325.977 71.524,328.31 69.5,330.5C 72.2051,335.525 76.2051,337.192 81.5,335.5C 81.2002,338.518 79.5335,340.518 76.5,341.5C 72.4778,339.138 69.1445,336.138 66.5,332.5C 66.5,332.167 66.5,331.833 66.5,331.5C 70.2476,327.761 73.5809,323.761 76.5,319.5 Z"/></g>
<g><path style="opacity:1" fill="#a92754" d="M 144.5,323.5 C 149.149,324.065 153.816,324.565 158.5,325C 158.167,325.333 157.833,325.667 157.5,326C 160.877,326.452 164.211,327.118 167.5,328C 171.689,328.812 175.689,328.645 179.5,327.5C 180.289,327.783 180.956,328.283 181.5,329C 176.167,329.667 170.833,329.667 165.5,329C 158.172,327.92 151.172,326.086 144.5,323.5 Z"/></g>
<g><path style="opacity:0.671" fill="#d4d7df" d="M 128.5,322.5 C 138.478,325.824 148.478,328.824 158.5,331.5C 157.178,331.33 156.011,331.663 155,332.5C 151.464,330.486 147.631,329.152 143.5,328.5C 142.914,328.709 142.414,329.043 142,329.5C 137.664,326.797 133.164,324.464 128.5,322.5 Z"/></g>
<g><path style="opacity:0.62" fill="#b7bcc7" d="M 276.5,333.5 C 273.192,330.55 271.192,326.884 270.5,322.5C 269.5,322.5 268.5,322.5 267.5,322.5C 269.03,320.654 271.03,319.654 273.5,319.5C 273.38,321.199 273.046,322.865 272.5,324.5C 274.1,327.368 275.433,330.368 276.5,333.5 Z"/></g>
<g><path style="opacity:1" fill="#b0204f" d="M 189.5,323.5 C 189.185,325.226 189.019,326.893 189,328.5C 196.444,327.382 203.944,326.382 211.5,325.5C 211.389,326.117 211.056,326.617 210.5,327C 204.499,327.346 198.666,328.179 193,329.5C 190.833,329.167 188.667,328.833 186.5,328.5C 186.784,326.241 187.784,324.574 189.5,323.5 Z"/></g>
<g><path style="opacity:1" fill="#233056" d="M 267.5,322.5 C 268.5,322.5 269.5,322.5 270.5,322.5C 271.192,326.884 273.192,330.55 276.5,333.5C 276.259,336.034 277.259,337.7 279.5,338.5C 279.429,341.024 280.429,343.024 282.5,344.5C 281.218,347.133 279.884,347.133 278.5,344.5C 275.337,338.842 272.171,333.176 269,327.5C 267.829,326.107 266.329,325.273 264.5,325C 265.942,324.623 266.942,323.79 267.5,322.5 Z"/></g>
<g><path style="opacity:0.929" fill="#212e53" d="M 76.5,319.5 C 73.5809,323.761 70.2476,327.761 66.5,331.5C 65.5707,330.685 64.5707,329.852 63.5,329C 66.2953,327.207 68.7953,325.04 71,322.5C 73.6667,319.167 76.3333,315.833 79,312.5C 79.3333,311.167 79.6667,309.833 80,308.5C 81.1667,309.667 82.3333,310.833 83.5,312C 80.9895,314.344 78.6562,316.844 76.5,319.5 Z"/></g>
<g><path style="opacity:0.012" fill="#fdfefe" d="M 62.5,330.5 C 61.8333,331.167 61.8333,331.167 62.5,330.5 Z"/></g>
<g><path style="opacity:0.553" fill="#b8bcc7" d="M 105.5,327.5 C 113.398,329.199 120.232,332.866 126,338.5C 131.12,351.927 126.62,359.927 112.5,362.5C 107.133,360.134 101.466,357.634 95.5,355C 94.6634,353.989 94.33,352.822 94.5,351.5C 96.1439,351.714 97.6439,351.38 99,350.5C 101.638,344.725 104.138,338.891 106.5,333C 105.767,331.234 105.433,329.401 105.5,327.5 Z M 112.5,334.5 C 121.92,337.456 124.42,343.456 120,352.5C 114.872,358.942 109.706,359.109 104.5,353C 107.041,346.754 109.708,340.587 112.5,334.5 Z"/></g>
<g><path style="opacity:0.078" fill="#e7e9ed" d="M 158.5,331.5 C 163.822,331.98 169.155,332.313 174.5,332.5C 174.5,332.833 174.5,333.167 174.5,333.5C 171.091,333.249 167.758,333.583 164.5,334.5C 162.556,333.199 160.556,332.199 158.5,331.5 Z"/></g>
<g><path style="opacity:0.933" fill="#233156" d="M 108.5,330.5 C 109.995,330.415 110.995,331.081 111.5,332.5C 107.766,339.963 104.6,347.629 102,355.5C 100.053,354.89 98.2194,354.057 96.5,353C 97.7659,352.691 98.9326,352.191 100,351.5C 103.532,344.727 106.365,337.727 108.5,330.5 Z"/></g>
<g><path style="opacity:0.247" fill="#b9bec9" d="M 276.5,333.5 C 278.25,334.659 279.25,336.326 279.5,338.5C 277.259,337.7 276.259,336.034 276.5,333.5 Z"/></g>
<g><path style="opacity:0.553" fill="#c0c4ce" d="M 267.5,322.5 C 266.942,323.79 265.942,324.623 264.5,325C 266.329,325.273 267.829,326.107 269,327.5C 272.171,333.176 275.337,338.842 278.5,344.5C 279.884,347.133 281.218,347.133 282.5,344.5C 280.429,343.024 279.429,341.024 279.5,338.5C 280.837,339.315 281.837,340.482 282.5,342C 283.793,342.49 285.127,342.657 286.5,342.5C 286.719,343.675 286.386,344.675 285.5,345.5C 283.668,346.248 282.001,347.248 280.5,348.5C 279.914,348.291 279.414,347.957 279,347.5C 276.115,351.249 272.615,353.916 268.5,355.5C 265.646,355.076 262.979,354.076 260.5,352.5C 257.671,347.509 254.837,342.509 252,337.5C 250.053,336.89 248.219,336.057 246.5,335C 249.877,332.151 253.544,330.151 257.5,329C 257.833,329.333 258.167,329.667 258.5,330C 257.426,330.739 256.759,331.739 256.5,333C 258.079,335.737 259.412,338.571 260.5,341.5C 262.474,343.428 263.974,345.761 265,348.5C 271.793,351.392 275.127,349.059 275,341.5C 272.252,336.334 269.252,331.334 266,326.5C 265.008,328.665 263.842,328.499 262.5,326C 263.43,323.862 265.097,322.695 267.5,322.5 Z"/></g>
<g><path style="opacity:1" fill="#222e55" d="M 260.5,341.5 C 261.392,349.575 265.726,352.742 273.5,351C 269.5,354.333 265.5,354.333 261.5,351C 258.04,345.248 254.707,339.415 251.5,333.5C 252.5,332.167 253.5,332.167 254.5,333.5C 256.055,336.662 258.055,339.328 260.5,341.5 Z"/></g>
<g><path style="opacity:1" fill="#2a365b" d="M 121.5,336.5 C 123.934,337.771 125.434,339.771 126,342.5C 127.62,348.491 126.12,353.491 121.5,357.5C 119.043,359.225 116.377,359.725 113.5,359C 123.611,354.324 126.278,346.824 121.5,336.5 Z"/></g>
<g><path style="opacity:0.158" fill="#fafafb" d="M 196.5,367.5 C 196.167,367.5 195.833,367.5 195.5,367.5C 195.5,361.5 195.5,355.5 195.5,349.5C 197.706,348.416 196.373,348.249 191.5,349C 192.416,349.278 193.082,349.778 193.5,350.5C 193.827,355.544 193.494,360.544 192.5,365.5C 191.893,365.376 191.56,365.043 191.5,364.5C 192.163,362.527 192.496,360.361 192.5,358C 192.379,354.082 191.379,350.582 189.5,347.5C 192.833,347.5 196.167,347.5 199.5,347.5C 199.649,348.552 199.483,349.552 199,350.5C 198.333,351.833 197.667,351.833 197,350.5C 196.501,356.157 196.334,361.824 196.5,367.5 Z"/></g>
<g><path style="opacity:0.173" fill="#c2c5d0" d="M 144.5,342.5 C 148.188,343.172 151.855,344.005 155.5,345C 155.957,345.414 156.291,345.914 156.5,346.5C 154.956,347.747 153.456,349.08 152,350.5C 150.961,356.028 149.794,361.528 148.5,367C 152.104,373.627 150.604,375.461 144,372.5C 142.893,372.585 141.893,372.919 141,373.5C 140.535,372.069 139.701,370.903 138.5,370C 139.868,368.66 141.201,367.326 142.5,366C 143.517,360.263 144.851,354.597 146.5,349C 145.899,347.395 144.899,346.062 143.5,345C 144.252,344.329 144.586,343.496 144.5,342.5 Z"/></g>
<g><path style="opacity:0.247" fill="#b7bcc8" d="M 222.5,341.5 C 231.157,339.679 235.323,343.012 235,351.5C 234.5,352 234,352.5 233.5,353C 239.995,354.846 242.162,359.012 240,365.5C 237.943,368.014 235.61,369.347 233,369.5C 229.209,370.908 225.375,372.241 221.5,373.5C 220.09,373.132 219.09,372.299 218.5,371C 220.215,370.223 221.215,368.89 221.5,367C 219.589,360.525 217.756,354.025 216,347.5C 214.636,348.258 213.469,347.758 212.5,346C 213.167,345.333 213.833,344.667 214.5,344C 217.457,343.721 220.123,342.887 222.5,341.5 Z M 222.5,345.5 C 228.521,344.573 230.521,346.907 228.5,352.5C 227.252,353.04 226.085,353.707 225,354.5C 224.261,351.454 223.428,348.454 222.5,345.5 Z M 226.5,357.5 C 228.382,357.511 230.382,357.844 232.5,358.5C 235.913,364.11 234.247,366.777 227.5,366.5C 227.221,363.882 226.554,361.382 225.5,359C 226.056,358.617 226.389,358.117 226.5,357.5 Z"/></g>
<g><path style="opacity:1" fill="#17254f" d="M 220.5,344.5 C 220.5,344.833 220.5,345.167 220.5,345.5C 222.121,353.567 224.454,361.4 227.5,369C 226.234,369.309 225.067,369.809 224,370.5C 222.587,363.436 220.921,356.436 219,349.5C 218.5,347.667 217.333,346.5 215.5,346C 217.154,345.392 218.821,344.892 220.5,344.5 Z"/></g>
<g><path style="opacity:0.988" fill="#182344" d="M 228.5,344.5 C 228.5,343.833 228.833,343.5 229.5,343.5C 231.017,343.511 232.184,344.177 233,345.5C 233.682,349.069 233.182,352.402 231.5,355.5C 230.448,355.649 229.448,355.483 228.5,355C 232.467,351.376 232.467,347.876 228.5,344.5 Z"/></g>
<g><path style="opacity:0.796" fill="#68728a" d="M 229.5,343.5 C 228.833,343.5 228.5,343.833 228.5,344.5C 225.721,344.279 223.054,344.612 220.5,345.5C 220.5,345.167 220.5,344.833 220.5,344.5C 223.409,342.713 226.409,342.379 229.5,343.5 Z"/></g>
<g><path style="opacity:0.012" fill="#fdfefe" d="M 268.5,355.5 C 269.833,356.167 269.833,356.167 268.5,355.5 Z"/></g>
<g><path style="opacity:1" fill="#15234c" d="M 148.5,345.5 C 149.978,345.238 151.311,345.571 152.5,346.5C 148.947,354.046 146.947,362.046 146.5,370.5C 144.801,370.66 143.134,370.494 141.5,370C 143.049,368.786 144.215,367.286 145,365.5C 146.279,358.826 147.445,352.16 148.5,345.5 Z"/></g>
<g><path style="opacity:1" fill="#1a264d" d="M 232.5,356.5 C 237.682,355.52 239.849,357.853 239,363.5C 238,364.5 237,365.5 236,366.5C 237.289,362.331 236.123,358.997 232.5,356.5 Z"/></g>
<g><path style="opacity:1" fill="#1c284d" d="M 195.5,367.5 C 195.663,369.857 195.497,372.19 195,374.5C 188.969,366.976 182.802,359.643 176.5,352.5C 175.833,352.5 175.167,352.5 174.5,352.5C 173.113,349.688 174.113,348.855 177.5,350C 182.725,356.3 188.058,362.467 193.5,368.5C 194.817,362.346 194.817,356.346 193.5,350.5C 193.082,349.778 192.416,349.278 191.5,349C 196.373,348.249 197.706,348.416 195.5,349.5C 195.5,355.5 195.5,361.5 195.5,367.5 Z"/></g>
<g><path style="opacity:0.198" fill="#cdd0d9" d="M 191.5,364.5 C 191.56,365.043 191.893,365.376 192.5,365.5C 193.494,360.544 193.827,355.544 193.5,350.5C 194.817,356.346 194.817,362.346 193.5,368.5C 188.058,362.467 182.725,356.3 177.5,350C 174.113,348.855 173.113,349.688 174.5,352.5C 175.083,360.043 174.416,367.376 172.5,374.5C 174.421,375.641 176.421,375.808 178.5,375C 177.584,374.626 176.75,374.126 176,373.5C 175.205,366.42 175.372,359.42 176.5,352.5C 182.802,359.643 188.969,366.976 195,374.5C 195.497,372.19 195.663,369.857 195.5,367.5C 195.833,367.5 196.167,367.5 196.5,367.5C 197.008,370.141 197.174,372.808 197,375.5C 195.951,376.517 194.784,376.684 193.5,376C 188.358,370.113 183.192,363.613 178,356.5C 177.501,362.157 177.334,367.824 177.5,373.5C 178.5,373.5 179.5,373.5 180.5,373.5C 180.67,374.822 180.337,375.989 179.5,377C 176.5,376.187 173.5,376.353 170.5,377.5C 172.48,372.889 173.48,367.889 173.5,362.5C 173.333,359.167 173.167,355.833 173,352.5C 170.444,351.781 169.277,350.114 169.5,347.5C 172.518,347.335 175.518,347.502 178.5,348C 182.721,353.706 187.054,359.206 191.5,364.5 Z"/></g>
<g><path style="opacity:0.827" fill="#434c64" d="M 174.5,352.5 C 175.167,352.5 175.833,352.5 176.5,352.5C 175.372,359.42 175.205,366.42 176,373.5C 176.75,374.126 177.584,374.626 178.5,375C 176.421,375.808 174.421,375.641 172.5,374.5C 174.416,367.376 175.083,360.043 174.5,352.5 Z"/></g>
</svg>
