<?xml version="1.0" encoding="UTF-8"?>
<!DOCTYPE svg PUBLIC "-//W3C//DTD SVG 1.1//EN" "http://www.w3.org/Graphics/SVG/1.1/DTD/svg11.dtd">
<svg xmlns="http://www.w3.org/2000/svg" version="1.1" width="1200px" height="1200px" style="shape-rendering:geometricPrecision; text-rendering:geometricPrecision; image-rendering:optimizeQuality; fill-rule:evenodd; clip-rule:evenodd" xmlns:xlink="http://www.w3.org/1999/xlink">
<g><path style="opacity:0.992" fill="#010100" d="M 123.5,35.5 C 440.5,35.5 757.5,35.5 1074.5,35.5C 1080.21,148.436 1081.71,261.436 1079,374.5C 1077.26,456.523 1068.93,537.856 1054,618.5C 1046.43,656.213 1035.43,692.879 1021,728.5C 982.555,820.139 930.555,902.806 865,976.5C 813.381,1031.49 754.881,1077.32 689.5,1114C 659.554,1130.22 629.388,1146.06 599,1161.5C 548.32,1136.92 499.487,1109.42 452.5,1079C 368.941,1020.98 300.441,948.813 247,862.5C 215.922,812.343 189.588,759.676 168,704.5C 151.107,654.371 139.44,603.037 133,550.5C 122.185,459.497 117.018,368.164 117.5,276.5C 118.202,196.132 120.202,115.798 123.5,35.5 Z"/></g>
<g><path style="opacity:0.776" fill="#919191" d="M 312.5,48.5 C 253.998,48.1676 195.664,48.501 137.5,49.5C 136.711,49.2172 136.044,48.7172 135.5,48C 194.668,47.1681 253.668,47.3347 312.5,48.5 Z"/></g>
<g><path style="opacity:0.776" fill="#939393" d="M 598.5,129.5 C 598.5,102.5 598.5,75.5 598.5,48.5C 551.167,48.5 503.833,48.5 456.5,48.5C 456.5,75.5 456.5,102.5 456.5,129.5C 455.502,102.338 455.169,75.0051 455.5,47.5C 503.5,47.5 551.5,47.5 599.5,47.5C 599.831,75.0051 599.498,102.338 598.5,129.5 Z"/></g>
<g><path style="opacity:1" fill="#fefefe" d="M 312.5,48.5 C 312.5,75.5 312.5,102.5 312.5,129.5C 279.832,129.667 247.165,129.5 214.5,129C 188.63,102.631 162.964,76.1313 137.5,49.5C 195.664,48.501 253.998,48.1676 312.5,48.5 Z"/></g>
<g><path style="opacity:1" fill="#fefefe" d="M 598.5,129.5 C 551.167,129.5 503.833,129.5 456.5,129.5C 456.5,102.5 456.5,75.5 456.5,48.5C 503.833,48.5 551.167,48.5 598.5,48.5C 598.5,75.5 598.5,102.5 598.5,129.5 Z"/></g>
<g><path style="opacity:1" fill="#fdfdfd" d="M 742.5,47.5 C 790.167,47.5 837.833,47.5 885.5,47.5C 885.5,74.8333 885.5,102.167 885.5,129.5C 837.833,129.5 790.167,129.5 742.5,129.5C 742.5,102.167 742.5,74.8333 742.5,47.5 Z"/></g>
<g><path style="opacity:1" fill="#fdfdfd" d="M 1061.5,48.5 C 1063.32,66.6321 1064.48,84.9654 1065,103.5C 1066.25,145.826 1067.08,188.16 1067.5,230.5C 1039.5,230.5 1011.5,230.5 983.5,230.5C 983.333,196.832 983.5,163.165 984,129.5C 1009.84,102.467 1035.67,75.4674 1061.5,48.5 Z"/></g>
<g><path style="opacity:1" fill="#fefefe" d="M 592.5,141.5 C 592.5,238.5 592.5,335.5 592.5,432.5C 585.167,432.5 577.833,432.5 570.5,432.5C 570.5,414.833 570.5,397.167 570.5,379.5C 553.008,378.503 535.341,378.17 517.5,378.5C 517.5,360.833 517.5,343.167 517.5,325.5C 495.833,325.5 474.167,325.5 452.5,325.5C 438.598,300.698 424.431,276.031 410,251.5C 396.04,275.919 382.207,300.419 368.5,325C 346.836,325.5 325.169,325.667 303.5,325.5C 303.5,343.5 303.5,361.5 303.5,379.5C 285.833,379.5 268.167,379.5 250.5,379.5C 250.5,397.167 250.5,414.833 250.5,432.5C 243.833,432.5 237.167,432.5 230.5,432.5C 227.922,335.52 226.588,238.52 226.5,141.5C 348.5,141.5 470.5,141.5 592.5,141.5 Z"/></g>
<g><path style="opacity:1" fill="#f6e007" d="M 605.5,141.5 C 727.5,141.5 849.5,141.5 971.5,141.5C 971.908,243.863 970.408,346.197 967,448.5C 964.634,495.789 959.634,542.789 952,589.5C 946.698,616.71 939.532,643.377 930.5,669.5C 923.5,669.5 916.5,669.5 909.5,669.5C 909.5,667.833 909.5,666.167 909.5,664.5C 910.633,646.04 907.467,628.373 900,611.5C 892.589,596.344 884.922,581.344 877,566.5C 864.848,541.905 865.848,517.905 880,494.5C 892.284,477.881 904.951,461.547 918,445.5C 941.851,412.911 949.018,377.078 939.5,338C 931.162,318.668 916.828,306.001 896.5,300C 876.441,296.669 856.441,297.002 836.5,301C 833.216,302.617 830.549,304.95 828.5,308C 824.123,308.188 820.123,309.521 816.5,312C 811.979,319.795 813.646,326.129 821.5,331C 830.512,330.199 839.512,329.199 848.5,328C 842.217,330.727 836.051,333.56 830,336.5C 827.924,341.865 829.424,346.031 834.5,349C 845.957,348.975 856.957,346.642 867.5,342C 870.587,337.726 874.587,334.893 879.5,333.5C 895.495,334.562 904.995,342.895 908,358.5C 909.349,383.776 902.349,406.443 887,426.5C 872.514,443.316 859.181,460.983 847,479.5C 828.342,513.407 827.675,547.74 845,582.5C 854.545,599.383 863.211,616.716 871,634.5C 874.772,645.439 875.272,656.439 872.5,667.5C 860.793,657.876 847.293,653.543 832,654.5C 822.299,654.632 812.799,656.132 803.5,659C 794.909,661.974 786.409,665.141 778,668.5C 759.624,659.906 740.29,655.239 720,654.5C 706.158,654.173 693.991,658.506 683.5,667.5C 681.907,658.362 682.407,649.362 685,640.5C 688.22,632.392 692.22,624.726 697,617.5C 707.08,603.679 716.413,589.345 725,574.5C 739.134,546.961 740.134,518.961 728,490.5C 716.329,467.809 702.663,446.476 687,426.5C 672.067,404.308 666.4,379.975 670,353.5C 674.623,341.39 683.457,334.723 696.5,333.5C 697.833,333.667 699.167,333.833 700.5,334C 712.215,345.129 726.215,350.129 742.5,349C 747.576,346.031 749.076,341.865 747,336.5C 740.732,333.856 734.565,331.023 728.5,328C 737.118,329.278 745.785,330.278 754.5,331C 760.296,328.928 763.296,324.761 763.5,318.5C 763.444,315.889 762.444,313.722 760.5,312C 756.877,309.521 752.877,308.188 748.5,308C 746.5,306 744.5,304 742.5,302C 720.551,296.802 698.551,296.468 676.5,301C 653.701,309.089 639.535,324.922 634,348.5C 629.79,382.658 636.79,414.324 655,443.5C 666.723,459.558 678.057,475.891 689,492.5C 699.988,510.08 702.655,528.747 697,548.5C 688.623,566.195 678.623,582.861 667,598.5C 657.643,612.215 651.309,627.215 648,643.5C 647.5,652.494 647.334,661.494 647.5,670.5C 633.5,670.5 619.5,670.5 605.5,670.5C 605.5,494.167 605.5,317.833 605.5,141.5 Z"/></g>
<g><path style="opacity:1" fill="#050b04" d="M 766.5,149.5 C 774.829,152.661 782.162,157.328 788.5,163.5C 789.648,161.851 790.981,160.351 792.5,159C 798.098,155.953 803.598,152.786 809,149.5C 814.712,156.253 818.879,163.92 821.5,172.5C 822.5,172 823.5,171.5 824.5,171C 831.826,170.5 839.159,170.334 846.5,170.5C 846.666,177.175 846.5,183.842 846,190.5C 845.654,192.218 845.154,193.885 844.5,195.5C 852.881,198.19 860.547,202.19 867.5,207.5C 864.047,215.435 859.38,222.435 853.5,228.5C 859.38,234.565 864.047,241.565 867.5,249.5C 860.547,254.81 852.881,258.81 844.5,261.5C 845,262.5 845.5,263.5 846,264.5C 846.5,271.826 846.666,279.159 846.5,286.5C 839.159,286.666 831.826,286.5 824.5,286C 823.5,285.5 822.5,285 821.5,284.5C 818.386,292.618 814.386,300.285 809.5,307.5C 801.603,304.06 794.603,299.394 788.5,293.5C 782.435,299.38 775.435,304.047 767.5,307.5C 762.192,300.553 758.192,292.886 755.5,284.5C 754.5,285 753.5,285.5 752.5,286C 745.174,286.5 737.841,286.666 730.5,286.5C 730.334,279.159 730.5,271.826 731,264.5C 731.5,263.5 732,262.5 732.5,261.5C 723.92,258.879 716.253,254.712 709.5,249C 713.074,241.328 717.741,234.495 723.5,228.5C 717.62,222.435 712.953,215.435 709.5,207.5C 716.45,202.191 724.116,198.191 732.5,195.5C 731.902,194.205 731.402,192.872 731,191.5C 730.5,184.508 730.334,177.508 730.5,170.5C 737.841,170.334 745.174,170.5 752.5,171C 753.5,171.5 754.5,172 755.5,172.5C 758.354,164.458 762.021,156.791 766.5,149.5 Z"/></g>
<g><path style="opacity:1" fill="#188942" d="M 767.5,154.5 C 772.715,156.441 777.715,158.941 782.5,162C 784.249,164.086 785.583,166.419 786.5,169C 781.85,172.645 778.35,177.145 776,182.5C 771.588,179.546 766.755,177.546 761.5,176.5C 760.343,173.216 760.176,169.882 761,166.5C 763.446,162.606 765.612,158.606 767.5,154.5 Z"/></g>
<g><path style="opacity:1" fill="#188841" d="M 806.5,154.5 C 807.675,154.281 808.675,154.614 809.5,155.5C 813.085,160.499 815.418,165.999 816.5,172C 816.167,173.5 815.833,175 815.5,176.5C 810.117,177.237 805.284,179.237 801,182.5C 797.868,177.703 794.368,173.203 790.5,169C 791.321,166.357 792.654,164.024 794.5,162C 798.732,159.725 802.732,157.225 806.5,154.5 Z"/></g>
<g><path style="opacity:1" fill="#188841" d="M 786.5,173.5 C 791.607,175.439 795.273,178.939 797.5,184C 797.415,185.107 797.081,186.107 796.5,187C 793.657,188.517 790.823,190.017 788,191.5C 785.765,189.629 783.265,188.129 780.5,187C 779.919,186.107 779.585,185.107 779.5,184C 780.821,179.842 783.154,176.342 786.5,173.5 Z"/></g>
<g><path style="opacity:1" fill="#105d2c" d="M 750.5,174.5 C 745.167,174.5 739.833,174.5 734.5,174.5C 734.5,179.833 734.5,185.167 734.5,190.5C 733.511,185.025 733.178,179.358 733.5,173.5C 739.358,173.178 745.025,173.511 750.5,174.5 Z"/></g>
<g><path style="opacity:1" fill="#188b43" d="M 750.5,174.5 C 752.679,174.84 754.512,175.84 756,177.5C 755.577,183.136 755.077,188.803 754.5,194.5C 749.562,194.388 744.729,195.055 740,196.5C 736.629,195.961 734.796,193.961 734.5,190.5C 734.5,185.167 734.5,179.833 734.5,174.5C 739.833,174.5 745.167,174.5 750.5,174.5 Z"/></g>
<g><path style="opacity:1" fill="#188a42" d="M 826.5,174.5 C 831.833,174.5 837.167,174.5 842.5,174.5C 842.5,179.5 842.5,184.5 842.5,189.5C 842.361,193.111 840.694,195.777 837.5,197.5C 832.703,195.456 827.703,194.456 822.5,194.5C 822.842,189.067 821.842,183.9 819.5,179C 821.181,176.492 823.514,174.992 826.5,174.5 Z"/></g>
<g><path style="opacity:1" fill="#0e4f26" d="M 826.5,174.5 C 831.975,173.511 837.642,173.178 843.5,173.5C 843.821,179.026 843.488,184.36 842.5,189.5C 842.5,184.5 842.5,179.5 842.5,174.5C 837.167,174.5 831.833,174.5 826.5,174.5 Z"/></g>
<g><path style="opacity:1" fill="#188741" d="M 760.5,180.5 C 765.604,180.617 770.104,182.283 774,185.5C 774.667,186.833 774.667,188.167 774,189.5C 772.243,192.014 770.743,194.681 769.5,197.5C 765.841,196.899 762.174,196.233 758.5,195.5C 757.378,190.303 758.045,185.303 760.5,180.5 Z"/></g>
<g><path style="opacity:1" fill="#188942" d="M 813.5,180.5 C 814.822,180.33 815.989,180.663 817,181.5C 818.393,186.095 818.726,190.761 818,195.5C 814.214,196.795 810.38,196.795 806.5,195.5C 804.707,192.749 803.041,189.916 801.5,187C 804.725,183.218 808.725,181.051 813.5,180.5 Z"/></g>
<g><path style="opacity:1" fill="#100d03" d="M 651.5,190.5 C 656.74,189.538 660.907,191.205 664,195.5C 668.516,203.231 671.016,211.565 671.5,220.5C 674.85,220.335 678.183,220.502 681.5,221C 682.76,222.814 682.76,224.647 681.5,226.5C 678.53,227.637 676.364,229.637 675,232.5C 675.277,243.963 670.444,252.297 660.5,257.5C 660.189,262.82 657.522,266.153 652.5,267.5C 650.391,267.225 649.058,266.058 648.5,264C 650.182,262.105 650.682,259.938 650,257.5C 644.397,255.562 640.397,251.896 638,246.5C 636.268,241.65 635.268,236.65 635,231.5C 632.961,229.126 630.628,227.126 628,225.5C 627.28,223.888 627.446,222.388 628.5,221C 631.817,220.502 635.15,220.335 638.5,220.5C 639.552,211.742 642.052,203.409 646,195.5C 647.73,193.598 649.563,191.931 651.5,190.5 Z"/></g>
<g><path style="opacity:1" fill="#178640" d="M 777.5,190.5 C 781.749,190.913 784.749,193.079 786.5,197C 784.05,200.453 781.217,203.62 778,206.5C 773.599,201.231 773.432,195.898 777.5,190.5 Z"/></g>
<g><path style="opacity:1" fill="#178540" d="M 797.5,189.5 C 803.747,194.629 804.08,200.296 798.5,206.5C 795.632,203.468 792.965,200.302 790.5,197C 792.32,194.014 794.653,191.514 797.5,189.5 Z"/></g>
<g><path style="opacity:1" fill="#110e03" d="M 917.5,190.5 C 922.447,189.628 926.613,190.961 930,194.5C 935.231,202.362 937.731,211.029 937.5,220.5C 941.182,220.335 944.848,220.501 948.5,221C 949.554,222.388 949.72,223.888 949,225.5C 947.172,227.081 945.172,228.415 943,229.5C 941.91,235.198 940.577,240.865 939,246.5C 936.603,251.896 932.603,255.562 927,257.5C 927.128,260.486 927.128,263.486 927,266.5C 925.274,267.576 923.441,267.743 921.5,267C 918.769,264.374 916.936,261.207 916,257.5C 905.931,252.368 901.264,244.035 902,232.5C 900.273,229.107 897.606,226.774 894,225.5C 893.289,223.633 893.789,222.133 895.5,221C 898.817,220.502 902.15,220.335 905.5,220.5C 905.876,208.945 909.876,198.945 917.5,190.5 Z"/></g>
<g><path style="opacity:1" fill="#d92040" d="M 652.5,193.5 C 657.407,193.551 660.907,195.884 663,200.5C 665.768,207.573 667.268,214.906 667.5,222.5C 662.878,223.561 658.711,225.561 655,228.5C 651.53,225.878 647.697,223.878 643.5,222.5C 642.315,213.567 644.148,205.234 649,197.5C 650.376,196.295 651.542,194.962 652.5,193.5 Z"/></g>
<g><path style="opacity:1" fill="#d92040" d="M 919.5,193.5 C 924.023,193.345 927.189,195.345 929,199.5C 932.294,206.802 934.128,214.468 934.5,222.5C 929.878,223.561 925.711,225.561 922,228.5C 918.261,226.38 914.428,224.38 910.5,222.5C 908.878,211.367 911.878,201.7 919.5,193.5 Z"/></g>
<g><path style="opacity:1" fill="#188741" d="M 748.5,197.5 C 751.272,197.22 753.772,197.887 756,199.5C 756.207,203.089 756.707,206.589 757.5,210C 753.77,211.396 750.27,213.23 747,215.5C 742.476,211.214 740.643,206.047 741.5,200C 744.004,199.302 746.337,198.469 748.5,197.5 Z"/></g>
<g><path style="opacity:1" fill="#188741" d="M 822.5,197.5 C 827.516,197.678 832.182,199.012 836.5,201.5C 835.512,204.45 834.679,207.45 834,210.5C 833.027,212.64 831.527,214.307 829.5,215.5C 826.098,213.472 822.765,211.472 819.5,209.5C 819.882,205.231 820.882,201.231 822.5,197.5 Z"/></g>
<g><path style="opacity:1" fill="#188942" d="M 726.5,200.5 C 729.898,200.18 733.232,200.513 736.5,201.5C 737.632,206.737 739.632,211.57 742.5,216C 737.122,218.379 732.622,221.879 729,226.5C 726.357,225.679 724.024,224.346 722,222.5C 719.366,218.065 716.866,213.565 714.5,209C 718.361,205.909 722.361,203.076 726.5,200.5 Z"/></g>
<g><path style="opacity:1" fill="#0b4220" d="M 767.5,200.5 C 765.167,200.5 762.833,200.5 760.5,200.5C 760.5,203.167 760.5,205.833 760.5,208.5C 759.523,205.713 759.19,202.713 759.5,199.5C 762.385,199.194 765.052,199.527 767.5,200.5 Z"/></g>
<g><path style="opacity:1" fill="#188741" d="M 767.5,200.5 C 771.166,202.282 773.832,205.115 775.5,209C 771.174,209.226 767.007,210.059 763,211.5C 761.955,210.627 761.122,209.627 760.5,208.5C 760.5,205.833 760.5,203.167 760.5,200.5C 762.833,200.5 765.167,200.5 767.5,200.5 Z"/></g>
<g><path style="opacity:1" fill="#188a42" d="M 807.5,200.5 C 810.5,200.5 813.5,200.5 816.5,200.5C 816.665,203.518 816.498,206.518 816,209.5C 815.333,210.167 814.667,210.833 814,211.5C 810.138,210.547 806.305,209.38 802.5,208C 803.805,205.213 805.472,202.713 807.5,200.5 Z"/></g>
<g><path style="opacity:1" fill="#188841" d="M 840.5,200.5 C 849.028,200.265 856.361,203.098 862.5,209C 860.134,213.565 857.634,218.065 855,222.5C 852.914,224.249 850.581,225.583 848,226.5C 843.797,222.632 839.297,219.132 834.5,216C 837.485,211.233 839.485,206.067 840.5,200.5 Z"/></g>
<g><path style="opacity:1" fill="#188a42" d="M 787.5,201.5 C 793.674,203.947 796.34,208.281 795.5,214.5C 796.167,214.833 796.833,215.167 797.5,215.5C 802.337,211.784 807.337,211.784 812.5,215.5C 811.431,218.539 810.265,221.539 809,224.5C 807.416,225.861 805.582,226.528 803.5,226.5C 803.5,227.833 803.5,229.167 803.5,230.5C 806.099,230.549 808.266,231.549 810,233.5C 810.837,236.365 811.67,239.198 812.5,242C 809.724,243.037 806.89,243.87 804,244.5C 801.321,243.72 798.821,242.887 796.5,242C 796.284,247.928 793.618,252.428 788.5,255.5C 783.054,252.573 780.388,248.073 780.5,242C 778.053,243.03 775.386,243.863 772.5,244.5C 764.1,244.147 762.267,240.481 767,233.5C 768.264,231.393 770.097,230.393 772.5,230.5C 772.5,229.167 772.5,227.833 772.5,226.5C 770.097,226.607 768.264,225.607 767,223.5C 766.468,220.736 765.634,218.07 764.5,215.5C 766.845,213.717 769.512,212.717 772.5,212.5C 775.386,213.137 778.053,213.97 780.5,215C 781.274,212.595 781.774,210.095 782,207.5C 784.04,205.63 785.873,203.63 787.5,201.5 Z"/></g>
<g><path style="opacity:1" fill="#188741" d="M 754.5,214.5 C 756.792,214.244 758.959,214.577 761,215.5C 761.94,219.101 763.107,222.601 764.5,226C 757.349,228.38 752.682,226.047 750.5,219C 751.344,216.993 752.677,215.493 754.5,214.5 Z"/></g>
<g><path style="opacity:1" fill="#188841" d="M 816.5,214.5 C 827.49,214.659 829.157,218.493 821.5,226C 818.446,226.821 815.446,226.655 812.5,225.5C 814.135,221.906 815.468,218.24 816.5,214.5 Z"/></g>
<g><path style="opacity:1" fill="#188841" d="M 741.5,219.5 C 743.199,219.34 744.866,219.506 746.5,220C 748.041,222.916 749.707,225.749 751.5,228.5C 749.707,231.251 748.041,234.084 746.5,237C 744.833,237.667 743.167,237.667 741.5,237C 738.478,234.311 735.811,231.311 733.5,228C 735.682,224.653 738.349,221.819 741.5,219.5 Z"/></g>
<g><path style="opacity:1" fill="#188942" d="M 830.5,219.5 C 836.134,220.444 840.467,223.444 843.5,228.5C 840.703,232.637 837.036,235.637 832.5,237.5C 829.208,235.2 826.542,232.2 824.5,228.5C 826.758,225.643 828.758,222.643 830.5,219.5 Z"/></g>
<g><path style="opacity:1" fill="#1c8a41" d="M 631.5,224.5 C 640.249,224.433 648.083,227.433 655,233.5C 661.804,227.678 669.637,224.511 678.5,224C 675.667,225.5 673.5,227.667 672,230.5C 671.158,236.741 669.491,242.741 667,248.5C 664.344,250.996 661.344,252.996 658,254.5C 657.237,257.95 655.737,260.95 653.5,263.5C 653.478,261.098 653.311,258.432 653,255.5C 650,253.5 647,251.5 644,249.5C 640.946,244.29 639.279,238.623 639,232.5C 637.653,228.656 635.153,225.989 631.5,224.5 Z"/></g>
<g><path style="opacity:1" fill="#1c8941" d="M 898.5,224.5 C 907.147,224.299 914.814,227.299 921.5,233.5C 928.552,227.802 936.552,224.636 945.5,224C 938.507,228.491 935.34,234.991 936,243.5C 935,245.5 934,247.5 933,249.5C 929.492,251.587 926.158,253.92 923,256.5C 922.626,258.898 922.626,261.231 923,263.5C 920.709,260.975 919.376,257.975 919,254.5C 912.568,252.402 908.568,248.068 907,241.5C 906.612,237.781 905.945,234.114 905,230.5C 903.615,227.614 901.449,225.614 898.5,224.5 Z"/></g>
<g><path style="opacity:1" fill="#188841" d="M 755.5,230.5 C 758.518,230.335 761.518,230.502 764.5,231C 762.568,234.464 761.235,238.131 760.5,242C 756.114,243.118 752.447,241.951 749.5,238.5C 751.046,235.368 753.046,232.702 755.5,230.5 Z"/></g>
<g><path style="opacity:1" fill="#188942" d="M 812.5,230.5 C 820.495,228.703 824.995,231.703 826,239.5C 823.237,241.97 820.07,242.804 816.5,242C 815.267,238.133 813.933,234.3 812.5,230.5 Z"/></g>
<g><path style="opacity:1" fill="#fefefe" d="M 142.5,379.5 C 139.167,379.5 135.833,379.5 132.5,379.5C 132.806,376.615 132.473,373.948 131.5,371.5C 130.698,324.838 130.364,278.171 130.5,231.5C 158.5,231.5 186.5,231.5 214.5,231.5C 215.176,280.5 215.843,329.5 216.5,378.5C 191.829,378.55 167.162,378.883 142.5,379.5 Z"/></g>
<g><path style="opacity:1" fill="#188942" d="M 727.5,230.5 C 728.552,230.351 729.552,230.517 730.5,231C 733.383,235.385 737.05,238.885 741.5,241.5C 738.841,246.144 737.174,251.144 736.5,256.5C 733.15,256.665 729.817,256.498 726.5,256C 722.126,253.819 718.126,251.152 714.5,248C 717.058,240.661 721.391,234.828 727.5,230.5 Z"/></g>
<g><path style="opacity:1" fill="#188942" d="M 846.5,230.5 C 849.769,230.884 852.603,232.218 855,234.5C 857.634,238.935 860.134,243.435 862.5,248C 856.361,253.902 849.028,256.735 840.5,256.5C 839.675,250.854 837.675,245.687 834.5,241C 839.286,238.38 843.286,234.88 846.5,230.5 Z"/></g>
<g><path style="opacity:1" fill="#188741" d="M 746.5,241.5 C 749.634,242.901 752.634,244.568 755.5,246.5C 756.659,250.122 756.825,253.789 756,257.5C 755.25,258.126 754.416,258.626 753.5,259C 749.147,259.219 744.981,258.385 741,256.5C 740.565,250.637 742.398,245.637 746.5,241.5 Z"/></g>
<g><path style="opacity:1" fill="#178640" d="M 828.5,241.5 C 830.371,241.859 831.871,242.859 833,244.5C 835.266,248.231 836.266,252.231 836,256.5C 831.635,258.18 827.135,259.014 822.5,259C 820.871,255.238 819.871,251.238 819.5,247C 822.865,245.656 825.865,243.823 828.5,241.5 Z"/></g>
<g><path style="opacity:1" fill="#188841" d="M 761.5,245.5 C 765.797,246.591 770.13,247.591 774.5,248.5C 773.029,251.136 771.363,253.636 769.5,256C 766.518,256.498 763.518,256.665 760.5,256.5C 760.323,252.766 760.656,249.099 761.5,245.5 Z"/></g>
<g><path style="opacity:1" fill="#188741" d="M 811.5,245.5 C 813.39,245.297 814.89,245.963 816,247.5C 816.498,250.482 816.665,253.482 816.5,256.5C 813.482,256.665 810.482,256.498 807.5,256C 805.257,253.512 803.257,250.846 801.5,248C 805.133,247.851 808.466,247.018 811.5,245.5 Z"/></g>
<g><path style="opacity:1" fill="#178641" d="M 777.5,250.5 C 781.012,253.178 784.012,256.345 786.5,260C 781.198,268.831 777.198,268.498 774.5,259C 774.801,255.903 775.801,253.07 777.5,250.5 Z"/></g>
<g><path style="opacity:1" fill="#188741" d="M 797.5,250.5 C 803.059,254.516 803.892,259.516 800,265.5C 795.471,266.351 792.304,264.517 790.5,260C 793.061,256.948 795.394,253.781 797.5,250.5 Z"/></g>
<g><path style="opacity:1" fill="#188b43" d="M 749.5,282.5 C 744.5,282.5 739.5,282.5 734.5,282.5C 734.5,277.167 734.5,271.833 734.5,266.5C 734.84,264.321 735.84,262.488 737.5,261C 743.108,261.645 748.775,262.145 754.5,262.5C 755.176,268.184 755.676,273.851 756,279.5C 754.266,281.451 752.099,282.451 749.5,282.5 Z"/></g>
<g><path style="opacity:1" fill="#188841" d="M 768.5,259.5 C 769.376,259.369 770.043,259.702 770.5,260.5C 771.194,263.088 772.36,265.421 774,267.5C 774.667,268.833 774.667,270.167 774,271.5C 770.503,273.839 766.669,275.506 762.5,276.5C 761.833,276.167 761.167,275.833 760.5,275.5C 758.423,271.367 757.589,267.034 758,262.5C 761.36,260.93 764.86,259.93 768.5,259.5 Z"/></g>
<g><path style="opacity:1" fill="#188741" d="M 805.5,260.5 C 809.767,260.203 813.934,260.536 818,261.5C 818.781,262.729 819.281,264.062 819.5,265.5C 818.649,269.241 817.649,272.908 816.5,276.5C 810.763,276.532 805.93,274.532 802,270.5C 803.374,267.381 804.541,264.047 805.5,260.5 Z"/></g>
<g><path style="opacity:1" fill="#188a42" d="M 842.5,266.5 C 842.5,271.833 842.5,277.167 842.5,282.5C 837.167,282.5 831.833,282.5 826.5,282.5C 823.514,282.008 821.181,280.508 819.5,278C 821.219,272.96 822.219,267.794 822.5,262.5C 827.746,262.651 832.746,261.651 837.5,259.5C 840.349,261.012 842.016,263.345 842.5,266.5 Z"/></g>
<g><path style="opacity:1" fill="#188a42" d="M 786.5,265.5 C 790.127,266.28 793.46,267.78 796.5,270C 797.749,272.21 797.582,274.376 796,276.5C 793.651,279.017 791.151,281.35 788.5,283.5C 784.542,280.717 781.542,277.217 779.5,273C 779.667,272.167 779.833,271.333 780,270.5C 782.352,268.97 784.519,267.303 786.5,265.5 Z"/></g>
<g><path style="opacity:1" fill="#188942" d="M 800.5,274.5 C 805.374,277.614 810.708,279.614 816.5,280.5C 816.665,283.518 816.498,286.518 816,289.5C 814.034,293.626 811.868,297.626 809.5,301.5C 808.635,302.583 807.635,302.749 806.5,302C 802.5,299.667 798.5,297.333 794.5,295C 792.654,292.976 791.321,290.643 790.5,288C 792.95,284.547 795.783,281.38 799,278.5C 799.791,277.255 800.291,275.922 800.5,274.5 Z"/></g>
<g><path style="opacity:1" fill="#188841" d="M 775.5,274.5 C 778.968,279.137 782.634,283.637 786.5,288C 785.777,290.553 784.444,292.72 782.5,294.5C 778.231,297.551 773.731,300.218 769,302.5C 765.848,298.874 763.181,294.874 761,290.5C 760.333,287.167 760.333,283.833 761,280.5C 764.782,279.261 768.615,278.095 772.5,277C 773.942,276.623 774.942,275.79 775.5,274.5 Z"/></g>
<g><path style="opacity:1" fill="#0f5729" d="M 734.5,266.5 C 734.5,271.833 734.5,277.167 734.5,282.5C 739.5,282.5 744.5,282.5 749.5,282.5C 744.36,283.488 739.026,283.821 733.5,283.5C 733.178,277.642 733.511,271.975 734.5,266.5 Z"/></g>
<g><path style="opacity:1" fill="#0e4e26" d="M 842.5,266.5 C 843.489,271.975 843.822,277.642 843.5,283.5C 837.642,283.822 831.975,283.489 826.5,282.5C 831.833,282.5 837.167,282.5 842.5,282.5C 842.5,277.167 842.5,271.833 842.5,266.5 Z"/></g>
<g><path style="opacity:1" fill="#0c0c02" d="M 605.5,141.5 C 605.5,317.833 605.5,494.167 605.5,670.5C 619.5,670.5 633.5,670.5 647.5,670.5C 647.334,661.494 647.5,652.494 648,643.5C 651.309,627.215 657.643,612.215 667,598.5C 678.623,582.861 688.623,566.195 697,548.5C 702.655,528.747 699.988,510.08 689,492.5C 678.057,475.891 666.723,459.558 655,443.5C 636.79,414.324 629.79,382.658 634,348.5C 639.535,324.922 653.701,309.089 676.5,301C 698.551,296.468 720.551,296.802 742.5,302C 744.5,304 746.5,306 748.5,308C 752.877,308.188 756.877,309.521 760.5,312C 762.444,313.722 763.444,315.889 763.5,318.5C 763.296,324.761 760.296,328.928 754.5,331C 745.785,330.278 737.118,329.278 728.5,328C 734.565,331.023 740.732,333.856 747,336.5C 749.076,341.865 747.576,346.031 742.5,349C 726.215,350.129 712.215,345.129 700.5,334C 699.167,333.833 697.833,333.667 696.5,333.5C 683.457,334.723 674.623,341.39 670,353.5C 666.4,379.975 672.067,404.308 687,426.5C 702.663,446.476 716.329,467.809 728,490.5C 740.134,518.961 739.134,546.961 725,574.5C 716.413,589.345 707.08,603.679 697,617.5C 692.22,624.726 688.22,632.392 685,640.5C 682.407,649.362 681.907,658.362 683.5,667.5C 693.991,658.506 706.158,654.173 720,654.5C 740.29,655.239 759.624,659.906 778,668.5C 786.409,665.141 794.909,661.974 803.5,659C 812.799,656.132 822.299,654.632 832,654.5C 847.293,653.543 860.793,657.876 872.5,667.5C 875.272,656.439 874.772,645.439 871,634.5C 863.211,616.716 854.545,599.383 845,582.5C 827.675,547.74 828.342,513.407 847,479.5C 859.181,460.983 872.514,443.316 887,426.5C 902.349,406.443 909.349,383.776 908,358.5C 904.995,342.895 895.495,334.562 879.5,333.5C 874.587,334.893 870.587,337.726 867.5,342C 856.957,346.642 845.957,348.975 834.5,349C 829.424,346.031 827.924,341.865 830,336.5C 836.051,333.56 842.217,330.727 848.5,328C 839.512,329.199 830.512,330.199 821.5,331C 813.646,326.129 811.979,319.795 816.5,312C 820.123,309.521 824.123,308.188 828.5,308C 830.549,304.95 833.216,302.617 836.5,301C 856.441,297.002 876.441,296.669 896.5,300C 916.828,306.001 931.162,318.668 939.5,338C 949.018,377.078 941.851,412.911 918,445.5C 904.951,461.547 892.284,477.881 880,494.5C 865.848,517.905 864.848,541.905 877,566.5C 884.922,581.344 892.589,596.344 900,611.5C 907.467,628.373 910.633,646.04 909.5,664.5C 908.539,666.265 908.205,668.265 908.5,670.5C 915.833,670.5 923.167,670.5 930.5,670.5C 930.204,672.403 929.537,674.07 928.5,675.5C 921.656,674.181 914.656,674.181 907.5,675.5C 904.737,687.655 899.237,698.321 891,707.5C 889.621,735.213 875.454,752.38 848.5,759C 841.215,760.414 833.882,760.747 826.5,760C 816.324,757.578 806.324,754.578 796.5,751C 786.274,748.76 775.94,748.093 765.5,749C 762.215,749.759 759.215,751.092 756.5,753C 753.447,754.072 751.447,753.072 750.5,750C 751.776,747.719 753.443,745.719 755.5,744C 768.869,736.327 783.202,733.66 798.5,736C 808.4,737.133 818.233,738.633 828,740.5C 838.789,740.35 848.289,736.85 856.5,730C 834.498,734.117 813.832,730.45 794.5,719C 789.237,715.119 783.737,711.619 778,708.5C 766.601,716.951 754.101,723.451 740.5,728C 726.173,732.327 711.84,732.66 697.5,729C 710.141,744.491 726.474,753.491 746.5,756C 765.846,756.492 785.18,756.492 804.5,756C 805.833,757.667 805.833,759.333 804.5,761C 777.209,771.107 749.209,774.107 720.5,770C 703.177,765.257 688.677,756.091 677,742.5C 669.643,732.422 665.977,721.089 666,708.5C 657.409,698.82 651.576,687.654 648.5,675C 634.171,674.5 619.837,674.333 605.5,674.5C 605.5,708.5 605.5,742.5 605.5,776.5C 604.167,564.833 604.167,353.167 605.5,141.5 Z"/></g>
<g><path style="opacity:1" fill="#1e401c" d="M 692.5,300.5 C 707.955,300.215 723.288,301.381 738.5,304C 741.768,304.936 744.101,306.936 745.5,310C 749.608,311.027 753.608,312.36 757.5,314C 759.124,315.117 760.124,316.617 760.5,318.5C 759.074,327.158 754.074,329.991 745.5,327C 738.571,326.393 731.737,325.226 725,323.5C 723.833,323.833 722.667,324.167 721.5,324.5C 723.65,327.151 725.983,329.651 728.5,332C 733.723,334.094 738.89,336.26 744,338.5C 745.041,341.636 744.207,344.136 741.5,346C 730.673,346.044 720.34,343.711 710.5,339C 707.833,336.333 705.167,333.667 702.5,331C 682.146,329.417 669.98,338.583 666,358.5C 664.061,384.414 670.395,408.08 685,429.5C 695.722,443.89 706.056,458.556 716,473.5C 738.27,511.144 737.937,548.477 715,585.5C 706.085,598.328 697.419,611.328 689,624.5C 679.656,639.388 676.989,655.388 681,672.5C 692.496,697.488 711.329,705.321 737.5,696C 740.912,694.545 744.079,692.712 747,690.5C 757.028,694.763 766.528,699.929 775.5,706C 763.783,715.026 750.783,721.692 736.5,726C 702.97,733.057 677.136,722.224 659,693.5C 648.844,671.607 647.844,649.274 656,626.5C 659.139,618.888 662.806,611.554 667,604.5C 679.171,588.17 689.838,570.837 699,552.5C 705.952,531.188 703.619,510.855 692,491.5C 679.667,473.5 667.333,455.5 655,437.5C 640.81,413.406 634.476,387.406 636,359.5C 640.082,325.587 658.915,305.92 692.5,300.5 Z"/></g>
<g><path style="opacity:1" fill="#1e401c" d="M 863.5,300.5 C 884.056,298.471 902.723,303.305 919.5,315C 934.491,328.783 941.825,345.949 941.5,366.5C 941.102,392.77 933.602,416.77 919,438.5C 905.333,456.167 891.667,473.833 878,491.5C 862.908,516.068 861.575,541.401 874,567.5C 882.861,583.888 891.194,600.555 899,617.5C 910.122,644.854 908.788,671.521 895,697.5C 893.333,699.5 891.667,701.5 890,703.5C 888.263,690.945 883.43,679.778 875.5,670C 879.076,653.936 877.243,638.436 870,623.5C 860.457,605.748 851.457,587.748 843,569.5C 831.841,539.598 833.841,510.598 849,482.5C 852.94,475.564 857.273,468.897 862,462.5C 872.046,450.789 881.713,438.789 891,426.5C 907.505,404.813 913.838,380.48 910,353.5C 904.187,336.714 892.354,329.214 874.5,331C 869.016,338.411 861.683,342.744 852.5,344C 846.872,345.329 841.205,345.995 835.5,346C 832.793,344.136 831.959,341.636 833,338.5C 837.29,336.295 841.79,334.461 846.5,333C 849.979,330.688 852.979,327.854 855.5,324.5C 854.167,324.167 852.833,323.833 851.5,323.5C 841.329,326.23 830.996,327.397 820.5,327C 818.37,324.739 817.036,322.072 816.5,319C 816.643,316.849 817.643,315.182 819.5,314C 823.392,312.36 827.392,311.027 831.5,310C 832.833,307.333 834.833,305.333 837.5,304C 846.271,302.5 854.938,301.334 863.5,300.5 Z"/></g>
<g><path style="opacity:1" fill="#fdfdfd" d="M 490.5,405.5 C 507.992,406.497 525.659,406.83 543.5,406.5C 543.5,424.167 543.5,441.833 543.5,459.5C 559.833,459.5 576.167,459.5 592.5,459.5C 592.5,493.167 592.5,526.833 592.5,560.5C 531.521,499.854 470.521,439.188 409.5,378.5C 353.5,435.167 297.167,491.5 240.5,547.5C 236.32,518.309 233.653,488.976 232.5,459.5C 247.167,459.5 261.833,459.5 276.5,459.5C 277.497,442.008 277.83,424.341 277.5,406.5C 295.167,406.5 312.833,406.5 330.5,406.5C 330.5,388.5 330.5,370.5 330.5,352.5C 348.17,352.667 365.836,352.5 383.5,352C 392.46,336.581 401.293,321.081 410,305.5C 419.086,320.67 427.919,336.003 436.5,351.5C 454.488,352.5 472.488,352.833 490.5,352.5C 490.5,370.167 490.5,387.833 490.5,405.5 Z"/></g>
<g><path style="opacity:1" fill="#7c7c7c" d="M 452.5,325.5 C 474.167,325.5 495.833,325.5 517.5,325.5C 517.5,343.167 517.5,360.833 517.5,378.5C 535.341,378.17 553.008,378.503 570.5,379.5C 552.5,379.5 534.5,379.5 516.5,379.5C 516.5,361.833 516.5,344.167 516.5,326.5C 494.993,326.831 473.66,326.497 452.5,325.5 Z"/></g>
<g><path style="opacity:1" fill="#070400" d="M 727.5,366.5 C 766.835,366.333 806.168,366.5 845.5,367C 848.057,367.685 849.891,369.185 851,371.5C 851.667,399.167 851.667,426.833 851,454.5C 844.256,455.479 837.422,455.812 830.5,455.5C 830.64,457.124 829.973,458.29 828.5,459C 822.833,459.667 817.167,459.667 811.5,459C 807.427,455.974 802.76,454.807 797.5,455.5C 794.167,455.833 790.833,456.167 787.5,456.5C 787.023,457.478 786.357,458.311 785.5,459C 779.833,459.667 774.167,459.667 768.5,459C 766.833,458 765.167,457 763.5,456C 752.833,455.667 742.167,455.333 731.5,455C 729.333,452.833 727.167,450.667 725,448.5C 724.333,422.167 724.333,395.833 725,369.5C 726.045,368.627 726.878,367.627 727.5,366.5 Z"/></g>
<g><path style="opacity:1" fill="#d33323" d="M 843.5,370.5 C 845.582,370.624 847.082,371.624 848,373.5C 848.5,399.831 848.667,426.165 848.5,452.5C 841.825,452.666 835.158,452.5 828.5,452C 826.5,450.667 824.5,449.333 822.5,448C 829.492,447.5 836.492,447.334 843.5,447.5C 843.5,421.833 843.5,396.167 843.5,370.5 Z"/></g>
<g><path style="opacity:1" fill="#d82b25" d="M 740.5,375.5 C 747.486,375.331 749.153,378.164 745.5,384C 738.416,384.475 736.749,381.642 740.5,375.5 Z"/></g>
<g><path style="opacity:1" fill="#d52b24" d="M 826.5,375.5 C 832.989,375.156 834.989,377.99 832.5,384C 824.749,385.091 822.749,382.258 826.5,375.5 Z"/></g>
<g><path style="opacity:1" fill="#fefefe" d="M 981.5,378.5 C 1009.5,379.167 1037.5,379.833 1065.5,380.5C 1064.25,430.64 1060.91,480.64 1055.5,530.5C 1028.17,528.167 1000.83,525.833 973.5,523.5C 977.938,475.268 980.604,426.935 981.5,378.5 Z"/></g>
<g><path style="opacity:0.761" fill="#838383" d="M 131.5,371.5 C 132.473,373.948 132.806,376.615 132.5,379.5C 135.833,379.5 139.167,379.5 142.5,379.5C 139.038,380.482 135.371,380.815 131.5,380.5C 131.5,377.5 131.5,374.5 131.5,371.5 Z"/></g>
<g><path style="opacity:1" fill="#d92c25" d="M 790.5,393.5 C 790.5,397.167 790.5,400.833 790.5,404.5C 797.5,404.5 804.5,404.5 811.5,404.5C 815.013,406.908 815.346,409.742 812.5,413C 805.174,413.5 797.841,413.666 790.5,413.5C 790.666,417.514 790.499,421.514 790,425.5C 787.333,429.5 784.667,429.5 782,425.5C 781.501,421.514 781.334,417.514 781.5,413.5C 774.159,413.666 766.826,413.5 759.5,413C 756.654,409.742 756.987,406.908 760.5,404.5C 767.5,404.5 774.5,404.5 781.5,404.5C 781.5,400.833 781.5,397.167 781.5,393.5C 782.462,389.854 784.795,388.687 788.5,390C 789.823,390.816 790.489,391.983 790.5,393.5 Z"/></g>
<g><path style="opacity:1" fill="#5c1210" d="M 781.5,393.5 C 781.5,397.167 781.5,400.833 781.5,404.5C 774.5,404.5 767.5,404.5 760.5,404.5C 766.979,403.509 773.646,403.176 780.5,403.5C 780.187,399.958 780.521,396.625 781.5,393.5 Z"/></g>
<g><path style="opacity:1" fill="#5e1310" d="M 790.5,393.5 C 791.479,396.625 791.813,399.958 791.5,403.5C 798.354,403.176 805.021,403.509 811.5,404.5C 804.5,404.5 797.5,404.5 790.5,404.5C 790.5,400.833 790.5,397.167 790.5,393.5 Z"/></g>
<g><path style="opacity:1" fill="#080100" d="M 783.5,404.5 C 790.486,404.331 792.153,407.164 788.5,413C 781.416,413.475 779.749,410.642 783.5,404.5 Z"/></g>
<g><path style="opacity:1" fill="#8c8c8c" d="M 330.5,352.5 C 330.5,370.5 330.5,388.5 330.5,406.5C 312.833,406.5 295.167,406.5 277.5,406.5C 277.83,424.341 277.497,442.008 276.5,459.5C 276.5,441.5 276.5,423.5 276.5,405.5C 294.167,405.5 311.833,405.5 329.5,405.5C 329.17,387.659 329.503,369.992 330.5,352.5 Z"/></g>
<g><path style="opacity:1" fill="#efda07" d="M 408.5,415.5 C 409.822,415.33 410.989,415.663 412,416.5C 414.185,446.351 430.018,463.851 459.5,469C 462.864,472.026 463.364,475.526 461,479.5C 459.562,480.718 457.895,481.385 456,481.5C 444.452,478.143 433.952,472.81 424.5,465.5C 423.5,465.833 422.833,466.5 422.5,467.5C 430.989,475.921 440.989,482.088 452.5,486C 455.864,489.026 456.364,492.526 454,496.5C 450.367,499.241 446.867,499.074 443.5,496C 435.189,488.864 428.189,480.697 422.5,471.5C 421.675,470.614 420.675,470.281 419.5,470.5C 420.153,475.003 421.987,479.003 425,482.5C 429.925,489.429 435.592,495.762 442,501.5C 442.929,510.533 439.262,513.2 431,509.5C 425.266,499.036 420.933,488.036 418,476.5C 417.29,475.027 416.124,474.36 414.5,474.5C 416.847,487.376 420.514,499.876 425.5,512C 424.422,517.545 421.089,519.545 415.5,518C 414.299,517.097 413.465,515.931 413,514.5C 412.728,501.81 412.061,489.144 411,476.5C 410,475.167 409,475.167 408,476.5C 407.667,488.833 407.333,501.167 407,513.5C 402.667,520.167 398.333,520.167 394,513.5C 396.757,504.226 399.757,494.892 403,485.5C 403.995,481.855 404.828,478.188 405.5,474.5C 404.178,474.33 403.011,474.663 402,475.5C 398.842,486.975 394.509,497.975 389,508.5C 384.615,512.756 380.615,512.423 377,507.5C 376.333,505.833 376.333,504.167 377,502.5C 385.439,494.395 392.772,485.395 399,475.5C 399.982,474.241 400.315,472.908 400,471.5C 399,470.167 398,470.167 397,471.5C 390.558,480.941 383.058,489.441 374.5,497C 370.22,499.477 366.72,498.644 364,494.5C 363.294,492.029 363.627,489.695 365,487.5C 374.864,483.487 384.031,478.32 392.5,472C 394.227,470.611 395.561,468.944 396.5,467C 396.167,466.5 395.833,466 395.5,465.5C 386.309,472.181 376.309,477.348 365.5,481C 360.669,481.847 357.669,479.847 356.5,475C 356.703,472.594 357.703,470.594 359.5,469C 389.902,464.097 406.235,446.263 408.5,415.5 Z"/></g>
<g><path style="opacity:1" fill="#655c03" d="M 385.5,424.5 C 391.31,423.51 397.31,423.177 403.5,423.5C 403.768,425.099 403.434,426.432 402.5,427.5C 402.5,426.5 402.5,425.5 402.5,424.5C 396.833,424.5 391.167,424.5 385.5,424.5 Z"/></g>
<g><path style="opacity:1" fill="#5d5503" d="M 433.5,424.5 C 427.642,424.178 421.975,424.511 416.5,425.5C 415.957,425.44 415.624,425.107 415.5,424.5C 421.654,423.183 427.654,423.183 433.5,424.5 Z"/></g>
<g><path style="opacity:1" fill="#f0db07" d="M 385.5,424.5 C 391.167,424.5 396.833,424.5 402.5,424.5C 402.5,425.5 402.5,426.5 402.5,427.5C 400.886,435.727 397.386,443.061 392,449.5C 392.771,441.395 390.438,434.395 385,428.5C 384.235,426.934 384.402,425.601 385.5,424.5 Z"/></g>
<g><path style="opacity:1" fill="#f2dc07" d="M 433.5,424.5 C 434.478,424.811 435.145,425.478 435.5,426.5C 429.624,432.622 426.791,439.956 427,448.5C 421.332,441.831 417.832,434.164 416.5,425.5C 421.975,424.511 427.642,424.178 433.5,424.5 Z"/></g>
<g><path style="opacity:1" fill="#f9ea26" d="M 761.5,428.5 C 764.602,428.154 767.435,428.821 770,430.5C 771.239,436.056 771.906,441.722 772,447.5C 775.764,449.632 779.264,452.132 782.5,455C 778.167,455.667 773.833,455.667 769.5,455C 765.667,452.5 761.833,450 758,447.5C 757.333,442.5 757.333,437.5 758,432.5C 758.69,430.65 759.856,429.316 761.5,428.5 Z"/></g>
<g><path style="opacity:1" fill="#f9ea26" d="M 804.5,428.5 C 807.602,428.154 810.435,428.821 813,430.5C 814.239,436.056 814.906,441.722 815,447.5C 818.833,450 822.667,452.5 826.5,455C 821.833,455.667 817.167,455.667 812.5,455C 808.667,452.5 804.833,450 801,447.5C 800.333,442.5 800.333,437.5 801,432.5C 802.032,430.973 803.199,429.64 804.5,428.5 Z"/></g>
<g><path style="opacity:1" fill="#d12a23" d="M 741.5,432.5 C 746.772,433.263 748.439,436.097 746.5,441C 740.086,443.593 737.586,441.426 739,434.5C 739.995,433.934 740.828,433.267 741.5,432.5 Z"/></g>
<g><path style="opacity:1" fill="#cf2a23" d="M 827.5,432.5 C 833.758,433.477 835.091,436.644 831.5,442C 826,443.167 823.833,441 825,435.5C 826.045,434.627 826.878,433.627 827.5,432.5 Z"/></g>
<g><path style="opacity:1" fill="#ca3521" d="M 729.5,448.5 C 737.323,447.344 745.323,447.177 753.5,448C 754.833,449.333 756.167,450.667 757.5,452C 749.147,452.832 740.813,452.665 732.5,451.5C 731.812,450.145 730.812,449.145 729.5,448.5 Z"/></g>
<g><path style="opacity:1" fill="#c73321" d="M 779.5,448.5 C 785.346,447.183 791.346,447.183 797.5,448.5C 798.364,450.197 799.697,451.363 801.5,452C 793.583,453.56 786.25,452.394 779.5,448.5 Z"/></g>
<g><path style="opacity:0.998" fill="#626262" d="M 592.5,141.5 C 593.832,281.736 593.832,421.402 592.5,560.5C 592.5,526.833 592.5,493.167 592.5,459.5C 576.167,459.5 559.833,459.5 543.5,459.5C 543.5,441.833 543.5,424.167 543.5,406.5C 525.659,406.83 507.992,406.497 490.5,405.5C 508.5,405.5 526.5,405.5 544.5,405.5C 544.5,423.167 544.5,440.833 544.5,458.5C 560.5,458.5 576.5,458.5 592.5,458.5C 592.5,449.833 592.5,441.167 592.5,432.5C 592.5,335.5 592.5,238.5 592.5,141.5 Z"/></g>
<g><path style="opacity:1" fill="#0e0c03" d="M 652.5,492.5 C 658.68,492.826 663.18,495.826 666,501.5C 669.229,508.476 670.729,515.809 670.5,523.5C 674.182,523.335 677.848,523.501 681.5,524C 683.289,527.915 681.956,530.248 677.5,531C 676.789,532.255 675.956,533.421 675,534.5C 674.987,542.613 672.487,549.78 667.5,556C 664.982,557.502 662.482,559.002 660,560.5C 660.796,563.03 661.129,565.696 661,568.5C 658.534,569.788 656.034,569.788 653.5,568.5C 651.527,565.754 650.027,562.754 649,559.5C 643.758,557.926 640.091,554.593 638,549.5C 636.268,544.65 635.268,539.65 635,534.5C 634.535,533.069 633.701,531.903 632.5,531C 628.082,530.277 626.749,527.943 628.5,524C 631.817,523.502 635.15,523.335 638.5,523.5C 639.552,514.742 642.052,506.409 646,498.5C 648.063,496.266 650.229,494.266 652.5,492.5 Z"/></g>
<g><path style="opacity:1" fill="#110e03" d="M 919.5,492.5 C 924.16,492.748 927.993,494.748 931,498.5C 935.517,506.233 937.683,514.567 937.5,523.5C 940.817,522.779 944.151,522.612 947.5,523C 949.325,524.466 949.825,526.299 949,528.5C 946.828,529.585 944.828,530.919 943,532.5C 941.904,540.212 939.571,547.545 936,554.5C 933.251,556.923 930.251,558.923 927,560.5C 926.311,563.408 925.145,566.075 923.5,568.5C 920.966,569.788 918.466,569.788 916,568.5C 915.871,565.696 916.204,563.03 917,560.5C 910.238,558.072 905.904,553.405 904,546.5C 903.055,542.886 902.388,539.219 902,535.5C 900.636,532.637 898.47,530.637 895.5,529.5C 894.534,527.604 894.201,525.604 894.5,523.5C 898.167,523.5 901.833,523.5 905.5,523.5C 905.711,513.65 908.544,504.65 914,496.5C 915.812,495.023 917.645,493.69 919.5,492.5 Z"/></g>
<g><path style="opacity:1" fill="#d82040" d="M 652.5,496.5 C 656.664,496.143 659.831,497.81 662,501.5C 665.971,508.69 667.638,516.357 667,524.5C 662.836,526.581 658.836,528.914 655,531.5C 651.273,528.553 647.106,526.553 642.5,525.5C 642.016,514.396 645.35,504.729 652.5,496.5 Z"/></g>
<g><path style="opacity:1" fill="#d91f41" d="M 919.5,496.5 C 923.273,495.822 926.106,497.156 928,500.5C 932.038,508.032 934.038,516.032 934,524.5C 929.726,526.6 925.559,528.933 921.5,531.5C 918.025,528.429 914.025,526.429 909.5,525.5C 909.073,518.546 910.239,511.879 913,505.5C 914.675,502.015 916.842,499.015 919.5,496.5 Z"/></g>
<g><path style="opacity:1" fill="#efda07" d="M 304.5,513.5 C 306.451,513.227 307.951,513.893 309,515.5C 311.328,544.494 326.828,561.327 355.5,566C 360.423,569.615 360.756,573.615 356.5,578C 353.833,578.667 351.167,578.667 348.5,578C 338.445,573.737 328.778,568.904 319.5,563.5C 319.351,564.552 319.517,565.552 320,566.5C 323.167,569 326.333,571.5 329.5,574C 337.112,578.054 344.612,582.221 352,586.5C 352.947,593.885 349.78,596.719 342.5,595C 332.914,587.25 324.58,578.417 317.5,568.5C 316.386,569.723 316.219,571.056 317,572.5C 323.571,582.407 330.904,591.741 339,600.5C 339.448,607.375 336.282,609.875 329.5,608C 328.692,607.692 328.025,607.192 327.5,606.5C 321.887,594.962 316.887,583.296 312.5,571.5C 311.5,571.833 310.833,572.5 310.5,573.5C 313.503,585.842 317.503,597.842 322.5,609.5C 320.664,616.005 316.831,617.671 311,614.5C 310.581,613.328 309.915,612.328 309,611.5C 308.5,598.838 308.333,586.171 308.5,573.5C 307.167,573.5 305.833,573.5 304.5,573.5C 304.04,586.499 303.54,599.499 303,612.5C 297.303,618.201 293.136,617.201 290.5,609.5C 295.165,598.172 298.831,586.505 301.5,574.5C 300.733,570.765 299.566,570.765 298,574.5C 295.376,585.372 291.376,595.706 286,605.5C 282,610.833 278,610.833 274,605.5C 273.333,603.5 273.333,601.5 274,599.5C 282.469,591.37 289.802,582.37 296,572.5C 296.49,571.207 296.657,569.873 296.5,568.5C 295.325,568.281 294.325,568.614 293.5,569.5C 287.335,579.309 279.669,587.809 270.5,595C 263.17,596.666 260.003,593.833 261,586.5C 262.167,585.333 263.333,584.167 264.5,583C 274.954,579.278 284.287,573.778 292.5,566.5C 293.386,565.675 293.719,564.675 293.5,563.5C 283.992,569.086 273.992,573.919 263.5,578C 256.17,579.666 253.003,576.833 254,569.5C 254.5,567.667 255.667,566.5 257.5,566C 287.045,560.954 302.712,543.454 304.5,513.5 Z"/></g>
<g><path style="opacity:1" fill="#efda07" d="M 511.5,513.5 C 512.822,513.33 513.989,513.663 515,514.5C 517.613,543.441 533.113,560.607 561.5,566C 567.064,569.073 567.73,572.906 563.5,577.5C 560.897,578.562 558.23,578.728 555.5,578C 545.18,574.173 535.513,569.34 526.5,563.5C 526.351,564.552 526.517,565.552 527,566.5C 535.627,574.236 545.461,580.069 556.5,584C 561.226,589.929 559.892,593.762 552.5,595.5C 550.701,595.423 549.034,594.923 547.5,594C 539.548,587.054 532.714,579.221 527,570.5C 525.89,568.963 524.39,568.297 522.5,568.5C 527.796,579.988 535.296,589.988 545,598.5C 546.261,608.033 542.594,610.699 534,606.5C 528.475,595.082 523.641,583.416 519.5,571.5C 518.28,571.887 517.613,572.72 517.5,574C 520.374,585.954 524.041,597.621 528.5,609C 527.134,616.766 523.301,618.266 517,613.5C 515.537,600.265 515.037,586.932 515.5,573.5C 514.167,573.5 512.833,573.5 511.5,573.5C 511.238,586.507 510.738,599.507 510,612.5C 504.091,618.481 499.924,617.481 497.5,609.5C 501.293,598.955 504.793,588.288 508,577.5C 508.82,575.272 508.487,573.272 507,571.5C 506.333,572.167 505.667,572.833 505,573.5C 502.058,585.05 497.725,596.05 492,606.5C 486.342,610.763 482.509,609.43 480.5,602.5C 480.577,600.701 481.077,599.034 482,597.5C 491.376,589.316 498.542,579.65 503.5,568.5C 502.178,568.33 501.011,568.663 500,569.5C 493.587,578.916 486.087,587.416 477.5,595C 468.19,596.033 465.524,592.366 469.5,584C 480.617,579.947 490.617,574.113 499.5,566.5C 500.386,565.675 500.719,564.675 500.5,563.5C 499.127,563.343 497.793,563.51 496.5,564C 487.692,571.237 477.692,576.07 466.5,578.5C 460.905,577.422 459.072,574.088 461,568.5C 464.011,566.059 467.511,564.893 471.5,565C 496.566,557.085 509.899,539.919 511.5,513.5 Z"/></g>
<g><path style="opacity:1" fill="#efda07" d="M 281.5,521.5 C 287.5,521.5 293.5,521.5 299.5,521.5C 298.755,530.99 295.255,539.323 289,546.5C 289.087,537.85 286.254,530.35 280.5,524C 280.743,523.098 281.077,522.265 281.5,521.5 Z"/></g>
<g><path style="opacity:1" fill="#efda07" d="M 312.5,521.5 C 318.758,521.19 324.924,521.524 331,522.5C 331.927,525.596 330.927,527.93 328,529.5C 325.168,534.791 323.835,540.457 324,546.5C 317.767,539.315 313.934,530.981 312.5,521.5 Z"/></g>
<g><path style="opacity:1" fill="#f1dc07" d="M 496.5,545.5 C 495.833,542.833 495.167,540.167 494.5,537.5C 493.649,532.799 491.482,528.799 488,525.5C 487.333,524.5 487.333,523.5 488,522.5C 494.076,521.524 500.242,521.19 506.5,521.5C 505.363,530.438 502.029,538.438 496.5,545.5 Z"/></g>
<g><path style="opacity:1" fill="#edd807" d="M 519.5,521.5 C 525.758,521.19 531.924,521.524 538,522.5C 538.667,523.5 538.667,524.5 538,525.5C 532.306,531.717 529.973,539.05 531,547.5C 524.719,539.936 520.885,531.269 519.5,521.5 Z"/></g>
<g><path style="opacity:1" fill="#fdfdfd" d="M 211.5,523.5 C 216.167,523.5 220.833,523.5 225.5,523.5C 229.003,569.676 237.67,614.843 251.5,659C 226.344,667.163 201.178,675.33 176,683.5C 175.228,683.355 174.561,683.022 174,682.5C 159.026,632.797 148.859,582.131 143.5,530.5C 166.387,528.945 189.054,526.612 211.5,523.5 Z"/></g>
<g><path style="opacity:1" fill="#1d8941" d="M 631.5,527.5 C 640.401,526.835 648.234,529.835 655,536.5C 661.707,530.379 669.54,527.213 678.5,527C 676.04,528.458 673.873,530.291 672,532.5C 670.919,537.476 669.919,542.476 669,547.5C 668,549.167 667,550.833 666,552.5C 662.864,554.32 659.864,556.32 657,558.5C 656.689,561.432 656.522,564.098 656.5,566.5C 654.17,564.425 653.003,561.758 653,558.5C 648.75,556.254 645.084,553.254 642,549.5C 640.39,543.893 639.057,538.226 638,532.5C 636.841,529.507 634.675,527.84 631.5,527.5 Z"/></g>
<g><path style="opacity:1" fill="#1c8a41" d="M 898.5,527.5 C 907.241,527.092 914.908,530.092 921.5,536.5C 928.347,530.237 936.347,527.07 945.5,527C 941.781,528.263 939.281,530.763 938,534.5C 937.679,540.111 936.346,545.445 934,550.5C 930.849,553.407 927.516,556.074 924,558.5C 921.012,569.023 919.679,569.023 920,558.5C 916.567,556.349 913.234,554.015 910,551.5C 907.367,545.781 905.7,539.781 905,533.5C 903.594,530.591 901.428,528.591 898.5,527.5 Z"/></g>
<g><path style="opacity:1" fill="#746a03" d="M 494.5,537.5 C 495.167,540.167 495.833,542.833 496.5,545.5C 496.217,546.289 495.717,546.956 495,547.5C 494.502,544.183 494.335,540.85 494.5,537.5 Z"/></g>
<g><path style="opacity:1" fill="#0f0c03" d="M 782.5,552.5 C 787.74,551.538 791.907,553.205 795,557.5C 799.516,565.232 802.016,573.566 802.5,582.5C 805.85,582.335 809.183,582.502 812.5,583C 813.76,584.814 813.76,586.647 812.5,588.5C 809.906,589.592 807.739,591.259 806,593.5C 805.597,600.185 803.931,606.518 801,612.5C 798.278,615.444 795.111,617.777 791.5,619.5C 791.189,624.82 788.522,628.153 783.5,629.5C 781.391,629.225 780.058,628.058 779.5,626C 780.791,623.95 781.291,621.783 781,619.5C 774.238,617.072 769.904,612.405 768,605.5C 767.147,601.531 766.481,597.531 766,593.5C 763.258,591.085 760.758,588.585 758.5,586C 758.585,584.893 758.919,583.893 759.5,583C 763.152,582.501 766.818,582.335 770.5,582.5C 769.639,570.39 773.639,560.39 782.5,552.5 Z"/></g>
<g><path style="opacity:1" fill="#d82040" d="M 783.5,555.5 C 787.273,554.822 790.106,556.156 792,559.5C 796.842,567.199 798.676,575.533 797.5,584.5C 793.303,585.878 789.47,587.878 786,590.5C 782.53,587.878 778.697,585.878 774.5,584.5C 774.167,583 773.833,581.5 773.5,580C 774.346,570.741 777.68,562.574 783.5,555.5 Z"/></g>
<g><path style="opacity:1" fill="#fdfdfd" d="M 408.5,556.5 C 470.417,616.916 531.917,677.916 593,739.5C 593.5,767.498 593.667,795.498 593.5,823.5C 585.833,823.5 578.167,823.5 570.5,823.5C 570.5,805.5 570.5,787.5 570.5,769.5C 552.5,769.5 534.5,769.5 516.5,769.5C 516.5,751.833 516.5,734.167 516.5,716.5C 495.164,716.667 473.831,716.5 452.5,716C 438.46,691.418 424.293,666.918 410,642.5C 396.167,666.833 382.333,691.167 368.5,715.5C 346.844,716.5 325.177,716.833 303.5,716.5C 303.667,727.838 303.5,739.172 303,750.5C 292.028,730.872 283.028,710.539 276,689.5C 320.368,645.299 364.535,600.965 408.5,556.5 Z"/></g>
<g><path style="opacity:1" fill="#1d8941" d="M 762.5,586.5 C 771.249,586.433 779.083,589.433 786,595.5C 792.821,589.668 800.654,586.501 809.5,586C 805.942,587.892 803.442,590.725 802,594.5C 802.758,605.002 798.425,612.335 789,616.5C 788.237,619.95 786.737,622.95 784.5,625.5C 784.478,623.098 784.311,620.432 784,617.5C 780.492,615.413 777.158,613.08 774,610.5C 771.416,605.496 770.082,600.163 770,594.5C 768.676,590.677 766.176,588.011 762.5,586.5 Z"/></g>
<g><path style="opacity:1" fill="#1c401c" d="M 712.5,657.5 C 730.11,656.659 747.11,659.492 763.5,666C 780.261,672.876 795.928,681.543 810.5,692C 824.109,699.886 838.442,701.552 853.5,697C 855.492,696.426 856.992,695.259 858,693.5C 871.541,717.185 864.875,728.852 838,728.5C 825.934,727.942 814.434,725.108 803.5,720C 790.167,711.667 776.833,703.333 763.5,695C 752.418,689.084 740.751,684.75 728.5,682C 716.504,679.405 705.837,681.905 696.5,689.5C 690.705,684.876 686.705,679.043 684.5,672C 692.046,663.727 701.38,658.893 712.5,657.5 Z"/></g>
<g><path style="opacity:1" fill="#1d401d" d="M 824.5,657.5 C 862.653,654.491 883.653,671.991 887.5,710C 886.377,730.595 876.377,744.928 857.5,753C 845.034,757.809 832.367,758.476 819.5,755C 809.112,750.981 798.445,747.981 787.5,746C 776.94,744.947 766.606,745.614 756.5,748C 766.554,741.192 777.721,738.026 790,738.5C 800.944,739.185 811.777,740.685 822.5,743C 836.705,744.597 849.205,740.764 860,731.5C 870.447,715.333 868.947,700.166 855.5,686C 845.27,681.17 834.604,680.17 823.5,683C 818.735,684.199 814.069,685.699 809.5,687.5C 800.5,682 791.5,676.5 782.5,671C 795.891,664.325 809.891,659.825 824.5,657.5 Z"/></g>
<g><path style="opacity:1" fill="#fdfdfd" d="M 946.5,659.5 C 972.019,667.895 997.686,675.895 1023.5,683.5C 1006.51,733.47 984.509,781.137 957.5,826.5C 934.833,812.833 912.167,799.167 889.5,785.5C 913.905,745.953 932.905,703.953 946.5,659.5 Z"/></g>
<g><path style="opacity:1" fill="#a19304" d="M 909.5,664.5 C 909.5,666.167 909.5,667.833 909.5,669.5C 916.5,669.5 923.5,669.5 930.5,669.5C 930.5,669.833 930.5,670.167 930.5,670.5C 923.167,670.5 915.833,670.5 908.5,670.5C 908.205,668.265 908.539,666.265 909.5,664.5 Z"/></g>
<g><path style="opacity:1" fill="#62ba57" d="M 928.5,675.5 C 916.074,710.352 900.407,743.685 881.5,775.5C 789.502,776.5 697.502,776.833 605.5,776.5C 605.5,742.5 605.5,708.5 605.5,674.5C 619.837,674.333 634.171,674.5 648.5,675C 651.576,687.654 657.409,698.82 666,708.5C 665.977,721.089 669.643,732.422 677,742.5C 688.677,756.091 703.177,765.257 720.5,770C 749.209,774.107 777.209,771.107 804.5,761C 805.833,759.333 805.833,757.667 804.5,756C 785.18,756.492 765.846,756.492 746.5,756C 726.474,753.491 710.141,744.491 697.5,729C 711.84,732.66 726.173,732.327 740.5,728C 754.101,723.451 766.601,716.951 778,708.5C 783.737,711.619 789.237,715.119 794.5,719C 813.832,730.45 834.498,734.117 856.5,730C 848.289,736.85 838.789,740.35 828,740.5C 818.233,738.633 808.4,737.133 798.5,736C 783.202,733.66 768.869,736.327 755.5,744C 753.443,745.719 751.776,747.719 750.5,750C 751.447,753.072 753.447,754.072 756.5,753C 759.215,751.092 762.215,749.759 765.5,749C 775.94,748.093 786.274,748.76 796.5,751C 806.324,754.578 816.324,757.578 826.5,760C 833.882,760.747 841.215,760.414 848.5,759C 875.454,752.38 889.621,735.213 891,707.5C 899.237,698.321 904.737,687.655 907.5,675.5C 914.656,674.181 921.656,674.181 928.5,675.5 Z"/></g>
<g><path style="opacity:1" fill="#5fb555" d="M 710.5,684.5 C 721.755,683.283 732.422,685.116 742.5,690C 732.273,696.072 721.273,698.072 709.5,696C 706.221,695.027 703.221,693.527 700.5,691.5C 703.32,688.333 706.653,685.999 710.5,684.5 Z"/></g>
<g><path style="opacity:1" fill="#5fb655" d="M 828.5,684.5 C 836.863,683.624 844.863,684.79 852.5,688C 853.687,689.019 854.687,690.186 855.5,691.5C 852.829,693.459 849.829,694.959 846.5,696C 834.807,697.728 823.807,695.728 813.5,690C 818.4,687.647 823.4,685.814 828.5,684.5 Z"/></g>
<g><path style="opacity:1" fill="#fefefe" d="M 543.5,849.5 C 559.658,850.496 575.991,850.83 592.5,850.5C 592.5,913.5 592.5,976.5 592.5,1039.5C 520.333,1003.63 457.5,955.292 404,894.5C 377.24,864.297 352.906,832.297 331,798.5C 330.5,780.17 330.333,761.836 330.5,743.5C 348.17,743.667 365.836,743.5 383.5,743C 392.46,727.581 401.293,712.081 410,696.5C 419.086,711.67 427.919,727.003 436.5,742.5C 454.488,743.5 472.488,743.833 490.5,743.5C 490.5,761.167 490.5,778.833 490.5,796.5C 508.167,796.5 525.833,796.5 543.5,796.5C 543.5,814.167 543.5,831.833 543.5,849.5 Z"/></g>
<g><path style="opacity:1" fill="#1c401d" d="M 669.5,712.5 C 676.338,718.424 684.005,723.091 692.5,726.5C 703.817,743.959 719.817,754.459 740.5,758C 746.13,758.966 751.796,759.633 757.5,760C 772.193,760.164 786.859,759.831 801.5,759C 777.461,767.422 752.794,770.422 727.5,768C 709.786,764.396 694.62,756.229 682,743.5C 674.523,734.541 670.357,724.207 669.5,712.5 Z"/></g>
<g><path style="opacity:1" fill="#62bc58" d="M 867.5,797.5 C 780.167,797.5 692.833,797.5 605.5,797.5C 605.5,792.167 605.5,786.833 605.5,781.5C 696.167,781.333 786.834,781.5 877.5,782C 874.516,787.487 871.183,792.653 867.5,797.5 Z"/></g>
<g><path style="opacity:1" fill="#fdfdfd" d="M 307.5,786.5 C 308.496,786.414 309.329,786.748 310,787.5C 334.219,827.224 361.719,864.557 392.5,899.5C 372.137,917.699 351.637,935.699 331,953.5C 296.57,914.509 266.403,872.342 240.5,827C 262.897,813.474 285.23,799.974 307.5,786.5 Z"/></g>
<g><path style="opacity:1" fill="#213e1d" d="M 605.5,797.5 C 692.833,797.5 780.167,797.5 867.5,797.5C 867.631,798.239 867.464,798.906 867,799.5C 779.736,798.835 692.569,798.168 605.5,797.5 Z"/></g>
<g><path style="opacity:1" fill="#f7e107" d="M 605.5,802.5 C 691.834,802.333 778.167,802.5 864.5,803C 814.122,880.046 751.455,945.38 676.5,999C 653.984,1013.76 630.651,1027.26 606.5,1039.5C 605.5,960.503 605.167,881.503 605.5,802.5 Z"/></g>
<g><path style="opacity:1" fill="#0f0c03" d="M 698.5,852.5 C 707.794,851.939 713.627,856.272 716,865.5C 717.89,871.015 718.724,876.681 718.5,882.5C 722.182,882.335 725.848,882.501 729.5,883C 730.554,884.388 730.72,885.888 730,887.5C 727.213,889.047 724.88,891.047 723,893.5C 722.818,902.103 719.985,909.603 714.5,916C 712.336,916.914 710.336,918.081 708.5,919.5C 707.568,922.53 706.235,925.363 704.5,928C 701.784,930.151 699.284,929.984 697,927.5C 696.871,924.696 697.204,922.03 698,919.5C 691.238,917.072 686.904,912.405 685,905.5C 684.055,901.886 683.388,898.219 683,894.5C 680.735,891.326 678.235,888.492 675.5,886C 675.585,884.893 675.919,883.893 676.5,883C 679.882,882.824 683.215,882.324 686.5,881.5C 687.036,870.308 691.036,860.641 698.5,852.5 Z"/></g>
<g><path style="opacity:1" fill="#d82040" d="M 700.5,855.5 C 704.273,854.822 707.106,856.156 709,859.5C 713.005,867.36 715.172,875.694 715.5,884.5C 710.878,885.561 706.711,887.561 703,890.5C 699.53,887.878 695.697,885.878 691.5,884.5C 689.878,873.367 692.878,863.7 700.5,855.5 Z"/></g>
<g><path style="opacity:1" fill="#1c8a41" d="M 679.5,886.5 C 688.084,886.26 695.751,889.26 702.5,895.5C 709.42,889.474 717.42,886.307 726.5,886C 722.781,887.263 720.281,889.763 719,893.5C 718.938,900.258 717.105,906.425 713.5,912C 710.416,913.469 707.583,915.302 705,917.5C 704.685,920.636 703.518,923.303 701.5,925.5C 701.478,923.098 701.311,920.432 701,917.5C 694.238,915.072 689.904,910.405 688,903.5C 687.74,899.75 687.073,896.084 686,892.5C 684.594,889.591 682.428,887.591 679.5,886.5 Z"/></g>
<g><path style="opacity:0.791" fill="#9c9c9c" d="M 543.5,849.5 C 560.167,849.5 576.833,849.5 593.5,849.5C 593.832,913.002 593.499,976.336 592.5,1039.5C 592.5,976.5 592.5,913.5 592.5,850.5C 575.991,850.83 559.658,850.496 543.5,849.5 Z"/></g>
<g><path style="opacity:1" fill="#fefefe" d="M 805.5,899.5 C 826.138,917.47 846.471,935.803 866.5,954.5C 832.168,994.344 793.668,1029.34 751,1059.5C 734.795,1038.25 718.962,1016.75 703.5,995C 740.494,966.51 774.494,934.677 805.5,899.5 Z"/></g>
<g><path style="opacity:1" fill="#fdfdfd" d="M 494.5,995.5 C 495.552,995.351 496.552,995.517 497.5,996C 529.17,1019.67 563.17,1039.51 599.5,1055.5C 599.667,1086.17 599.5,1116.84 599,1147.5C 556.786,1126.32 515.62,1103.48 475.5,1079C 465.992,1072.75 456.659,1066.25 447.5,1059.5C 463.191,1038.15 478.858,1016.81 494.5,995.5 Z"/></g>
</svg>
